<svg xmlns="http://www.w3.org/2000/svg" viewBox="0 0 646.56 199.44"><defs><style>.cls-1{fill:#a50707;}</style></defs><title>Asset 1</title><g id="Layer_2" data-name="Layer 2"><g id="Layer_1-2" data-name="Layer 1"><path class="cls-1" d="M76.32,351c0-42.48,18-118.08,103-118.08,52.56,0,81.36,5,126.72,5,38.16,0,72-15.12,75.6-86.4h24.48c5,70.56,30.24,86.4,76.32,86.4,46.8,0,86.4-5,132.48-5,85.68,0,107.28,74.16,108,118.08H702c-10.08-55.44-41-66.24-78.48-66.24-46.08,0-84.24,5.76-128.88,5.76-52.56,0-89.28-37.44-99.36-81.36H392.4c-9.36,42.48-46.8,81.36-98.64,81.36-41.76,0-73.44-5.76-117.36-5.76-38.88,0-69.12,12.24-79.2,66.24Z" transform="translate(-76.32 -151.55)"/></g></g></svg>