<svg xmlns="http://www.w3.org/2000/svg" xmlns:xlink="http://www.w3.org/1999/xlink" viewBox="0 0 898.63 1363.8"><defs><style>.cls-1,.cls-14,.cls-15,.cls-17{fill:none;}.cls-2{clip-path:url(#clip-path);}.cls-3{clip-path:url(#clip-path-2);}.cls-4{clip-path:url(#clip-path-3);}.cls-5{clip-path:url(#clip-path-4);}.cls-6{clip-path:url(#clip-path-5);}.cls-7{clip-path:url(#clip-path-6);}.cls-8{clip-path:url(#clip-path-7);}.cls-9{clip-path:url(#clip-path-8);}.cls-10{clip-path:url(#clip-path-9);}.cls-11{clip-path:url(#clip-path-10);}.cls-12{clip-path:url(#clip-path-11);}.cls-13{clip-path:url(#clip-path-12);}.cls-14,.cls-15,.cls-17{stroke:#000;}.cls-14{stroke-width:3px;}.cls-16{clip-path:url(#clip-path-13);}.cls-17{stroke-width:5px;}.cls-18{clip-path:url(#clip-path-14);}</style><clipPath id="clip-path" transform="translate(-44.86 -44.86)"><rect class="cls-1" x="455.1" y="137.58" width="44.36" height="44.36"/></clipPath><clipPath id="clip-path-2" transform="translate(-44.86 -44.86)"><rect class="cls-1" x="137.58" y="182.94" width="44.36" height="44.36"/></clipPath><clipPath id="clip-path-3" transform="translate(-44.86 -44.86)"><rect class="cls-1" x="319.02" y="364.38" width="44.36" height="44.36"/></clipPath><clipPath id="clip-path-4" transform="translate(-44.86 -44.86)"><rect class="cls-1" x="409.74" y="364.38" width="44.36" height="44.36"/></clipPath><clipPath id="clip-path-5" transform="translate(-44.86 -44.86)"><rect class="cls-1" x="636.54" y="591.18" width="44.36" height="44.36"/></clipPath><clipPath id="clip-path-6" transform="translate(-44.86 -44.86)"><rect class="cls-1" x="273.66" y="636.54" width="44.36" height="44.36"/></clipPath><clipPath id="clip-path-7" transform="translate(-44.86 -44.86)"><rect class="cls-1" x="228.3" y="863.34" width="44.36" height="44.36"/></clipPath><clipPath id="clip-path-8" transform="translate(-44.86 -44.86)"><rect class="cls-1" x="228.3" y="908.7" width="44.36" height="44.36"/></clipPath><clipPath id="clip-path-9" transform="translate(-44.86 -44.86)"><rect class="cls-1" x="409.74" y="1135.5" width="44.36" height="44.36"/></clipPath><clipPath id="clip-path-10" transform="translate(-44.86 -44.86)"><rect class="cls-1" x="364.38" y="1180.86" width="44.36" height="44.36"/></clipPath><clipPath id="clip-path-11" transform="translate(-44.86 -44.86)"><rect class="cls-1" x="182.94" y="1271.58" width="44.36" height="44.36"/></clipPath><clipPath id="clip-path-12" transform="translate(-44.86 -44.86)"><rect class="cls-1" width="911" height="1410"/></clipPath><clipPath id="clip-path-13" transform="translate(-44.86 -44.86)"><rect class="cls-1" x="660.83" y="272.16" width="283.66" height="186.32"/></clipPath><clipPath id="clip-path-14" transform="translate(-44.86 -44.86)"><rect class="cls-1" x="662.93" y="278.66" width="279.46" height="173.32"/></clipPath></defs><title>floorplan</title><g id="Layer_2" data-name="Layer 2"><g id="Layer_1-2" data-name="Layer 1"><g class="cls-2"><path d="M458.72,150.6v-.79h1.59v-6.28l-1.59.4v-.82l2.66-.66v7.36H463v.79Z" transform="translate(-44.86 -44.86)"/></g><g class="cls-3"><path d="M141,195.6v-.93a7.27,7.27,0,0,1,1.87-2.35l.61-.54a3,3,0,0,0,1.17-2.1,1.36,1.36,0,0,0-.4-1.05,1.5,1.5,0,0,0-1.1-.38,4.07,4.07,0,0,0-1.95.64V188a5,5,0,0,1,2.1-.5,2.61,2.61,0,0,1,1.8.6,2,2,0,0,1,.67,1.6,2.34,2.34,0,0,1-.34,1.27,6.44,6.44,0,0,1-1.27,1.34l-.41.35a4,4,0,0,0-1.47,2.06h3.46v.93Z" transform="translate(-44.86 -44.86)"/></g><g class="cls-4"><path d="M322.19,376.54v-1A5.25,5.25,0,0,0,324,376a1.69,1.69,0,0,0,1.23-.44,1.5,1.5,0,0,0,.48-1.15c0-1.11-.78-1.67-2.35-1.67h-.42V372h.37c1.47,0,2.21-.52,2.21-1.55,0-.82-.49-1.22-1.45-1.22a4.25,4.25,0,0,0-1.75.44v-.92a5.68,5.68,0,0,1,1.82-.32c1.63,0,2.44.62,2.44,1.84a2.09,2.09,0,0,1-1.66,2c1.28.3,1.92,1,1.92,2.11a2.18,2.18,0,0,1-.74,1.76,3,3,0,0,1-2,.64A8.8,8.8,0,0,1,322.19,376.54Z" transform="translate(-44.86 -44.86)"/></g><g class="cls-5"><path d="M416.21,376.6v-2.25h-3.58v-.8l3.58-4.9h1v4.83h1.06v.87h-1.06v2.25Zm-2.54-3.12h2.61V370Z" transform="translate(-44.86 -44.86)"/></g><g class="cls-6"><path d="M639.41,603.63v-.94a4,4,0,0,0,1.5.31,1.61,1.61,0,0,0,1.23-.46,1.74,1.74,0,0,0,.45-1.27c0-1.19-.82-1.79-2.46-1.79a4.08,4.08,0,0,0-.59,0v-3.87h4v.92h-3.09v2.1a3.66,3.66,0,0,1,2.39.7,2.39,2.39,0,0,1,.86,2,2.25,2.25,0,0,1-.78,1.82,3.25,3.25,0,0,1-2.17.66A6.54,6.54,0,0,1,639.41,603.63Z" transform="translate(-44.86 -44.86)"/></g><g class="cls-7"><path d="M278,645.48a2.31,2.31,0,0,1,1.91-1,2.25,2.25,0,0,1,1.7.69,2.42,2.42,0,0,1,.67,1.77,2.87,2.87,0,0,1-.75,2,2.46,2.46,0,0,1-1.89.8,2.36,2.36,0,0,1-2.05-1.06,5,5,0,0,1-.74-2.94,5.26,5.26,0,0,1,.85-3.21,2.81,2.81,0,0,1,2.4-1.14,6.78,6.78,0,0,1,1.77.3v.92a5.58,5.58,0,0,0-1.84-.43C278.64,642.24,278,643.32,278,645.48Zm3.21,1.71a2.21,2.21,0,0,0-.4-1.41,1.35,1.35,0,0,0-1.13-.52,1.62,1.62,0,0,0-1.15.45,1.44,1.44,0,0,0-.49,1.09,2.62,2.62,0,0,0,.46,1.6,1.47,1.47,0,0,0,1.22.6,1.34,1.34,0,0,0,1.09-.49A2,2,0,0,0,281.17,647.19Z" transform="translate(-44.86 -44.86)"/></g><g class="cls-8"><path d="M231.72,875.6a7.75,7.75,0,0,1,.45-1.61,14.07,14.07,0,0,1,1-1.85l2.17-3.5h-4.1v-1h5.11v1q-3.06,4.51-3.43,7Z" transform="translate(-44.86 -44.86)"/></g><g class="cls-9"><path d="M232.6,917.27a2.25,2.25,0,0,1-1.17-1.79,1.86,1.86,0,0,1,.67-1.47,2.58,2.58,0,0,1,1.72-.56,2.55,2.55,0,0,1,1.59.47,1.51,1.51,0,0,1,.61,1.25,2.61,2.61,0,0,1-1.48,2.1c1.2.59,1.8,1.35,1.8,2.27a2,2,0,0,1-.76,1.63,2.92,2.92,0,0,1-1.94.63,3,3,0,0,1-1.9-.59,1.94,1.94,0,0,1-.72-1.57A2.75,2.75,0,0,1,232.6,917.27Zm.58.43a3.68,3.68,0,0,0-.87.86,1.74,1.74,0,0,0-.23.92,1.47,1.47,0,0,0,.44,1.1,1.6,1.6,0,0,0,1.16.42,1.72,1.72,0,0,0,1.13-.36,1.23,1.23,0,0,0,.17-1.71,4.24,4.24,0,0,0-1-.78Zm.77-.76a2,2,0,0,0,1.11-1.63.92.92,0,0,0-.37-.77,1.78,1.78,0,0,0-1.93,0,.92.92,0,0,0-.36.75,1.15,1.15,0,0,0,.33.8A5.58,5.58,0,0,0,234,916.94Z" transform="translate(-44.86 -44.86)"/></g><g class="cls-10"><path d="M413.32,1148.55v-.9a5.29,5.29,0,0,0,1.72.35,1.77,1.77,0,0,0,1.55-.84,4.22,4.22,0,0,0,.55-2.34,2.33,2.33,0,0,1-1.83,1,2.25,2.25,0,0,1-1.7-.74,2.5,2.5,0,0,1-.7-1.8,2.86,2.86,0,0,1,.74-2,2.44,2.44,0,0,1,1.87-.81,2.4,2.4,0,0,1,2.05,1,4.85,4.85,0,0,1,.74,2.85,5.25,5.25,0,0,1-.91,3.25,2.92,2.92,0,0,1-2.46,1.21A6.74,6.74,0,0,1,413.32,1148.55Zm.65-5.48a2.27,2.27,0,0,0,.41,1.45,1.33,1.33,0,0,0,1.12.54,1.63,1.63,0,0,0,1.15-.46,1.46,1.46,0,0,0,.47-1.1,2.74,2.74,0,0,0-.45-1.64,1.45,1.45,0,0,0-1.21-.62,1.34,1.34,0,0,0-1.09.49A2.06,2.06,0,0,0,414,1143.07Z" transform="translate(-44.86 -44.86)"/></g><g class="cls-11"><path d="M367.72,1193.6v-.79h1.59v-6.28l-1.59.4v-.82l2.66-.66v7.36H372v.79Z" transform="translate(-44.86 -44.86)"/><path d="M376.47,1193.8a2.3,2.3,0,0,1-2-1.16,5.47,5.47,0,0,1-.76-3,5.34,5.34,0,0,1,.77-3,2.34,2.34,0,0,1,4,0,5.3,5.3,0,0,1,.77,3,5.42,5.42,0,0,1-.77,3.06A2.35,2.35,0,0,1,376.47,1193.8Zm0-.8c1.12,0,1.68-1.13,1.68-3.41s-.56-3.34-1.66-3.34-1.66,1.12-1.66,3.37S375.4,1193,376.49,1193Z" transform="translate(-44.86 -44.86)"/></g><g class="cls-12"><path d="M186.72,1284.6v-.79h1.59v-6.28l-1.59.4v-.82l2.66-.66v7.36H191v.79Z" transform="translate(-44.86 -44.86)"/><path d="M193.68,1284.6v-.79h1.59v-6.28l-1.59.4v-.82l2.65-.66v7.36h1.59v.79Z" transform="translate(-44.86 -44.86)"/></g><g class="cls-13"><line class="cls-14" x1="1.5" y1="45.36" x2="1.5" y2="228.3"/><line class="cls-14" x1="1.5" y1="228.3" x2="1.5" y2="275.16"/><line class="cls-15" x1="46.86" y1="45.36" x2="46.86" y2="92.22"/><line class="cls-15" x1="46.86" y1="92.22" x2="46.86" y2="228.3"/><line class="cls-15" x1="46.86" y1="228.3" x2="46.86" y2="275.16"/><line class="cls-14" x1="46.86" y1="1134" x2="46.86" y2="1318.44"/><line class="cls-15" x1="92.22" y1="45.36" x2="92.22" y2="92.22"/><line class="cls-15" x1="92.22" y1="92.22" x2="92.22" y2="228.3"/><line class="cls-15" x1="92.22" y1="228.3" x2="92.22" y2="275.16"/><line class="cls-14" x1="92.22" y1="680.4" x2="92.22" y2="1137"/><line class="cls-15" x1="92.22" y1="1137" x2="92.22" y2="1318.44"/><line class="cls-15" x1="137.58" y1="45.36" x2="137.58" y2="92.22"/><line class="cls-15" x1="137.58" y1="92.22" x2="137.58" y2="228.3"/><line class="cls-15" x1="137.58" y1="228.3" x2="137.58" y2="275.16"/><line class="cls-14" x1="137.58" y1="498.96" x2="137.58" y2="683.4"/><line class="cls-15" x1="137.58" y1="683.4" x2="137.58" y2="1315.44"/><line class="cls-14" x1="137.58" y1="1315.44" x2="137.58" y2="1363.8"/><line class="cls-15" x1="182.94" y1="45.36" x2="182.94" y2="92.22"/><line class="cls-15" x1="182.94" y1="92.22" x2="182.94" y2="228.3"/><line class="cls-15" x1="182.94" y1="228.3" x2="182.94" y2="272.16"/><line class="cls-14" x1="182.94" y1="272.16" x2="182.94" y2="456.6"/><line class="cls-15" x1="182.94" y1="498.96" x2="182.94" y2="1316.94"/><line class="cls-15" x1="182.94" y1="1316.94" x2="182.94" y2="1363.8"/><line class="cls-15" x1="228.3" y1="45.36" x2="228.3" y2="92.22"/><line class="cls-15" x1="228.3" y1="92.22" x2="228.3" y2="456.6"/><line class="cls-15" x1="228.3" y1="498.96" x2="228.3" y2="1363.8"/><line class="cls-15" x1="273.66" y1="45.36" x2="273.66" y2="92.22"/><line class="cls-15" x1="273.66" y1="92.22" x2="273.66" y2="453.6"/><line class="cls-14" x1="273.66" y1="453.6" x2="273.66" y2="501.96"/><line class="cls-15" x1="273.66" y1="501.96" x2="273.66" y2="1363.8"/><line class="cls-15" x1="319.02" y1="45.36" x2="319.02" y2="92.22"/><line class="cls-15" x1="319.02" y1="92.22" x2="319.02" y2="1363.8"/><line class="cls-14" x1="364.38" x2="364.38" y2="48.36"/><line class="cls-15" x1="364.38" y1="48.36" x2="364.38" y2="92.22"/><line class="cls-15" x1="364.38" y1="92.22" x2="364.38" y2="1363.8"/><line class="cls-15" x1="409.74" x2="409.74" y2="92.22"/><line class="cls-15" x1="409.74" y1="92.22" x2="409.74" y2="1363.8"/><line class="cls-15" x1="455.1" x2="455.1" y2="92.22"/><line class="cls-15" x1="455.1" y1="92.22" x2="455.1" y2="1044.78"/><line class="cls-15" x1="455.1" y1="1044.78" x2="455.1" y2="1090.14"/><line class="cls-15" x1="455.1" y1="1090.14" x2="455.1" y2="1315.44"/><line class="cls-14" x1="455.1" y1="1315.44" x2="455.1" y2="1363.8"/><line class="cls-15" x1="500.46" x2="500.46" y2="92.22"/><line class="cls-15" x1="500.46" y1="92.22" x2="500.46" y2="1043.28"/><line class="cls-14" x1="500.46" y1="1043.28" x2="500.46" y2="1091.64"/><line class="cls-15" x1="500.46" y1="1091.64" x2="500.46" y2="1318.44"/><line class="cls-15" x1="545.82" x2="545.82" y2="92.22"/><line class="cls-15" x1="545.82" y1="92.22" x2="545.82" y2="1046.28"/><line class="cls-15" x1="545.82" y1="1088.64" x2="545.82" y2="1318.44"/><line class="cls-14" x1="591.18" x2="591.18" y2="364.38"/><line class="cls-14" x1="591.18" y1="364.38" x2="591.18" y2="456.6"/><line class="cls-15" x1="591.18" y1="456.6" x2="591.18" y2="500.46"/><line class="cls-15" x1="591.18" y1="500.46" x2="591.18" y2="1046.28"/><line class="cls-15" x1="591.18" y1="1088.64" x2="591.18" y2="1318.44"/><line class="cls-15" x1="636.54" y1="453.6" x2="636.54" y2="500.46"/><line class="cls-15" x1="636.54" y1="500.46" x2="636.54" y2="1046.28"/><line class="cls-15" x1="636.54" y1="1088.64" x2="636.54" y2="1318.44"/><line class="cls-15" x1="681.9" y1="453.6" x2="681.9" y2="500.46"/><line class="cls-15" x1="681.9" y1="500.46" x2="681.9" y2="1046.28"/><line class="cls-15" x1="681.9" y1="1088.64" x2="681.9" y2="1318.44"/><line class="cls-15" x1="727.26" y1="453.6" x2="727.26" y2="500.46"/><line class="cls-15" x1="727.26" y1="500.46" x2="727.26" y2="725.76"/><line class="cls-14" x1="727.26" y1="725.76" x2="727.26" y2="954.06"/><line class="cls-14" x1="727.26" y1="954.06" x2="727.26" y2="1046.28"/><line class="cls-15" x1="727.26" y1="1088.64" x2="727.26" y2="1318.44"/><line class="cls-15" x1="772.62" y1="453.6" x2="772.62" y2="500.46"/><line class="cls-15" x1="772.62" y1="500.46" x2="772.62" y2="728.76"/><line class="cls-15" x1="772.62" y1="1088.64" x2="772.62" y2="1318.44"/><line class="cls-15" x1="817.98" y1="453.6" x2="817.98" y2="500.46"/><line class="cls-15" x1="817.98" y1="500.46" x2="817.98" y2="728.76"/><line class="cls-15" x1="817.98" y1="1088.64" x2="817.98" y2="1318.44"/><line class="cls-14" x1="362.88" y1="1.5" x2="592.68" y2="1.5"/><line class="cls-14" y1="46.86" x2="365.88" y2="46.86"/><line class="cls-15" x1="365.88" y1="46.86" x2="592.68" y2="46.86"/><line class="cls-15" y1="92.22" x2="592.68" y2="92.22"/><line class="cls-15" y1="137.58" x2="92.22" y2="137.58"/><line class="cls-15" x1="92.22" y1="137.58" x2="592.68" y2="137.58"/><line class="cls-15" y1="182.94" x2="92.22" y2="182.94"/><line class="cls-15" x1="92.22" y1="182.94" x2="592.68" y2="182.94"/><line class="cls-15" y1="228.3" x2="182.94" y2="228.3"/><line class="cls-15" x1="182.94" y1="228.3" x2="592.68" y2="228.3"/><line class="cls-14" y1="273.66" x2="184.44" y2="273.66"/><line class="cls-15" x1="184.44" y1="273.66" x2="592.68" y2="273.66"/><line class="cls-15" x1="181.44" y1="319.02" x2="592.68" y2="319.02"/><line class="cls-15" x1="181.44" y1="364.38" x2="592.68" y2="364.38"/><line class="cls-15" x1="181.44" y1="409.74" x2="592.68" y2="409.74"/><line class="cls-14" x1="181.44" y1="455.1" x2="275.16" y2="455.1"/><line class="cls-15" x1="275.16" y1="455.1" x2="589.68" y2="455.1"/><line class="cls-14" x1="589.68" y1="455.1" x2="864.84" y2="455.1"/><line class="cls-14" x1="136.08" y1="500.46" x2="275.16" y2="500.46"/><line class="cls-15" x1="275.16" y1="500.46" x2="591.18" y2="500.46"/><line class="cls-15" x1="591.18" y1="500.46" x2="864.84" y2="500.46"/><line class="cls-15" x1="136.08" y1="545.82" x2="864.84" y2="545.82"/><line class="cls-15" x1="136.08" y1="591.18" x2="864.84" y2="591.18"/><line class="cls-15" x1="136.08" y1="636.54" x2="864.84" y2="636.54"/><line class="cls-14" x1="90.72" y1="681.9" x2="139.08" y2="681.9"/><line class="cls-15" x1="139.08" y1="681.9" x2="864.84" y2="681.9"/><line class="cls-15" x1="90.72" y1="727.26" x2="725.76" y2="727.26"/><line class="cls-14" x1="725.76" y1="727.26" x2="864.84" y2="727.26"/><line class="cls-15" x1="90.72" y1="772.62" x2="728.76" y2="772.62"/><line class="cls-15" x1="90.72" y1="817.98" x2="728.76" y2="817.98"/><line class="cls-15" x1="90.72" y1="863.34" x2="728.76" y2="863.34"/><line class="cls-15" x1="90.72" y1="908.7" x2="728.76" y2="908.7"/><line class="cls-15" x1="90.72" y1="954.06" x2="728.76" y2="954.06"/><line class="cls-15" x1="90.72" y1="999.42" x2="728.76" y2="999.42"/><line class="cls-15" x1="90.72" y1="1044.78" x2="455.1" y2="1044.78"/><line class="cls-15" x1="455.1" y1="1044.78" x2="498.96" y2="1044.78"/><line class="cls-14" x1="498.96" y1="1044.78" x2="728.76" y2="1044.78"/><line class="cls-15" x1="90.72" y1="1090.14" x2="455.1" y2="1090.14"/><line class="cls-15" x1="455.1" y1="1090.14" x2="498.96" y2="1090.14"/><line class="cls-14" x1="498.96" y1="1090.14" x2="864.84" y2="1090.14"/><line class="cls-14" x1="45.36" y1="1135.5" x2="93.72" y2="1135.5"/><line class="cls-15" x1="93.72" y1="1135.5" x2="864.84" y2="1135.5"/><line class="cls-15" x1="45.36" y1="1180.86" x2="92.22" y2="1180.86"/><line class="cls-15" x1="92.22" y1="1180.86" x2="864.84" y2="1180.86"/><line class="cls-15" x1="45.36" y1="1226.22" x2="92.22" y2="1226.22"/><line class="cls-15" x1="92.22" y1="1226.22" x2="864.84" y2="1226.22"/><line class="cls-15" x1="45.36" y1="1271.58" x2="92.22" y2="1271.58"/><line class="cls-15" x1="92.22" y1="1271.58" x2="864.84" y2="1271.58"/><line class="cls-14" x1="45.36" y1="1316.94" x2="139.08" y2="1316.94"/><line class="cls-15" x1="139.08" y1="1316.94" x2="182.94" y2="1316.94"/><line class="cls-15" x1="182.94" y1="1316.94" x2="453.6" y2="1316.94"/><line class="cls-14" x1="453.6" y1="1316.94" x2="864.84" y2="1316.94"/><line class="cls-14" x1="863.34" y1="453.6" x2="863.34" y2="500.46"/><line class="cls-14" x1="863.34" y1="500.46" x2="863.34" y2="728.76"/><line class="cls-14" x1="863.34" y1="1088.64" x2="863.34" y2="1318.44"/><line class="cls-14" x1="136.08" y1="1362.3" x2="228.3" y2="1362.3"/><line class="cls-14" x1="228.3" y1="1362.3" x2="456.6" y2="1362.3"/></g><g class="cls-16"><rect class="cls-17" x="619.47" y="230.8" width="276.66" height="179.32"/></g><g class="cls-18"><path d="M698.18,334.74a28.11,28.11,0,0,1-3,12.83q-3.74,7.29-9.9,7.29a6.68,6.68,0,0,1-4.23-1.58q-.76,1-1,1a1.82,1.82,0,0,1-1-.31,23.53,23.53,0,0,1-.63-6.75c0-2.52.05-6.26.13-11.23s.14-8.72.14-11.27V324q0-1,1.08-1a2.09,2.09,0,0,1,1.17.43,1.16,1.16,0,0,1,.63.92,3.73,3.73,0,0,1-.31,1.33,3.65,3.65,0,0,0-.32,1.28v1.76a6.69,6.69,0,0,0,1.57-2.21,9.63,9.63,0,0,1,2.11-2.79,6.29,6.29,0,0,1,4.27-1.44,8,8,0,0,1,7.27,4A16,16,0,0,1,698.18,334.74Zm-2.66-.22a17.18,17.18,0,0,0-1.17-6.8c-1.05-2.51-2.76-3.78-5.13-3.78-1.68,0-3.34,1-5,3.11a15.77,15.77,0,0,0-2.83,5.44,21,21,0,0,0-.72,5.58v9.32A6,6,0,0,0,681.8,351a3.92,3.92,0,0,0,3.33,1.71c2.39,0,4.54-1.26,6.43-3.77a17.55,17.55,0,0,0,3.24-7.12A36.74,36.74,0,0,0,695.52,334.52Z" transform="translate(-44.86 -44.86)"/><path d="M723.69,338.37a20.83,20.83,0,0,1-2.83,11q-3.33,5.47-9.23,5.48a10.91,10.91,0,0,1-3.46-.67q-7.53-2.38-7.52-13.49a23.46,23.46,0,0,1,2.88-11.63q3.42-6.21,9.41-6.21,5.22,0,8.23,5.35A20.26,20.26,0,0,1,723.69,338.37Zm-2.52-.41q0-10-6.64-12.22a3.67,3.67,0,0,0-1.26-.27,8.26,8.26,0,0,0-5.66,2.66q-4.71,4.49-4.71,13.88a15.65,15.65,0,0,0,.36,2.69,11.7,11.7,0,0,0,2.51,5.75,7.64,7.64,0,0,0,5.79,2.16q5.13,0,7.64-5.08A21.11,21.11,0,0,0,721.17,338Z" transform="translate(-44.86 -44.86)"/><path d="M743,352.61a26.17,26.17,0,0,1-9.36,1.57q-3.87,0-5.31-3a15.45,15.45,0,0,1-1-6.48c0-1.86.14-4.63.42-8.33s.43-6.44.43-8.27q0-.58-.09-1.71t-.09-1.71a7.86,7.86,0,0,1,.05-.95,1.67,1.67,0,0,1,1.35-.58c1,0,1.57,1.23,1.57,3.68,0,2.14-.2,5.33-.59,9.59s-.58,7.46-.58,9.58c0,4.06,1.35,6.08,4,6.08a13.75,13.75,0,0,0,3.8-.76,13.89,13.89,0,0,1,3.81-.77,1.31,1.31,0,0,1,1.14.65A2.52,2.52,0,0,1,743,352.61Z" transform="translate(-44.86 -44.86)"/><path d="M760,352.61a26.27,26.27,0,0,1-9.37,1.57q-3.87,0-5.3-3a15.26,15.26,0,0,1-1-6.48c0-1.86.14-4.63.43-8.33s.42-6.44.42-8.27q0-.58-.09-1.71t-.09-1.71c0-.3,0-.62,0-.95a1.67,1.67,0,0,1,1.35-.58c1,0,1.57,1.23,1.57,3.68,0,2.14-.19,5.33-.58,9.59s-.59,7.46-.59,9.58c0,4.06,1.36,6.08,4.05,6.08a13.87,13.87,0,0,0,3.81-.76,13.84,13.84,0,0,1,3.8-.77,1.33,1.33,0,0,1,1.15.65A2.6,2.6,0,0,1,760,352.61Z" transform="translate(-44.86 -44.86)"/><path d="M784.53,325.16l-.77.58a2.21,2.21,0,0,0-.49.82q-1,2.55-1.17,14.12,1.62.38,1.62,1.08a1.92,1.92,0,0,1-.41,1l-1.3.54a53.73,53.73,0,0,0,.45,5.8,13.6,13.6,0,0,0,.45,1.35,4.57,4.57,0,0,1,.31,1.27,1.83,1.83,0,0,1-.4,1.08,1.2,1.2,0,0,1-1,.54c-.81,0-1.36-.61-1.66-1.81,0-.14-.15-1.1-.36-2.85s-.32-2.89-.32-3.4a8.29,8.29,0,0,1,.14-1.53,39.31,39.31,0,0,0-6.59.76q-3.26.63-6.5,1.3l-.82.81c0,1.13,0,2.28,0,3.45.13,1.76.43,2.9.9,3.4-.12.39-.31.59-.56.59a2.38,2.38,0,0,0-.9.2,2.56,2.56,0,0,1-.79.2c-.57,0-.93-1.11-1.08-3.34-.06-1.39-.11-2.79-.14-4.18l-.31-.45h-.18a1.91,1.91,0,0,1-1.08-.33,1,1,0,0,1-.49-.88,2.13,2.13,0,0,1,.4-1q.4-.66.81-.66h.5l.22,0q0-2,0-7.88c0-5.23.36-8.78,1.08-10.67a1.69,1.69,0,0,1,1.62-1.21,2.39,2.39,0,0,1,1.4.48,1.41,1.41,0,0,1,.68,1.19,4.27,4.27,0,0,1-.42,1.21c-.31.75-.47,1.19-.5,1.31q-1.25,4.32-1.25,13c0,1.35.26,2,.77,2,.15,0,1-.14,2.4-.44a44.16,44.16,0,0,1,6.5-.91,6.59,6.59,0,0,0,1.37-.24,7.46,7.46,0,0,1,1.9-.25c.62,0,.91-.42.88-1.26l-.09-4a54.43,54.43,0,0,1,.36-7.65q.67-6,2.43-6a2,2,0,0,1,1.62.94A3.54,3.54,0,0,1,784.53,325.16Z" transform="translate(-44.86 -44.86)"/><path d="M809.55,338.37a20.84,20.84,0,0,1-2.84,11q-3.33,5.47-9.22,5.48a11,11,0,0,1-3.47-.67q-7.51-2.38-7.51-13.49a23.46,23.46,0,0,1,2.88-11.63q3.42-6.21,9.4-6.21,5.22,0,8.24,5.35A20.26,20.26,0,0,1,809.55,338.37ZM807,338q0-10-6.64-12.22a3.67,3.67,0,0,0-1.26-.27,8.26,8.26,0,0,0-5.66,2.66q-4.71,4.49-4.71,13.88a15.65,15.65,0,0,0,.36,2.69,11.61,11.61,0,0,0,2.51,5.75,7.64,7.64,0,0,0,5.79,2.16q5.12,0,7.63-5.08A21,21,0,0,0,807,338Z" transform="translate(-44.86 -44.86)"/><path d="M830,337a41.91,41.91,0,0,1-.85,8c-.69,3.63-1.61,6.05-2.75,7.29a6.88,6.88,0,0,1-5.13,2.34,8,8,0,0,1-5.4-1.63,9,9,0,0,1-2.92-5.75,51.33,51.33,0,0,1-.27-6.75q0-2.2.27-6.6t.27-6.55a3.66,3.66,0,0,0-.27-1.14,3.65,3.65,0,0,1-.27-1.11c0-.29.25-.61.74-.94a2.41,2.41,0,0,1,1.24-.49,7.43,7.43,0,0,0,1.53-.05c.39.09.55.44.49,1-.21.84-.43,1.93-.67,3.29q-.85,8.34-.86,10.27v5.86a12.09,12.09,0,0,0,1.17,5.46q1.49,3,4.26,3,4.71,0,6.37-9.06a77.45,77.45,0,0,0,.8-12.84l.09-1.9a13.69,13.69,0,0,0,0-2,5.11,5.11,0,0,0-.45-1.78,4.65,4.65,0,0,1-.36-.83,2,2,0,0,1,.34-1,.94.94,0,0,1,.78-.56,2.4,2.4,0,0,1,1.2.43c.46.28.69.58.69.87Z" transform="translate(-44.86 -44.86)"/><path d="M850.9,349.77c0,1.69-1,3-3.15,3.87a13.56,13.56,0,0,1-5.4,1.08,18,18,0,0,1-5.8-1.08c-2.7-.92-4-2.08-4-3.46,0-.75.36-1.12,1.08-1.12a3.23,3.23,0,0,1,2,1c1.05,1,1.62,1.51,1.71,1.57q1.71,1.13,5.53,1.12c3.42,0,5.13-.89,5.13-2.69,0-.84-.73-1.88-2.2-3.11l-3.38-2.43a48.81,48.81,0,0,1-6.07-4.77,9.93,9.93,0,0,1-2.84-7,11.62,11.62,0,0,1,2.12-6.75,6.93,6.93,0,0,1,5.89-3.42,6.56,6.56,0,0,1,5.18,2.56,11.57,11.57,0,0,1,2.47,5.45c0,.72.15,1.82.36,3.29l.36,1.62c0,2.4-.58,3.59-1.75,3.59a1.3,1.3,0,0,1-.92-.51,1.5,1.5,0,0,1-.48-1,10.77,10.77,0,0,1,.25-1.85,9.57,9.57,0,0,0,.25-1.84,14.42,14.42,0,0,0-1-5.49q-1.31-3.24-3.93-3.24a5.33,5.33,0,0,0-4.4,2.32,8.19,8.19,0,0,0-1.76,5.06q0,3.69,3.86,7l7.13,5.17C849.63,346.6,850.9,348.27,850.9,349.77Z" transform="translate(-44.86 -44.86)"/><path d="M872.28,351.71c-.15.33-.33.5-.54.5a3.58,3.58,0,0,1-.52-.07,2.48,2.48,0,0,0-.52-.07,19.54,19.54,0,0,0-5.6,1.21,19.22,19.22,0,0,1-5.6,1.22q-6.35,0-6.35-10.65,0-8.44.45-14.42l.09-1.44a4.43,4.43,0,0,0-.11-.92,5.37,5.37,0,0,1-.11-.79c0-.72.49-1.12,1.48-1.21a62.75,62.75,0,0,0,6.57-1.4,31.78,31.78,0,0,1,6.39-1.07,3.82,3.82,0,0,1,.63.08,2.31,2.31,0,0,1,1.4.41,1.22,1.22,0,0,1,.67.94c0,.61-.76.9-2.29.9a38.66,38.66,0,0,0-6.08.72q-4.5.86-5.58,1.76-.36,3.42-.85,10.71a.59.59,0,0,0,.49.23,14.56,14.56,0,0,0,4-.86,14.46,14.46,0,0,1,4.05-.85,4.83,4.83,0,0,1,2.25.58l.36,1.35q.09.18-1.17.63a2.72,2.72,0,0,0-1.62-.45,20.91,20.91,0,0,0-4.25.81,27.17,27.17,0,0,0-4.26,1.35,34.44,34.44,0,0,0-.18,4.59q0,6.79,3.47,6.8a15.69,15.69,0,0,0,4.79-1.11,16,16,0,0,1,4.79-1.1C870.46,350.09,871.71,350.63,872.28,351.71Z" transform="translate(-44.86 -44.86)"/><path d="M695.84,384a1.53,1.53,0,0,1-1.13.5,5.41,5.41,0,0,1-.81-.09,5.46,5.46,0,0,0-.85-.09,22.55,22.55,0,0,0-5,.77,44.6,44.6,0,0,1-5,1.08l-1,8.49c-.06.6-.09,1.12-.09,1.54,0,.66.23,1,.68,1a2.07,2.07,0,0,0,.4,0,28.79,28.79,0,0,1,6.25-1.08c1.87,0,2.5,0,1.9-.1a1.93,1.93,0,0,1,1.44.9l.13,1.13a.47.47,0,0,1-.45.32,5,5,0,0,0-.83.09,4.81,4.81,0,0,1-.79.08,30.25,30.25,0,0,0-8.73,1.49,41.79,41.79,0,0,0-.31,6.61c0,2.82.1,4.4.31,4.73a4.06,4.06,0,0,0,.43.54.79.79,0,0,1,.25.45c0,.21-.17.44-.5.7a1.5,1.5,0,0,1-.76.38s-.48-.24-1.35-.72a18.65,18.65,0,0,1-1-6.52q0-3.19.52-9.48c.34-4.18.52-7.34.52-9.47a.67.67,0,0,0-.63-.76,3.78,3.78,0,0,1-1.17-.32c-.45-.3-.68-.57-.68-.81a1.4,1.4,0,0,1,.4-.9,4.46,4.46,0,0,1,1.13-.13,1.51,1.51,0,0,0,1-.37,3.22,3.22,0,0,0,.08-.67c0-.45.3-.86.91-1.21a2.47,2.47,0,0,1,1.21-.41c.3,0,.47.2.5.58v.95a.69.69,0,0,0,.31.45l4.28-.9a23.54,23.54,0,0,1,4.32-.5A5,5,0,0,1,695.84,384Z" transform="translate(-44.86 -44.86)"/><path d="M712.13,411.61a26.27,26.27,0,0,1-9.37,1.57q-3.87,0-5.3-3a15.26,15.26,0,0,1-1-6.48c0-1.86.14-4.63.43-8.33s.42-6.44.42-8.27q0-.58-.09-1.71c-.06-.75-.08-1.32-.08-1.71s0-.62,0-.95a1.67,1.67,0,0,1,1.35-.58c1,0,1.57,1.23,1.57,3.68,0,2.14-.19,5.33-.58,9.59s-.59,7.46-.59,9.58c0,4.06,1.36,6.08,4.05,6.08a13.8,13.8,0,0,0,3.81-.76,13.84,13.84,0,0,1,3.8-.77,1.33,1.33,0,0,1,1.15.65A2.6,2.6,0,0,1,712.13,411.61Z" transform="translate(-44.86 -44.86)"/><path d="M735.44,397.37a20.83,20.83,0,0,1-2.83,11q-3.33,5.47-9.23,5.48a10.91,10.91,0,0,1-3.46-.67q-7.51-2.38-7.52-13.49a23.46,23.46,0,0,1,2.88-11.63q3.42-6.21,9.41-6.21,5.22,0,8.23,5.35A20.26,20.26,0,0,1,735.44,397.37Zm-2.52-.41q0-10-6.64-12.22a3.67,3.67,0,0,0-1.26-.27,8.24,8.24,0,0,0-5.65,2.66q-4.73,4.49-4.72,13.88a15.65,15.65,0,0,0,.36,2.69,11.61,11.61,0,0,0,2.52,5.75,7.61,7.61,0,0,0,5.79,2.16q5.11,0,7.63-5.08A21.11,21.11,0,0,0,732.92,397Z" transform="translate(-44.86 -44.86)"/><path d="M761.18,397.37a20.83,20.83,0,0,1-2.83,11q-3.33,5.47-9.23,5.48a10.91,10.91,0,0,1-3.46-.67q-7.51-2.38-7.52-13.49A23.46,23.46,0,0,1,741,388.07q3.42-6.21,9.41-6.21,5.22,0,8.23,5.35A20.26,20.26,0,0,1,761.18,397.37Zm-2.52-.41q0-10-6.64-12.22a3.67,3.67,0,0,0-1.26-.27,8.24,8.24,0,0,0-5.65,2.66q-4.73,4.49-4.72,13.88a15.65,15.65,0,0,0,.36,2.69,11.61,11.61,0,0,0,2.52,5.75,7.61,7.61,0,0,0,5.79,2.16q5.12,0,7.63-5.08A21,21,0,0,0,758.66,397Z" transform="translate(-44.86 -44.86)"/><path d="M785.9,412.38v.22a.85.85,0,0,1-.77.45,1,1,0,0,1-.81-.23Q784,411,778.23,407t-7.76-4H767.9v2.79a25.88,25.88,0,0,0,.32,2.7,10,10,0,0,0,.46,2.47,5.82,5.82,0,0,0,.79,1.12c0,.69-.39,1-1.17,1a2.28,2.28,0,0,1-2-.95c-.45-.63-.67-3.56-.67-8.82,0-.41-.53-.79-1.58-1.12s-1.57-.72-1.57-1.17q0-1,2.88-1.8a28.69,28.69,0,0,0,.4-4.32c.12-2.25.21-3.7.27-4.36,0-.33.17-1.24.41-2.7a12.56,12.56,0,0,0,.27-2.75,3.08,3.08,0,0,0-1.19-.13c-.65,0-1-.26-1-.77a1.09,1.09,0,0,1,.9-1.17l1.3-.36a3,3,0,0,1,.59-1,2.29,2.29,0,0,1,.72-.13,1.5,1.5,0,0,1,1,.49,1.42,1.42,0,0,0,.92.49,4.6,4.6,0,0,0,.63-.06,3.6,3.6,0,0,1,.63-.07,16,16,0,0,1,8.42,2.07,7.76,7.76,0,0,1,4.18,7.11,8.8,8.8,0,0,1-2.29,6.3,22.83,22.83,0,0,1-5.58,3.83,2.27,2.27,0,0,0-.63.22,34.11,34.11,0,0,0,4,2.92,33.69,33.69,0,0,1,4.5,3.38A5.65,5.65,0,0,1,785.9,412.38Zm-4.37-21a5.81,5.81,0,0,0-3.09-5.26,11.87,11.87,0,0,0-6.19-1.54,11.35,11.35,0,0,0-2.15.18l-.59.9a5.9,5.9,0,0,0-.72,2.75c-.06,1.65-.12,2.62-.17,2.92a52,52,0,0,0-.72,8.15,17.84,17.84,0,0,0,4.12,1.26,6.67,6.67,0,0,0,1.8-.36,11.49,11.49,0,0,0,5.38-3.29A8,8,0,0,0,781.53,391.36Z" transform="translate(-44.86 -44.86)"/><path d="M817.22,395.59q-1.85,11.43-9.68,11a11.77,11.77,0,0,1-7.15-2.79l-.32.23v1.84a10.87,10.87,0,0,0,.45,3.91c0,.09.2.4.5.93a3.38,3.38,0,0,1,.45,1,1.56,1.56,0,0,1-.41,1,1.27,1.27,0,0,1-1,.47,2,2,0,0,1-1.89-.9,5.57,5.57,0,0,1-.45-2.16c-.09-1.53-.13-3.07-.13-4.64,0-.89.07-2.25.2-4.05s.19-3.17.18-4.11,0-2.34.2-4.19.23-3.21.23-4.12V384.7a5.36,5.36,0,0,0-.16-1,4.61,4.61,0,0,1-.16-1c0-.57.39-.86,1.17-.86a1.59,1.59,0,0,1,1.29.68,2.35,2.35,0,0,1,.51,1.44,9.06,9.06,0,0,1-.2,1.66,9.25,9.25,0,0,0-.2,1.67v1.17l2.06-3.6a7.54,7.54,0,0,1,6.42-3.37,7.18,7.18,0,0,1,6.51,3.55,14.06,14.06,0,0,1,1.79,7.42A21.28,21.28,0,0,1,817.22,395.59Zm-2-2.54a14.72,14.72,0,0,0-1.21-6.18q-1.58-3.48-4.62-3.48-3.95,0-6.68,5.27a19.13,19.13,0,0,0-2.34,8.86v2.39a1.77,1.77,0,0,1,.68-.23c.21,0,.4.16.56.46a1.89,1.89,0,0,0,.43.59c0,.09-.08.12-.14.09s-.09,0-.09.09a2,2,0,0,0,.36.82,6,6,0,0,0,5.38,2.73,6,6,0,0,0,5.12-2.26,13.38,13.38,0,0,0,2.06-5.32A22.25,22.25,0,0,0,815.19,393.05Z" transform="translate(-44.86 -44.86)"/><path d="M836.48,411.61a26.17,26.17,0,0,1-9.36,1.57q-3.87,0-5.31-3a15.42,15.42,0,0,1-1-6.48c0-1.86.14-4.63.43-8.33s.43-6.44.43-8.27q0-.58-.09-1.71t-.09-1.71c0-.3,0-.62,0-.95a1.67,1.67,0,0,1,1.35-.58c1,0,1.58,1.23,1.58,3.68,0,2.14-.2,5.33-.59,9.59s-.58,7.46-.58,9.58c0,4.06,1.35,6.08,4,6.08a13.81,13.81,0,0,0,3.8-.76,13.84,13.84,0,0,1,3.8-.77,1.33,1.33,0,0,1,1.15.65A2.6,2.6,0,0,1,836.48,411.61Z" transform="translate(-44.86 -44.86)"/><path d="M859.34,404.1c0,1-.38,1.43-1.13,1.43a2.74,2.74,0,0,1-.94-.18,14,14,0,0,0,1.12,5.13,1.23,1.23,0,0,1-.56.95,2,2,0,0,1-1.15.36,2.91,2.91,0,0,1-1.21-.32,5.23,5.23,0,0,1-.36-2.25c0-.26,0-.76,0-1.48v-1.48a2.8,2.8,0,0,0-.13-1.08,5.27,5.27,0,0,0-1.15,0,10.25,10.25,0,0,1-1.06.09,52.42,52.42,0,0,0-6.07.54q-4.72.63-5.45,1.26c-.27.21-.55,1.29-.85,3.24-.24,1.59-.38,2.76-.41,3.51a.73.73,0,0,1-.63.32,2.16,2.16,0,0,1-1.3-.59,1.58,1.58,0,0,1-.72-1.12,4.7,4.7,0,0,1,.36-1.22,10.57,10.57,0,0,0,.4-1.17,60,60,0,0,1,2.93-11q5.94-16.87,9.18-16.88,3.46,0,5.35,8.82.67,3.11,1.58,11.88a4.3,4.3,0,0,0,1.35.5C859.07,403.5,859.34,403.73,859.34,404.1ZM855,402.79c-.75-5.28-1.23-8.48-1.44-9.58q-1.49-7.56-3.15-7.52-1.85.09-4.63,6.93-1.57,4.32-3.11,8.64a11.76,11.76,0,0,0-.58,1.75c-.12.72.09,1.09.63,1.09.18,0,1.09-.15,2.74-.46C846.72,403.41,849.9,403.12,855,402.79Z" transform="translate(-44.86 -44.86)"/><path d="M882.29,382.32a.54.54,0,0,1-.41.58l-.85.36c-.42.24-.8,1.59-1.13,4.06a35.75,35.75,0,0,0-.4,4.68l-.14,13.66a13.26,13.26,0,0,1-.76,3.92c-.63,1.8-1.43,2.7-2.39,2.7q-2.21,0-4.09-4.09a52,52,0,0,1-2.14-6.14q-1.38-4.53-4.07-13.57-.49.09-.54.9-.09,1.22-.72,6.3a52,52,0,0,0-.5,6.3q0,7.25.9,8.37a4.16,4.16,0,0,1,.5.81,1.2,1.2,0,0,1-.66.94,2.11,2.11,0,0,1-1.17.46q-1.82,0-1.82-5.9c0-.54,0-1.31-.07-2.3s-.06-1.75-.06-2.29a44.94,44.94,0,0,1,.58-5.92,45.21,45.21,0,0,0,.59-6v-5.8a1.46,1.46,0,0,0-.07-.3.89.89,0,0,1-.07-.29c0-.78.77-1.17,2.3-1.17a2.81,2.81,0,0,1,2.61,1.17,7.51,7.51,0,0,1,.36,2c.09.72.18,1.46.27,2.2a93,93,0,0,0,3.24,11.84q3.1,9.54,4.5,9.54,1.21,0,1.17-4.82L877.11,391a19.12,19.12,0,0,1,.86-5.31q1.13-3.84,2.92-3.84A2.58,2.58,0,0,1,882.29,382.32Z" transform="translate(-44.86 -44.86)"/></g></g></g></svg>