<svg xmlns="http://www.w3.org/2000/svg" xmlns:xlink="http://www.w3.org/1999/xlink" viewBox="0 0 865.28 1363.87"><defs><style>.cls-1,.cls-17{fill:#fff;}.cls-2,.cls-4,.cls-5{fill:none;}.cls-3{clip-path:url(#clip-path);}.cls-4,.cls-5{stroke:#000;}.cls-4{stroke-width:3px;}.cls-6{clip-path:url(#clip-path-2);}.cls-7{clip-path:url(#clip-path-3);}.cls-8{clip-path:url(#clip-path-4);}.cls-9{clip-path:url(#clip-path-5);}.cls-10{clip-path:url(#clip-path-6);}.cls-11{clip-path:url(#clip-path-7);}.cls-12{clip-path:url(#clip-path-8);}.cls-13{clip-path:url(#clip-path-9);}.cls-14{clip-path:url(#clip-path-10);}.cls-15{clip-path:url(#clip-path-11);}.cls-16{clip-path:url(#clip-path-12);}.cls-17{stroke:#231f20;stroke-miterlimit:10;}</style><clipPath id="clip-path"><polygon class="cls-1" points="45.46 1318.5 136.21 1318.5 136.18 1363.86 456.7 1363.86 456.7 1318.5 864.99 1318.55 865.23 1088.45 502.35 1088.84 502.35 1046.34 728.61 1046.45 728.9 728.94 865.28 728.92 864.86 453.6 592.79 453.99 592.76 0.06 362.96 0 362.8 45.51 0.07 45.4 0 275.27 181.53 275.27 181.53 456.71 272.27 456.67 272.3 499.04 136.17 499.03 136.19 680.5 90.82 680.48 90.82 1134.08 45.46 1134.07 45.46 1318.5"/></clipPath><clipPath id="clip-path-2"><rect class="cls-2" x="410.34" y="92.79" width="44.36" height="44.36"/></clipPath><clipPath id="clip-path-3"><rect class="cls-2" x="92.82" y="138.15" width="44.36" height="44.36"/></clipPath><clipPath id="clip-path-4"><rect class="cls-2" x="274.26" y="319.59" width="44.36" height="44.36"/></clipPath><clipPath id="clip-path-5"><rect class="cls-2" x="364.98" y="319.59" width="44.36" height="44.36"/></clipPath><clipPath id="clip-path-6"><rect class="cls-2" x="591.78" y="546.39" width="44.36" height="44.36"/></clipPath><clipPath id="clip-path-7"><rect class="cls-2" x="228.9" y="591.75" width="44.36" height="44.36"/></clipPath><clipPath id="clip-path-8"><rect class="cls-2" x="183.54" y="818.55" width="44.36" height="44.36"/></clipPath><clipPath id="clip-path-9"><rect class="cls-2" x="183.54" y="863.91" width="44.36" height="44.36"/></clipPath><clipPath id="clip-path-10"><rect class="cls-2" x="364.98" y="1090.71" width="44.36" height="44.36"/></clipPath><clipPath id="clip-path-11"><rect class="cls-2" x="319.62" y="1136.07" width="44.36" height="44.36"/></clipPath><clipPath id="clip-path-12"><rect class="cls-2" x="138.18" y="1226.79" width="44.36" height="44.36"/></clipPath></defs><title>floorplan</title><g id="Layer_2" data-name="Layer 2"><g id="Layer_1-2" data-name="Layer 1"><polygon class="cls-1" points="45.46 1318.5 136.21 1318.5 136.18 1363.86 456.7 1363.86 456.7 1318.5 864.99 1318.55 865.23 1088.45 502.35 1088.84 502.35 1046.34 728.61 1046.45 728.9 728.94 865.28 728.92 864.86 453.6 592.79 453.99 592.76 0.06 362.96 0 362.8 45.51 0.07 45.4 0 275.27 181.53 275.27 181.53 456.71 272.27 456.67 272.3 499.04 136.17 499.03 136.19 680.5 90.82 680.48 90.82 1134.08 45.46 1134.07 45.46 1318.5"/><g class="cls-3"><line class="cls-4" x1="1.6" y1="45.43" x2="1.6" y2="228.37"/><line class="cls-4" x1="1.6" y1="228.37" x2="1.6" y2="275.23"/><line class="cls-5" x1="46.96" y1="45.43" x2="46.96" y2="92.29"/><line class="cls-5" x1="46.96" y1="92.29" x2="46.96" y2="228.37"/><line class="cls-5" x1="46.96" y1="228.37" x2="46.96" y2="275.23"/><line class="cls-4" x1="46.96" y1="1134.07" x2="46.96" y2="1318.51"/><line class="cls-5" x1="92.32" y1="45.43" x2="92.32" y2="92.29"/><line class="cls-5" x1="92.32" y1="92.29" x2="92.32" y2="228.37"/><line class="cls-5" x1="92.32" y1="228.37" x2="92.32" y2="275.23"/><line class="cls-4" x1="92.32" y1="680.47" x2="92.32" y2="1137.07"/><line class="cls-5" x1="92.32" y1="1137.07" x2="92.32" y2="1318.51"/><line class="cls-5" x1="137.68" y1="45.43" x2="137.68" y2="92.29"/><line class="cls-5" x1="137.68" y1="92.29" x2="137.68" y2="228.37"/><line class="cls-5" x1="137.68" y1="228.37" x2="137.68" y2="275.23"/><line class="cls-4" x1="137.68" y1="499.03" x2="137.68" y2="683.47"/><line class="cls-5" x1="137.68" y1="683.47" x2="137.68" y2="1315.51"/><line class="cls-4" x1="137.68" y1="1315.51" x2="137.68" y2="1363.87"/><line class="cls-5" x1="183.04" y1="45.43" x2="183.04" y2="92.29"/><line class="cls-5" x1="183.04" y1="92.29" x2="183.04" y2="228.37"/><line class="cls-5" x1="183.04" y1="228.37" x2="183.04" y2="272.23"/><line class="cls-4" x1="183.04" y1="272.23" x2="183.04" y2="456.67"/><line class="cls-5" x1="183.04" y1="499.03" x2="183.04" y2="1317.01"/><line class="cls-5" x1="183.04" y1="1317.01" x2="183.04" y2="1363.87"/><line class="cls-5" x1="228.4" y1="45.43" x2="228.4" y2="92.29"/><line class="cls-5" x1="228.4" y1="92.29" x2="228.4" y2="456.67"/><line class="cls-5" x1="228.4" y1="499.03" x2="228.4" y2="1363.87"/><line class="cls-5" x1="273.76" y1="45.43" x2="273.76" y2="92.29"/><line class="cls-5" x1="273.76" y1="92.29" x2="273.76" y2="453.67"/><line class="cls-4" x1="273.76" y1="453.67" x2="273.76" y2="502.03"/><line class="cls-5" x1="273.76" y1="502.03" x2="273.76" y2="1363.87"/><line class="cls-5" x1="319.12" y1="45.43" x2="319.12" y2="92.29"/><line class="cls-5" x1="319.12" y1="92.29" x2="319.12" y2="1363.87"/><line class="cls-4" x1="364.48" y1="0.07" x2="364.48" y2="48.43"/><line class="cls-5" x1="364.48" y1="48.43" x2="364.48" y2="92.29"/><line class="cls-5" x1="364.48" y1="92.29" x2="364.48" y2="1363.87"/><line class="cls-5" x1="409.84" y1="0.07" x2="409.84" y2="92.29"/><line class="cls-5" x1="409.84" y1="92.29" x2="409.84" y2="1363.87"/><line class="cls-5" x1="455.2" y1="0.07" x2="455.2" y2="92.29"/><line class="cls-5" x1="455.2" y1="92.29" x2="455.2" y2="1044.85"/><line class="cls-5" x1="455.2" y1="1044.85" x2="455.2" y2="1090.21"/><line class="cls-5" x1="455.2" y1="1090.21" x2="455.2" y2="1315.51"/><line class="cls-4" x1="455.2" y1="1315.51" x2="455.2" y2="1363.87"/><line class="cls-5" x1="500.56" y1="0.07" x2="500.56" y2="92.29"/><line class="cls-5" x1="500.56" y1="92.29" x2="500.56" y2="1043.35"/><line class="cls-4" x1="500.56" y1="1043.35" x2="500.56" y2="1091.71"/><line class="cls-5" x1="500.56" y1="1091.71" x2="500.56" y2="1318.51"/><line class="cls-5" x1="545.92" y1="0.07" x2="545.92" y2="92.29"/><line class="cls-5" x1="545.92" y1="92.29" x2="545.92" y2="1046.35"/><line class="cls-5" x1="545.92" y1="1088.71" x2="545.92" y2="1318.51"/><line class="cls-4" x1="591.28" y1="0.07" x2="591.28" y2="364.45"/><line class="cls-4" x1="591.28" y1="364.45" x2="591.28" y2="456.67"/><line class="cls-5" x1="591.28" y1="456.67" x2="591.28" y2="500.53"/><line class="cls-5" x1="591.28" y1="500.53" x2="591.28" y2="1046.35"/><line class="cls-5" x1="591.28" y1="1088.71" x2="591.28" y2="1318.51"/><line class="cls-5" x1="636.64" y1="453.67" x2="636.64" y2="500.53"/><line class="cls-5" x1="636.64" y1="500.53" x2="636.64" y2="1046.35"/><line class="cls-5" x1="636.64" y1="1088.71" x2="636.64" y2="1318.51"/><line class="cls-5" x1="682" y1="453.67" x2="682" y2="500.53"/><line class="cls-5" x1="682" y1="500.53" x2="682" y2="1046.35"/><line class="cls-5" x1="682" y1="1088.71" x2="682" y2="1318.51"/><line class="cls-5" x1="727.36" y1="453.67" x2="727.36" y2="500.53"/><line class="cls-5" x1="727.36" y1="500.53" x2="727.36" y2="725.83"/><line class="cls-4" x1="727.36" y1="725.83" x2="727.36" y2="954.13"/><line class="cls-4" x1="727.36" y1="954.13" x2="727.36" y2="1046.35"/><line class="cls-5" x1="727.36" y1="1088.71" x2="727.36" y2="1318.51"/><line class="cls-5" x1="772.72" y1="453.67" x2="772.72" y2="500.53"/><line class="cls-5" x1="772.72" y1="500.53" x2="772.72" y2="728.83"/><line class="cls-5" x1="772.72" y1="1088.71" x2="772.72" y2="1318.51"/><line class="cls-5" x1="818.08" y1="453.67" x2="818.08" y2="500.53"/><line class="cls-5" x1="818.08" y1="500.53" x2="818.08" y2="728.83"/><line class="cls-5" x1="818.08" y1="1088.71" x2="818.08" y2="1318.51"/><line class="cls-4" x1="362.98" y1="1.57" x2="592.78" y2="1.57"/><line class="cls-4" x1="0.1" y1="46.93" x2="365.98" y2="46.93"/><line class="cls-5" x1="365.98" y1="46.93" x2="592.78" y2="46.93"/><line class="cls-5" x1="0.1" y1="92.29" x2="592.78" y2="92.29"/><line class="cls-5" x1="0.1" y1="137.65" x2="92.32" y2="137.65"/><line class="cls-5" x1="92.32" y1="137.65" x2="592.78" y2="137.65"/><line class="cls-5" x1="0.1" y1="183.01" x2="92.32" y2="183.01"/><line class="cls-5" x1="92.32" y1="183.01" x2="592.78" y2="183.01"/><line class="cls-5" x1="0.1" y1="228.37" x2="183.04" y2="228.37"/><line class="cls-5" x1="183.04" y1="228.37" x2="592.78" y2="228.37"/><line class="cls-4" x1="0.1" y1="273.73" x2="184.54" y2="273.73"/><line class="cls-5" x1="184.54" y1="273.73" x2="592.78" y2="273.73"/><line class="cls-5" x1="181.54" y1="319.09" x2="592.78" y2="319.09"/><line class="cls-5" x1="181.54" y1="364.45" x2="592.78" y2="364.45"/><line class="cls-5" x1="181.54" y1="409.81" x2="592.78" y2="409.81"/><line class="cls-4" x1="181.54" y1="455.17" x2="275.26" y2="455.17"/><line class="cls-5" x1="275.26" y1="455.17" x2="589.78" y2="455.17"/><line class="cls-4" x1="589.78" y1="455.17" x2="864.94" y2="455.17"/><line class="cls-4" x1="136.18" y1="500.53" x2="275.26" y2="500.53"/><line class="cls-5" x1="275.26" y1="500.53" x2="591.28" y2="500.53"/><line class="cls-5" x1="591.28" y1="500.53" x2="864.94" y2="500.53"/><line class="cls-5" x1="136.18" y1="545.89" x2="864.94" y2="545.89"/><line class="cls-5" x1="136.18" y1="591.25" x2="864.94" y2="591.25"/><line class="cls-5" x1="136.18" y1="636.61" x2="864.94" y2="636.61"/><line class="cls-4" x1="90.82" y1="681.97" x2="139.18" y2="681.97"/><line class="cls-5" x1="139.18" y1="681.97" x2="864.94" y2="681.97"/><line class="cls-5" x1="90.82" y1="727.33" x2="725.86" y2="727.33"/><line class="cls-4" x1="725.86" y1="727.33" x2="864.94" y2="727.33"/><line class="cls-5" x1="90.82" y1="772.69" x2="728.86" y2="772.69"/><line class="cls-5" x1="90.82" y1="818.05" x2="728.86" y2="818.05"/><line class="cls-5" x1="90.82" y1="863.41" x2="728.86" y2="863.41"/><line class="cls-5" x1="90.82" y1="908.77" x2="728.86" y2="908.77"/><line class="cls-5" x1="90.82" y1="954.13" x2="728.86" y2="954.13"/><line class="cls-5" x1="90.82" y1="999.49" x2="728.86" y2="999.49"/><line class="cls-5" x1="90.82" y1="1044.85" x2="455.2" y2="1044.85"/><line class="cls-5" x1="455.2" y1="1044.85" x2="499.06" y2="1044.85"/><line class="cls-4" x1="499.06" y1="1044.85" x2="728.86" y2="1044.85"/><line class="cls-5" x1="90.82" y1="1090.21" x2="455.2" y2="1090.21"/><line class="cls-5" x1="455.2" y1="1090.21" x2="499.06" y2="1090.21"/><line class="cls-4" x1="499.06" y1="1090.21" x2="864.94" y2="1090.21"/><line class="cls-4" x1="45.46" y1="1135.57" x2="93.82" y2="1135.57"/><line class="cls-5" x1="93.82" y1="1135.57" x2="864.94" y2="1135.57"/><line class="cls-5" x1="45.46" y1="1180.93" x2="92.32" y2="1180.93"/><line class="cls-5" x1="92.32" y1="1180.93" x2="864.94" y2="1180.93"/><line class="cls-5" x1="45.46" y1="1226.29" x2="92.32" y2="1226.29"/><line class="cls-5" x1="92.32" y1="1226.29" x2="864.94" y2="1226.29"/><line class="cls-5" x1="45.46" y1="1271.65" x2="92.32" y2="1271.65"/><line class="cls-5" x1="92.32" y1="1271.65" x2="864.94" y2="1271.65"/><line class="cls-4" x1="45.46" y1="1317.01" x2="139.18" y2="1317.01"/><line class="cls-5" x1="139.18" y1="1317.01" x2="183.04" y2="1317.01"/><line class="cls-5" x1="183.04" y1="1317.01" x2="453.7" y2="1317.01"/><line class="cls-4" x1="453.7" y1="1317.01" x2="864.94" y2="1317.01"/><line class="cls-4" x1="863.44" y1="453.67" x2="863.44" y2="500.53"/><line class="cls-4" x1="863.44" y1="500.53" x2="863.44" y2="728.83"/><line class="cls-4" x1="863.44" y1="1088.71" x2="863.44" y2="1318.51"/><line class="cls-4" x1="136.18" y1="1362.37" x2="228.4" y2="1362.37"/><line class="cls-4" x1="228.4" y1="1362.37" x2="456.7" y2="1362.37"/></g><g class="cls-6"><path d="M414,105.81V105h1.59V98.74l-1.59.4v-.82l2.65-.66V105h1.59v.79Z"/></g><g class="cls-7"><path d="M96.22,150.81v-.93a7.27,7.27,0,0,1,1.87-2.35l.61-.54a3,3,0,0,0,1.17-2.1,1.39,1.39,0,0,0-.4-1,1.56,1.56,0,0,0-1.1-.38,4.07,4.07,0,0,0-2,.64v-.94a4.9,4.9,0,0,1,2.1-.5,2.61,2.61,0,0,1,1.79.61,2,2,0,0,1,.68,1.59,2.34,2.34,0,0,1-.34,1.27,6.2,6.2,0,0,1-1.27,1.34l-.41.35a3.94,3.94,0,0,0-1.47,2.06H101v.93Z"/></g><g class="cls-8"><path d="M277.42,331.75v-1a5.29,5.29,0,0,0,1.8.45,1.73,1.73,0,0,0,1.23-.45,1.47,1.47,0,0,0,.48-1.14c0-1.12-.79-1.68-2.35-1.68h-.42v-.71h.37c1.47,0,2.2-.52,2.2-1.55,0-.81-.48-1.22-1.45-1.22a4.16,4.16,0,0,0-1.75.45V324a5.79,5.79,0,0,1,1.83-.32c1.62,0,2.44.62,2.44,1.85a2.09,2.09,0,0,1-1.66,2c1.28.3,1.92,1,1.92,2.11a2.2,2.2,0,0,1-.74,1.76,3,3,0,0,1-2,.64A8.19,8.19,0,0,1,277.42,331.75Z"/></g><g class="cls-9"><path d="M371.45,331.81v-2.25h-3.58v-.8l3.58-4.9h1v4.84h1.06v.86h-1.06v2.25Zm-2.54-3.11h2.61v-3.54Z"/></g><g class="cls-10"><path d="M594.64,558.84v-.94a4.1,4.1,0,0,0,1.51.32,1.63,1.63,0,0,0,1.23-.47,1.73,1.73,0,0,0,.45-1.27c0-1.19-.82-1.79-2.47-1.79a4,4,0,0,0-.58,0v-3.87h4v.93h-3.09v2.09a3.68,3.68,0,0,1,2.39.71,2.36,2.36,0,0,1,.86,1.94,2.25,2.25,0,0,1-.78,1.82A3.29,3.29,0,0,1,596,559,6,6,0,0,1,594.64,558.84Z"/></g><g class="cls-11"><path d="M233.2,600.69a2.32,2.32,0,0,1,1.9-1,2.26,2.26,0,0,1,1.71.69,2.46,2.46,0,0,1,.66,1.77,2.89,2.89,0,0,1-.74,2,2.49,2.49,0,0,1-1.89.8,2.37,2.37,0,0,1-2.06-1.06A5.06,5.06,0,0,1,232,601a5.38,5.38,0,0,1,.85-3.22,2.83,2.83,0,0,1,2.4-1.14,6.72,6.72,0,0,1,1.77.3v.92a5.53,5.53,0,0,0-1.83-.43C233.87,597.45,233.2,598.53,233.2,600.69Zm3.21,1.72A2.22,2.22,0,0,0,236,601a1.33,1.33,0,0,0-1.12-.52,1.66,1.66,0,0,0-1.16.45,1.45,1.45,0,0,0-.48,1.09,2.55,2.55,0,0,0,.46,1.6,1.47,1.47,0,0,0,1.22.61,1.33,1.33,0,0,0,1.08-.5A2,2,0,0,0,236.41,602.41Z"/></g><g class="cls-12"><path d="M187,830.81a7.5,7.5,0,0,1,.44-1.6,17.88,17.88,0,0,1,1-1.86l2.17-3.49H186.5v-1h5.1v1q-3.06,4.5-3.42,6.95Z"/></g><g class="cls-13"><path d="M187.84,872.48a2.25,2.25,0,0,1-1.17-1.79,1.85,1.85,0,0,1,.66-1.47,2.61,2.61,0,0,1,1.73-.56,2.51,2.51,0,0,1,1.59.48,1.52,1.52,0,0,1,.61,1.24,2.62,2.62,0,0,1-1.48,2.1c1.2.59,1.79,1.35,1.79,2.28a2,2,0,0,1-.75,1.62,3.33,3.33,0,0,1-3.84,0,1.93,1.93,0,0,1-.72-1.56A2.75,2.75,0,0,1,187.84,872.48Zm.57.43a3.7,3.7,0,0,0-.87.87,1.7,1.7,0,0,0-.22.91,1.42,1.42,0,0,0,.44,1.1,1.57,1.57,0,0,0,1.16.43,1.74,1.74,0,0,0,1.13-.36,1.25,1.25,0,0,0,.16-1.72,4.51,4.51,0,0,0-1.05-.78Zm.77-.76a2,2,0,0,0,1.12-1.63,1,1,0,0,0-.37-.77,1.58,1.58,0,0,0-1-.29,1.49,1.49,0,0,0-.95.29.89.89,0,0,0-.37.74,1.15,1.15,0,0,0,.33.8A5.85,5.85,0,0,0,189.18,872.15Z"/></g><g class="cls-14"><path d="M368.56,1103.76v-.89a5.46,5.46,0,0,0,1.72.35,1.75,1.75,0,0,0,1.54-.84,4.24,4.24,0,0,0,.56-2.34,2.34,2.34,0,0,1-1.83,1,2.29,2.29,0,0,1-1.71-.74,2.54,2.54,0,0,1-.7-1.8,2.84,2.84,0,0,1,.75-2,2.42,2.42,0,0,1,1.87-.81,2.39,2.39,0,0,1,2,1,4.8,4.8,0,0,1,.75,2.85,5.34,5.34,0,0,1-.91,3.26,2.94,2.94,0,0,1-2.47,1.2A6.74,6.74,0,0,1,368.56,1103.76Zm.64-5.48a2.37,2.37,0,0,0,.41,1.46,1.37,1.37,0,0,0,1.13.53,1.58,1.58,0,0,0,1.15-.46,1.48,1.48,0,0,0,.47-1.1,2.68,2.68,0,0,0-.46-1.64,1.43,1.43,0,0,0-1.2-.62,1.34,1.34,0,0,0-1.1.5A2.07,2.07,0,0,0,369.2,1098.28Z"/></g><g class="cls-15"><path d="M323,1148.81V1148h1.59v-6.28l-1.59.4v-.82l2.65-.66V1148h1.59v.79Z"/><path d="M331.71,1149a2.3,2.3,0,0,1-2-1.16,6.34,6.34,0,0,1,0-6,2.34,2.34,0,0,1,4,0,5.31,5.31,0,0,1,.76,3,5.4,5.4,0,0,1-.76,3A2.35,2.35,0,0,1,331.71,1149Zm0-.79q1.68,0,1.68-3.42c0-2.23-.55-3.34-1.66-3.34s-1.65,1.12-1.65,3.37S330.63,1148.22,331.72,1148.22Z"/></g><g class="cls-16"><path d="M142,1239.81V1239h1.59v-6.28l-1.59.4v-.82l2.65-.66V1239h1.59v.79Z"/><path d="M148.92,1239.81V1239h1.59v-6.28l-1.59.4v-.82l2.65-.66V1239h1.59v.79Z"/></g><rect class="cls-17" x="613.96" y="262.59" width="245.63" height="130.39"/><path d="M653.41,290a28.09,28.09,0,0,1-3,12.82q-3.74,7.29-9.9,7.29a6.67,6.67,0,0,1-4.23-1.57q-.76,1-1,1a1.84,1.84,0,0,1-1-.32,23.53,23.53,0,0,1-.63-6.75q0-3.78.13-11.22t.14-11.28v-.72q0-1,1.08-1a2.17,2.17,0,0,1,1.17.43,1.17,1.17,0,0,1,.63.92,3.73,3.73,0,0,1-.32,1.33,3.59,3.59,0,0,0-.31,1.28v1.76a6.69,6.69,0,0,0,1.57-2.21,9.46,9.46,0,0,1,2.11-2.79,6.24,6.24,0,0,1,4.26-1.44,8,8,0,0,1,7.27,4A15.91,15.91,0,0,1,653.41,290Zm-2.65-.23a17.13,17.13,0,0,0-1.17-6.79q-1.58-3.78-5.13-3.78-2.52,0-5,3.1a15.56,15.56,0,0,0-2.83,5.45,20.91,20.91,0,0,0-.72,5.58v9.31a6,6,0,0,0,1.12,3.65,3.94,3.94,0,0,0,3.33,1.71q3.6,0,6.44-3.78a17.51,17.51,0,0,0,3.24-7.11A36.91,36.91,0,0,0,650.76,289.73Z"/><path d="M678.93,293.58a20.84,20.84,0,0,1-2.84,11q-3.33,5.48-9.22,5.48a11,11,0,0,1-3.47-.67q-7.51-2.38-7.51-13.48a23.47,23.47,0,0,1,2.88-11.64q3.42-6.21,9.4-6.2,5.22,0,8.24,5.34A20.28,20.28,0,0,1,678.93,293.58Zm-2.52-.4q0-10-6.65-12.22a3.62,3.62,0,0,0-1.25-.27,8.25,8.25,0,0,0-5.66,2.65q-4.71,4.49-4.71,13.88a15.86,15.86,0,0,0,.36,2.7,11.6,11.6,0,0,0,2.51,5.75,7.67,7.67,0,0,0,5.79,2.15q5.12,0,7.63-5.07A21,21,0,0,0,676.41,293.18Z"/><path d="M698.19,307.82a26.17,26.17,0,0,1-9.36,1.58q-3.87,0-5.31-3a15.42,15.42,0,0,1-1-6.48q0-2.79.43-8.32c.28-3.69.43-6.45.43-8.28q0-.58-.09-1.71t-.09-1.71c0-.3,0-.62,0-.95a1.67,1.67,0,0,1,1.35-.58c1.05,0,1.58,1.23,1.58,3.69q0,3.19-.59,9.58t-.58,9.59q0,6.07,4,6.07a13.81,13.81,0,0,0,3.8-.76,13.84,13.84,0,0,1,3.8-.77,1.32,1.32,0,0,1,1.15.66A2.54,2.54,0,0,1,698.19,307.82Z"/><path d="M715.24,307.82a26.17,26.17,0,0,1-9.36,1.58q-3.87,0-5.31-3a15.45,15.45,0,0,1-1-6.48q0-2.79.42-8.32t.43-8.28q0-.58-.09-1.71t-.09-1.71c0-.3,0-.62,0-.95a1.67,1.67,0,0,1,1.35-.58c1,0,1.57,1.23,1.57,3.69q0,3.19-.58,9.58t-.59,9.59q0,6.07,4,6.07a13.75,13.75,0,0,0,3.8-.76,14,14,0,0,1,3.81-.77,1.29,1.29,0,0,1,1.14.66A2.46,2.46,0,0,1,715.24,307.82Z"/><path d="M739.77,280.37,739,281a2.17,2.17,0,0,0-.49.81q-1,2.57-1.17,14.13,1.62.36,1.62,1.08a1.9,1.9,0,0,1-.41,1l-1.3.54a54.06,54.06,0,0,0,.45,5.81q0,.22.45,1.35a4.53,4.53,0,0,1,.31,1.26,1.79,1.79,0,0,1-.4,1.08,1.18,1.18,0,0,1-.95.54c-.81,0-1.36-.6-1.66-1.8,0-.15-.15-1.11-.36-2.86s-.32-2.89-.32-3.4a8.29,8.29,0,0,1,.14-1.53,40.5,40.5,0,0,0-6.6.76c-2.16.42-4.33.86-6.5,1.3l-.81.81c0,1.14,0,2.29,0,3.45.12,1.76.42,2.9.9,3.41-.12.39-.31.58-.57.58a2.68,2.68,0,0,0-.9.2,2.45,2.45,0,0,1-.78.2c-.57,0-.93-1.11-1.08-3.34-.06-1.39-.11-2.78-.14-4.18l-.31-.44H718a1.92,1.92,0,0,1-1.08-.34,1,1,0,0,1-.5-.88,2.17,2.17,0,0,1,.41-1c.27-.43.54-.65.81-.65h.49l.23-.05q0-2,0-7.88,0-7.85,1.08-10.66a1.68,1.68,0,0,1,1.62-1.21,2.38,2.38,0,0,1,1.4.47,1.41,1.41,0,0,1,.67,1.19,4.49,4.49,0,0,1-.41,1.22c-.31.75-.48,1.18-.51,1.3Q721,287.57,721,296.3c0,1.35.26,2,.77,2,.15,0,1-.15,2.39-.45a45.29,45.29,0,0,1,6.5-.9,6.3,6.3,0,0,0,1.38-.25,7.94,7.94,0,0,1,1.9-.25c.61,0,.9-.42.88-1.26l-.09-4a54.43,54.43,0,0,1,.36-7.65q.67-6,2.43-6a2,2,0,0,1,1.62.95A3.48,3.48,0,0,1,739.77,280.37Z"/><path d="M764.79,293.58a20.84,20.84,0,0,1-2.84,11q-3.33,5.48-9.23,5.48a11,11,0,0,1-3.46-.67q-7.51-2.38-7.51-13.48a23.47,23.47,0,0,1,2.88-11.64q3.4-6.21,9.4-6.2,5.22,0,8.23,5.34A20.29,20.29,0,0,1,764.79,293.58Zm-2.53-.4q0-10-6.64-12.22a3.67,3.67,0,0,0-1.26-.27,8.23,8.23,0,0,0-5.65,2.65Q744,287.83,744,297.22a15.59,15.59,0,0,0,.35,2.7,11.69,11.69,0,0,0,2.52,5.75,7.64,7.64,0,0,0,5.79,2.15q5.12,0,7.63-5.07A21,21,0,0,0,762.26,293.18Z"/><path d="M785.26,292.21a42.71,42.71,0,0,1-.85,8c-.7,3.63-1.61,6.06-2.75,7.29a6.85,6.85,0,0,1-5.13,2.34,8.06,8.06,0,0,1-5.4-1.62,9,9,0,0,1-2.92-5.76,51.33,51.33,0,0,1-.27-6.75q0-2.21.27-6.6c.17-2.92.27-5.1.27-6.54a4,4,0,0,0-.27-1.15,3.67,3.67,0,0,1-.27-1.1c0-.3.24-.62.74-.95a2.38,2.38,0,0,1,1.24-.49,7.53,7.53,0,0,0,1.53-.05c.39.09.55.44.49,1-.21.84-.44,1.94-.68,3.29-.56,5.56-.85,9-.85,10.28v5.85a12.06,12.06,0,0,0,1.17,5.46q1.47,3,4.26,3c3.13,0,5.26-3,6.36-9.06a77.24,77.24,0,0,0,.81-12.84l.09-1.89a12.38,12.38,0,0,0-.05-2,5.11,5.11,0,0,0-.44-1.78,3.91,3.91,0,0,1-.36-.83,2,2,0,0,1,.33-1,1,1,0,0,1,.79-.57,2.44,2.44,0,0,1,1.19.43c.47.29.7.58.7.88Z"/><path d="M806.14,305q0,2.52-3.15,3.87a13.56,13.56,0,0,1-5.4,1.08,17.93,17.93,0,0,1-5.8-1.08c-2.7-.93-4.06-2.09-4.06-3.47,0-.75.36-1.12,1.08-1.12a3.25,3.25,0,0,1,2,1c1,1,1.62,1.51,1.7,1.57Q794.21,308,798,308q5.13,0,5.13-2.7c0-.84-.74-1.88-2.21-3.11l-3.37-2.43a49.19,49.19,0,0,1-6.08-4.77,10,10,0,0,1-2.83-7,11.55,11.55,0,0,1,2.12-6.75,6.92,6.92,0,0,1,5.89-3.42,6.55,6.55,0,0,1,5.17,2.57,11.41,11.41,0,0,1,2.48,5.44c0,.72.15,1.82.36,3.29l.36,1.62c0,2.4-.59,3.6-1.76,3.6a1.3,1.3,0,0,1-.92-.52,1.53,1.53,0,0,1-.47-1,9.66,9.66,0,0,1,.25-1.84,10.43,10.43,0,0,0,.24-1.85,14.23,14.23,0,0,0-1-5.49q-1.29-3.24-3.92-3.24a5.34,5.34,0,0,0-4.4,2.32,8.15,8.15,0,0,0-1.76,5.06q0,3.69,3.85,7l7.14,5.18Q806.14,302.74,806.14,305Z"/><path d="M827.51,306.92c-.15.33-.33.5-.54.5a3.32,3.32,0,0,1-.51-.07,2.57,2.57,0,0,0-.52-.07,19.56,19.56,0,0,0-5.6,1.22,19.59,19.59,0,0,1-5.61,1.21q-6.35,0-6.34-10.65,0-8.44.45-14.42l.09-1.44a5.24,5.24,0,0,0-.11-.92,4.25,4.25,0,0,1-.11-.79c0-.72.49-1.12,1.48-1.21a64.58,64.58,0,0,0,6.57-1.39,31.27,31.27,0,0,1,6.39-1.08,3.12,3.12,0,0,1,.63.09,2.2,2.2,0,0,1,1.39.4,1.21,1.21,0,0,1,.68.95c0,.6-.76.9-2.3.9a37.39,37.39,0,0,0-6.07.72q-4.5.86-5.58,1.75-.36,3.42-.85,10.71a.58.58,0,0,0,.49.23,14.63,14.63,0,0,0,4-.86,14.41,14.41,0,0,1,4-.85,4.83,4.83,0,0,1,2.25.58l.37,1.35q.07.18-1.17.63a2.76,2.76,0,0,0-1.62-.45,21.09,21.09,0,0,0-4.26.81,27.31,27.31,0,0,0-4.25,1.35,34.44,34.44,0,0,0-.18,4.59q0,6.8,3.46,6.8a16,16,0,0,0,4.8-1.1,15.69,15.69,0,0,1,4.79-1.11C825.7,305.3,826.94,305.84,827.51,306.92Z"/><path d="M651.07,339.24a1.53,1.53,0,0,1-1.12.49,5.41,5.41,0,0,1-.81-.09,5.56,5.56,0,0,0-.86-.09,22.63,22.63,0,0,0-5,.77,44.14,44.14,0,0,1-5,1.08l-.94,8.49c-.06.61-.09,1.12-.09,1.54,0,.66.22,1,.67,1a2.1,2.1,0,0,0,.41,0,29.43,29.43,0,0,1,6.25-1.08q2.79,0,1.89-.09a1.9,1.9,0,0,1,1.44.9l.14,1.12a.47.47,0,0,1-.45.32,5.24,5.24,0,0,0-.84.09,4.86,4.86,0,0,1-.78.09,30.21,30.21,0,0,0-8.73,1.48,41.49,41.49,0,0,0-.32,6.62c0,2.82.11,4.39.32,4.72a4.94,4.94,0,0,0,.42.54.73.73,0,0,1,.25.45c0,.21-.16.44-.49.7a1.52,1.52,0,0,1-.77.38s-.48-.24-1.35-.72a18.63,18.63,0,0,1-.94-6.52q0-3.19.51-9.47t.52-9.48a.67.67,0,0,0-.63-.76,3.88,3.88,0,0,1-1.17-.32c-.45-.3-.67-.57-.67-.81a1.35,1.35,0,0,1,.4-.9,4.38,4.38,0,0,1,1.13-.13,1.44,1.44,0,0,0,1-.36,2.83,2.83,0,0,0,.09-.68c0-.45.3-.85.9-1.21a2.65,2.65,0,0,1,1.22-.41c.3,0,.46.2.49.59v.94a.74.74,0,0,0,.32.45l4.27-.9a23.42,23.42,0,0,1,4.32-.49A5,5,0,0,1,651.07,339.24Z"/><path d="M667.36,366.82A26.17,26.17,0,0,1,658,368.4q-3.87,0-5.31-3a15.45,15.45,0,0,1-1-6.48q0-2.79.42-8.32t.43-8.28q0-.58-.09-1.71t-.09-1.71c0-.3,0-.62,0-.95a1.67,1.67,0,0,1,1.35-.58c1,0,1.57,1.23,1.57,3.69q0,3.19-.58,9.58t-.59,9.59q0,6.07,4,6.07a13.75,13.75,0,0,0,3.8-.76,14,14,0,0,1,3.81-.77,1.29,1.29,0,0,1,1.14.66A2.46,2.46,0,0,1,667.36,366.82Z"/><path d="M690.68,352.58a20.75,20.75,0,0,1-2.84,11q-3.33,5.48-9.22,5.48a10.86,10.86,0,0,1-3.46-.67q-7.53-2.38-7.52-13.48a23.47,23.47,0,0,1,2.88-11.64q3.42-6.21,9.4-6.2,5.22,0,8.24,5.34A20.28,20.28,0,0,1,690.68,352.58Zm-2.52-.4q0-10-6.64-12.22a3.67,3.67,0,0,0-1.26-.27,8.25,8.25,0,0,0-5.66,2.65q-4.71,4.49-4.71,13.88a15.86,15.86,0,0,0,.36,2.7,11.78,11.78,0,0,0,2.51,5.75,7.67,7.67,0,0,0,5.79,2.15q5.13,0,7.63-5.07A21,21,0,0,0,688.16,352.18Z"/><path d="M716.42,352.58a20.93,20.93,0,0,1-2.83,11q-3.35,5.48-9.23,5.48a11,11,0,0,1-3.47-.67q-7.51-2.38-7.51-13.48a23.47,23.47,0,0,1,2.88-11.64q3.42-6.21,9.41-6.2,5.21,0,8.23,5.34A20.28,20.28,0,0,1,716.42,352.58Zm-2.52-.4q0-10-6.64-12.22a3.67,3.67,0,0,0-1.26-.27,8.25,8.25,0,0,0-5.66,2.65q-4.71,4.49-4.71,13.88a15.86,15.86,0,0,0,.36,2.7,11.78,11.78,0,0,0,2.51,5.75,7.67,7.67,0,0,0,5.79,2.15q5.13,0,7.63-5.07A21,21,0,0,0,713.9,352.18Z"/><path d="M741.13,367.59v.22a.84.84,0,0,1-.76.45c-.42,0-.7-.07-.82-.22q-.36-1.85-6.09-5.88t-7.75-4h-2.58v2.79a23.94,23.94,0,0,0,.33,2.7,9.45,9.45,0,0,0,.46,2.47,6.88,6.88,0,0,0,.79,1.13c0,.69-.39,1-1.17,1a2.28,2.28,0,0,1-2-.94q-.67-.94-.68-8.82c0-.42-.52-.8-1.57-1.13s-1.58-.72-1.58-1.17q0-1,2.88-1.8a28.49,28.49,0,0,0,.41-4.32c.12-2.25.21-3.7.27-4.36,0-.33.16-1.23.4-2.7a12.56,12.56,0,0,0,.27-2.75,3,3,0,0,0-1.19-.13c-.64,0-1-.26-1-.77a1.09,1.09,0,0,1,.9-1.17l1.31-.36a2.91,2.91,0,0,1,.58-1,2.29,2.29,0,0,1,.72-.13,1.52,1.52,0,0,1,1,.49,1.44,1.44,0,0,0,.92.5,5,5,0,0,0,.63-.07,3.6,3.6,0,0,1,.63-.07,16,16,0,0,1,8.41,2.07,7.77,7.77,0,0,1,4.19,7.11,8.81,8.81,0,0,1-2.3,6.3,22.83,22.83,0,0,1-5.58,3.83,2.27,2.27,0,0,0-.63.22,35,35,0,0,0,4,2.93,33,33,0,0,1,4.5,3.37A5.65,5.65,0,0,1,741.13,367.59Zm-4.36-21a5.8,5.8,0,0,0-3.1-5.26,11.81,11.81,0,0,0-6.19-1.53,10.72,10.72,0,0,0-2.15.18l-.58.9a5.82,5.82,0,0,0-.72,2.74c-.06,1.65-.12,2.63-.18,2.93a51.8,51.8,0,0,0-.72,8.14,17.86,17.86,0,0,0,4.13,1.26,6.54,6.54,0,0,0,1.79-.36,11.46,11.46,0,0,0,5.39-3.28A8.12,8.12,0,0,0,736.77,346.57Z"/><path d="M772.45,350.8q-1.85,11.43-9.67,11a11.8,11.8,0,0,1-7.16-2.79l-.31.23v1.84a11,11,0,0,0,.45,3.92,9.94,9.94,0,0,0,.49.92,3.26,3.26,0,0,1,.45,1,1.51,1.51,0,0,1-.4,1,1.24,1.24,0,0,1-1,.47,2,2,0,0,1-1.89-.9,5.57,5.57,0,0,1-.45-2.16c-.09-1.53-.14-3.07-.14-4.63q0-1.35.21-4.05c.13-1.8.19-3.18.18-4.12s0-2.34.2-4.19.22-3.21.22-4.11v-4.28a5.13,5.13,0,0,0-.15-1,4.61,4.61,0,0,1-.16-1c0-.57.39-.85,1.17-.85a1.55,1.55,0,0,1,1.28.67,2.3,2.3,0,0,1,.52,1.44,10.27,10.27,0,0,1-.2,1.67,9.36,9.36,0,0,0-.21,1.66v1.17l2.07-3.6a7.52,7.52,0,0,1,6.42-3.37,7.15,7.15,0,0,1,6.5,3.55,14,14,0,0,1,1.8,7.43A21.25,21.25,0,0,1,772.45,350.8Zm-2-2.54a14.88,14.88,0,0,0-1.21-6.18q-1.58-3.46-4.62-3.47c-2.64,0-4.86,1.75-6.69,5.26a19.24,19.24,0,0,0-2.33,8.87v2.38a1.68,1.68,0,0,1,.67-.22q.32,0,.57.45a1.9,1.9,0,0,0,.42.59c0,.09-.07.12-.13.09s-.09,0-.09.09a2,2,0,0,0,.36.82,6.78,6.78,0,0,0,10.49.47,13,13,0,0,0,2.06-5.32A22.5,22.5,0,0,0,770.43,348.26Z"/><path d="M791.71,366.82a26.17,26.17,0,0,1-9.36,1.58q-3.87,0-5.31-3a15.45,15.45,0,0,1-1-6.48q0-2.79.43-8.32t.42-8.28q0-.58-.09-1.71t-.09-1.71c0-.3,0-.62.05-.95a1.67,1.67,0,0,1,1.35-.58c1,0,1.57,1.23,1.57,3.69q0,3.19-.58,9.58t-.59,9.59q0,6.07,4,6.07a13.87,13.87,0,0,0,3.81-.76,13.84,13.84,0,0,1,3.8-.77,1.32,1.32,0,0,1,1.15.66A2.53,2.53,0,0,1,791.71,366.82Z"/><path d="M814.57,359.31c0,1-.37,1.44-1.12,1.44a2.79,2.79,0,0,1-1-.18,14.09,14.09,0,0,0,1.13,5.13,1.23,1.23,0,0,1-.56.94,2,2,0,0,1-1.15.36,2.93,2.93,0,0,1-1.22-.31,5.29,5.29,0,0,1-.36-2.25c0-.27,0-.77,0-1.49v-1.48a2.78,2.78,0,0,0-.14-1.08,5.18,5.18,0,0,0-1.14,0,10.25,10.25,0,0,1-1.06.09,52.55,52.55,0,0,0-6.08.54q-4.72.63-5.44,1.26c-.27.21-.56,1.29-.86,3.24-.24,1.59-.37,2.76-.4,3.51a.73.73,0,0,1-.63.32,2.19,2.19,0,0,1-1.31-.59,1.56,1.56,0,0,1-.72-1.12,4.81,4.81,0,0,1,.36-1.22,11.7,11.7,0,0,0,.41-1.17,59.91,59.91,0,0,1,2.92-11q5.94-16.87,9.18-16.88,3.46,0,5.36,8.82.67,3.1,1.57,11.88a4.05,4.05,0,0,0,1.35.5Q814.57,358.77,814.57,359.31ZM810.21,358q-1.12-7.92-1.44-9.58-1.49-7.56-3.15-7.52-1.85.09-4.64,6.93-1.58,4.32-3.1,8.64a11.76,11.76,0,0,0-.59,1.76q-.18,1.08.63,1.08c.18,0,1.1-.15,2.75-.45Q802.61,358.5,810.21,358Z"/><path d="M837.52,337.53a.53.53,0,0,1-.4.58l-.86.36c-.42.24-.79,1.6-1.12,4.06a36.19,36.19,0,0,0-.41,4.69l-.13,13.65a13.3,13.3,0,0,1-.77,3.92c-.63,1.81-1.42,2.71-2.38,2.71q-2.21,0-4.1-4.1a53.24,53.24,0,0,1-2.14-6.14q-1.37-4.53-4.07-13.57-.5.09-.54.9-.09,1.21-.72,6.3a51.62,51.62,0,0,0-.49,6.3q0,7.24.9,8.37a3.8,3.8,0,0,1,.49.81,1.23,1.23,0,0,1-.66.95,2.16,2.16,0,0,1-1.16.45q-1.82,0-1.82-5.9c0-.54,0-1.3-.07-2.29s-.07-1.76-.07-2.3a45.1,45.1,0,0,1,.59-5.91,45.06,45.06,0,0,0,.58-6v-5.8a1,1,0,0,0-.07-.3A1.13,1.13,0,0,1,818,339c0-.78.76-1.17,2.29-1.17a2.81,2.81,0,0,1,2.61,1.17,7.51,7.51,0,0,1,.36,2c.09.72.18,1.46.27,2.21A93.45,93.45,0,0,0,826.81,355q3.11,9.54,4.5,9.54,1.22,0,1.17-4.82l-.13-13.52a19.14,19.14,0,0,1,.85-5.32q1.13-3.82,2.93-3.83A2.62,2.62,0,0,1,837.52,337.53Z"/></g></g></svg>