<svg xmlns="http://www.w3.org/2000/svg" viewBox="0 0 276 276"><defs><style>.cls-1{fill:#fff;}.cls-1,.cls-2,.cls-3{stroke:#231f20;}.cls-1,.cls-2,.cls-3,.cls-4{stroke-miterlimit:10;}.cls-2,.cls-3,.cls-4,.cls-5{fill:none;}.cls-3{stroke-width:0.25px;}.cls-4{stroke:#ed1c24;stroke-width:2px;}.cls-6{fill:#404040;}</style></defs><title>item17</title><g id="Layer_2" data-name="Layer 2"><g id="notebook_1" data-name="notebook 1"><rect class="cls-1" x="0.5" y="0.5" width="275" height="275"/><g id="notebook_back" data-name="notebook back"><rect class="cls-1" x="178.78" y="82.68" width="6.13" height="124.97" transform="translate(-50.49 132.44) rotate(-35.46)"/><line class="cls-2" x1="154.42" y1="96.74" x2="145.05" y2="103.42"/><line class="cls-2" x1="155.53" y1="98.3" x2="146.16" y2="104.98"/><line class="cls-2" x1="214.67" y1="181.32" x2="205.3" y2="187.99"/><line class="cls-2" x1="215.78" y1="182.88" x2="206.41" y2="189.56"/><line class="cls-2" x1="211.8" y1="177.29" x2="202.43" y2="183.97"/><line class="cls-2" x1="212.91" y1="178.86" x2="203.54" y2="185.53"/><line class="cls-2" x1="208.93" y1="173.27" x2="199.56" y2="179.94"/><line class="cls-2" x1="210.04" y1="174.83" x2="200.67" y2="181.5"/><line class="cls-2" x1="206.06" y1="169.24" x2="196.69" y2="175.91"/><line class="cls-2" x1="207.17" y1="170.8" x2="197.81" y2="177.47"/><line class="cls-2" x1="203.19" y1="165.21" x2="193.82" y2="171.88"/><line class="cls-2" x1="204.3" y1="166.77" x2="194.94" y2="173.44"/><line class="cls-2" x1="200.32" y1="161.18" x2="190.96" y2="167.86"/><line class="cls-2" x1="201.43" y1="162.75" x2="192.07" y2="169.42"/><line class="cls-2" x1="197.45" y1="157.16" x2="188.09" y2="163.83"/><line class="cls-2" x1="198.56" y1="158.72" x2="189.2" y2="165.39"/><line class="cls-2" x1="194.58" y1="153.13" x2="185.22" y2="159.8"/><line class="cls-2" x1="195.7" y1="154.69" x2="186.33" y2="161.36"/><line class="cls-2" x1="191.71" y1="149.1" x2="182.35" y2="155.77"/><line class="cls-2" x1="192.83" y1="150.66" x2="183.46" y2="157.33"/><line class="cls-2" x1="188.85" y1="145.07" x2="179.48" y2="151.75"/><line class="cls-2" x1="189.96" y1="146.63" x2="180.59" y2="153.31"/><line class="cls-2" x1="185.98" y1="141.05" x2="176.61" y2="147.72"/><line class="cls-2" x1="187.09" y1="142.61" x2="177.72" y2="149.28"/><line class="cls-2" x1="183.11" y1="137.02" x2="173.74" y2="143.69"/><line class="cls-2" x1="184.22" y1="138.58" x2="174.85" y2="145.25"/><line class="cls-2" x1="180.24" y1="132.99" x2="170.87" y2="139.66"/><line class="cls-2" x1="181.35" y1="134.55" x2="171.98" y2="141.22"/><line class="cls-2" x1="177.37" y1="128.96" x2="168" y2="135.64"/><line class="cls-2" x1="178.48" y1="130.52" x2="169.11" y2="137.2"/><line class="cls-2" x1="174.5" y1="124.94" x2="165.13" y2="131.61"/><line class="cls-2" x1="175.61" y1="126.5" x2="166.25" y2="133.17"/><line class="cls-2" x1="171.63" y1="120.91" x2="162.26" y2="127.58"/><line class="cls-2" x1="172.74" y1="122.47" x2="163.38" y2="129.14"/><line class="cls-2" x1="168.76" y1="116.88" x2="159.4" y2="123.55"/><line class="cls-2" x1="169.87" y1="118.44" x2="160.51" y2="125.11"/><line class="cls-2" x1="165.89" y1="112.85" x2="156.53" y2="119.53"/><line class="cls-2" x1="167" y1="114.41" x2="157.64" y2="121.09"/><line class="cls-2" x1="163.02" y1="108.83" x2="153.66" y2="115.5"/><line class="cls-2" x1="164.14" y1="110.39" x2="154.77" y2="117.06"/><line class="cls-2" x1="160.15" y1="104.8" x2="150.79" y2="111.47"/><line class="cls-2" x1="161.27" y1="106.36" x2="151.9" y2="113.03"/><line class="cls-2" x1="157.29" y1="100.77" x2="147.92" y2="107.44"/><line class="cls-2" x1="158.4" y1="102.33" x2="149.03" y2="109"/><line class="cls-2" x1="217.54" y1="185.35" x2="208.17" y2="192.02"/><line class="cls-2" x1="218.65" y1="186.91" x2="209.28" y2="193.58"/></g><rect class="cls-3" x="80.2" y="65.78" width="30" height="90"/><line class="cls-3" x1="80.2" y1="125.78" x2="110.2" y2="125.78"/><line class="cls-3" x1="80.2" y1="95.78" x2="110.2" y2="95.78"/><rect class="cls-4" x="80.2" y="95.78" width="30" height="30"/><rect class="cls-3" x="80.2" y="155.51" width="30" height="60"/><line class="cls-3" x1="110.2" y1="185.51" x2="80.2" y2="185.51"/><rect class="cls-5" x="92.92" y="61.56" width="4.66" height="11.69" transform="matrix(1, -0.04, 0.04, 1, -2.41, 3.55)"/><path id="path2890" class="cls-6" d="M93.82,72c.44-.16.75-.25,1.1-.39C96.1,73.24,94.08,74.2,93.82,72Zm1-.79-1.09.32A4.31,4.31,0,0,1,93,69.26c0-.68.08-1.6,1-1.5.44.1.77.61,1,1.45a1.63,1.63,0,0,1-.06,1.06,2.34,2.34,0,0,0-.09.91Z"/><path id="path2890-7" class="cls-6" d="M96.78,65.72c-.45-.13-.77-.2-1.12-.31C94.6,67.15,96.69,68,96.78,65.72Zm.08-.48A4.29,4.29,0,0,0,97.41,63c0-.67-.19-1.59-1.11-1.41-.42.13-.72.66-.84,1.5a1.57,1.57,0,0,0,.13,1.06,2.13,2.13,0,0,1,.15.9Z"/><rect class="cls-5" x="93.43" y="75.58" width="4.66" height="11.69" transform="translate(-2.93 3.58) rotate(-2.11)"/><path id="path2890-2" data-name="path2890" class="cls-6" d="M94.34,86c.44-.16.75-.25,1.1-.39C96.62,87.25,94.59,88.22,94.34,86Zm1-.8-1.09.32a4.22,4.22,0,0,1-.72-2.24c0-.67.07-1.59,1-1.49.43.1.77.61.95,1.44a1.56,1.56,0,0,1,0,1.06,2.34,2.34,0,0,0-.09.91Z"/><path id="path2890-7-2" data-name="path2890-7" class="cls-6" d="M97.3,79.74c-.46-.13-.77-.2-1.13-.31C95.11,81.17,97.21,82,97.3,79.74Zm.07-.48A4.32,4.32,0,0,0,97.93,77c-.05-.67-.2-1.59-1.11-1.42-.43.13-.73.67-.85,1.51a1.6,1.6,0,0,0,.13,1,2.22,2.22,0,0,1,.16.91Q96.82,79.13,97.37,79.26Z"/><rect class="cls-5" x="93.95" y="89.6" width="4.66" height="11.69" transform="matrix(1, -0.04, 0.04, 1, -3.45, 3.61)"/><path id="path2890-3" data-name="path2890" class="cls-6" d="M94.85,100c.45-.16.75-.25,1.1-.39C97.14,101.27,95.11,102.24,94.85,100Zm1-.79-1.1.32A4.4,4.4,0,0,1,94,97.29c0-.67.08-1.6,1-1.49.44.1.78.61,1,1.44a1.55,1.55,0,0,1-.06,1.06,2.16,2.16,0,0,0-.08.91Z"/><path id="path2890-7-3" data-name="path2890-7" class="cls-6" d="M97.81,93.75c-.45-.12-.76-.19-1.12-.3C95.63,95.18,97.72,96,97.81,93.75Zm.08-.48A4.28,4.28,0,0,0,98.44,91c0-.68-.19-1.59-1.11-1.42-.42.13-.72.66-.84,1.51a1.55,1.55,0,0,0,.13,1,2.13,2.13,0,0,1,.15.9Z"/><rect class="cls-5" x="94.12" y="103.62" width="4.66" height="11.69"/><path id="path2890-4" data-name="path2890" class="cls-6" d="M94.86,114c.45-.14.76-.22,1.11-.35C97.09,115.32,95,116.21,94.86,114Zm1-.75c-.37.08-.73.18-1.1.27a4.23,4.23,0,0,1-.64-2.26c0-.67.13-1.59,1.05-1.46.43.12.75.64.9,1.48a1.54,1.54,0,0,1-.09,1.06,2.31,2.31,0,0,0-.12.91Z"/><path id="path2890-7-4" data-name="path2890-7" class="cls-6" d="M98.05,107.83c-.45-.14-.76-.22-1.12-.35C95.81,109.18,97.87,110.08,98.05,107.83Zm.09-.47a4.29,4.29,0,0,0,.64-2.27c0-.67-.14-1.59-1.06-1.46-.43.12-.75.64-.9,1.48a1.6,1.6,0,0,0,.09,1.06,2.18,2.18,0,0,1,.12.91C97.4,107.16,97.77,107.26,98.14,107.36Z"/><rect class="cls-5" x="94.13" y="117.65" width="4.66" height="11.69"/><path id="path2890-5" data-name="path2890" class="cls-6" d="M94.86,128l1.12-.35C97.1,129.35,95,130.24,94.86,128Zm1-.76-1.1.28a4.25,4.25,0,0,1-.64-2.26c0-.68.14-1.6,1.06-1.46.43.11.75.64.9,1.48a1.56,1.56,0,0,1-.09,1,2.19,2.19,0,0,0-.13.91Z"/><path id="path2890-7-5" data-name="path2890-7" class="cls-6" d="M98.05,121.86c-.45-.14-.76-.22-1.11-.35C95.81,123.21,97.87,124.1,98.05,121.86Zm.09-.48a4.25,4.25,0,0,0,.64-2.26c0-.68-.14-1.6-1.06-1.46-.43.12-.75.64-.9,1.48a1.6,1.6,0,0,0,.1,1.06,2.28,2.28,0,0,1,.12.9Z"/><rect class="cls-5" x="94.13" y="131.67" width="4.66" height="11.69"/><path id="path2890-6" data-name="path2890" class="cls-6" d="M94.86,142c.45-.14.76-.22,1.12-.35C97.1,143.37,95,144.27,94.86,142Zm1-.75c-.37.08-.74.18-1.11.28a4.38,4.38,0,0,1-.64-2.27c0-.67.14-1.59,1.06-1.45.43.11.75.63.9,1.47a1.6,1.6,0,0,1-.09,1.06,2.18,2.18,0,0,0-.12.91Z"/><path id="path2890-7-6" data-name="path2890-7" class="cls-6" d="M98.05,135.88c-.45-.14-.76-.22-1.11-.34C95.82,137.23,97.88,138.13,98.05,135.88Zm.09-.47a4.29,4.29,0,0,0,.64-2.27c0-.67-.13-1.59-1-1.45-.43.11-.75.63-.9,1.47a1.53,1.53,0,0,0,.09,1.06,2.36,2.36,0,0,1,.12.91Z"/><rect class="cls-5" x="94.13" y="145.7" width="4.66" height="11.69"/><path id="path2890-7-7" data-name="path2890" class="cls-6" d="M94.87,156.05c.45-.14.76-.22,1.11-.35C97.1,157.4,95,158.29,94.87,156.05Zm1-.76-1.1.28a4.23,4.23,0,0,1-.64-2.26c0-.67.13-1.6,1-1.46.43.12.75.64.9,1.48a1.6,1.6,0,0,1-.09,1.06,2.28,2.28,0,0,0-.12.9Z"/><path id="path2890-7-8" data-name="path2890-7" class="cls-6" d="M98.06,149.91c-.45-.14-.77-.22-1.12-.35C95.82,151.26,97.88,152.15,98.06,149.91Zm.09-.48a4.22,4.22,0,0,0,.63-2.26c0-.67-.13-1.59-1-1.46-.43.12-.75.64-.9,1.48a1.6,1.6,0,0,0,.09,1.06,2.14,2.14,0,0,1,.12.91Z"/><rect class="cls-5" x="87.86" y="162.94" width="11.69" height="4.66" transform="translate(-87.92 221.02) rotate(-77.51)"/><path id="path2890-8" data-name="path2890" class="cls-6" d="M91.17,169.32c.47,0,.79,0,1.16-.1C93.06,171.12,90.86,171.55,91.17,169.32Zm1.15-.52-1.13,0a4.28,4.28,0,0,1-.14-2.35c.17-.65.48-1.53,1.35-1.2.39.21.59.79.56,1.64a1.58,1.58,0,0,1-.32,1,2.42,2.42,0,0,0-.32.86Z"/><path id="path2890-7-9" data-name="path2890-7" class="cls-6" d="M95.61,164c-.41-.24-.69-.38-1-.58C93.14,164.85,95,166.17,95.61,164Zm.19-.45c.43-.18,1.08-1.69,1.12-2.07.12-.66.21-1.59-.72-1.65-.44,0-.87.46-1.2,1.25a1.62,1.62,0,0,0-.14,1.05,2.14,2.14,0,0,1-.07.91Z"/><rect class="cls-5" x="79.87" y="163.86" width="4.66" height="11.69" transform="translate(-98.89 222.26) rotate(-80.34)"/><path id="path2890-9" data-name="path2890" class="cls-6" d="M78,167.38c.06.46.09.78.15,1.15C76.32,169.35,75.78,167.17,78,167.38Zm.57,1.12c0-.38-.06-.75-.09-1.13a4.18,4.18,0,0,1,2.34-.25c.66.13,1.55.4,1.26,1.28-.19.41-.76.63-1.61.64a1.61,1.61,0,0,1-1-.27,2.21,2.21,0,0,0-.87-.27Z"/><path id="path2890-7-10" data-name="path2890-7" class="cls-6" d="M83.54,171.55c.22-.42.35-.71.53-1C82.59,169.12,81.36,171,83.54,171.55Zm.46.17a4.19,4.19,0,0,0,2.12,1c.67.09,1.59.13,1.61-.8,0-.44-.5-.84-1.3-1.13a1.6,1.6,0,0,0-1.06-.09,2.15,2.15,0,0,1-.91,0C84.31,171,84.15,171.37,84,171.72Z"/><rect class="cls-5" x="76.36" y="177.4" width="11.69" height="4.66" transform="translate(-31.36 17.98) rotate(-10.5)"/><path id="path2890-10" data-name="path2890" class="cls-6" d="M86.92,180.47c-.22-.41-.35-.7-.54-1C87.84,178,89.1,179.89,86.92,180.47Zm-.92-.85c.15.34.31.68.47,1a4.29,4.29,0,0,1-2.11,1c-.66.1-1.59.16-1.62-.77,0-.45.49-.85,1.28-1.16a1.61,1.61,0,0,1,1.06-.1,2.19,2.19,0,0,0,.92,0Z"/><path id="path2890-7-11" data-name="path2890-7" class="cls-6" d="M80.31,178.45c-.06.47-.08.79-.14,1.16C82,180.41,82.54,178.22,80.31,178.45Zm-.49,0a4.26,4.26,0,0,0-2.34-.21c-.66.14-1.54.42-1.24,1.3.19.4.76.62,1.62.62a1.61,1.61,0,0,0,1-.29,2.23,2.23,0,0,1,.87-.28C79.77,179.21,79.79,178.84,79.82,178.45Z"/><rect class="cls-5" x="93.74" y="173.14" width="4.66" height="11.69" transform="translate(-91.84 256.15) rotate(-84.1)"/><path id="path2890-11" data-name="path2890" class="cls-6" d="M100.38,181c-.09-.46-.14-.78-.23-1.14C102,179,102.63,181.09,100.38,181ZM99.74,180c.05.37.1.75.16,1.13a4.34,4.34,0,0,1-2.32.4c-.66-.09-1.57-.3-1.34-1.2.16-.42.71-.68,1.56-.74a1.52,1.52,0,0,1,1,.2,2.28,2.28,0,0,0,.89.21Z"/><path id="path2890-7-12" data-name="path2890-7" class="cls-6" d="M94.61,177.23c-.19.43-.3.73-.46,1.07C95.72,179.59,96.82,177.64,94.61,177.23Zm-.47-.14a4.29,4.29,0,0,0-2.18-.87c-.68,0-1.6,0-1.56.9.07.44.56.81,1.37,1a1.58,1.58,0,0,0,1.07,0,2.15,2.15,0,0,1,.91,0Z"/><rect class="cls-5" x="107.69" y="174.58" width="4.66" height="11.69" transform="translate(-80.76 271.32) rotate(-84.1)"/><path id="path2890-12" data-name="path2890" class="cls-6" d="M114.34,182.48c-.1-.46-.15-.78-.23-1.15C115.91,180.39,116.59,182.53,114.34,182.48Zm-.65-1.09c0,.38.1.75.16,1.13a4.3,4.3,0,0,1-2.31.4c-.67-.09-1.58-.3-1.35-1.2.16-.42.72-.68,1.57-.74a1.5,1.5,0,0,1,1,.2,2.28,2.28,0,0,0,.89.21Z"/><path id="path2890-7-13" data-name="path2890-7" class="cls-6" d="M108.56,178.67c-.19.43-.3.74-.46,1.08C109.67,181,110.77,179.08,108.56,178.67Zm-.47-.14a4.19,4.19,0,0,0-2.18-.86c-.67,0-1.6,0-1.56.89.07.44.56.82,1.38,1.05a1.55,1.55,0,0,0,1.06,0,2.33,2.33,0,0,1,.91,0Z"/></g></g></svg>