<svg xmlns="http://www.w3.org/2000/svg" viewBox="0 0 276 276"><defs><style>.cls-1{fill:#fff;}.cls-1,.cls-2,.cls-5{stroke:#231f20;stroke-miterlimit:10;}.cls-2,.cls-3,.cls-5{fill:none;}.cls-2{stroke-width:0.25px;}.cls-4{fill:#404040;}</style></defs><title>item3</title><g id="Layer_2" data-name="Layer 2"><g id="wateringcan2"><rect class="cls-1" x="0.5" y="0.5" width="275" height="275"/><rect class="cls-2" x="81.87" y="96.35" width="30" height="120"/><line class="cls-2" x1="81.87" y1="186.35" x2="111.87" y2="186.35"/><line class="cls-2" x1="81.87" y1="156.35" x2="111.87" y2="156.35"/><line class="cls-2" x1="81.87" y1="126.35" x2="111.87" y2="126.35"/><rect class="cls-3" x="77.12" y="99.8" width="4.66" height="11.69" transform="translate(-37.26 167.71) rotate(-81.05)"/><path id="path2890" class="cls-4" d="M83.66,107.92c-.07-.46-.1-.78-.17-1.15C85.34,105.93,85.9,108.1,83.66,107.92Zm-.59-1.11c0,.37.06.75.1,1.13a4.25,4.25,0,0,1-2.33.28c-.67-.13-1.56-.38-1.28-1.27.18-.41.75-.64,1.6-.66a1.61,1.61,0,0,1,1,.25,2.26,2.26,0,0,0,.88.27Z"/><path id="path2890-7" class="cls-4" d="M78.09,103.82c-.21.42-.34.72-.52,1.05C79.07,106.24,80.28,104.34,78.09,103.82Zm-.46-.17a4.3,4.3,0,0,0-2.13-1c-.67-.08-1.6-.11-1.61.82,0,.44.52.84,1.32,1.12a1.58,1.58,0,0,0,1.06.07,2.38,2.38,0,0,1,.92,0C77.33,104.35,77.48,104,77.63,103.65Z"/><rect class="cls-3" x="90.61" y="102.91" width="4.66" height="11.69" transform="translate(-42.78 153.97) rotate(-67.91)"/><path id="path2890-2" data-name="path2890" class="cls-4" d="M96.51,111.92c0-.47.08-.79.1-1.16C98.6,110.36,98.65,112.6,96.51,111.92Zm-.32-1.22c-.06.37-.11.75-.16,1.13a4.3,4.3,0,0,1-2.33-.26c-.62-.28-1.43-.73-1-1.53.27-.35.88-.45,1.71-.28a1.6,1.6,0,0,1,1,.49,2.14,2.14,0,0,0,.79.45Z"/><path id="path2890-7-2" data-name="path2890-7" class="cls-4" d="M92,106.66c-.3.36-.49.62-.74.9C92.43,109.24,94,107.67,92,106.66Zm-.41-.26c-.11-.46-1.48-1.35-1.85-1.45-.64-.23-1.53-.47-1.75.43-.06.44.31.94,1,1.39a1.64,1.64,0,0,0,1,.32,2.09,2.09,0,0,1,.89.22C91.16,107,91.38,106.7,91.61,106.4Z"/><rect class="cls-3" x="87.15" y="119.47" width="11.69" height="4.66" transform="translate(-42.82 192.76) rotate(-80.22)"/><path id="path2890-3" data-name="path2890" class="cls-4" d="M90.66,126c.46-.06.79-.09,1.16-.15C92.63,127.67,90.45,128.2,90.66,126Zm1.12-.57-1.13.09a4.18,4.18,0,0,1-.24-2.34c.13-.66.4-1.55,1.28-1.26.41.19.63.76.64,1.61a1.61,1.61,0,0,1-.27,1,2.28,2.28,0,0,0-.28.87Z"/><path id="path2890-7-3" data-name="path2890-7" class="cls-4" d="M94.84,120.46c-.41-.22-.71-.35-1-.54C92.41,121.41,94.29,122.64,94.84,120.46ZM95,120a4.29,4.29,0,0,0,1-2.12c.09-.67.14-1.59-.79-1.62-.45,0-.85.51-1.14,1.31a1.52,1.52,0,0,0-.09,1.05,2.19,2.19,0,0,1,0,.92Z"/><rect class="cls-3" x="84.77" y="133.29" width="11.69" height="4.66" transform="translate(-58.42 201.88) rotate(-80.22)"/><path id="path2890-4" data-name="path2890" class="cls-4" d="M88.28,139.79c.46-.07.78-.09,1.15-.16C90.25,141.49,88.07,142,88.28,139.79Zm1.12-.58-1.13.09A4.27,4.27,0,0,1,88,137c.14-.66.41-1.55,1.29-1.26.4.19.63.76.64,1.61a1.61,1.61,0,0,1-.27,1,2.28,2.28,0,0,0-.28.87Z"/><path id="path2890-7-4" data-name="path2890-7" class="cls-4" d="M92.46,134.28c-.42-.22-.71-.35-1-.53C90,135.23,91.91,136.46,92.46,134.28Zm.17-.46a4.29,4.29,0,0,0,1-2.12c.09-.67.13-1.59-.8-1.61-.44,0-.84.5-1.13,1.3a1.54,1.54,0,0,0-.09,1.06,2.15,2.15,0,0,1,0,.91Z"/><rect class="cls-3" x="89.2" y="143.76" width="4.66" height="11.69" transform="translate(-10.3 6.81) rotate(-4.04)"/><path id="path2890-5" data-name="path2890" class="cls-4" d="M90.25,154.21c.44-.17.75-.27,1.09-.42C92.58,155.4,90.59,156.44,90.25,154.21Zm1-.82-1.08.35a4.24,4.24,0,0,1-.8-2.21c0-.67,0-1.6,1-1.53.44.09.8.58,1,1.41a1.52,1.52,0,0,1,0,1.06,2.21,2.21,0,0,0-.06.92Z"/><path id="path2890-7-5" data-name="path2890-7" class="cls-4" d="M93,147.86c-.45-.11-.77-.16-1.13-.26C90.87,149.37,93,150.11,93,147.86Zm.06-.48a4.22,4.22,0,0,0,.48-2.3c-.07-.67-.25-1.58-1.16-1.38-.42.14-.7.69-.79,1.54a1.56,1.56,0,0,0,.16,1,2.17,2.17,0,0,1,.19.9Z"/><rect class="cls-3" x="91" y="157.63" width="4.66" height="11.69" transform="translate(-34.69 25.47) rotate(-13.13)"/><path id="path2890-6" data-name="path2890" class="cls-4" d="M92.8,168.22c.4-.24.69-.39,1-.59C95.28,169,93.48,170.37,92.8,168.22Zm.81-1-1,.52a4.3,4.3,0,0,1-1.14-2.06c-.13-.66-.23-1.58.7-1.66.45,0,.88.45,1.21,1.24a1.5,1.5,0,0,1,.15,1,2.36,2.36,0,0,0,.09.91Z"/><path id="path2890-7-6" data-name="path2890-7" class="cls-4" d="M94.51,161.52c-.47,0-.79,0-1.16-.08C92.64,163.34,94.85,163.75,94.51,161.52Zm0-.48a4.28,4.28,0,0,0,.11-2.35c-.18-.65-.5-1.52-1.36-1.18-.39.21-.59.79-.54,1.64a1.55,1.55,0,0,0,.33,1,2.18,2.18,0,0,1,.32.86Z"/><rect class="cls-3" x="93.88" y="171.34" width="4.66" height="11.69" transform="translate(-28.31 18.61) rotate(-9.64)"/><path id="path2890-7-7" data-name="path2890" class="cls-4" d="M95.39,181.89c.42-.21.71-.34,1-.53C97.82,182.85,95.94,184.08,95.39,181.89Zm.87-.91-1,.46a4.26,4.26,0,0,1-1-2.13c-.09-.66-.13-1.59.79-1.61.45,0,.85.5,1.14,1.31a1.58,1.58,0,0,1,.09,1.05,2.19,2.19,0,0,0,0,.92Z"/><path id="path2890-7-8" data-name="path2890-7" class="cls-4" d="M97.5,175.31c-.46-.07-.78-.09-1.15-.16C95.53,177,97.71,177.55,97.5,175.31Zm0-.49a4.15,4.15,0,0,0,.25-2.33c-.13-.67-.4-1.55-1.28-1.27-.4.19-.63.76-.64,1.61a1.61,1.61,0,0,0,.27,1,2.26,2.26,0,0,1,.27.87Z"/><rect class="cls-3" x="91.82" y="188.8" width="11.69" height="4.66" transform="translate(-95.28 285.16) rotate(-88.92)"/><path id="path2890-8" data-name="path2890" class="cls-4" d="M96,195.6c.45-.13.77-.2,1.12-.32C98.19,197,96.12,197.85,96,195.6Zm1-.73-1.11.26a4.27,4.27,0,0,1-.59-2.28c0-.67.16-1.59,1.08-1.44.43.13.73.66.87,1.5a1.62,1.62,0,0,1-.11,1.05,2.2,2.2,0,0,0-.14.91Z"/><path id="path2890-7-9" data-name="path2890-7" class="cls-4" d="M99.29,189.53c-.45-.15-.76-.24-1.11-.37C97,190.83,99.07,191.77,99.29,189.53Zm.1-.48a4.3,4.3,0,0,0,.68-2.25c0-.67-.11-1.59-1-1.48-.43.11-.76.63-.93,1.46a1.54,1.54,0,0,0,.08,1.06,2.34,2.34,0,0,1,.1.91Z"/><rect class="cls-3" x="89.79" y="202.68" width="11.69" height="4.66" transform="translate(-121.05 270) rotate(-81.69)"/><path id="path2890-9" data-name="path2890" class="cls-4" d="M93.41,209.24c.46-.08.78-.11,1.15-.19C95.42,210.89,93.26,211.48,93.41,209.24Zm1.11-.6-1.14.11a4.33,4.33,0,0,1-.3-2.33c.12-.66.37-1.56,1.25-1.29.41.18.65.74.68,1.59a1.55,1.55,0,0,1-.24,1,2.33,2.33,0,0,0-.25.89Z"/><path id="path2890-7-10" data-name="path2890-7" class="cls-4" d="M97.45,203.62c-.42-.2-.72-.33-1-.5C95,204.64,97,205.82,97.45,203.62Zm.16-.45a4.37,4.37,0,0,0,1-2.15c.07-.67.09-1.6-.84-1.6-.44.05-.83.53-1.1,1.33a1.52,1.52,0,0,0-.06,1.06,2.37,2.37,0,0,1,0,.92Z"/><rect class="cls-3" x="93.61" y="213.19" width="4.66" height="11.69" transform="translate(-4.94 2.23) rotate(-1.3)"/><path id="path2890-10" data-name="path2890" class="cls-4" d="M94.45,223.57c.44-.15.75-.24,1.1-.37C96.71,224.87,94.67,225.81,94.45,223.57Zm1-.78-1.1.31a4.34,4.34,0,0,1-.69-2.25c0-.68.1-1.6,1-1.48.43.1.76.62.93,1.45a1.61,1.61,0,0,1-.07,1.06,2.34,2.34,0,0,0-.1.91Z"/><path id="path2890-7-11" data-name="path2890-7" class="cls-4" d="M97.5,217.36c-.46-.13-.77-.2-1.13-.32C95.29,218.76,97.37,219.61,97.5,217.36Zm.08-.48a4.25,4.25,0,0,0,.58-2.27c0-.68-.17-1.59-1.08-1.44-.43.13-.74.66-.87,1.5a1.66,1.66,0,0,0,.11,1.06,2.3,2.3,0,0,1,.15.9Z"/><g id="watering_can_side" data-name="watering can side"><ellipse class="cls-5" cx="193.51" cy="149.71" rx="41.78" ry="32.56" transform="translate(-7.74 288.84) rotate(-72.38)"/><path class="cls-5" d="M165.66,140.86c6.42-20.2,24.13-32.66,39.51-27.78s22.66,25.28,16.24,45.48-24.13,32.67-39.5,27.79S159.25,161.06,165.66,140.86Z"/><ellipse class="cls-5" cx="193.57" cy="149.54" rx="41.78" ry="32.56" transform="translate(-7.54 288.77) rotate(-72.38)"/><rect class="cls-1" x="124.04" y="109.8" width="83.56" height="61.86" transform="translate(-18.49 256.18) rotate(-72.38)"/><path class="cls-1" d="M216.15,156.89h0a3.35,3.35,0,0,1-4.2,2.18l-65.13-20.68a3.34,3.34,0,0,1-2.17-4.2h0a3.35,3.35,0,0,1,4.19-2.18L214,152.7A3.33,3.33,0,0,1,216.15,156.89Z"/><circle class="cls-1" cx="212.6" cy="155.77" r="12.53"/></g><rect class="cls-2" x="81.87" y="66.35" width="30" height="30"/></g></g></svg>