<svg xmlns="http://www.w3.org/2000/svg" viewBox="0 0 276 276"><defs><style>.cls-1{fill:#fff;}.cls-1,.cls-2,.cls-6{stroke:#231f20;}.cls-1,.cls-2,.cls-3,.cls-6{stroke-miterlimit:10;}.cls-2,.cls-3,.cls-4,.cls-6{fill:none;}.cls-2{stroke-width:0.25px;}.cls-3{stroke:#ed1c24;stroke-width:2px;}.cls-5{fill:#404040;}</style></defs><title>item14</title><g id="Layer_2" data-name="Layer 2"><g id="alarmclock1"><g id="Layer_1-2" data-name="Layer 1-2"><polygon class="cls-1" points="228.12 142.93 215.91 179.57 138.95 142.45 159.88 110.01 228.12 142.93"/><polygon class="cls-1" points="231.52 147.21 228.17 154.17 206.45 150.81 207.54 143.79 231.52 147.21"/><path class="cls-1" d="M162.26,115.55c2.21,5.08-7.64,26.86-14.28,27.38-6.42.48-18.27-5.33-18.15-11.8s6-18.27,10.92-23S159.86,110.06,162.26,115.55Z"/><path class="cls-1" d="M146.86,119.9c1.06,2.28-1.62,7.36-4,8.2-1.49.54-5.68-1.6-6.36-3.07-1.06-2.29,1.42-7.84,4-8.2C142.13,116.6,146.18,118.43,146.86,119.9Z"/><path class="cls-1" d="M141.83,119.6l-2.28,4.73s-19.11-9-24.15-11.65c-1.16-.61,1.1-5.3,2.28-4.72C123.61,110.84,141.83,119.6,141.83,119.6Z"/></g><rect class="cls-2" x="60.4" y="62.87" width="30" height="120"/><line class="cls-2" x1="60.4" y1="182.87" x2="90.4" y2="182.87"/><line class="cls-2" x1="60.4" y1="152.87" x2="90.4" y2="152.87"/><line class="cls-2" x1="60.4" y1="122.87" x2="90.4" y2="122.87"/><line class="cls-2" x1="60.4" y1="92.87" x2="90.4" y2="92.87"/><rect class="cls-3" x="60.4" y="62.87" width="30" height="30"/><rect class="cls-2" x="60.4" y="182.87" width="30" height="30"/><rect class="cls-4" x="71.55" y="60.03" width="11.69" height="4.66" transform="translate(12.47 137.63) rotate(-88.08)"/><path id="path2890" class="cls-5" d="M75.65,66.81c.45-.12.77-.19,1.12-.31C77.84,68.24,75.75,69.06,75.65,66.81Zm1-.72-1.12.24A4.34,4.34,0,0,1,75,64.05c0-.67.19-1.59,1.1-1.42.43.13.73.66.85,1.51a1.55,1.55,0,0,1-.12,1,2.13,2.13,0,0,0-.15.9Z"/><path id="path2890-7" class="cls-5" d="M79,60.79c-.44-.16-.75-.25-1.1-.39C76.76,62.06,78.79,63,79,60.79Zm.11-.48a4.3,4.3,0,0,0,.71-2.24c0-.67-.08-1.6-1-1.49-.44.1-.77.61-1,1.45a1.57,1.57,0,0,0,0,1.06,2,2,0,0,1,.09.91Z"/><rect class="cls-4" x="71.08" y="74.05" width="11.69" height="4.66" transform="translate(-1.99 150.71) rotate(-88.08)"/><path id="path2890-2" data-name="path2890" class="cls-5" d="M75.18,80.83c.45-.13.77-.2,1.12-.31C77.37,82.25,75.28,83.08,75.18,80.83Zm1-.72-1.12.24a4.36,4.36,0,0,1-.56-2.28c0-.67.19-1.59,1.1-1.42.43.13.73.66.85,1.5a1.58,1.58,0,0,1-.12,1.06,2.13,2.13,0,0,0-.15.9Z"/><path id="path2890-7-2" data-name="path2890-7" class="cls-5" d="M78.57,74.8c-.44-.15-.75-.24-1.1-.38C76.29,76.08,78.32,77,78.57,74.8Zm.11-.47a4.3,4.3,0,0,0,.71-2.24c0-.67-.08-1.6-1-1.49-.44.1-.77.61-1,1.44a1.56,1.56,0,0,0,0,1.06,2.2,2.2,0,0,1,.1.92C78,74.11,78.31,74.22,78.68,74.33Z"/><rect class="cls-4" x="70.76" y="88.07" width="11.69" height="4.66" transform="matrix(0.02, -1, 1, 0.02, -15.25, 165.27)"/><path id="path2890-3" data-name="path2890" class="cls-5" d="M74.92,94.88c.45-.14.77-.21,1.12-.33C77.13,96.27,75.05,97.12,74.92,94.88Zm1-.74-1.11.26a4.37,4.37,0,0,1-.6-2.28c0-.67.17-1.59,1.09-1.43.42.12.73.65.87,1.49a1.66,1.66,0,0,1-.11,1.06,2.13,2.13,0,0,0-.14.9Z"/><path id="path2890-7-3" data-name="path2890-7" class="cls-5" d="M78.23,88.8c-.45-.15-.76-.23-1.11-.37C76,90.11,78,91,78.23,88.8Zm.1-.47A4.35,4.35,0,0,0,79,86.08c0-.68-.11-1.6-1-1.48-.43.11-.76.62-.93,1.46a1.61,1.61,0,0,0,.07,1.06,2.17,2.17,0,0,1,.11.91Z"/><rect class="cls-4" x="70.49" y="102.1" width="11.69" height="4.66" transform="translate(-29.53 178.76) rotate(-88.91)"/><path id="path2890-4" data-name="path2890" class="cls-5" d="M74.65,108.9l1.12-.32C76.86,110.29,74.79,111.15,74.65,108.9Zm1-.73-1.11.25a4.26,4.26,0,0,1-.59-2.27c0-.67.16-1.59,1.08-1.44.43.12.74.65.87,1.5a1.55,1.55,0,0,1-.11,1.05,2.17,2.17,0,0,0-.14.91Z"/><path id="path2890-7-4" data-name="path2890-7" class="cls-5" d="M78,102.83c-.45-.16-.76-.24-1.11-.37C75.7,104.13,77.74,105.06,78,102.83Zm.1-.48a4.33,4.33,0,0,0,.68-2.25c0-.67-.11-1.6-1-1.48-.43.11-.76.63-.92,1.46a1.49,1.49,0,0,0,.07,1.06,2.34,2.34,0,0,1,.1.91C77.33,102.14,77.69,102.25,78.06,102.35Z"/><rect class="cls-4" x="70.22" y="116.12" width="11.69" height="4.66" transform="translate(-43.81 192.25) rotate(-88.91)"/><path id="path2890-5" data-name="path2890" class="cls-5" d="M74.39,122.93c.45-.14.76-.21,1.12-.33C76.6,124.32,74.52,125.17,74.39,122.93Zm1-.74-1.11.26a4.27,4.27,0,0,1-.59-2.28c0-.67.17-1.59,1.08-1.44.43.13.74.66.87,1.5a1.5,1.5,0,0,1-.11,1,2.2,2.2,0,0,0-.14.91Z"/><path id="path2890-7-5" data-name="path2890-7" class="cls-5" d="M77.69,116.85c-.44-.15-.75-.24-1.11-.37C75.43,118.16,77.47,119.09,77.69,116.85Zm.1-.48a4.21,4.21,0,0,0,.68-2.25c0-.67-.1-1.59-1-1.47-.44.1-.76.62-.93,1.46a1.61,1.61,0,0,0,.07,1.06,2.13,2.13,0,0,1,.1.91Z"/><rect class="cls-4" x="69.96" y="130.15" width="11.69" height="4.66" transform="translate(-58.09 205.74) rotate(-88.91)"/><path id="path2890-6" data-name="path2890" class="cls-5" d="M74.12,137c.45-.13.76-.21,1.12-.33C76.33,138.34,74.25,139.2,74.12,137Zm1-.74-1.11.26a4.27,4.27,0,0,1-.6-2.27c0-.68.17-1.6,1.08-1.44.43.12.74.65.88,1.49a1.58,1.58,0,0,1-.12,1.06,2.29,2.29,0,0,0-.13.9Z"/><path id="path2890-7-6" data-name="path2890-7" class="cls-5" d="M77.43,130.87c-.45-.15-.76-.23-1.11-.37C75.16,132.18,77.21,133.11,77.43,130.87Zm.09-.47a4.25,4.25,0,0,0,.69-2.25c0-.68-.11-1.6-1-1.48-.43.11-.76.62-.93,1.46a1.61,1.61,0,0,0,.07,1.06,2.17,2.17,0,0,1,.11.91C76.79,130.19,77.16,130.29,77.52,130.4Z"/><rect class="cls-4" x="73.7" y="140.65" width="4.66" height="11.69" transform="translate(-2.77 1.47) rotate(-1.09)"/><path id="path2890-7-7" data-name="path2890" class="cls-5" d="M74.52,151c.45-.15.76-.23,1.11-.37C76.78,152.34,74.74,153.27,74.52,151Zm1-.77c-.37.09-.73.19-1.1.3a4.24,4.24,0,0,1-.68-2.25c0-.68.1-1.6,1-1.48.43.11.76.62.92,1.46a1.55,1.55,0,0,1-.07,1.06,2.34,2.34,0,0,0-.1.91Z"/><path id="path2890-7-8" data-name="path2890-7" class="cls-5" d="M77.59,144.84c-.45-.14-.76-.21-1.12-.33C75.38,146.23,77.46,147.08,77.59,144.84Zm.08-.48a4.19,4.19,0,0,0,.6-2.28c0-.67-.17-1.59-1.08-1.43-.43.12-.74.65-.87,1.49a1.5,1.5,0,0,0,.11,1.05,2.58,2.58,0,0,1,.14.91Z"/><rect class="cls-4" x="73.97" y="154.68" width="4.66" height="11.69" transform="translate(-3.03 1.48) rotate(-1.09)"/><path id="path2890-8" data-name="path2890" class="cls-5" d="M74.79,165.06c.44-.15.75-.24,1.1-.37C77.05,166.36,75,167.3,74.79,165.06Zm1-.78-1.09.3a4.22,4.22,0,0,1-.69-2.25c0-.67.11-1.6,1-1.48.43.11.76.63.93,1.46a1.61,1.61,0,0,1-.07,1.06,2.17,2.17,0,0,0-.11.91Z"/><path id="path2890-7-9" data-name="path2890-7" class="cls-5" d="M77.86,158.86c-.45-.13-.77-.21-1.12-.33C75.65,160.25,77.73,161.11,77.86,158.86Zm.08-.48a4.36,4.36,0,0,0,.6-2.27c0-.68-.17-1.6-1.09-1.44-.42.12-.73.65-.87,1.49a1.65,1.65,0,0,0,.11,1.06,2.13,2.13,0,0,1,.14.9Z"/><rect class="cls-4" x="74.23" y="168.7" width="4.66" height="11.69" transform="translate(-3.3 1.49) rotate(-1.09)"/><path id="path2890-9" data-name="path2890" class="cls-5" d="M75.05,179.08c.45-.15.76-.24,1.11-.37C77.31,180.39,75.27,181.32,75.05,179.08Zm1-.77c-.37.09-.73.19-1.1.3a4.36,4.36,0,0,1-.68-2.26c0-.67.11-1.59,1-1.47.43.1.76.62.93,1.46a1.54,1.54,0,0,1-.08,1.06,2.34,2.34,0,0,0-.1.91Z"/><path id="path2890-7-10" data-name="path2890-7" class="cls-5" d="M78.13,172.88c-.46-.13-.77-.2-1.13-.32C75.92,174.27,78,175.13,78.13,172.88Zm.08-.48a4.24,4.24,0,0,0,.59-2.27c0-.67-.16-1.59-1.08-1.44-.43.13-.74.65-.87,1.5a1.5,1.5,0,0,0,.11,1.05,2.2,2.2,0,0,1,.14.91Z"/><rect class="cls-4" x="70.52" y="186.19" width="11.69" height="4.66" transform="translate(-119.47 243.48) rotate(-83.63)"/><path id="path2890-10" data-name="path2890" class="cls-5" d="M74.28,192.82c.46-.09.78-.14,1.14-.22C76.35,194.41,74.2,195.07,74.28,192.82Zm1.09-.64c-.38,0-.75.1-1.13.15a4.23,4.23,0,0,1-.38-2.32c.09-.66.31-1.57,1.21-1.33.41.16.67.72.73,1.57a1.6,1.6,0,0,1-.21,1,2.29,2.29,0,0,0-.22.89Z"/><path id="path2890-7-11" data-name="path2890-7" class="cls-5" d="M78.13,187.07c-.43-.19-.73-.3-1.07-.47C75.76,188.16,77.71,189.28,78.13,187.07Zm.14-.46a4.23,4.23,0,0,0,.89-2.18c0-.67,0-1.6-.89-1.57-.44.07-.81.56-1.06,1.37a1.55,1.55,0,0,0,0,1.06,2.38,2.38,0,0,1,0,.92Z"/><rect class="cls-4" x="64.2" y="197.44" width="11.69" height="4.66" transform="translate(-81.9 52.37) rotate(-26.55)"/><path id="path2890-11" data-name="path2890" class="cls-5" d="M65.3,200.35c.33.34.54.58.81.84C65.09,203,63.37,201.51,65.3,200.35Zm1.13.57c-.24-.29-.49-.57-.74-.86.07-.46,1.38-1.46,1.74-1.58.61-.29,1.48-.6,1.77.29.09.43-.23.95-.92,1.46a1.5,1.5,0,0,1-1,.39,2.37,2.37,0,0,0-.87.3Z"/><path id="path2890-7-12" data-name="path2890-7" class="cls-5" d="M72.22,200.46c-.08-.46-.14-.78-.19-1.15C70,199.07,70.13,201.31,72.22,200.46Zm.46-.13a4.24,4.24,0,0,0,2.31-.44c.6-.32,1.37-.83.84-1.59-.3-.34-.91-.39-1.73-.15a1.55,1.55,0,0,0-.9.55,2.07,2.07,0,0,1-.76.52C72.53,199.59,72.6,200,72.68,200.33Z"/><rect class="cls-4" x="54.15" y="195.46" width="4.66" height="11.69" transform="translate(-147.01 249.31) rotate(-87.6)"/><path id="path2890-12" data-name="path2890" class="cls-5" d="M52.05,199.52c.12.46.19.77.3,1.13C50.61,201.7,49.8,199.6,52.05,199.52Zm.71,1c-.07-.37-.15-.74-.23-1.12a4.28,4.28,0,0,1,2.29-.54c.67.05,1.59.2,1.41,1.11-.13.43-.67.73-1.51.84a1.64,1.64,0,0,1-1.06-.13,2.14,2.14,0,0,0-.9-.16Z"/><path id="path2890-7-13" data-name="path2890-7" class="cls-5" d="M58.05,203c.16-.45.25-.75.39-1.1C56.79,200.68,55.82,202.7,58.05,203Zm.47.11a4.23,4.23,0,0,0,2.24.73c.67,0,1.59-.07,1.5-1-.1-.44-.61-.78-1.44-1a1.56,1.56,0,0,0-1.06,0,2.34,2.34,0,0,1-.91.09Z"/><rect class="cls-6" x="0.5" y="0.5" width="275" height="275"/></g></g></svg>