<svg xmlns="http://www.w3.org/2000/svg" viewBox="0 0 276 276"><defs><style>.cls-1{fill:#fff;}.cls-1,.cls-2{stroke:#231f20;}.cls-1,.cls-2,.cls-3{stroke-miterlimit:10;}.cls-2,.cls-3,.cls-4{fill:none;}.cls-2{stroke-width:0.25px;}.cls-3{stroke:#ed1c24;stroke-width:2px;}.cls-5{fill:#404040;}</style></defs><title>item7</title><g id="Layer_2" data-name="Layer 2"><g id="floss_2" data-name="floss 2"><rect class="cls-1" x="0.5" y="0.5" width="275" height="275"/><g id="Layer_1-2" data-name="Layer 1-2"><rect class="cls-1" x="126.25" y="120.74" width="81" height="27" transform="translate(-39.28 76.12) rotate(-23.08)"/><rect class="cls-1" x="137.05" y="141.14" width="2.25" height="4.5" transform="translate(-45.16 65.65) rotate(-23.08)"/><rect class="cls-1" x="187.25" y="112.03" width="15.5" height="19.18" transform="matrix(0.92, -0.39, 0.39, 0.92, -32.07, 86.19)"/><path class="cls-1" d="M139.58,143.82l52.66-23.1Z"/><path class="cls-1" d="M198.81,105,171,116.88c.22,1.72-3.31,4.67-8.25,6.77s-9.48,2.63-10.58,1.25l-27.86,11.88s-5.38-7.94-4.58-10.75c5.48-19.49,55.73-39.31,74.52-31.76C196.93,95.37,198.81,105,198.81,105Z"/><path class="cls-1" d="M197.69,120.38l1.88,4.87-5.29,2.25-2.05-4.8c-1.36-3.19-1.25-6.3.3-7S196.33,117.19,197.69,120.38Z"/></g><rect class="cls-2" x="78.53" y="87.22" width="30" height="90"/><line class="cls-2" x1="78.53" y1="147.22" x2="108.53" y2="147.22"/><line class="cls-2" x1="78.53" y1="117.22" x2="108.53" y2="117.22"/><rect class="cls-3" x="78.53" y="87.22" width="30" height="30"/><rect class="cls-4" x="102.79" y="160.98" width="11.69" height="4.66" transform="translate(-28.22 22.8) rotate(-10.61)"/><path id="path2890" class="cls-5" d="M103.91,162.58c.22.41.36.7.55,1C103,165,101.74,163.16,103.91,162.58Zm.93.85c-.15-.34-.32-.68-.48-1a4.31,4.31,0,0,1,2.11-1.05c.66-.1,1.59-.16,1.62.77,0,.45-.48.86-1.28,1.16a1.55,1.55,0,0,1-1.06.1,2.32,2.32,0,0,0-.91.05Z"/><path id="path2890-7" class="cls-5" d="M110.53,164.58c.06-.47.08-.79.14-1.16C108.79,162.63,108.29,164.82,110.53,164.58Zm.48,0a4.3,4.3,0,0,0,2.35.21c.66-.14,1.54-.42,1.24-1.3-.2-.4-.77-.62-1.62-.61a1.51,1.51,0,0,0-1,.28,2.47,2.47,0,0,1-.88.29C111.07,163.82,111,164.2,111,164.58Z"/><rect class="cls-4" x="96.08" y="152.17" width="4.66" height="11.69" transform="translate(-35 28.19) rotate(-13.87)"/><path id="path2890-2" data-name="path2890" class="cls-5" d="M98.88,153.25c-.4.25-.68.4-1,.61C96.39,152.48,98.17,151.12,98.88,153.25Zm-.8,1c.34-.17.67-.35,1-.53.44.17,1.13,1.66,1.17,2,.14.66.25,1.58-.68,1.67-.44,0-.88-.44-1.23-1.22a1.57,1.57,0,0,1-.16-1.05,2.15,2.15,0,0,0-.1-.91Z"/><path id="path2890-7-2" data-name="path2890-7" class="cls-5" d="M97.26,160c.47,0,.79,0,1.16.07C99.1,158.13,96.89,157.76,97.26,160Zm0,.48a4.28,4.28,0,0,0-.08,2.35c.19.65.52,1.52,1.38,1.17.39-.22.57-.8.52-1.65a1.59,1.59,0,0,0-.34-1,2.24,2.24,0,0,1-.34-.85Z"/><rect class="cls-4" x="94.93" y="138.19" width="4.66" height="11.69" transform="translate(-11.5 8.47) rotate(-4.71)"/><path id="path2890-3" data-name="path2890" class="cls-5" d="M98.48,139.41c-.43.18-.74.28-1.08.44C96.14,138.25,98.12,137.19,98.48,139.41Zm-1,.84,1.08-.37a4.24,4.24,0,0,1,.82,2.2c0,.67,0,1.6-.93,1.54-.44-.08-.8-.57-1-1.4a1.53,1.53,0,0,1,0-1.06,2.32,2.32,0,0,0,0-.91Z"/><path id="path2890-7-3" data-name="path2890-7" class="cls-5" d="M95.81,145.79c.45.11.77.16,1.13.26C97.92,144.26,95.8,143.54,95.81,145.79Zm-.06.48a4.34,4.34,0,0,0-.45,2.31c.08.67.27,1.58,1.17,1.37.42-.15.7-.7.78-1.55a1.59,1.59,0,0,0-.18-1.05,2.26,2.26,0,0,1-.19-.89Z"/><rect class="cls-4" x="93.78" y="124.21" width="4.66" height="11.69" transform="translate(-10.36 8.33) rotate(-4.71)"/><path id="path2890-4" data-name="path2890" class="cls-5" d="M97.33,125.43c-.44.18-.74.29-1.08.44C95,124.27,97,123.21,97.33,125.43Zm-1,.84,1.08-.37a4.24,4.24,0,0,1,.82,2.2c0,.68,0,1.6-.93,1.54-.44-.08-.8-.57-1-1.4a1.59,1.59,0,0,1,0-1.06,2.15,2.15,0,0,0,0-.91Z"/><path id="path2890-7-4" data-name="path2890-7" class="cls-5" d="M94.65,131.81c.46.11.78.16,1.14.26C96.77,130.28,94.64,129.56,94.65,131.81Zm-.05.48a4.34,4.34,0,0,0-.45,2.31c.08.67.27,1.58,1.17,1.37.42-.15.7-.7.78-1.55a1.56,1.56,0,0,0-.18-1,2.36,2.36,0,0,1-.2-.9Z"/><rect class="cls-4" x="90.84" y="113.72" width="11.69" height="4.66" transform="translate(-24.8 205.82) rotate(-86.66)"/><path id="path2890-5" data-name="path2890" class="cls-5" d="M98.54,111.65c-.46.11-.78.18-1.14.28C96.38,110.17,98.49,109.4,98.54,111.65Zm-1.06.69,1.12-.21a4.29,4.29,0,0,1,.51,2.3c-.07.67-.23,1.58-1.14,1.39-.43-.14-.71-.68-.81-1.53a1.54,1.54,0,0,1,.15-1.05,2.15,2.15,0,0,0,.17-.9Z"/><path id="path2890-7-5" data-name="path2890-7" class="cls-5" d="M95,117.59l1.09.41C97.31,116.37,95.3,115.36,95,117.59Zm-.12.47a4.18,4.18,0,0,0-.77,2.22c0,.68,0,1.6,1,1.52.43-.09.78-.59,1-1.42a1.57,1.57,0,0,0,0-1.06,2.39,2.39,0,0,1-.07-.92C95.6,118.3,95.24,118.18,94.88,118.06Z"/><rect class="cls-4" x="91.84" y="99.73" width="11.69" height="4.66" transform="translate(-12.46 190.54) rotate(-85.03)"/><path id="path2890-6" data-name="path2890" class="cls-5" d="M99.66,97.71,98.52,98C97.55,96.18,99.68,95.46,99.66,97.71Zm-1.07.67,1.12-.18a4.22,4.22,0,0,1,.44,2.31c-.08.67-.27,1.57-1.17,1.36-.42-.15-.7-.7-.77-1.55a1.53,1.53,0,0,1,.18-1,2.1,2.1,0,0,0,.2-.89Z"/><path id="path2890-7-6" data-name="path2890-7" class="cls-5" d="M96,103.55c.44.18.74.29,1.08.45C98.3,102.4,96.32,101.33,96,103.55Zm-.13.47a4.25,4.25,0,0,0-.83,2.2c0,.67,0,1.6.92,1.54.44-.07.81-.57,1-1.39a1.59,1.59,0,0,0,0-1.06,2.2,2.2,0,0,1,0-.92C96.54,104.28,96.18,104.15,95.82,104Z"/><rect class="cls-4" x="84.12" y="92.08" width="11.69" height="4.66" transform="translate(-28.86 40.68) rotate(-22.05)"/><path id="path2890-7-7" data-name="path2890" class="cls-5" d="M85.19,94.62c.3.36.49.62.74.9C84.78,97.2,83.18,95.62,85.19,94.62Zm1.08.65c-.22-.31-.44-.61-.67-.91.11-.46,1.49-1.35,1.86-1.45.63-.23,1.53-.47,1.74.43.06.45-.31.94-1,1.39a1.62,1.62,0,0,1-1,.32,2.09,2.09,0,0,0-.89.22Z"/><path id="path2890-7-8" data-name="path2890-7" class="cls-5" d="M92.08,95.27c0-.47-.08-.79-.1-1.16C90,93.7,89.93,96,92.08,95.27Zm.47-.09a4.33,4.33,0,0,0,2.34-.26c.62-.28,1.43-.73,1-1.53-.27-.35-.88-.45-1.71-.28a1.65,1.65,0,0,0-1,.48,2.11,2.11,0,0,1-.79.46C92.46,94.42,92.5,94.8,92.55,95.18Z"/><rect class="cls-4" x="81.2" y="105.24" width="11.69" height="4.66" transform="translate(-23.01 191.45) rotate(-88.33)"/><path id="path2890-8" data-name="path2890" class="cls-5" d="M85.32,112c.45-.13.77-.2,1.12-.32C87.51,113.44,85.43,114.27,85.32,112Zm1-.73-1.11.25a4.3,4.3,0,0,1-.57-2.28c0-.68.18-1.59,1.1-1.43.42.13.73.66.85,1.5a1.58,1.58,0,0,1-.12,1.06,2.3,2.3,0,0,0-.15.9Z"/><path id="path2890-7-9" data-name="path2890-7" class="cls-5" d="M88.69,106c-.45-.15-.76-.24-1.11-.38C86.41,107.27,88.45,108.22,88.69,106Zm.1-.47a4.3,4.3,0,0,0,.71-2.24c0-.68-.09-1.6-1-1.49-.43.1-.76.62-.94,1.45a1.55,1.55,0,0,0,.06,1.06,2.34,2.34,0,0,1,.1.91Z"/><rect class="cls-4" x="80.79" y="119.26" width="11.69" height="4.66" transform="translate(-37.43 204.65) rotate(-88.33)"/><path id="path2890-9" data-name="path2890" class="cls-5" d="M84.91,126.05c.45-.13.77-.2,1.13-.32C87.11,127.46,85,128.29,84.91,126.05Zm1-.73-1.11.25a4.3,4.3,0,0,1-.57-2.28c0-.68.18-1.59,1.1-1.43.43.13.73.66.85,1.5a1.57,1.57,0,0,1-.12,1.06,2.3,2.3,0,0,0-.15.9Z"/><path id="path2890-7-10" data-name="path2890-7" class="cls-5" d="M88.28,120c-.45-.16-.76-.25-1.11-.39C86,121.29,88,122.24,88.28,120Zm.1-.48a4.21,4.21,0,0,0,.71-2.24c0-.68-.09-1.6-1-1.49-.44.1-.77.62-1,1.45a1.61,1.61,0,0,0,.06,1.06,2.17,2.17,0,0,1,.1.91Z"/><rect class="cls-4" x="80.28" y="133.28" width="11.69" height="4.66" transform="translate(-53.98 214.2) rotate(-86.87)"/><path id="path2890-10" data-name="path2890" class="cls-5" d="M84.29,140c.45-.12.77-.18,1.13-.29C86.44,141.49,84.34,142.27,84.29,140Zm1-.7-1.12.22a4.31,4.31,0,0,1-.51-2.3c.06-.67.22-1.58,1.13-1.4.42.14.71.68.82,1.53a1.54,1.54,0,0,1-.15,1,2.15,2.15,0,0,0-.17.9Z"/><path id="path2890-7-11" data-name="path2890-7" class="cls-5" d="M87.81,134.06c-.44-.16-.75-.26-1.1-.4C85.5,135.29,87.51,136.29,87.81,134.06Zm.11-.47a4.26,4.26,0,0,0,.76-2.22c0-.68-.05-1.6-1-1.52-.44.1-.78.6-1,1.43a1.57,1.57,0,0,0,0,1.06,2.16,2.16,0,0,1,.08.91Z"/><rect class="cls-4" x="80.4" y="147.15" width="11.69" height="4.66" transform="translate(-75.24 210.36) rotate(-80.68)"/><path id="path2890-11" data-name="path2890" class="cls-5" d="M83.94,153.67c.46-.07.78-.1,1.15-.17C85.92,155.36,83.75,155.91,83.94,153.67Zm1.12-.58-1.14.09a4.36,4.36,0,0,1-.26-2.34c.13-.66.39-1.55,1.28-1.26.4.18.63.75.65,1.6a1.61,1.61,0,0,1-.27,1,2.24,2.24,0,0,0-.26.88Z"/><path id="path2890-7-12" data-name="path2890-7" class="cls-5" d="M88.08,148.13c-.42-.22-.72-.35-1-.53C85.65,149.09,87.54,150.31,88.08,148.13Zm.16-.46a4.25,4.25,0,0,0,1-2.13c.09-.67.13-1.6-.8-1.61-.45,0-.85.51-1.13,1.31a1.53,1.53,0,0,0-.08,1.06,2.2,2.2,0,0,1,0,.92C87.55,147.36,87.89,147.51,88.24,147.67Z"/><rect class="cls-4" x="83.6" y="157.45" width="4.66" height="11.69" transform="translate(-29.32 19.18) rotate(-10.9)"/><path id="path2890-12" data-name="path2890" class="cls-5" d="M85.21,168c.42-.23.71-.36,1-.55C87.66,168.92,85.81,170.19,85.21,168Zm.85-.93-1,.48a4.32,4.32,0,0,1-1-2.1c-.11-.67-.17-1.6.76-1.64.44,0,.85.49,1.16,1.28a1.56,1.56,0,0,1,.11,1.06,2.37,2.37,0,0,0,0,.92Z"/><path id="path2890-7-13" data-name="path2890-7" class="cls-5" d="M87.18,161.39,86,161.26C85.24,163.13,87.44,163.62,87.18,161.39Zm0-.49a4.26,4.26,0,0,0,.2-2.34c-.15-.66-.43-1.54-1.31-1.23-.4.19-.61.77-.6,1.62a1.51,1.51,0,0,0,.29,1,2.42,2.42,0,0,1,.29.87Z"/><rect class="cls-4" x="85.11" y="171.37" width="4.66" height="11.69" transform="translate(-12.35 6.65) rotate(-4.07)"/><path id="path2890-13" data-name="path2890" class="cls-5" d="M86.17,181.82c.44-.17.74-.27,1.09-.42C88.49,183,86.5,184.05,86.17,181.82Zm1-.82-1.09.35a4.23,4.23,0,0,1-.79-2.21c0-.67,0-1.6,1-1.53.43.09.79.59,1,1.41a1.58,1.58,0,0,1,0,1.06,2.2,2.2,0,0,0-.05.92Z"/><path id="path2890-7-14" data-name="path2890-7" class="cls-5" d="M88.92,175.47c-.46-.11-.78-.16-1.14-.26C86.78,177,88.9,177.72,88.92,175.47Zm0-.48a4.22,4.22,0,0,0,.48-2.3c-.07-.67-.25-1.58-1.16-1.38-.42.14-.7.69-.79,1.54a1.54,1.54,0,0,0,.17,1.05,2.25,2.25,0,0,1,.18.89Z"/></g></g></svg>