<svg xmlns="http://www.w3.org/2000/svg" viewBox="0 0 276 276"><defs><style>.cls-1{fill:#fff;}.cls-1,.cls-2{stroke:#231f20;}.cls-1,.cls-2,.cls-3{stroke-miterlimit:10;}.cls-2,.cls-3{fill:none;}.cls-2{stroke-width:0.25px;}.cls-3{stroke:#ed1c24;stroke-width:2px;}.cls-4{fill:#404040;}</style></defs><title>item15</title><g id="Layer_2" data-name="Layer 2"><g id="muffin1"><rect class="cls-1" x="0.5" y="0.5" width="275" height="275"/><rect class="cls-2" x="61.16" y="83.41" width="30" height="90"/><line class="cls-2" x1="61.16" y1="143.41" x2="91.16" y2="143.41"/><line class="cls-2" x1="61.16" y1="113.41" x2="91.16" y2="113.41"/><g id="muffin_tin_top" data-name="muffin tin top"><rect class="cls-1" x="146.56" y="89.3" width="77.41" height="103.21" rx="6.19" transform="translate(-2.66 278.25) rotate(-73.42)"/><circle class="cls-1" cx="226.39" cy="128.7" r="10.32"/><circle class="cls-1" cx="219.7" cy="151.16" r="10.32"/><circle class="cls-1" cx="213.01" cy="173.63" r="10.32"/><circle class="cls-1" cx="203.43" cy="121.86" r="10.32"/><circle class="cls-1" cx="196.74" cy="144.33" r="10.32"/><circle class="cls-1" cx="190.05" cy="166.79" r="10.32"/><circle class="cls-1" cx="180.47" cy="115.02" r="10.32"/><circle class="cls-1" cx="173.78" cy="137.49" r="10.32"/><circle class="cls-1" cx="167.09" cy="159.95" r="10.32"/><circle class="cls-1" cx="157.51" cy="108.19" r="10.32"/><circle class="cls-1" cx="150.82" cy="130.65" r="10.32"/><circle class="cls-1" cx="144.13" cy="153.11" r="10.32"/></g><rect class="cls-3" x="61.16" y="83.41" width="30" height="30"/><rect class="cls-2" x="61.16" y="143.41" width="30" height="30"/><rect class="cls-2" x="61.16" y="173.41" width="30" height="30"/><path id="path2890" class="cls-4" d="M86.81,193.87c.18.44.28.75.43,1.09C85.62,196.19,84.59,194.2,86.81,193.87Zm.82,1c-.11-.36-.23-.72-.35-1.08A4.39,4.39,0,0,1,89.5,193c.67,0,1.6,0,1.52,1-.08.43-.58.79-1.41,1a1.52,1.52,0,0,1-1.06,0,2.38,2.38,0,0,0-.92-.06Z"/><path id="path2890-7" class="cls-4" d="M93.15,196.65c.11-.46.17-.78.27-1.14C91.66,194.5,90.9,196.62,93.15,196.65Zm.48,0a4.23,4.23,0,0,0,2.3.49c.67-.07,1.59-.24,1.39-1.15-.15-.42-.69-.71-1.54-.8a1.6,1.6,0,0,0-1,.16,2.09,2.09,0,0,1-.89.18C93.78,196,93.71,196.33,93.63,196.7Z"/><path id="path2890-2" data-name="path2890" class="cls-4" d="M72.82,194.81c.17.44.27.75.42,1.09C71.62,197.13,70.59,195.14,72.82,194.81Zm.82,1c-.11-.36-.23-.72-.35-1.08a4.26,4.26,0,0,1,2.21-.79c.68,0,1.6,0,1.53,1-.09.43-.59.79-1.41,1a1.55,1.55,0,0,1-1.07,0,2.33,2.33,0,0,0-.91-.06Z"/><path id="path2890-7-2" data-name="path2890-7" class="cls-4" d="M79.16,197.58c.11-.45.17-.77.27-1.13C77.66,195.44,76.91,197.56,79.16,197.58Zm.48.06a4.32,4.32,0,0,0,2.3.49c.67-.07,1.58-.24,1.38-1.15-.14-.42-.68-.71-1.53-.8a1.59,1.59,0,0,0-1.05.16,2.16,2.16,0,0,1-.9.18C79.78,196.9,79.71,197.27,79.64,197.64Z"/><path id="path2890-3" data-name="path2890" class="cls-4" d="M58.82,195.75c.18.44.28.74.43,1.09C57.63,198.07,56.6,196.08,58.82,195.75Zm.83,1c-.12-.36-.23-.72-.36-1.08a4.21,4.21,0,0,1,2.22-.79c.67,0,1.6,0,1.52.95-.08.44-.58.79-1.41,1a1.58,1.58,0,0,1-1.06,0,2.33,2.33,0,0,0-.91-.06Z"/><path id="path2890-7-3" data-name="path2890-7" class="cls-4" d="M65.16,198.52c.11-.45.17-.77.27-1.13C63.67,196.38,62.91,198.5,65.16,198.52Zm.48.06a4.32,4.32,0,0,0,2.3.49c.68-.07,1.59-.25,1.39-1.15-.14-.42-.69-.71-1.54-.8a1.56,1.56,0,0,0-1,.16,2.33,2.33,0,0,1-.9.18C65.79,197.83,65.72,198.2,65.64,198.58Z"/><path id="path2890-4" data-name="path2890" class="cls-4" d="M73.21,92.62c.4-.25.68-.41,1-.62C75.72,93.35,74,94.75,73.21,92.62Zm.78-1-1,.56a4.37,4.37,0,0,1-1.2-2c-.15-.66-.28-1.58.64-1.68.45,0,.89.42,1.25,1.19a1.58,1.58,0,0,1,.19,1,2.3,2.3,0,0,0,.11.91Z"/><path id="path2890-7-4" data-name="path2890-7" class="cls-4" d="M74.71,85.87c-.47,0-.8,0-1.17-.05C72.9,87.75,75.12,88.08,74.71,85.87Zm0-.48a4.3,4.3,0,0,0,0-2.36c-.19-.64-.54-1.5-1.39-1.13-.39.22-.56.81-.49,1.66a1.56,1.56,0,0,0,.36,1,2.15,2.15,0,0,1,.35.84Z"/><path id="path2890-5" data-name="path2890" class="cls-4" d="M71.31,105.88c.46-.08.79-.11,1.15-.19C73.34,107.52,71.18,108.13,71.31,105.88Zm1.11-.61-1.13.13a4.25,4.25,0,0,1-.33-2.33c.11-.66.35-1.56,1.24-1.3.41.17.66.73.69,1.58a1.58,1.58,0,0,1-.23,1,2.15,2.15,0,0,0-.24.88Z"/><path id="path2890-7-5" data-name="path2890-7" class="cls-4" d="M75.3,100.23c-.42-.2-.72-.32-1.06-.49C72.9,101.27,74.82,102.43,75.3,100.23Zm.16-.46a4.24,4.24,0,0,0,.93-2.15c.07-.67.09-1.6-.84-1.59-.45.06-.83.53-1.1,1.34a1.63,1.63,0,0,0,0,1.06,2.19,2.19,0,0,1,0,.92Z"/><path id="path2890-6" data-name="path2890" class="cls-4" d="M73.93,120c.42-.21.71-.33,1-.51C76.34,121,74.45,122.21,73.93,120Zm.88-.9q-.53.21-1,.45a4.37,4.37,0,0,1-1-2.14c-.08-.67-.11-1.6.82-1.6.44,0,.84.51,1.12,1.32a1.58,1.58,0,0,1,.07,1.06,2.32,2.32,0,0,0,0,.91Z"/><path id="path2890-7-6" data-name="path2890-7" class="cls-4" d="M76.13,113.47,75,113.3C74.13,115.14,76.3,115.71,76.13,113.47Zm0-.49a4.25,4.25,0,0,0,.28-2.33c-.13-.66-.38-1.56-1.27-1.28-.41.18-.64.75-.66,1.6a1.61,1.61,0,0,0,.25,1,2.09,2.09,0,0,1,.26.88Z"/><path id="path2890-7-7" data-name="path2890" class="cls-4" d="M73.07,133.8c.46-.13.77-.2,1.13-.31C75.27,135.22,73.18,136.05,73.07,133.8Zm1-.72-1.11.24a4.28,4.28,0,0,1-.57-2.28c0-.67.18-1.59,1.1-1.43.42.13.73.67.85,1.51a1.55,1.55,0,0,1-.12,1,2.21,2.21,0,0,0-.15.91Z"/><path id="path2890-7-8" data-name="path2890-7" class="cls-4" d="M76.45,127.76c-.44-.15-.75-.24-1.1-.38C74.17,129,76.21,130,76.45,127.76Zm.1-.47a4.21,4.21,0,0,0,.71-2.24c0-.68-.08-1.6-1-1.49-.43.1-.76.61-.94,1.45a1.56,1.56,0,0,0,.06,1.06,2.34,2.34,0,0,1,.09.91Z"/><path id="path2890-8" data-name="path2890" class="cls-4" d="M72.63,147.88c.45-.16.76-.25,1.11-.38C74.91,149.16,72.88,150.12,72.63,147.88Zm1-.79-1.09.32a4.27,4.27,0,0,1-.71-2.25c0-.67.08-1.59,1-1.49.44.1.77.62,1,1.45a1.55,1.55,0,0,1-.06,1.06,2.34,2.34,0,0,0-.09.91Z"/><path id="path2890-7-9" data-name="path2890-7" class="cls-4" d="M75.62,141.64c-.45-.13-.76-.2-1.12-.31C73.43,143.06,75.52,143.89,75.62,141.64Zm.08-.48a4.25,4.25,0,0,0,.57-2.28c0-.67-.19-1.59-1.1-1.42-.43.13-.73.66-.86,1.5a1.58,1.58,0,0,0,.13,1.06,2.3,2.3,0,0,1,.15.9Z"/><path id="path2890-9" data-name="path2890" class="cls-4" d="M72.6,161.77c.45-.15.76-.23,1.11-.36C74.84,163.1,72.79,164,72.6,161.77Zm1-.76c-.37.08-.73.18-1.1.28a4.25,4.25,0,0,1-.66-2.26c0-.67.13-1.59,1.05-1.46.43.11.75.63.91,1.47a1.6,1.6,0,0,1-.09,1.06,2.14,2.14,0,0,0-.11.91Z"/><path id="path2890-7-10" data-name="path2890-7" class="cls-4" d="M75.75,155.61c-.45-.14-.76-.22-1.11-.34C73.52,157,75.59,157.85,75.75,155.61Zm.09-.48a4.15,4.15,0,0,0,.62-2.26c0-.68-.14-1.6-1.06-1.46-.43.12-.74.65-.89,1.49a1.56,1.56,0,0,0,.1,1,2.18,2.18,0,0,1,.12.91C75.1,154.94,75.47,155,75.84,155.13Z"/><path id="path2890-10" data-name="path2890" class="cls-4" d="M75.93,175.78c.4-.24.69-.39,1-.6C78.42,176.57,76.63,177.92,75.93,175.78Zm.81-1-1,.53a4.29,4.29,0,0,1-1.15-2.05c-.14-.66-.24-1.58.68-1.66.45,0,.88.44,1.22,1.22a1.52,1.52,0,0,1,.16,1.05,2.15,2.15,0,0,0,.1.91Z"/><path id="path2890-7-11" data-name="path2890-7" class="cls-4" d="M77.59,169.07c-.47,0-.79,0-1.16-.08C75.74,170.9,78,171.29,77.59,169.07Zm0-.49a4.27,4.27,0,0,0,.09-2.35c-.18-.65-.5-1.51-1.36-1.17-.4.22-.58.8-.53,1.65a1.55,1.55,0,0,0,.33,1,2.16,2.16,0,0,1,.33.85Z"/><path id="path2890-11" data-name="path2890" class="cls-4" d="M85.68,186.67c.15-.45.27-.75.38-1.11C88.09,185.65,87.6,187.84,85.68,186.67Zm0-1.27c-.15.35-.29.7-.42,1.06a4.23,4.23,0,0,1-2.21-.82c-.53-.41-1.21-1-.56-1.71.35-.28,1-.23,1.72.14a1.59,1.59,0,0,1,.81.7,2.2,2.2,0,0,0,.66.63Z"/><path id="path2890-7-12" data-name="path2890-7" class="cls-4" d="M82.59,180.48c-.38.28-.62.48-.93.69C82.37,183.08,84.3,181.94,82.59,180.48Zm-.33-.36c0-.46-1.12-1.66-1.46-1.84-.55-.38-1.37-.83-1.79,0-.16.42.07,1,.66,1.6a1.63,1.63,0,0,0,.91.55,2.12,2.12,0,0,1,.81.43Z"/><path id="path2890-12" data-name="path2890" class="cls-4" d="M101.26,186.12c-.1-.46-.15-.78-.25-1.14C102.8,184,103.51,186.14,101.26,186.12Zm-.66-1.07c.05.37.12.74.18,1.12a4.32,4.32,0,0,1-2.31.45c-.67-.08-1.57-.28-1.36-1.18.15-.42.7-.69,1.55-.77a1.56,1.56,0,0,1,1,.18,2.18,2.18,0,0,0,.9.2Z"/><path id="path2890-7-13" data-name="path2890-7" class="cls-4" d="M95.42,182.42c-.18.44-.29.74-.44,1.08C96.57,184.76,97.64,182.79,95.42,182.42Zm-.47-.13a4.25,4.25,0,0,0-2.2-.83c-.67,0-1.6,0-1.54.93.08.44.57.8,1.39,1a1.62,1.62,0,0,0,1.07,0,2.32,2.32,0,0,1,.91,0C94.7,183,94.82,182.65,95,182.29Z"/></g></g></svg>