<svg xmlns="http://www.w3.org/2000/svg" viewBox="0 0 276 276"><defs><style>.cls-1,.cls-2,.cls-3{fill:none;}.cls-1,.cls-2{stroke:#231f20;stroke-miterlimit:10;}.cls-2{stroke-width:0.25px;}.cls-4{fill:#404040;}</style></defs><title>item1</title><g id="Layer_2" data-name="Layer 2"><g id="lamp1"><g id="lamp_side" data-name="lamp side"><rect class="cls-1" x="152.1" y="147.37" width="61.65" height="64.84" transform="translate(-70.76 142.03) rotate(-36.04)"/><rect class="cls-1" x="140.37" y="86.07" width="3.67" height="74.45" transform="matrix(0.81, -0.59, 0.59, 0.81, -45.32, 107.25)"/><rect class="cls-1" x="96.9" y="88.01" width="43.23" height="5.79" transform="translate(-30.8 87.12) rotate(-36.04)"/></g><rect class="cls-2" x="54.52" y="150.5" width="30" height="30"/><rect class="cls-3" x="77.83" y="153.83" width="4.66" height="11.69" transform="translate(-81.88 234.94) rotate(-88.26)"/><path id="path2890" class="cls-4" d="M75.7,158c.13.45.2.76.32,1.12C74.29,160.14,73.46,158.05,75.7,158Zm.73,1c-.08-.37-.16-.74-.25-1.11a4.31,4.31,0,0,1,2.29-.57c.67,0,1.59.18,1.42,1.1-.13.43-.66.73-1.5.85a1.58,1.58,0,0,1-1.06-.12,2.3,2.3,0,0,0-.9-.15Z"/><path id="path2890-7" class="cls-4" d="M81.74,161.32c.16-.44.25-.75.38-1.1C80.46,159.05,79.51,161.08,81.74,161.32Zm.48.11a4.29,4.29,0,0,0,2.24.7c.67,0,1.6-.08,1.49-1-.1-.43-.62-.76-1.45-.94a1.55,1.55,0,0,0-1.06.06,2.16,2.16,0,0,1-.91.09C82.43,160.7,82.33,161.06,82.22,161.43Z"/><rect class="cls-3" x="61.94" y="162.21" width="11.69" height="4.66" transform="translate(-110.15 162.43) rotate(-66.93)"/><path id="path2890-2" data-name="path2890" class="cls-4" d="M64.55,168.06c.47,0,.79.09,1.17.11C66.08,170.17,63.84,170.19,64.55,168.06Zm1.23-.3c-.37-.07-.74-.12-1.12-.18a4.21,4.21,0,0,1,.3-2.33c.28-.61.75-1.41,1.54-.93.35.28.44.88.25,1.71a1.6,1.6,0,0,1-.5.94,2.19,2.19,0,0,0-.47.79Z"/><path id="path2890-7-2" data-name="path2890-7" class="cls-4" d="M69.89,163.66c-.35-.31-.61-.5-.89-.76C67.31,164,68.85,165.65,69.89,163.66Zm.27-.4c.46-.11,1.38-1.47,1.48-1.84.24-.62.5-1.52-.4-1.75-.44-.06-.94.29-1.41,1a1.55,1.55,0,0,0-.33,1,2.27,2.27,0,0,1-.24.89Z"/><rect class="cls-3" x="66.51" y="172.67" width="4.66" height="11.69" transform="translate(-16.2 7.13) rotate(-5.3)"/><path id="path2890-3" data-name="path2890" class="cls-4" d="M67.67,183.14c.43-.18.74-.29,1.08-.45C70,184.28,68.05,185.36,67.67,183.14Zm.94-.84-1.07.38a4.36,4.36,0,0,1-.85-2.2c0-.67,0-1.6.92-1.55.44.08.8.57,1,1.39a1.6,1.6,0,0,1,0,1.06,2.2,2.2,0,0,0,0,.92Z"/><path id="path2890-7-3" data-name="path2890-7" class="cls-4" d="M70.28,176.74c-.46-.1-.78-.15-1.14-.25C68.18,178.29,70.31,179,70.28,176.74Zm0-.49a4.21,4.21,0,0,0,.42-2.31c-.08-.67-.28-1.57-1.18-1.35-.42.15-.69.7-.76,1.55a1.59,1.59,0,0,0,.19,1.05,2.1,2.1,0,0,1,.2.89Z"/><rect class="cls-1" x="0.5" y="0.5" width="275" height="275"/></g></g></svg>