<svg xmlns="http://www.w3.org/2000/svg" viewBox="0 0 276 276"><defs><style>.cls-1{fill:#fff;}.cls-1,.cls-2,.cls-3{stroke:#231f20;stroke-miterlimit:10;}.cls-2,.cls-3,.cls-4{fill:none;}.cls-3{stroke-width:0.25px;}.cls-5{fill:#404040;}</style></defs><title>item2</title><g id="Layer_2" data-name="Layer 2"><g id="notebook_2" data-name="notebook 2"><rect class="cls-1" x="0.5" y="0.5" width="275" height="275"/><g id="notebook_side" data-name="notebook side"><circle class="cls-2" cx="182.69" cy="186.44" r="7.5"/><rect class="cls-1" x="157.57" y="66.15" width="8" height="124" transform="translate(-33.99 62.71) rotate(-19.92)"/></g><rect class="cls-3" x="85.81" y="103.06" width="30" height="90"/><line class="cls-3" x1="85.81" y1="163.06" x2="115.81" y2="163.06"/><line class="cls-3" x1="85.81" y1="133.06" x2="115.81" y2="133.06"/><rect class="cls-4" x="117.42" y="110.23" width="4.66" height="11.69" transform="translate(-0.24 231.89) rotate(-88.09)"/><path id="path2890" class="cls-5" d="M115.3,114.33c.13.45.2.77.31,1.12C113.88,116.52,113.05,114.43,115.3,114.33Zm.72,1c-.07-.38-.16-.74-.24-1.12a4.36,4.36,0,0,1,2.28-.56c.67,0,1.59.19,1.42,1.1-.13.43-.66.73-1.5.85a1.57,1.57,0,0,1-1.06-.12,2.13,2.13,0,0,0-.9-.15Z"/><path id="path2890-7" class="cls-5" d="M121.33,117.72c.15-.44.24-.75.38-1.1C120.05,115.44,119.09,117.47,121.33,117.72Zm.47.11a4.3,4.3,0,0,0,2.24.71c.68,0,1.6-.08,1.49-1-.1-.44-.61-.78-1.44-1a1.56,1.56,0,0,0-1.06,0,2.19,2.19,0,0,1-.92.09C122,117.1,121.91,117.46,121.8,117.83Z"/><rect class="cls-4" x="99.93" y="113.7" width="11.69" height="4.66" transform="matrix(0.99, -0.11, 0.11, 0.99, -12.31, 12.55)"/><path id="path2890-2" data-name="path2890" class="cls-5" d="M101.12,115c.19.43.31.73.47,1.07C100,117.32,98.91,115.38,101.12,115Zm.87.92c-.13-.35-.27-.7-.4-1.06a4.2,4.2,0,0,1,2.17-.89c.68,0,1.6,0,1.57.89-.07.44-.55.81-1.37,1.06a1.55,1.55,0,0,1-1.06,0,2.32,2.32,0,0,0-.91,0Z"/><path id="path2890-7-2" data-name="path2890-7" class="cls-5" d="M107.58,117.44c.09-.47.13-.79.22-1.15C106,115.36,105.33,117.51,107.58,117.44Zm.48,0a4.16,4.16,0,0,0,2.32.38c.67-.09,1.57-.31,1.33-1.21-.16-.41-.71-.67-1.57-.73a1.61,1.61,0,0,0-1,.21,2.12,2.12,0,0,1-.88.22C108.17,116.72,108.12,117.09,108.06,117.47Z"/><rect class="cls-4" x="94.56" y="125.1" width="11.69" height="4.66" transform="translate(-40.68 207.52) rotate(-81.35)"/><path id="path2890-3" data-name="path2890" class="cls-5" d="M98.14,131.64c.47-.07.79-.1,1.16-.17C100.15,133.31,98,133.89,98.14,131.64Zm1.12-.59-1.13.11a4.28,4.28,0,0,1-.29-2.34c.12-.66.37-1.55,1.26-1.28.41.18.64.74.67,1.6a1.63,1.63,0,0,1-.25,1,2.09,2.09,0,0,0-.26.88Z"/><path id="path2890-7-3" data-name="path2890-7" class="cls-5" d="M102.22,126.05c-.42-.21-.72-.33-1-.51C99.81,127.05,101.71,128.24,102.22,126.05Zm.16-.45a4.22,4.22,0,0,0,1-2.15c.08-.67.11-1.59-.82-1.6-.44.05-.84.52-1.11,1.33a1.58,1.58,0,0,0-.07,1.06,2.15,2.15,0,0,1,0,.91C101.68,125.3,102,125.44,102.38,125.6Z"/><rect class="cls-4" x="92.45" y="138.96" width="11.69" height="4.66" transform="translate(-56.18 217.22) rotate(-81.35)"/><path id="path2890-4" data-name="path2890" class="cls-5" d="M96,145.51c.46-.08.78-.11,1.15-.18C98,147.18,95.87,147.75,96,145.51Zm1.11-.6L96,145a4.24,4.24,0,0,1-.29-2.33c.12-.66.37-1.56,1.26-1.28.41.18.64.74.67,1.59a1.61,1.61,0,0,1-.25,1,2.18,2.18,0,0,0-.26.88Z"/><path id="path2890-7-4" data-name="path2890-7" class="cls-5" d="M100.11,139.92c-.42-.21-.72-.33-1-.51C97.7,140.92,99.6,142.11,100.11,139.92Zm.16-.46a4.25,4.25,0,0,0,1-2.14c.07-.67.1-1.6-.83-1.6-.44.05-.83.52-1.11,1.33a1.58,1.58,0,0,0-.07,1.06,2,2,0,0,1,0,.91C99.58,139.16,99.92,139.31,100.27,139.46Z"/><rect class="cls-4" x="96.22" y="149.42" width="4.66" height="11.69" transform="translate(-9.96 6.79) rotate(-3.76)"/><path id="path2890-5" data-name="path2890" class="cls-5" d="M97.26,159.86c.44-.17.74-.27,1.09-.42C99.58,161.06,97.58,162.09,97.26,159.86Zm1-.82-1.08.35a4.18,4.18,0,0,1-.79-2.21c0-.68,0-1.6,1-1.53.43.09.79.59,1,1.42a1.52,1.52,0,0,1,0,1.06,2.15,2.15,0,0,0-.06.91Z"/><path id="path2890-7-5" data-name="path2890-7" class="cls-5" d="M100,153.53c-.46-.11-.78-.17-1.14-.28C97.9,155,100,155.78,100,153.53Zm.06-.48a4.32,4.32,0,0,0,.49-2.3c-.07-.67-.24-1.59-1.15-1.39-.42.14-.71.69-.8,1.53a1.52,1.52,0,0,0,.16,1.05,2.33,2.33,0,0,1,.18.9Z"/><rect class="cls-4" x="97.2" y="163.4" width="4.66" height="11.69" transform="translate(-27.38 19.43) rotate(-9.81)"/><path id="path2890-6" data-name="path2890" class="cls-5" d="M98.73,174c.42-.22.71-.35,1-.53C101.16,174.91,99.29,176.14,98.73,174Zm.87-.92-1,.46a4.29,4.29,0,0,1-1-2.12c-.09-.66-.13-1.59.8-1.61.44,0,.84.5,1.13,1.3a1.54,1.54,0,0,1,.09,1.06,2.33,2.33,0,0,0,0,.91Z"/><path id="path2890-7-6" data-name="path2890-7" class="cls-5" d="M100.83,167.37c-.47-.07-.79-.09-1.16-.16C98.85,169.08,101,169.61,100.83,167.37Zm0-.49a4.35,4.35,0,0,0,.24-2.34c-.14-.66-.41-1.55-1.29-1.25-.4.18-.63.75-.63,1.61a1.49,1.49,0,0,0,.27,1,2.26,2.26,0,0,1,.27.88Z"/><rect class="cls-4" x="101.04" y="176.9" width="4.66" height="11.69" transform="matrix(0.96, -0.27, 0.27, 0.96, -46.02, 35.22)"/><path id="path2890-7-7" data-name="path2890" class="cls-5" d="M103.07,187.51c.39-.26.67-.42,1-.64C105.58,188.2,103.85,189.62,103.07,187.51Zm.76-1c-.33.18-.65.37-1,.57a4.22,4.22,0,0,1-1.23-2c-.17-.65-.31-1.57.61-1.69.45,0,.9.41,1.27,1.18a1.52,1.52,0,0,1,.2,1,2.34,2.34,0,0,0,.13.91Z"/><path id="path2890-7-8" data-name="path2890-7" class="cls-5" d="M104.46,180.73c-.47,0-.8,0-1.17,0C102.67,182.64,104.9,182.94,104.46,180.73Zm0-.48a4.27,4.27,0,0,0,0-2.35c-.21-.64-.57-1.5-1.41-1.12-.39.23-.55.82-.47,1.67a1.57,1.57,0,0,0,.38,1,2.43,2.43,0,0,1,.37.84Z"/><rect class="cls-4" x="101.1" y="190.92" width="4.66" height="11.69"/><path id="path2890-8" data-name="path2890" class="cls-5" d="M101.84,201.27l1.11-.35C104.07,202.61,102,203.51,101.84,201.27Zm1-.76-1.1.28a4.25,4.25,0,0,1-.64-2.26c0-.68.13-1.6,1-1.46.43.11.75.64.9,1.47a1.59,1.59,0,0,1-.09,1.06,2.36,2.36,0,0,0-.12.91Z"/><path id="path2890-7-9" data-name="path2890-7" class="cls-5" d="M105,195.13l-1.11-.35C102.79,196.48,104.85,197.37,105,195.13Zm.09-.48a4.29,4.29,0,0,0,.64-2.27c0-.67-.14-1.59-1.06-1.45-.43.11-.75.64-.9,1.48a1.56,1.56,0,0,0,.1,1.05,2.36,2.36,0,0,1,.12.91Z"/></g></g></svg>