<svg xmlns="http://www.w3.org/2000/svg" viewBox="0 0 276 276"><defs><style>.cls-1{fill:#fff;}.cls-1,.cls-2,.cls-3{stroke:#231f20;}.cls-1,.cls-2,.cls-3,.cls-4{stroke-miterlimit:10;}.cls-2,.cls-3,.cls-4,.cls-5{fill:none;}.cls-2{stroke-width:0.25px;}.cls-4{stroke:#ed1c24;stroke-width:2px;}.cls-6{fill:#404040;}</style></defs><title>item18</title><g id="Layer_2" data-name="Layer 2"><g id="wateringcan1"><rect class="cls-1" x="0.5" y="0.5" width="275" height="275"/><rect class="cls-2" x="92.29" y="49.75" width="30" height="120"/><line class="cls-2" x1="92.29" y1="139.75" x2="122.29" y2="139.75"/><line class="cls-2" x1="92.29" y1="109.75" x2="122.29" y2="109.75"/><line class="cls-2" x1="92.29" y1="79.75" x2="122.29" y2="79.75"/><g id="watering_can_top" data-name="watering can top"><rect class="cls-1" x="163.19" y="89.4" width="8.43" height="60.95" rx="4.21" transform="translate(-29.01 58.11) rotate(-18.15)"/><circle class="cls-1" cx="175.35" cy="144.12" r="31.91"/><line class="cls-3" x1="204.75" y1="131.33" x2="144.22" y2="151.16"/><line class="cls-3" x1="206.48" y1="137.07" x2="145.96" y2="156.9"/><line class="cls-3" x1="186.29" y1="174.11" x2="196.89" y2="206.47"/><line class="cls-3" x1="182.42" y1="175.09" x2="193.11" y2="207.71"/><path class="cls-3" d="M204.61,205h0a1,1,0,0,1-.63,1.23l-16.42,5.38a1,1,0,0,1-1.24-.62h0a1,1,0,0,1,.63-1.23l16.42-5.39A1,1,0,0,1,204.61,205Z"/></g><rect class="cls-2" x="92.29" y="169.75" width="30" height="60"/><line class="cls-2" x1="122.29" y1="199.75" x2="92.29" y2="199.75"/><rect class="cls-4" x="92.29" y="139.75" width="30" height="30"/><rect class="cls-5" x="103.46" y="45.41" width="4.66" height="11.69" transform="translate(-0.55 1.16) rotate(-0.62)"/><path id="path2890" class="cls-6" d="M104.25,55.77c.44-.14.76-.23,1.11-.36C106.5,57.1,104.45,58,104.25,55.77Zm1-.76-1.1.29a4.25,4.25,0,0,1-.66-2.26c0-.67.12-1.6,1-1.47.43.11.75.63.91,1.47a1.54,1.54,0,0,1-.08,1.06,2.16,2.16,0,0,0-.11.91Z"/><path id="path2890-7" class="cls-6" d="M107.37,49.6c-.45-.14-.76-.21-1.12-.34C105.15,51,107.22,51.84,107.37,49.6Zm.09-.48a4.35,4.35,0,0,0,.61-2.27c0-.67-.15-1.59-1.07-1.44-.43.12-.74.64-.89,1.48a1.58,1.58,0,0,0,.11,1.06,2.31,2.31,0,0,1,.13.91Z"/><rect class="cls-5" x="103.62" y="59.43" width="4.66" height="11.69" transform="translate(-0.71 1.16) rotate(-0.62)"/><path id="path2890-2" data-name="path2890" class="cls-6" d="M104.4,69.8c.45-.15.76-.23,1.11-.36C106.65,71.12,104.6,72,104.4,69.8Zm1-.77-1.1.29a4.24,4.24,0,0,1-.66-2.25c0-.68.12-1.6,1-1.47.43.11.76.63.92,1.46a1.67,1.67,0,0,1-.08,1.06,2.36,2.36,0,0,0-.12.91Z"/><path id="path2890-7-2" data-name="path2890-7" class="cls-6" d="M107.52,63.63c-.45-.14-.76-.22-1.12-.34C105.3,65,107.37,65.87,107.52,63.63Zm.09-.48a4.28,4.28,0,0,0,.61-2.27c0-.68-.15-1.6-1.07-1.45-.43.12-.74.65-.88,1.49a1.56,1.56,0,0,0,.1,1,2.19,2.19,0,0,1,.13.91Q107.06,63,107.61,63.15Z"/><rect class="cls-5" x="103.77" y="73.46" width="4.66" height="11.69" transform="translate(-0.86 1.16) rotate(-0.62)"/><path id="path2890-3" data-name="path2890" class="cls-6" d="M104.55,83.82c.45-.14.76-.23,1.11-.36C106.8,85.15,104.75,86.06,104.55,83.82Zm1-.76-1.1.29a4.35,4.35,0,0,1-.67-2.26c0-.67.12-1.59,1-1.47.43.11.76.63.92,1.47a1.54,1.54,0,0,1-.08,1.06,2.17,2.17,0,0,0-.11.91Z"/><path id="path2890-7-3" data-name="path2890-7" class="cls-6" d="M107.68,77.65c-.45-.14-.77-.21-1.12-.33C105.46,79,107.52,79.9,107.68,77.65Zm.08-.48a4.24,4.24,0,0,0,.62-2.27c0-.67-.16-1.59-1.08-1.44-.42.12-.74.64-.88,1.48a1.59,1.59,0,0,0,.1,1.06,2.17,2.17,0,0,1,.14.91Z"/><rect class="cls-5" x="103.92" y="87.48" width="4.66" height="11.69" transform="translate(-1.01 1.16) rotate(-0.62)"/><path id="path2890-4" data-name="path2890" class="cls-6" d="M104.71,97.85c.44-.15.75-.23,1.11-.36C107,99.17,104.91,100.09,104.71,97.85Zm1-.77-1.1.29a4.24,4.24,0,0,1-.66-2.25c0-.68.12-1.6,1-1.47.43.11.75.63.91,1.46a1.54,1.54,0,0,1-.08,1.06,2.17,2.17,0,0,0-.11.91Z"/><path id="path2890-7-4" data-name="path2890-7" class="cls-6" d="M107.83,91.68c-.45-.14-.76-.22-1.12-.34C105.61,93.05,107.68,93.92,107.83,91.68Zm.08-.48a4.29,4.29,0,0,0,.62-2.27c0-.68-.16-1.59-1.07-1.45-.43.12-.74.65-.89,1.49a1.59,1.59,0,0,0,.11,1.06,2.29,2.29,0,0,1,.13.9C107.18,91,107.54,91.11,107.91,91.2Z"/><rect class="cls-5" x="104.07" y="101.51" width="4.66" height="11.69" transform="translate(-1.16 1.17) rotate(-0.62)"/><path id="path2890-5" data-name="path2890" class="cls-6" d="M104.86,111.87c.45-.14.76-.23,1.11-.36C107.11,113.2,105.06,114.11,104.86,111.87Zm1-.76-1.1.29a4.25,4.25,0,0,1-.66-2.26c0-.67.12-1.59,1-1.47.43.11.75.63.91,1.47a1.61,1.61,0,0,1-.07,1.06,2.36,2.36,0,0,0-.12.91Z"/><path id="path2890-7-5" data-name="path2890-7" class="cls-6" d="M108,105.7c-.45-.14-.76-.21-1.12-.33C105.76,107.07,107.83,108,108,105.7Zm.09-.48a4.23,4.23,0,0,0,.61-2.27c0-.67-.15-1.59-1.07-1.44-.43.12-.74.64-.88,1.48a1.59,1.59,0,0,0,.1,1.06,2.37,2.37,0,0,1,.13.91Z"/><rect class="cls-5" x="104.23" y="115.53" width="4.66" height="11.69" transform="translate(-1.32 1.17) rotate(-0.62)"/><path id="path2890-6" data-name="path2890" class="cls-6" d="M105,125.9c.45-.15.76-.23,1.11-.36C107.26,127.22,105.21,128.14,105,125.9Zm1-.77-1.1.29a4.34,4.34,0,0,1-.67-2.25c0-.68.12-1.6,1-1.47.43.11.76.63.92,1.47a1.57,1.57,0,0,1-.08,1,2.17,2.17,0,0,0-.11.91Z"/><path id="path2890-7-6" data-name="path2890-7" class="cls-6" d="M108.13,119.73c-.45-.14-.76-.22-1.11-.34C105.91,121.1,108,122,108.13,119.73Zm.09-.48a4.26,4.26,0,0,0,.61-2.27c0-.67-.15-1.59-1.07-1.45-.43.12-.74.65-.88,1.49a1.6,1.6,0,0,0,.1,1.06,2.12,2.12,0,0,1,.13.9C107.48,119.06,107.85,119.16,108.22,119.25Z"/><rect class="cls-5" x="104.38" y="129.56" width="4.66" height="11.69" transform="translate(-1.47 1.17) rotate(-0.62)"/><path id="path2890-7-7" data-name="path2890" class="cls-6" d="M105.16,139.92c.45-.14.76-.23,1.12-.36C107.41,141.25,105.37,142.17,105.16,139.92Zm1-.76-1.1.29a4.25,4.25,0,0,1-.66-2.26c0-.67.11-1.59,1-1.47.44.11.76.63.92,1.47a1.54,1.54,0,0,1-.08,1.06,2.17,2.17,0,0,0-.11.91Z"/><path id="path2890-7-8" data-name="path2890-7" class="cls-6" d="M108.29,133.75c-.45-.14-.77-.21-1.12-.33C106.07,135.13,108.14,136,108.29,133.75Zm.08-.48A4.24,4.24,0,0,0,109,131c0-.67-.16-1.59-1.07-1.44-.43.12-.75.64-.89,1.48a1.58,1.58,0,0,0,.1,1.06,2.2,2.2,0,0,1,.14.91Z"/><rect class="cls-5" x="104.53" y="143.58" width="4.66" height="11.69" transform="translate(-1.62 1.17) rotate(-0.62)"/><path id="path2890-8" data-name="path2890" class="cls-6" d="M105.32,154c.44-.15.76-.23,1.11-.36C107.57,155.27,105.52,156.19,105.32,154Zm1-.77-1.1.29a4.21,4.21,0,0,1-.66-2.25c0-.68.12-1.6,1-1.47.43.11.75.63.91,1.47a1.51,1.51,0,0,1-.08,1.05,2.35,2.35,0,0,0-.11.91Z"/><path id="path2890-7-9" data-name="path2890-7" class="cls-6" d="M108.44,147.78c-.45-.14-.76-.22-1.12-.34C106.22,149.15,108.29,150,108.44,147.78Zm.09-.48a4.35,4.35,0,0,0,.61-2.27c0-.67-.15-1.59-1.07-1.45-.43.12-.74.65-.88,1.49a1.54,1.54,0,0,0,.1,1.06,2.29,2.29,0,0,1,.13.9Z"/><rect class="cls-5" x="104.69" y="157.61" width="4.66" height="11.69" transform="translate(-1.78 1.18) rotate(-0.62)"/><path id="path2890-9" data-name="path2890" class="cls-6" d="M105.47,168l1.11-.36C107.72,169.3,105.67,170.22,105.47,168Zm1-.77-1.1.29a4.17,4.17,0,0,1-.67-2.26c0-.67.12-1.59,1-1.47.43.11.76.63.92,1.47a1.67,1.67,0,0,1-.08,1.06,2.17,2.17,0,0,0-.11.91Z"/><path id="path2890-7-10" data-name="path2890-7" class="cls-6" d="M108.59,161.8c-.45-.13-.76-.21-1.11-.33C106.37,163.18,108.44,164.05,108.59,161.8Zm.09-.48a4.23,4.23,0,0,0,.61-2.27c0-.67-.15-1.59-1.07-1.44-.43.12-.74.64-.88,1.49a1.56,1.56,0,0,0,.1,1.05,2.19,2.19,0,0,1,.13.91Z"/><rect class="cls-5" x="104.84" y="171.63" width="4.66" height="11.69" transform="translate(-1.93 1.18) rotate(-0.62)"/><path id="path2890-10" data-name="path2890" class="cls-6" d="M105.62,182c.45-.15.76-.23,1.11-.36C107.87,183.32,105.82,184.24,105.62,182Zm1-.77-1.1.29a4.29,4.29,0,0,1-.67-2.25c0-.68.12-1.6,1-1.47.43.11.76.63.92,1.47a1.54,1.54,0,0,1-.08,1.06,2.11,2.11,0,0,0-.11.9Z"/><path id="path2890-7-11" data-name="path2890-7" class="cls-6" d="M108.75,175.83c-.45-.14-.77-.22-1.12-.34C106.53,177.2,108.6,178.07,108.75,175.83Zm.08-.48a4.27,4.27,0,0,0,.62-2.27c0-.67-.16-1.59-1.07-1.45-.43.12-.75.65-.89,1.49a1.6,1.6,0,0,0,.1,1.06,2.13,2.13,0,0,1,.14.9Z"/><rect class="cls-5" x="95.58" y="185.67" width="11.69" height="4.66" transform="translate(-98.06 111.6) rotate(-40.7)"/><path id="path2890-11" data-name="path2890" class="cls-6" d="M97,189.73c.4.24.66.43,1,.61C97.4,192.3,95.38,191.32,97,189.73Zm1.23.27c-.31-.22-.61-.44-.93-.65,0-.47,1-1.76,1.3-2,.52-.43,1.3-.94,1.79-.16.2.41,0,1-.53,1.65a1.58,1.58,0,0,1-.86.62,2.18,2.18,0,0,0-.77.5Z"/><path id="path2890-7-12" data-name="path2890-7" class="cls-6" d="M103.7,188.14c-.18-.43-.33-.72-.46-1.07C101.22,187.33,101.89,189.47,103.7,188.14Zm.42-.24a4.28,4.28,0,0,0,2.13-1c.5-.46,1.12-1.15.42-1.75-.37-.25-1-.15-1.71.28a1.58,1.58,0,0,0-.74.76,2.2,2.2,0,0,1-.61.68C103.79,187.22,104,187.55,104.12,187.9Z"/><rect class="cls-5" x="85.12" y="182.07" width="4.66" height="11.69" transform="translate(-105.93 262.48) rotate(-86.13)"/><path id="path2890-12" data-name="path2890" class="cls-6" d="M83.06,186c.11.46.17.78.27,1.14C81.56,188.15,80.81,186,83.06,186Zm.69,1.07c-.06-.38-.13-.75-.21-1.12a4.32,4.32,0,0,1,2.3-.49c.68.07,1.59.25,1.39,1.15-.15.42-.69.71-1.54.8a1.6,1.6,0,0,1-1-.16,2.09,2.09,0,0,0-.89-.18Z"/><path id="path2890-7-13" data-name="path2890-7" class="cls-6" d="M89,189.61c.17-.44.27-.74.42-1.09C87.78,187.29,86.74,189.28,89,189.61Zm.47.12a4.21,4.21,0,0,0,2.22.79c.67,0,1.59,0,1.52-1-.09-.44-.59-.79-1.41-1a1.58,1.58,0,0,0-1.06,0,2.21,2.21,0,0,1-.92.06C89.68,189,89.56,189.37,89.44,189.73Z"/></g></g></svg>