<svg xmlns="http://www.w3.org/2000/svg" viewBox="0 0 276 276"><defs><style>.cls-1{fill:#fff;}.cls-1,.cls-2{stroke:#231f20;stroke-miterlimit:10;}.cls-2,.cls-3{fill:none;}.cls-2{stroke-width:0.25px;}.cls-4{fill:#404040;}</style></defs><title>item20</title><g id="Layer_2" data-name="Layer 2"><g id="item20"><rect class="cls-1" x="0.5" y="0.5" width="275" height="275"/><g id="Layer_1-2" data-name="Layer 1-2"><polygon class="cls-1" points="183.26 86.8 169.19 96.46 199.52 140.57 213.58 130.91 183.26 86.8"/><polygon class="cls-1" points="174.7 92.68 205.03 136.79 159.53 200.54 98.89 112.32 174.7 92.68"/><path class="cls-1" d="M142,139.54,164,124.38a6.69,6.69,0,0,1,7.58,11l-22.06,15.16a6.69,6.69,0,0,1-7.58-11Z"/></g><rect class="cls-2" x="57.13" y="134.3" width="30" height="30"/><rect class="cls-2" x="57.13" y="104.3" width="30" height="30"/><rect class="cls-3" x="84.22" y="111.48" width="11.69" height="4.66" transform="translate(-2.18 1.76) rotate(-1.11)"/><path id="path2890" class="cls-4" d="M85.53,112.3c.15.44.24.75.37,1.11C84.23,114.56,83.29,112.52,85.53,112.3Zm.78,1-.3-1.1a4.21,4.21,0,0,1,2.25-.68c.67,0,1.59.1,1.48,1-.11.43-.63.76-1.46.93a1.61,1.61,0,0,1-1.06-.07,2.17,2.17,0,0,0-.91-.1Z"/><path id="path2890-7" class="cls-4" d="M91.73,115.37c.13-.45.21-.77.33-1.12C90.34,113.16,89.48,115.24,91.73,115.37Zm.48.08a4.26,4.26,0,0,0,2.27.59c.68,0,1.6-.16,1.44-1.08-.12-.43-.65-.73-1.49-.87a1.65,1.65,0,0,0-1.06.11,2.13,2.13,0,0,1-.9.14C92.39,114.71,92.3,115.08,92.21,115.45Z"/><rect class="cls-3" x="70.2" y="111.75" width="11.69" height="4.66" transform="translate(-2.19 1.49) rotate(-1.11)"/><path id="path2890-2" data-name="path2890" class="cls-4" d="M71.51,112.57c.15.44.24.76.37,1.11C70.2,114.83,69.27,112.79,71.51,112.57Zm.77,1c-.09-.37-.19-.73-.3-1.1a4.26,4.26,0,0,1,2.25-.68c.68,0,1.6.1,1.48,1-.1.44-.62.76-1.46.93a1.61,1.61,0,0,1-1.06-.07,2.17,2.17,0,0,0-.91-.1Z"/><path id="path2890-7-2" data-name="path2890-7" class="cls-4" d="M77.71,115.64c.13-.45.2-.77.32-1.12C76.32,113.43,75.46,115.51,77.71,115.64Zm.48.08a4.34,4.34,0,0,0,2.27.6c.67,0,1.59-.17,1.44-1.09-.13-.43-.65-.73-1.5-.87a1.62,1.62,0,0,0-1.05.11,2.2,2.2,0,0,1-.91.14C78.36,115,78.28,115.35,78.19,115.72Z"/><rect class="cls-3" x="69.12" y="118.42" width="4.66" height="11.69" transform="translate(-21.42 15.07) rotate(-10.48)"/><path id="path2890-3" data-name="path2890" class="cls-4" d="M70.7,129c.42-.22.71-.36,1-.55C73.14,129.91,71.28,131.16,70.7,129Zm.86-.93c-.35.15-.69.31-1,.48a4.13,4.13,0,0,1-1-2.11c-.11-.67-.16-1.6.77-1.63.44,0,.85.49,1.15,1.29a1.55,1.55,0,0,1,.1,1.06,2.33,2.33,0,0,0,0,.91Z"/><path id="path2890-7-3" data-name="path2890-7" class="cls-4" d="M72.72,122.37c-.47-.06-.79-.08-1.16-.14C70.77,124.11,73,124.61,72.72,122.37Zm0-.48a4.27,4.27,0,0,0,.22-2.34c-.14-.66-.42-1.55-1.3-1.25-.41.2-.62.77-.62,1.62a1.57,1.57,0,0,0,.28,1,2.14,2.14,0,0,1,.29.87Z"/><rect class="cls-3" x="70.3" y="132.39" width="4.66" height="11.69" transform="matrix(1, -0.05, 0.05, 1, -6.86, 3.83)"/><path id="path2890-4" data-name="path2890" class="cls-4" d="M71.26,142.81c.44-.16.75-.26,1.1-.4C73.56,144.05,71.55,145,71.26,142.81Zm1-.8-1.08.33a4.21,4.21,0,0,1-.76-2.23c0-.67.06-1.6,1-1.51.44.1.78.6,1,1.43a1.66,1.66,0,0,1,0,1.07,2.16,2.16,0,0,0-.08.91Z"/><path id="path2890-7-4" data-name="path2890-7" class="cls-4" d="M74.14,136.52c-.46-.12-.77-.18-1.13-.29C72,138,74.07,138.77,74.14,136.52Zm.06-.48a4.21,4.21,0,0,0,.53-2.29c-.06-.67-.22-1.59-1.13-1.4-.42.13-.72.67-.82,1.52a1.55,1.55,0,0,0,.14,1,2.15,2.15,0,0,1,.17.9Z"/><rect class="cls-3" x="66.75" y="149.93" width="11.69" height="4.66" transform="translate(-79.82 224.53) rotate(-89.88)"/><path id="path2890-5" data-name="path2890" class="cls-4" d="M71,156.76c.45-.14.76-.22,1.12-.34C73.22,158.12,71.16,159,71,156.76Zm1-.75-1.11.27a4.22,4.22,0,0,1-.63-2.26c0-.67.14-1.59,1.06-1.46.43.12.74.64.89,1.48a1.59,1.59,0,0,1-.09,1.06A2.18,2.18,0,0,0,72,156Z"/><path id="path2890-7-5" data-name="path2890-7" class="cls-4" d="M74.19,150.63c-.44-.14-.76-.22-1.11-.35C72,152,74,152.87,74.19,150.63Zm.1-.48a4.32,4.32,0,0,0,.64-2.26c0-.67-.13-1.59-1.05-1.46-.43.12-.75.64-.91,1.48a1.6,1.6,0,0,0,.09,1.06,2.11,2.11,0,0,1,.12.9Z"/><rect class="cls-3" x="66.72" y="163.96" width="11.69" height="4.66" transform="translate(-93.88 238.49) rotate(-89.88)"/><path id="path2890-6" data-name="path2890" class="cls-4" d="M71,170.79c.45-.14.76-.22,1.12-.35C73.19,172.14,71.13,173,71,170.79Zm1-.75-1.11.27a4.24,4.24,0,0,1-.63-2.26c0-.68.14-1.6,1.06-1.46.43.12.74.64.89,1.48a1.6,1.6,0,0,1-.09,1.06A2.14,2.14,0,0,0,72,170Z"/><path id="path2890-7-6" data-name="path2890-7" class="cls-4" d="M74.16,164.66c-.44-.15-.76-.23-1.11-.35C71.93,166,74,166.9,74.16,164.66Zm.1-.48a4.32,4.32,0,0,0,.64-2.26c0-.68-.13-1.6-1.05-1.46-.43.11-.75.63-.91,1.47A1.6,1.6,0,0,0,73,163a2.18,2.18,0,0,1,.12.91Z"/></g></g></svg>