<svg xmlns="http://www.w3.org/2000/svg" viewBox="0 0 276 276"><defs><style>.cls-1,.cls-3,.cls-4,.cls-6{fill:none;}.cls-1,.cls-2,.cls-6{stroke:#231f20;}.cls-1,.cls-2,.cls-3,.cls-6{stroke-miterlimit:10;}.cls-1{stroke-width:0.25px;}.cls-2{fill:#fff;}.cls-3{stroke:#ed1c24;stroke-width:2px;}.cls-5{fill:#404040;}</style></defs><title>item8</title><g id="Layer_2" data-name="Layer 2"><g id="ironingboard1"><rect class="cls-1" x="72.17" y="40.33" width="30" height="150"/><line class="cls-1" x1="72.17" y1="160.33" x2="102.17" y2="160.33"/><line class="cls-1" x1="72.17" y1="130.33" x2="102.17" y2="130.33"/><line class="cls-1" x1="72.17" y1="100.33" x2="102.17" y2="100.33"/><line class="cls-1" x1="72.17" y1="70.33" x2="102.17" y2="70.33"/><g id="Layer_1-2" data-name="Layer 1-2"><rect class="cls-2" x="193.35" y="153.45" width="45.7" height="5.71" transform="translate(-31.2 256.14) rotate(-57.84)"/><rect class="cls-2" x="168.73" y="73.25" width="2.86" height="104.85" transform="translate(-26.8 202.83) rotate(-57.84)"/><rect class="cls-2" x="167.21" y="75.66" width="2.86" height="104.85" transform="translate(-29.56 202.68) rotate(-57.84)"/><rect class="cls-2" x="108.44" y="98.24" width="33.3" height="1.46" transform="translate(-25.28 152.19) rotate(-57.84)"/><rect class="cls-2" x="132.56" y="79.56" width="5.73" height="5.73" transform="translate(-6.43 153.2) rotate(-57.84)"/><rect class="cls-2" x="176.63" y="127.1" width="0.99" height="0.99" transform="translate(-25.17 209.64) rotate(-57.84)"/><rect class="cls-2" x="112.1" y="112.79" width="5.73" height="5.73" transform="translate(-44.14 151.42) rotate(-57.84)"/></g><rect class="cls-3" x="72.17" y="70.33" width="30" height="30"/><rect class="cls-1" x="72.17" y="190.33" width="30" height="60"/><line class="cls-1" x1="72.17" y1="220.33" x2="102.17" y2="220.33"/><rect class="cls-4" x="82.4" y="41.63" width="11.69" height="4.66" transform="translate(42.52 131.3) rotate(-88.84)"/><path id="path2890" class="cls-5" d="M86.56,48.43c.45-.14.77-.21,1.12-.33C88.77,49.82,86.69,50.67,86.56,48.43Zm1-.74L86.48,48a4.27,4.27,0,0,1-.59-2.28c0-.67.17-1.59,1.08-1.43.43.12.74.65.87,1.49a1.53,1.53,0,0,1-.11,1.06,2.13,2.13,0,0,0-.14.9Z"/><path id="path2890-7" class="cls-5" d="M89.88,42.35c-.45-.15-.76-.23-1.11-.37C87.61,43.66,89.66,44.59,89.88,42.35Zm.1-.47a4.33,4.33,0,0,0,.68-2.25c0-.67-.1-1.6-1-1.48-.44.11-.77.62-.93,1.46a1.49,1.49,0,0,0,.07,1.06,2.34,2.34,0,0,1,.1.91C89.25,41.67,89.61,41.78,90,41.88Z"/><rect class="cls-4" x="82.12" y="55.65" width="11.69" height="4.66" transform="translate(28.22 144.76) rotate(-88.84)"/><path id="path2890-2" data-name="path2890" class="cls-5" d="M86.28,62.45l1.12-.32C88.49,63.84,86.41,64.7,86.28,62.45Zm1-.73c-.37.07-.74.16-1.11.25a4.26,4.26,0,0,1-.59-2.27c0-.68.16-1.6,1.08-1.44.43.12.74.65.87,1.5a1.62,1.62,0,0,1-.11,1.05,2.15,2.15,0,0,0-.14.91Z"/><path id="path2890-7-2" data-name="path2890-7" class="cls-5" d="M89.59,56.38c-.44-.15-.75-.24-1.1-.37C87.33,57.68,89.37,58.62,89.59,56.38Zm.1-.48a4.22,4.22,0,0,0,.69-2.25c0-.67-.11-1.59-1-1.48-.43.11-.76.63-.93,1.46a1.61,1.61,0,0,0,.07,1.06,2.17,2.17,0,0,1,.11.91Z"/><rect class="cls-4" x="81.84" y="69.67" width="11.69" height="4.66" transform="translate(13.93 158.21) rotate(-88.84)"/><path id="path2890-3" data-name="path2890" class="cls-5" d="M86,76.47c.45-.13.76-.2,1.12-.32C88.21,77.87,86.13,78.72,86,76.47Zm1-.73L85.92,76a4.3,4.3,0,0,1-.6-2.28c0-.67.17-1.59,1.09-1.44.43.13.73.66.87,1.5a1.62,1.62,0,0,1-.11,1,2.2,2.2,0,0,0-.14.91Z"/><path id="path2890-7-3" data-name="path2890-7" class="cls-5" d="M89.31,70.4c-.45-.15-.76-.24-1.11-.37C87.05,71.7,89.09,72.64,89.31,70.4Zm.1-.47a4.26,4.26,0,0,0,.68-2.25c0-.68-.1-1.6-1-1.48-.43.1-.76.62-.93,1.46a1.61,1.61,0,0,0,.07,1.06,2.13,2.13,0,0,1,.1.91C88.68,69.72,89,69.82,89.41,69.93Z"/><rect class="cls-4" x="81.56" y="83.7" width="11.69" height="4.66" transform="translate(-0.37 171.67) rotate(-88.84)"/><path id="path2890-4" data-name="path2890" class="cls-5" d="M85.71,90.5c.46-.14.77-.21,1.13-.33C87.92,91.89,85.84,92.74,85.71,90.5Zm1-.74L85.63,90A4.27,4.27,0,0,1,85,87.74c0-.67.17-1.59,1.08-1.43.43.12.74.65.87,1.49a1.53,1.53,0,0,1-.11,1.06,2.13,2.13,0,0,0-.14.9Z"/><path id="path2890-7-4" data-name="path2890-7" class="cls-5" d="M89,84.42c-.45-.15-.76-.23-1.11-.37C86.77,85.73,88.81,86.66,89,84.42Zm.1-.47a4.24,4.24,0,0,0,.68-2.25c0-.67-.1-1.6-1-1.48-.44.11-.77.62-.93,1.46a1.49,1.49,0,0,0,.07,1.06,2.34,2.34,0,0,1,.1.91C88.4,83.74,88.76,83.85,89.13,84Z"/><rect class="cls-4" x="80.96" y="97.7" width="11.69" height="4.66" transform="matrix(0.07, -1, 1, 0.07, -19.42, 179.14)"/><path id="path2890-5" data-name="path2890" class="cls-5" d="M84.88,104.41c.46-.11.77-.17,1.13-.27C87,105.92,84.89,106.66,84.88,104.41Zm1.06-.68-1.12.19a4.4,4.4,0,0,1-.47-2.3c.08-.67.26-1.58,1.16-1.37.43.14.7.69.79,1.54a1.5,1.5,0,0,1-.17,1,2.34,2.34,0,0,0-.19.9Z"/><path id="path2890-7-5" data-name="path2890-7" class="cls-5" d="M88.52,98.52c-.44-.17-.75-.27-1.09-.43C86.19,99.7,88.17,100.75,88.52,98.52Zm.12-.46a4.29,4.29,0,0,0,.81-2.21c0-.68,0-1.6-1-1.54-.43.09-.79.58-1,1.41a1.53,1.53,0,0,0,0,1.06,2.2,2.2,0,0,1,0,.92Q88.1,97.87,88.64,98.06Z"/><rect class="cls-4" x="79.74" y="111.67" width="11.69" height="4.66" transform="translate(-38.94 183.37) rotate(-82.23)"/><path id="path2890-6" data-name="path2890" class="cls-5" d="M83.39,118.24c.47-.08.79-.11,1.16-.19C85.43,119.88,83.27,120.49,83.39,118.24Zm1.11-.61-1.13.13a4.25,4.25,0,0,1-.33-2.33c.12-.66.35-1.56,1.24-1.3.42.17.66.73.7,1.58a1.58,1.58,0,0,1-.24,1,2.31,2.31,0,0,0-.24.88Z"/><path id="path2890-7-6" data-name="path2890-7" class="cls-5" d="M87.39,112.59c-.43-.2-.73-.32-1.06-.49C85,113.63,86.91,114.79,87.39,112.59Zm.15-.46a4.26,4.26,0,0,0,.94-2.15c.07-.67.08-1.6-.85-1.59-.44.06-.83.53-1.09,1.34a1.51,1.51,0,0,0-.05,1.06,2.2,2.2,0,0,1,0,.92C86.84,111.84,87.18,112,87.54,112.13Z"/><rect class="cls-4" x="77.81" y="125.53" width="11.69" height="4.66" transform="translate(-48.63 204.31) rotate(-86.82)"/><path id="path2890-7-7" data-name="path2890" class="cls-5" d="M81.82,132.27c.45-.12.77-.18,1.13-.29C84,133.74,81.87,134.51,81.82,132.27Zm1.05-.7-1.12.21a4.28,4.28,0,0,1-.51-2.29c.06-.67.22-1.59,1.13-1.4.43.14.72.68.82,1.53a1.54,1.54,0,0,1-.15,1,2.15,2.15,0,0,0-.17.9Z"/><path id="path2890-7-8" data-name="path2890-7" class="cls-5" d="M85.34,126.31c-.44-.16-.75-.26-1.09-.41C83,127.54,85,128.54,85.34,126.31Zm.12-.47a4.26,4.26,0,0,0,.76-2.22c0-.68,0-1.6-1-1.52-.44.1-.78.6-1,1.43a1.57,1.57,0,0,0,0,1.06,2.15,2.15,0,0,1,.07.91Z"/><rect class="cls-4" x="81.59" y="136.03" width="4.66" height="11.69" transform="translate(-5.4 3.33) rotate(-2.21)"/><path id="path2890-8" data-name="path2890" class="cls-5" d="M82.5,146.43c.44-.16.75-.25,1.1-.39C84.78,147.69,82.76,148.67,82.5,146.43Zm1-.79-1.09.32a4.32,4.32,0,0,1-.73-2.24c0-.67.08-1.6,1-1.49.43.09.77.6,1,1.44a1.63,1.63,0,0,1-.05,1.06,2.16,2.16,0,0,0-.09.91Z"/><path id="path2890-7-9" data-name="path2890-7" class="cls-5" d="M85.45,140.18c-.46-.13-.77-.2-1.13-.31C83.27,141.61,85.36,142.42,85.45,140.18Zm.07-.48a4.22,4.22,0,0,0,.55-2.29c0-.67-.2-1.59-1.11-1.42-.43.14-.72.67-.84,1.51a1.57,1.57,0,0,0,.13,1.06,2.31,2.31,0,0,1,.16.9Z"/><rect class="cls-4" x="82.13" y="150.04" width="4.66" height="11.69" transform="translate(-5.94 3.37) rotate(-2.21)"/><path id="path2890-9" data-name="path2890" class="cls-5" d="M83,160.45c.44-.16.75-.25,1.1-.39C85.32,161.71,83.3,162.68,83,160.45Zm1-.8c-.37.11-.73.21-1.09.33a4.32,4.32,0,0,1-.73-2.24c0-.68.08-1.6,1-1.5.43.1.77.61,1,1.44a1.62,1.62,0,0,1,0,1.06,2.16,2.16,0,0,0-.09.91Z"/><path id="path2890-7-10" data-name="path2890-7" class="cls-5" d="M86,154.19c-.46-.12-.77-.19-1.13-.3C83.81,155.63,85.9,156.44,86,154.19Zm.07-.48a4.19,4.19,0,0,0,.55-2.28c0-.68-.2-1.59-1.11-1.42-.43.13-.72.67-.84,1.51a1.55,1.55,0,0,0,.13,1,2.36,2.36,0,0,1,.16.91Z"/><rect class="cls-4" x="82.67" y="164.06" width="4.66" height="11.69" transform="translate(-6.48 3.4) rotate(-2.21)"/><path id="path2890-10" data-name="path2890" class="cls-5" d="M83.58,174.46c.44-.16.75-.25,1.1-.39C85.86,175.73,83.84,176.7,83.58,174.46Zm1-.79-1.09.32a4.32,4.32,0,0,1-.73-2.24c0-.67.08-1.59,1-1.49.43.1.77.61,1,1.44a1.62,1.62,0,0,1,0,1.06,2,2,0,0,0-.09.91Z"/><path id="path2890-7-11" data-name="path2890-7" class="cls-5" d="M86.53,168.21c-.46-.13-.77-.2-1.13-.31C84.34,169.64,86.44,170.46,86.53,168.21Zm.07-.48a4.2,4.2,0,0,0,.55-2.29c-.05-.67-.2-1.59-1.11-1.41-.43.13-.72.66-.84,1.51a1.55,1.55,0,0,0,.13,1.05,2.31,2.31,0,0,1,.16.9Z"/><rect class="cls-4" x="83.54" y="178.05" width="4.66" height="11.69" transform="translate(-21.25 11.51) rotate(-6.83)"/><path id="path2890-11" data-name="path2890" class="cls-5" d="M84.83,188.55c.42-.19.72-.31,1.06-.48C87.21,189.63,85.27,190.76,84.83,188.55Zm.91-.87-1.06.41a4.21,4.21,0,0,1-.9-2.17c-.06-.67-.06-1.6.87-1.57.44.06.82.54,1.07,1.36a1.5,1.5,0,0,1,0,1.06,2.32,2.32,0,0,0,0,.91Z"/><path id="path2890-7-12" data-name="path2890-7" class="cls-5" d="M87.26,182.08c-.46-.09-.78-.13-1.14-.21C85.2,183.68,87.36,184.33,87.26,182.08Zm0-.49a4.22,4.22,0,0,0,.36-2.32c-.1-.66-.32-1.57-1.22-1.32-.41.16-.67.72-.72,1.57a1.58,1.58,0,0,0,.22,1,2.14,2.14,0,0,1,.23.89Z"/><rect class="cls-4" x="85.26" y="191.97" width="4.66" height="11.69" transform="translate(-24.1 12.54) rotate(-7.2)"/><path id="path2890-12" data-name="path2890" class="cls-5" d="M86.57,202.48c.43-.2.73-.32,1.06-.48C89,203.54,87,204.68,86.57,202.48Zm.91-.88-1.06.42a4.33,4.33,0,0,1-.92-2.17c-.06-.67-.06-1.6.87-1.57.44.06.82.53,1.07,1.35a1.57,1.57,0,0,1,0,1.06,2.15,2.15,0,0,0,0,.91Z"/><path id="path2890-7-13" data-name="path2890-7" class="cls-5" d="M89,196c-.46-.08-.78-.12-1.15-.2C86.92,197.61,89.07,198.24,89,196Zm0-.48a4.26,4.26,0,0,0,.35-2.33c-.1-.66-.33-1.56-1.22-1.31-.42.17-.67.72-.71,1.58a1.51,1.51,0,0,0,.22,1,2.31,2.31,0,0,1,.24.89Z"/><rect class="cls-4" x="91.61" y="202.41" width="4.66" height="11.69" transform="translate(-123.19 279.29) rotate(-83.84)"/><path id="path2890-13" data-name="path2890" class="cls-5" d="M98.25,210.32c-.09-.46-.14-.78-.23-1.15C99.83,208.24,100.5,210.39,98.25,210.32Zm-.64-1.09c0,.38.1.75.16,1.13a4.35,4.35,0,0,1-2.32.39c-.67-.09-1.57-.31-1.34-1.2.16-.42.72-.68,1.57-.74a1.62,1.62,0,0,1,1,.2,2.13,2.13,0,0,0,.89.22Z"/><path id="path2890-7-14" data-name="path2890-7" class="cls-5" d="M92.49,206.49c-.19.43-.3.73-.47,1.07C93.59,208.86,94.7,206.9,92.49,206.49Zm-.46-.14a4.28,4.28,0,0,0-2.19-.88c-.67-.05-1.6,0-1.56.89.07.44.56.82,1.37,1.06a1.61,1.61,0,0,0,1.06,0,2.2,2.2,0,0,1,.92,0C91.76,207.06,91.89,206.71,92,206.35Z"/><rect class="cls-4" x="102.12" y="205.82" width="11.69" height="4.66" transform="translate(-1.49 0.78) rotate(-0.41)"/><path id="path2890-14" data-name="path2890" class="cls-5" d="M112.48,209.71c-.14-.45-.22-.76-.35-1.11C113.82,207.47,114.73,209.52,112.48,209.71Zm-.76-1c.09.36.19.73.29,1.1a4.24,4.24,0,0,1-2.26.65c-.67,0-1.6-.12-1.47-1,.12-.43.64-.76,1.47-.91a1.54,1.54,0,0,1,1.06.08,2.36,2.36,0,0,0,.91.12Z"/><path id="path2890-7-15" data-name="path2890-7" class="cls-5" d="M106.32,206.57c-.14.45-.21.76-.34,1.11C107.69,208.79,108.57,206.73,106.32,206.57Zm-.47-.09a4.2,4.2,0,0,0-2.27-.62c-.68,0-1.6.14-1.45,1.06.12.43.64.75,1.48.89a1.54,1.54,0,0,0,1.06-.1,2.31,2.31,0,0,1,.91-.13C105.66,207.22,105.75,206.85,105.85,206.48Z"/><rect class="cls-6" x="0.5" y="0.5" width="275" height="275"/></g></g></svg>