<svg xmlns="http://www.w3.org/2000/svg" viewBox="0 0 276 276"><defs><style>.cls-1{fill:#fff;}.cls-1,.cls-2{stroke:#231f20;stroke-miterlimit:10;}.cls-2,.cls-3{fill:none;}.cls-2{stroke-width:0.25px;}.cls-4{fill:#404040;}</style></defs><title>item11</title><g id="Layer_2" data-name="Layer 2"><g id="ironingboard2"><rect class="cls-1" x="0.5" y="0.5" width="275" height="275"/><rect class="cls-2" x="52.39" y="57.53" width="30" height="150"/><line class="cls-2" x1="52.39" y1="177.53" x2="82.39" y2="177.53"/><line class="cls-2" x1="52.39" y1="147.53" x2="82.39" y2="147.53"/><line class="cls-2" x1="52.39" y1="117.53" x2="82.39" y2="117.53"/><line class="cls-2" x1="52.39" y1="87.53" x2="82.39" y2="87.53"/><g id="Layer_1-2" data-name="Layer 1-2"><path class="cls-1" d="M243,94.77l-82.86,82.68a1.7,1.7,0,0,1-.38.26l-.41.23-47.15,24.21a5.88,5.88,0,0,1-7.92-7.93l24.32-47.1c.07-.14.15-.28.23-.41l.14-.22,83-82.82a4.89,4.89,0,0,1,6.91,0L243,87.87A4.87,4.87,0,0,1,243,94.77Z"/></g><rect class="cls-3" x="63.79" y="72.59" width="11.69" height="4.66" transform="translate(-8.79 140.59) rotate(-87.03)"/><path id="path2890" class="cls-4" d="M67.81,79.34l1.13-.29C70,80.8,67.87,81.59,67.81,79.34Zm1-.7c-.37.06-.74.14-1.11.22a4.24,4.24,0,0,1-.53-2.3c.06-.67.22-1.58,1.13-1.4.43.14.72.68.83,1.52a1.58,1.58,0,0,1-.15,1,2.17,2.17,0,0,0-.17.91Z"/><path id="path2890-7" class="cls-4" d="M71.31,73.37c-.44-.16-.74-.26-1.09-.4C69,74.6,71,75.6,71.31,73.37Zm.12-.47a4.19,4.19,0,0,0,.75-2.23c0-.67-.05-1.6-1-1.51-.44.1-.78.6-1,1.43a1.51,1.51,0,0,0,0,1.06,2.38,2.38,0,0,1,.07.92C70.71,72.67,71.06,72.78,71.43,72.9Z"/><rect class="cls-3" x="63.07" y="86.6" width="11.69" height="4.66" transform="translate(-23.46 153.14) rotate(-87.03)"/><path id="path2890-2" data-name="path2890" class="cls-4" d="M67.08,93.34c.46-.11.78-.18,1.14-.29C69.25,94.81,67.14,95.59,67.08,93.34Zm1.06-.7L67,92.86a4.29,4.29,0,0,1-.52-2.29c.06-.67.22-1.59,1.13-1.4.42.14.71.67.82,1.52a1.53,1.53,0,0,1-.15,1,2.31,2.31,0,0,0-.16.9Z"/><path id="path2890-7-2" data-name="path2890-7" class="cls-4" d="M70.59,87.38c-.44-.17-.75-.26-1.1-.41C68.29,88.61,70.3,89.61,70.59,87.38Zm.11-.47a4.32,4.32,0,0,0,.76-2.23c0-.67,0-1.6-1-1.51-.44.09-.78.6-1,1.43a1.57,1.57,0,0,0,0,1.06,2.16,2.16,0,0,1,.08.91Z"/><rect class="cls-3" x="66.23" y="97.09" width="4.66" height="11.69" transform="translate(-0.92 0.62) rotate(-0.51)"/><path id="path2890-3" data-name="path2890" class="cls-4" d="M67,107.45c.44-.15.76-.23,1.11-.36C69.25,108.78,67.2,109.69,67,107.45Zm1-.76-1.1.28a4.33,4.33,0,0,1-.66-2.25c0-.68.13-1.6,1-1.47.44.11.76.63.92,1.47a1.6,1.6,0,0,1-.08,1.06,2.36,2.36,0,0,0-.12.91Z"/><path id="path2890-7-3" data-name="path2890-7" class="cls-4" d="M70.14,101.28c-.45-.13-.76-.21-1.12-.33C67.92,102.65,70,103.53,70.14,101.28Zm.09-.47a4.38,4.38,0,0,0,.62-2.27c0-.68-.15-1.6-1.07-1.45-.43.12-.74.64-.89,1.49a1.56,1.56,0,0,0,.1,1,2.19,2.19,0,0,1,.13.91Q69.67,100.66,70.23,100.81Z"/><rect class="cls-3" x="67.21" y="111.08" width="4.66" height="11.69" transform="translate(-7.97 5.12) rotate(-3.99)"/><path id="path2890-4" data-name="path2890" class="cls-4" d="M68.26,121.53c.44-.17.74-.28,1.09-.43C70.58,122.72,68.59,123.75,68.26,121.53Zm1-.82-1.08.35a4.27,4.27,0,0,1-.8-2.21c0-.68,0-1.6,1-1.53.44.08.79.58,1,1.41a1.59,1.59,0,0,1,0,1.06,2.2,2.2,0,0,0-.06.92Z"/><path id="path2890-7-4" data-name="path2890-7" class="cls-4" d="M71,115.18c-.46-.11-.78-.17-1.14-.27C68.88,116.68,71,117.43,71,115.18Zm0-.48a4.22,4.22,0,0,0,.48-2.3c-.07-.67-.24-1.58-1.15-1.38-.42.14-.7.69-.8,1.54a1.56,1.56,0,0,0,.17,1,2.33,2.33,0,0,1,.18.9Z"/><rect class="cls-3" x="67.98" y="125.08" width="4.66" height="11.69" transform="translate(-3.43 1.9) rotate(-1.51)"/><path id="path2890-5" data-name="path2890" class="cls-4" d="M68.84,135.47c.44-.15.75-.24,1.1-.38C71.11,136.76,69.07,137.71,68.84,135.47Zm1-.78-1.1.31a4.34,4.34,0,0,1-.69-2.25c0-.67.09-1.6,1-1.48.44.1.77.61.94,1.45a1.55,1.55,0,0,1-.06,1.06,2.17,2.17,0,0,0-.1.91Z"/><path id="path2890-7-5" data-name="path2890-7" class="cls-4" d="M71.86,129.25c-.45-.13-.76-.2-1.12-.32C69.67,130.66,71.75,131.5,71.86,129.25Zm.08-.48a4.26,4.26,0,0,0,.58-2.28c0-.67-.18-1.59-1.09-1.43-.43.13-.73.66-.86,1.5a1.57,1.57,0,0,0,.12,1.06,2.13,2.13,0,0,1,.14.9Z"/><rect class="cls-3" x="68.35" y="139.1" width="4.66" height="11.69" transform="translate(-3.8 1.91) rotate(-1.51)"/><path id="path2890-6" data-name="path2890" class="cls-4" d="M69.21,149.49c.44-.15.75-.24,1.1-.37C71.48,150.78,69.44,151.73,69.21,149.49Zm1-.78-1.1.31a4.34,4.34,0,0,1-.69-2.25c0-.67.09-1.59,1-1.48.44.1.77.62.94,1.45a1.55,1.55,0,0,1-.06,1.06,2.17,2.17,0,0,0-.1.91Z"/><path id="path2890-7-6" data-name="path2890-7" class="cls-4" d="M72.23,143.27c-.45-.13-.76-.2-1.12-.32C70,144.68,72.12,145.52,72.23,143.27Zm.08-.48a4.26,4.26,0,0,0,.58-2.28c0-.67-.18-1.59-1.09-1.43-.43.13-.73.66-.86,1.51a1.55,1.55,0,0,0,.12,1,2.13,2.13,0,0,1,.14.9Z"/><rect class="cls-3" x="68.72" y="153.12" width="4.66" height="11.69" transform="translate(-4.17 1.93) rotate(-1.51)"/><path id="path2890-7-7" data-name="path2890" class="cls-4" d="M69.58,163.51c.44-.15.75-.24,1.1-.37C71.85,164.8,69.81,165.75,69.58,163.51Zm1-.78-1.1.31a4.22,4.22,0,0,1-.69-2.25c0-.67.09-1.59,1-1.48.43.1.77.62.94,1.45a1.55,1.55,0,0,1-.06,1.06,2.17,2.17,0,0,0-.1.91Z"/><path id="path2890-7-8" data-name="path2890-7" class="cls-4" d="M72.6,157.29c-.45-.13-.76-.2-1.12-.31C70.4,158.7,72.49,159.54,72.6,157.29Zm.08-.48a4.25,4.25,0,0,0,.58-2.27c0-.68-.18-1.59-1.09-1.43-.43.12-.73.65-.86,1.5a1.55,1.55,0,0,0,.12,1,2.15,2.15,0,0,1,.14.91C71.94,156.64,72.31,156.73,72.68,156.81Z"/><rect class="cls-3" x="65.37" y="170.66" width="11.69" height="4.66" transform="translate(-103.12 240.85) rotate(-88.89)"/><path id="path2890-8" data-name="path2890" class="cls-4" d="M69.53,177.46c.45-.13.76-.21,1.12-.33C71.74,178.85,69.66,179.7,69.53,177.46Zm1-.74-1.11.26a4.27,4.27,0,0,1-.6-2.27c0-.68.17-1.6,1.09-1.44.42.12.73.65.87,1.49a1.65,1.65,0,0,1-.11,1.06,2.13,2.13,0,0,0-.14.9Z"/><path id="path2890-7-9" data-name="path2890-7" class="cls-4" d="M72.84,171.38c-.45-.15-.76-.23-1.11-.37C70.58,172.69,72.62,173.62,72.84,171.38Zm.1-.47a4.33,4.33,0,0,0,.68-2.25c0-.68-.11-1.6-1-1.48-.43.11-.76.62-.93,1.46a1.61,1.61,0,0,0,.07,1.06,2.17,2.17,0,0,1,.11.91C72.21,170.7,72.57,170.8,72.94,170.91Z"/><rect class="cls-3" x="64.46" y="184.65" width="11.69" height="4.66" transform="translate(-120.85 245) rotate(-86.28)"/><path id="path2890-9" data-name="path2890" class="cls-4" d="M68.42,191.37c.45-.11.77-.17,1.13-.27C70.56,192.87,68.45,193.62,68.42,191.37Zm1.06-.68-1.12.2a4.19,4.19,0,0,1-.49-2.3c.06-.67.24-1.58,1.14-1.38.43.14.71.68.81,1.53a1.6,1.6,0,0,1-.16,1,2.16,2.16,0,0,0-.18.9Z"/><path id="path2890-7-10" data-name="path2890-7" class="cls-4" d="M72,185.46c-.44-.18-.75-.28-1.09-.42C69.68,186.66,71.68,187.68,72,185.46Zm.12-.47a4.28,4.28,0,0,0,.78-2.22c0-.67,0-1.6-1-1.52-.44.08-.79.58-1,1.41a1.58,1.58,0,0,0,0,1.06,2.21,2.21,0,0,1,.07.92Z"/><rect class="cls-3" x="63.55" y="198.65" width="11.69" height="4.66" transform="translate(-135.67 257.18) rotate(-86.28)"/><path id="path2890-10" data-name="path2890" class="cls-4" d="M67.51,205.37c.45-.11.77-.17,1.13-.27C69.65,206.86,67.54,207.62,67.51,205.37Zm1.06-.69-1.12.21a4.23,4.23,0,0,1-.49-2.3c.06-.67.24-1.58,1.14-1.39.43.15.71.69.81,1.54a1.56,1.56,0,0,1-.16,1,2.16,2.16,0,0,0-.18.9Z"/><path id="path2890-7-11" data-name="path2890-7" class="cls-4" d="M71.09,199.45c-.44-.17-.75-.27-1.09-.42C68.77,200.65,70.77,201.68,71.09,199.45Zm.12-.47a4.28,4.28,0,0,0,.78-2.21c0-.68,0-1.6-.95-1.53-.44.09-.79.59-1,1.42a1.58,1.58,0,0,0,0,1.06,2.15,2.15,0,0,1,.07.91Z"/><rect class="cls-3" x="62.64" y="212.65" width="11.69" height="4.66" transform="translate(-150.49 269.36) rotate(-86.28)"/><path id="path2890-11" data-name="path2890" class="cls-4" d="M66.6,219.37c.45-.12.77-.18,1.13-.28C68.74,220.86,66.63,221.62,66.6,219.37Zm1.06-.69c-.38.06-.75.13-1.12.21a4.23,4.23,0,0,1-.49-2.3c.06-.68.24-1.59,1.14-1.39.42.14.71.68.81,1.53a1.59,1.59,0,0,1-.16,1.05,2,2,0,0,0-.18.9Z"/><path id="path2890-7-12" data-name="path2890-7" class="cls-4" d="M70.18,213.45c-.44-.17-.75-.27-1.09-.42C67.86,214.65,69.86,215.68,70.18,213.45Zm.12-.47a4.28,4.28,0,0,0,.78-2.22c0-.67,0-1.6-1-1.52-.44.09-.79.59-1,1.41a1.61,1.61,0,0,0,0,1.07,2.15,2.15,0,0,1,.07.91Z"/></g></g></svg>