<svg xmlns="http://www.w3.org/2000/svg" viewBox="0 0 276 276"><defs><style>.cls-1{fill:#fff;}.cls-1,.cls-2,.cls-3{stroke:#231f20;stroke-miterlimit:10;}.cls-2,.cls-3{fill:none;}.cls-3{stroke-width:0.25px;}.cls-4{fill:#404040;}</style></defs><title>item1</title><g id="Layer_2" data-name="Layer 2"><g id="lamp1"><rect class="cls-1" x="0.5" y="0.5" width="275" height="275"/><g id="lamp_side" data-name="lamp side"><rect class="cls-2" x="145.39" y="146.54" width="86.57" height="86.35" transform="translate(-60.51 92.27) rotate(-23.8)"/><rect class="cls-2" x="149.05" y="55.1" width="5.15" height="99.15" transform="translate(-29.35 70.09) rotate(-23.8)"/><rect class="cls-2" x="99.59" y="51.99" width="60.69" height="7.71" transform="translate(-11.49 57.19) rotate(-23.8)"/></g><rect class="cls-3" x="54.99" y="151.45" width="30" height="30"/><path id="path2890" class="cls-4" d="M76.18,158.9c.12.45.19.76.31,1.12C74.76,161.09,73.93,159,76.18,158.9Zm.72,1-.24-1.11a4.25,4.25,0,0,1,2.28-.57c.67,0,1.59.19,1.42,1.1-.13.43-.66.73-1.5.85a1.58,1.58,0,0,1-1.06-.12,2.3,2.3,0,0,0-.9-.15Z"/><path id="path2890-7" class="cls-4" d="M82.21,162.27c.16-.44.25-.75.39-1.1C80.93,160,80,162,82.21,162.27Zm.48.11a4.29,4.29,0,0,0,2.24.7c.67,0,1.6-.08,1.49-1-.1-.43-.62-.76-1.45-.94a1.55,1.55,0,0,0-1.06.06,2.16,2.16,0,0,1-.91.09C82.9,161.65,82.8,162,82.69,162.38Z"/><path id="path2890-2" data-name="path2890" class="cls-4" d="M65,169c.47,0,.79.09,1.17.11C66.55,171.12,64.31,171.14,65,169Zm1.23-.3c-.37-.07-.74-.12-1.12-.18a4.21,4.21,0,0,1,.3-2.33c.28-.61.75-1.41,1.54-.93.35.28.44.88.25,1.71a1.6,1.6,0,0,1-.5.94,2.27,2.27,0,0,0-.47.79Z"/><path id="path2890-7-2" data-name="path2890-7" class="cls-4" d="M70.36,164.61c-.35-.31-.61-.5-.89-.76C67.78,165,69.32,166.6,70.36,164.61Zm.27-.4c.46-.11,1.38-1.47,1.48-1.84.24-.62.5-1.52-.4-1.75-.44-.06-.94.29-1.41,1a1.62,1.62,0,0,0-.33,1,2.27,2.27,0,0,1-.24.88Q70.18,163.85,70.63,164.21Z"/><path id="path2890-3" data-name="path2890" class="cls-4" d="M68.14,184.09c.43-.18.74-.29,1.08-.45C70.49,185.23,68.52,186.31,68.14,184.09Zm.94-.84-1.07.38a4.36,4.36,0,0,1-.85-2.2c0-.67,0-1.6.92-1.55.44.08.8.57,1,1.39a1.54,1.54,0,0,1,0,1.06,2.2,2.2,0,0,0,0,.92Z"/><path id="path2890-7-3" data-name="path2890-7" class="cls-4" d="M70.75,177.69c-.46-.1-.78-.15-1.14-.25C68.65,179.24,70.78,179.94,70.75,177.69Zm0-.49a4.21,4.21,0,0,0,.42-2.31c-.08-.67-.28-1.57-1.18-1.35-.42.15-.69.7-.76,1.55a1.59,1.59,0,0,0,.19,1,2.1,2.1,0,0,1,.2.89Z"/></g></g></svg>