<svg xmlns="http://www.w3.org/2000/svg" viewBox="0 0 276 276"><defs><style>.cls-1,.cls-2,.cls-6{fill:#fff;}.cls-1,.cls-2,.cls-3,.cls-6{stroke:#231f20;}.cls-1,.cls-2,.cls-3,.cls-4,.cls-6{stroke-miterlimit:10;}.cls-2{stroke-linecap:round;}.cls-3,.cls-4{fill:none;}.cls-3,.cls-6{stroke-width:0.25px;}.cls-4{stroke:#ed1c24;stroke-width:2px;}.cls-5{fill:#404040;}</style></defs><title>item10</title><g id="Layer_2" data-name="Layer 2"><g id="broom1"><rect class="cls-1" x="0.5" y="0.5" width="275" height="275"/><rect class="cls-2" x="169.85" y="65.23" width="7.12" height="225.73" transform="translate(-74.52 160.24) rotate(-41.64)"/><line class="cls-3" x1="101.83" y1="90.21" x2="31.57" y2="11.2"/><line class="cls-3" x1="100.88" y1="91.06" x2="30.62" y2="12.04"/><line class="cls-3" x1="99.94" y1="91.9" x2="29.67" y2="12.88"/><line class="cls-3" x1="98.04" y1="93.59" x2="27.78" y2="14.57"/><line class="cls-3" x1="98.99" y1="92.74" x2="28.73" y2="13.73"/><line class="cls-3" x1="96.14" y1="95.27" x2="25.88" y2="16.26"/><line class="cls-3" x1="95.2" y1="96.12" x2="24.93" y2="17.1"/><line class="cls-3" x1="97.09" y1="94.43" x2="26.83" y2="15.41"/><rect class="cls-3" x="49.43" y="167.66" width="30" height="30"/><rect class="cls-4" x="49.43" y="137.66" width="30" height="30"/><path id="path2890" class="cls-5" d="M63,137c.44-.16.75-.25,1.1-.39C65.32,138.26,63.29,139.22,63,137Zm1-.79-1.1.31a4.3,4.3,0,0,1-.71-2.24c0-.67.09-1.6,1-1.49.43.1.77.61,1,1.45a1.61,1.61,0,0,1-.06,1.06,2.16,2.16,0,0,0-.09.91Z"/><path id="path2890-7" class="cls-5" d="M66,130.75c-.45-.13-.77-.2-1.12-.31C63.84,132.17,65.93,133,66,130.75Zm.08-.48a4.18,4.18,0,0,0,.56-2.28c0-.67-.18-1.59-1.1-1.43-.42.13-.73.67-.85,1.51a1.55,1.55,0,0,0,.13,1.05A2.38,2.38,0,0,1,65,130C65.37,130.1,65.73,130.19,66.11,130.27Z"/><path id="path2890-2" data-name="path2890" class="cls-5" d="M63.48,151c.45-.16.76-.25,1.11-.39C65.76,152.28,63.73,153.24,63.48,151Zm1-.79-1.09.31a4.21,4.21,0,0,1-.71-2.24c0-.67.08-1.6,1-1.49.43.1.77.61.94,1.45a1.56,1.56,0,0,1-.05,1.06,2.17,2.17,0,0,0-.1.91Z"/><path id="path2890-7-2" data-name="path2890-7" class="cls-5" d="M66.48,144.77c-.46-.13-.77-.2-1.13-.31C64.29,146.19,66.37,147,66.48,144.77Zm.07-.48a4.3,4.3,0,0,0,.57-2.28c0-.68-.19-1.59-1.1-1.43-.43.13-.73.67-.85,1.51a1.55,1.55,0,0,0,.12,1,2.18,2.18,0,0,1,.15.91Q66,144.16,66.55,144.29Z"/><path id="path2890-3" data-name="path2890" class="cls-5" d="M63.93,165c.44-.15.75-.24,1.1-.38C66.21,166.3,64.18,167.26,63.93,165Zm1-.78-1.1.31a4.3,4.3,0,0,1-.71-2.24c0-.68.09-1.6,1-1.49.44.1.77.61.95,1.45a1.56,1.56,0,0,1-.06,1.06,2.16,2.16,0,0,0-.09.91Z"/><path id="path2890-7-3" data-name="path2890-7" class="cls-5" d="M66.92,158.79c-.45-.13-.76-.2-1.12-.31C64.73,160.21,66.82,161,66.92,158.79Zm.08-.48a4.2,4.2,0,0,0,.56-2.28c0-.68-.18-1.59-1.1-1.43-.42.13-.72.66-.85,1.51a1.55,1.55,0,0,0,.13,1,2.32,2.32,0,0,1,.15.91C66.26,158.14,66.62,158.22,67,158.31Z"/><path id="path2890-4" data-name="path2890" class="cls-5" d="M64.43,179.05c.44-.16.75-.25,1.1-.39C66.71,180.32,64.68,181.28,64.43,179.05Zm1-.79-1.09.32a4.22,4.22,0,0,1-.72-2.24c0-.68.08-1.6,1-1.5.43.1.77.61,1,1.45a1.57,1.57,0,0,1,0,1.06,2.16,2.16,0,0,0-.09.91Z"/><path id="path2890-7-4" data-name="path2890-7" class="cls-5" d="M67.39,172.8c-.45-.13-.77-.2-1.13-.31C65.21,174.23,67.3,175.05,67.39,172.8Zm.07-.48A4.3,4.3,0,0,0,68,170c0-.67-.19-1.58-1.11-1.41-.42.13-.72.66-.84,1.5a1.51,1.51,0,0,0,.13,1.06,2.3,2.3,0,0,1,.15.9Z"/><path id="path2890-5" data-name="path2890" class="cls-5" d="M55.63,187.33c.36.31.59.53.88.77C55.64,189.94,53.81,188.64,55.63,187.33Zm1.17.47c-.26-.27-.53-.53-.8-.8,0-.46,1.25-1.57,1.6-1.72.59-.33,1.44-.71,1.79.15.13.43-.15,1-.79,1.54a1.59,1.59,0,0,1-1,.46,2.35,2.35,0,0,0-.84.37Z"/><path id="path2890-7-5" data-name="path2890-7" class="cls-5" d="M62.54,186.88c-.11-.46-.21-.77-.28-1.14C60.23,185.66,60.53,187.89,62.54,186.88Zm.45-.17a4.29,4.29,0,0,0,2.27-.63c.56-.37,1.29-.94.7-1.65-.32-.31-.93-.32-1.73,0a1.57,1.57,0,0,0-.86.63,2.32,2.32,0,0,1-.71.57C62.78,186,62.88,186.34,63,186.71Z"/><path id="path2890-6" data-name="path2890" class="cls-5" d="M42.17,183.14c.08.46.11.78.18,1.15C40.51,185.15,39.93,183,42.17,183.14Zm.6,1.11c0-.38-.07-.75-.11-1.13a4.16,4.16,0,0,1,2.33-.3c.66.12,1.56.37,1.29,1.26-.18.41-.75.65-1.6.67a1.55,1.55,0,0,1-1-.25,2.23,2.23,0,0,0-.88-.25Z"/><path id="path2890-7-6" data-name="path2890-7" class="cls-5" d="M47.77,187.2c.21-.42.33-.72.51-1C46.77,184.79,45.58,186.69,47.77,187.2Zm.46.16a4.32,4.32,0,0,0,2.14,1c.67.08,1.6.1,1.6-.83,0-.44-.52-.84-1.33-1.11a1.58,1.58,0,0,0-1.06-.07,2.15,2.15,0,0,1-.91,0C48.53,186.66,48.38,187,48.23,187.36Z"/><rect class="cls-6" x="49.43" y="197.66" width="30" height="30"/></g></g></svg>