<svg xmlns="http://www.w3.org/2000/svg" viewBox="0 0 276 276"><defs><style>.cls-1,.cls-3{fill:#fff;}.cls-1,.cls-2,.cls-3{stroke:#231f20;}.cls-1,.cls-2,.cls-3,.cls-4{stroke-miterlimit:10;}.cls-2,.cls-4,.cls-5{fill:none;}.cls-2{stroke-width:0.25px;}.cls-3{stroke-linecap:round;}.cls-4{stroke:#ed1c24;stroke-width:2px;}.cls-6{fill:#404040;}</style></defs><title>item10</title><g id="Layer_2" data-name="Layer 2"><g id="broom1"><rect class="cls-1" x="0.5" y="0.5" width="275" height="275"/><rect class="cls-2" x="90.62" y="110.33" width="30" height="30"/><rect class="cls-3" x="177.11" y="93.11" width="5.71" height="114.29" transform="translate(-50.22 105.8) rotate(-28.93)"/><line class="cls-2" x1="155.01" y1="98.58" x2="134.28" y2="61.07"/><line class="cls-2" x1="154.22" y1="99.02" x2="133.49" y2="61.51"/><line class="cls-2" x1="153.43" y1="99.45" x2="132.7" y2="61.94"/><line class="cls-2" x1="151.86" y1="100.32" x2="131.12" y2="62.81"/><line class="cls-2" x1="152.64" y1="99.89" x2="131.91" y2="62.38"/><line class="cls-2" x1="150.28" y1="101.19" x2="129.55" y2="63.68"/><line class="cls-2" x1="149.49" y1="101.63" x2="128.76" y2="64.12"/><line class="cls-2" x1="151.07" y1="100.76" x2="130.34" y2="63.25"/><rect class="cls-2" x="90.62" y="140.33" width="30" height="30"/><rect class="cls-4" x="90.62" y="110.33" width="30" height="30"/><rect class="cls-5" x="103.36" y="99.26" width="4.66" height="11.69" transform="matrix(1, -0.03, 0.03, 1, -3.28, 3.41)"/><path id="path2890" class="cls-6" d="M104.23,109.65c.45-.15.76-.24,1.11-.38C106.51,110.93,104.48,111.89,104.23,109.65Zm1-.78c-.36.09-.72.2-1.09.31a4.21,4.21,0,0,1-.71-2.24c0-.68.08-1.6,1-1.49.43.1.77.61.94,1.44a1.56,1.56,0,0,1-.05,1.06,2.21,2.21,0,0,0-.1.92Z"/><path id="path2890-7" class="cls-6" d="M107.23,103.42c-.45-.13-.77-.2-1.13-.32C105,104.84,107.12,105.66,107.23,103.42Zm.07-.48a4.31,4.31,0,0,0,.57-2.29c0-.67-.19-1.58-1.1-1.42-.43.13-.73.66-.85,1.51a1.55,1.55,0,0,0,.12,1.05,2.13,2.13,0,0,1,.15.9Z"/><rect class="cls-5" x="103.8" y="113.27" width="4.66" height="11.69" transform="matrix(1, -0.03, 0.03, 1, -3.73, 3.43)"/><path id="path2890-2" data-name="path2890" class="cls-6" d="M104.68,123.67c.44-.15.75-.24,1.1-.38C107,125,104.93,125.91,104.68,123.67Zm1-.78c-.37.09-.73.2-1.09.31a4.34,4.34,0,0,1-.72-2.24c0-.68.09-1.6,1-1.49.44.1.77.61.95,1.44a1.55,1.55,0,0,1-.06,1.06,2.19,2.19,0,0,0-.09.92Z"/><path id="path2890-7-2" data-name="path2890-7" class="cls-6" d="M107.67,117.44c-.45-.13-.76-.2-1.12-.32C105.48,118.85,107.57,119.68,107.67,117.44Zm.08-.48a4.31,4.31,0,0,0,.57-2.29c0-.67-.19-1.59-1.1-1.42-.43.13-.73.66-.86,1.51a1.55,1.55,0,0,0,.13,1,2.3,2.3,0,0,1,.15.9Z"/><rect class="cls-5" x="104.25" y="127.29" width="4.66" height="11.69" transform="translate(-4.18 3.45) rotate(-1.82)"/><path id="path2890-3" data-name="path2890" class="cls-6" d="M105.13,137.69l1.1-.38C107.4,139,105.37,139.93,105.13,137.69Zm1-.79-1.09.32a4.24,4.24,0,0,1-.71-2.24c0-.68.09-1.6,1-1.49.43.1.77.61.94,1.44a1.56,1.56,0,0,1-.05,1.06,2.17,2.17,0,0,0-.1.91Z"/><path id="path2890-7-3" data-name="path2890-7" class="cls-6" d="M108.12,131.46c-.45-.13-.77-.2-1.13-.32C105.93,132.87,108,133.7,108.12,131.46Zm.07-.48a4.31,4.31,0,0,0,.57-2.29c0-.67-.19-1.59-1.1-1.42-.43.13-.73.66-.85,1.5a1.57,1.57,0,0,0,.12,1.06,2.13,2.13,0,0,1,.15.9Z"/><rect class="cls-5" x="104.72" y="141.31" width="4.66" height="11.69" transform="translate(-5.27 3.98) rotate(-2.08)"/><path id="path2890-4" data-name="path2890" class="cls-6" d="M105.62,151.72c.44-.16.75-.25,1.1-.39C107.9,153,105.88,154,105.62,151.72Zm1-.8-1.1.32a4.4,4.4,0,0,1-.72-2.24c0-.67.08-1.59,1-1.49.44.1.78.61,1,1.44a1.62,1.62,0,0,1,0,1.06,2,2,0,0,0-.09.91Z"/><path id="path2890-7-4" data-name="path2890-7" class="cls-6" d="M108.59,145.47c-.46-.13-.77-.2-1.13-.31C106.4,146.9,108.49,147.71,108.59,145.47Zm.07-.48a4.3,4.3,0,0,0,.56-2.29c0-.67-.2-1.59-1.11-1.42-.43.13-.73.67-.85,1.51a1.64,1.64,0,0,0,.13,1.06,2.14,2.14,0,0,1,.16.9Q108.11,144.85,108.66,145Z"/><rect class="cls-5" x="95.67" y="156.69" width="11.69" height="4.66" transform="translate(-67.66 75.52) rotate(-31.18)"/><path id="path2890-5" data-name="path2890" class="cls-6" d="M96.83,160c.36.31.59.54.88.78C96.83,162.6,95,161.3,96.83,160Zm1.17.48c-.26-.27-.53-.54-.81-.8,0-.47,1.26-1.57,1.61-1.72.59-.33,1.43-.71,1.79.15.13.43-.16,1-.8,1.53a1.53,1.53,0,0,1-1,.47,2.19,2.19,0,0,0-.84.37Z"/><path id="path2890-7-5" data-name="path2890-7" class="cls-6" d="M103.73,159.54c-.11-.45-.2-.76-.28-1.13C101.42,158.33,101.72,160.55,103.73,159.54Zm.46-.17a4.19,4.19,0,0,0,2.27-.62c.56-.37,1.29-.94.7-1.66-.32-.31-.94-.31-1.73,0a1.52,1.52,0,0,0-.86.62,2.32,2.32,0,0,1-.71.58Z"/><rect class="cls-5" x="85.26" y="152.2" width="4.66" height="11.69" transform="translate(-81.7 221.23) rotate(-81.47)"/><path id="path2890-6" data-name="path2890" class="cls-6" d="M83.37,155.8c.07.47.11.79.18,1.16C81.7,157.81,81.12,155.64,83.37,155.8Zm.6,1.12-.12-1.14a4.28,4.28,0,0,1,2.34-.29c.66.12,1.55.37,1.28,1.26-.18.41-.74.64-1.59.67a1.55,1.55,0,0,1-1-.25,2.33,2.33,0,0,0-.88-.25Z"/><path id="path2890-7-6" data-name="path2890-7" class="cls-6" d="M89,159.87c.2-.43.33-.72.51-1.05C88,157.46,86.77,159.36,89,159.87Zm.45.16a4.29,4.29,0,0,0,2.15,1c.67.08,1.59.11,1.6-.82,0-.45-.52-.84-1.33-1.11a1.59,1.59,0,0,0-1.06-.07,2.2,2.2,0,0,1-.92,0C89.72,159.33,89.57,159.67,89.42,160Z"/></g></g></svg>