<svg xmlns="http://www.w3.org/2000/svg" viewBox="0 0 276 276"><defs><style>.cls-1{fill:#fff;}.cls-1,.cls-2,.cls-5{stroke:#231f20;stroke-miterlimit:10;}.cls-2,.cls-3,.cls-5{fill:none;}.cls-2{stroke-width:0.25px;}.cls-4{fill:#404040;}</style></defs><title>item12</title><g id="Layer_2" data-name="Layer 2"><g id="alarmclock2"><polygon class="cls-1" points="213.37 157.76 132.35 157.76 127.28 117.25 218.43 117.25 213.37 157.76"/><path class="cls-1" d="M125.43,152c-4.45-5.17-4.08-23.44-.07-29s20.38-4.62,25.31-.07,4.54,23.91.08,29.05S129.88,157.21,125.43,152Z"/><path class="cls-1" d="M193.55,152c-4.45-5.17-4.08-23.44-.07-29s20.38-4.62,25.32-.07,4.53,23.91.07,29.05S198,157.21,193.55,152Z"/><path class="cls-1" d="M143.83,132.65c2.07,1.71,1.84,7.76,0,9.64-1.17,1.19-6.14,1.08-7.46,0-2.07-1.71-2.27-8.12,0-9.64C137.82,131.69,142.51,131.57,143.83,132.65Z"/><path class="cls-1" d="M210.16,132.65c2.07,1.71,1.84,7.76,0,9.64-1.17,1.19-6.14,1.08-7.46,0-2.07-1.71-2.28-8.12,0-9.64C204.15,131.69,208.84,131.57,210.16,132.65Z"/><path class="cls-1" d="M205.92,140c-16,0-51.75,0-65.06,0h-.14a2.5,2.5,0,0,1,0-5h.14c16.64,0,51.24-.19,65.06,0C209.1,135.11,209.1,140,205.92,140Z"/><rect class="cls-2" x="73.36" y="65.2" width="30" height="150"/><line class="cls-2" x1="73.36" y1="185.2" x2="103.36" y2="185.2"/><line class="cls-2" x1="73.36" y1="155.2" x2="103.36" y2="155.2"/><line class="cls-2" x1="73.36" y1="125.2" x2="103.36" y2="125.2"/><line class="cls-2" x1="73.36" y1="95.2" x2="103.36" y2="95.2"/><rect class="cls-3" x="64.55" y="70.31" width="4.66" height="11.69" transform="translate(-17.39 132.46) rotate(-82.47)"/><path id="path2890" class="cls-4" d="M71.13,78.32c-.08-.46-.12-.78-.2-1.15C72.76,76.28,73.38,78.44,71.13,78.32Zm-.61-1.1c0,.37.08.75.13,1.13a4.35,4.35,0,0,1-2.33.34c-.66-.12-1.56-.35-1.31-1.24.17-.41.73-.66,1.59-.7a1.57,1.57,0,0,1,1,.23,2.31,2.31,0,0,0,.89.24Z"/><path id="path2890-7" class="cls-4" d="M65.47,74.35c-.2.43-.32.73-.5,1.06C66.51,76.75,67.67,74.82,65.47,74.35ZM65,74.2a4.27,4.27,0,0,0-2.16-.93c-.67-.06-1.59-.07-1.58.86.06.44.54.82,1.35,1.08a1.51,1.51,0,0,0,1.06.05,2.15,2.15,0,0,1,.91,0Z"/><rect class="cls-3" x="78.43" y="72.27" width="4.66" height="11.69" transform="matrix(0.2, -0.98, 0.98, 0.2, -11.81, 141.79)"/><path id="path2890-2" data-name="path2890" class="cls-4" d="M84.86,80.57c-.06-.47-.07-.79-.12-1.17C86.62,78.64,87.09,80.84,84.86,80.57Zm-.54-1.15c0,.38,0,.76.05,1.14a4.29,4.29,0,0,1-2.35.18c-.65-.16-1.53-.45-1.21-1.32.19-.4.77-.61,1.62-.59a1.57,1.57,0,0,1,1,.29,2.05,2.05,0,0,0,.87.3Z"/><path id="path2890-7-2" data-name="path2890-7" class="cls-4" d="M79.47,76.22c-.23.41-.37.7-.56,1C80.35,78.68,81.63,76.84,79.47,76.22ZM79,76A4.33,4.33,0,0,0,76.93,75c-.66-.11-1.59-.18-1.64.75,0,.44.48.86,1.27,1.17a1.58,1.58,0,0,0,1.06.13,2,2,0,0,1,.91.06C78.69,76.72,78.85,76.38,79,76Z"/><rect class="cls-3" x="84.64" y="83.12" width="4.66" height="11.69" transform="translate(-6.7 7.09) rotate(-4.49)"/><path id="path2890-3" data-name="path2890" class="cls-4" d="M85.74,93.58c.43-.18.74-.28,1.08-.43C88.07,94.75,86.09,95.8,85.74,93.58Zm1-.83c-.36.11-.72.24-1.08.36a4.14,4.14,0,0,1-.81-2.2c0-.68,0-1.6.93-1.54.44.08.8.58,1,1.4a1.65,1.65,0,0,1,0,1.06,2.2,2.2,0,0,0,0,.92Z"/><path id="path2890-7-3" data-name="path2890-7" class="cls-4" d="M88.44,87.21c-.46-.1-.78-.16-1.14-.26C86.31,88.73,88.44,89.46,88.44,87.21Zm0-.48A4.31,4.31,0,0,0,89,84.42c-.08-.67-.26-1.58-1.17-1.37-.42.15-.69.7-.78,1.55a1.56,1.56,0,0,0,.17,1,2.18,2.18,0,0,1,.2.9Z"/><rect class="cls-3" x="84.68" y="97.15" width="4.66" height="11.69" transform="translate(-0.26 0.22) rotate(-0.15)"/><path id="path2890-4" data-name="path2890" class="cls-4" d="M85.43,107.5c.45-.14.76-.22,1.11-.35C87.67,108.84,85.61,109.74,85.43,107.5Zm1-.76-1.1.28a4.24,4.24,0,0,1-.65-2.26c0-.67.13-1.59,1-1.46.43.12.75.64.91,1.48a1.56,1.56,0,0,1-.09,1,2.18,2.18,0,0,0-.12.91Z"/><path id="path2890-7-4" data-name="path2890-7" class="cls-4" d="M88.6,101.35c-.45-.14-.76-.22-1.11-.34C86.37,102.71,88.43,103.6,88.6,101.35Zm.09-.47a4.28,4.28,0,0,0,.63-2.27c0-.67-.14-1.59-1.06-1.45-.43.11-.74.64-.89,1.48a1.56,1.56,0,0,0,.09,1,2.37,2.37,0,0,1,.13.91Z"/><rect class="cls-3" x="84.72" y="111.17" width="4.66" height="11.69" transform="translate(-0.3 0.22) rotate(-0.15)"/><path id="path2890-5" data-name="path2890" class="cls-4" d="M85.46,121.53l1.12-.35C87.7,122.87,85.64,123.77,85.46,121.53Zm1-.76-1.1.28a4.23,4.23,0,0,1-.64-2.26c0-.68.13-1.6,1-1.46.43.11.75.63.9,1.47a1.54,1.54,0,0,1-.09,1.06,2.36,2.36,0,0,0-.12.91Z"/><path id="path2890-7-5" data-name="path2890-7" class="cls-4" d="M88.64,115.38c-.45-.14-.76-.22-1.12-.34C86.41,116.74,88.47,117.62,88.64,115.38Zm.09-.48a4.31,4.31,0,0,0,.63-2.26c0-.67-.14-1.6-1.06-1.46-.43.12-.75.64-.9,1.48a1.6,1.6,0,0,0,.1,1.06,2.18,2.18,0,0,1,.12.91C88,114.71,88.36,114.81,88.73,114.9Z"/><rect class="cls-3" x="84.75" y="125.2" width="4.66" height="11.69" transform="translate(-0.34 0.22) rotate(-0.15)"/><path id="path2890-6" data-name="path2890" class="cls-4" d="M85.5,135.55c.45-.14.76-.22,1.11-.35C87.74,136.9,85.68,137.8,85.5,135.55Zm1-.75c-.37.08-.73.18-1.1.28a4.3,4.3,0,0,1-.65-2.27c0-.67.13-1.59,1-1.46.43.12.75.64.91,1.48a1.6,1.6,0,0,1-.09,1.06,2.14,2.14,0,0,0-.12.91Z"/><path id="path2890-7-6" data-name="path2890-7" class="cls-4" d="M88.67,129.41c-.45-.14-.76-.22-1.11-.35C86.44,130.76,88.5,131.65,88.67,129.41Zm.09-.48a4.26,4.26,0,0,0,.64-2.27c0-.67-.14-1.59-1.06-1.45-.43.12-.75.64-.9,1.48a1.6,1.6,0,0,0,.09,1.06,2.12,2.12,0,0,1,.13.9Z"/><rect class="cls-3" x="84.79" y="139.23" width="4.66" height="11.69" transform="translate(-0.37 0.22) rotate(-0.15)"/><path id="path2890-7-7" data-name="path2890" class="cls-4" d="M85.53,149.58c.45-.14.77-.23,1.12-.35C87.77,150.92,85.72,151.82,85.53,149.58Zm1-.76-1.11.28a4.32,4.32,0,0,1-.64-2.26c0-.67.13-1.59,1-1.46.43.11.75.64.9,1.48a1.57,1.57,0,0,1-.08,1,2,2,0,0,0-.12.91Z"/><path id="path2890-7-8" data-name="path2890-7" class="cls-4" d="M88.71,143.43c-.45-.14-.76-.22-1.12-.34C86.48,144.79,88.54,145.68,88.71,143.43Zm.09-.47a4.28,4.28,0,0,0,.63-2.27c0-.67-.14-1.59-1.06-1.45-.43.11-.74.64-.89,1.48a1.51,1.51,0,0,0,.09,1.05,2.18,2.18,0,0,1,.12.91Z"/><rect class="cls-3" x="84.82" y="153.25" width="4.66" height="11.69" transform="translate(-0.41 0.22) rotate(-0.15)"/><path id="path2890-8" data-name="path2890" class="cls-4" d="M85.57,163.61c.45-.15.76-.23,1.11-.36C87.81,165,85.75,165.85,85.57,163.61Zm1-.76c-.37.08-.73.18-1.1.28a4.35,4.35,0,0,1-.65-2.26c0-.68.14-1.6,1.06-1.46.43.11.75.63.9,1.47a1.6,1.6,0,0,1-.09,1.06,2.36,2.36,0,0,0-.12.91Z"/><path id="path2890-7-9" data-name="path2890-7" class="cls-4" d="M88.75,157.46c-.45-.14-.77-.22-1.12-.35C86.51,158.81,88.58,159.7,88.75,157.46Zm.08-.48a4.25,4.25,0,0,0,.64-2.26c0-.68-.14-1.6-1.06-1.46-.43.12-.75.64-.9,1.48a1.6,1.6,0,0,0,.1,1.06,2.33,2.33,0,0,1,.12.91C88.1,156.79,88.46,156.89,88.83,157Z"/><rect class="cls-3" x="84.86" y="167.28" width="4.66" height="11.69" transform="translate(-0.45 0.22) rotate(-0.15)"/><path id="path2890-9" data-name="path2890" class="cls-4" d="M85.61,177.63c.45-.14.76-.22,1.11-.35C87.85,179,85.79,179.87,85.61,177.63Zm1-.76-1.1.28a4.24,4.24,0,0,1-.65-2.26c0-.67.13-1.59,1-1.46.43.12.75.64.91,1.48a1.6,1.6,0,0,1-.09,1.06,2.11,2.11,0,0,0-.12.9Z"/><path id="path2890-7-10" data-name="path2890-7" class="cls-4" d="M88.78,171.49l-1.11-.35C86.55,172.84,88.61,173.73,88.78,171.49Zm.09-.48a4.19,4.19,0,0,0,.63-2.27c0-.67-.14-1.59-1-1.45-.43.11-.75.64-.9,1.48a1.6,1.6,0,0,0,.09,1.06,2.12,2.12,0,0,1,.13.9Z"/><rect class="cls-3" x="84.9" y="181.3" width="4.66" height="11.69" transform="translate(-0.48 0.22) rotate(-0.15)"/><path id="path2890-10" data-name="path2890" class="cls-4" d="M85.64,191.66l1.12-.35C87.88,193,85.82,193.9,85.64,191.66Zm1-.76-1.1.28a4.23,4.23,0,0,1-.64-2.26c0-.67.13-1.6,1-1.46.43.11.75.64.9,1.47a1.54,1.54,0,0,1-.09,1.06,2.36,2.36,0,0,0-.12.91Z"/><path id="path2890-7-11" data-name="path2890-7" class="cls-4" d="M88.82,185.51c-.45-.14-.76-.22-1.12-.34C86.59,186.87,88.65,187.75,88.82,185.51Zm.09-.48a4.31,4.31,0,0,0,.63-2.26c0-.67-.14-1.59-1.06-1.46-.43.12-.75.64-.9,1.48a1.59,1.59,0,0,0,.1,1.06,2.18,2.18,0,0,1,.12.91Z"/><rect class="cls-3" x="84.93" y="195.33" width="4.66" height="11.69" transform="translate(-0.52 0.23) rotate(-0.15)"/><path id="path2890-11" data-name="path2890" class="cls-4" d="M85.68,205.68c.45-.14.76-.22,1.11-.35C87.92,207,85.86,207.93,85.68,205.68Zm1-.75c-.37.08-.73.18-1.1.28a4.29,4.29,0,0,1-.65-2.26c0-.68.13-1.6,1-1.46.43.11.75.63.91,1.47a1.6,1.6,0,0,1-.09,1.06,2.31,2.31,0,0,0-.12.91Z"/><path id="path2890-7-12" data-name="path2890-7" class="cls-4" d="M88.85,199.54c-.45-.14-.76-.22-1.11-.35C86.62,200.89,88.68,201.78,88.85,199.54Zm.09-.48a4.25,4.25,0,0,0,.64-2.26c0-.68-.14-1.6-1.06-1.46-.43.12-.75.64-.9,1.48a1.6,1.6,0,0,0,.09,1.06,2.14,2.14,0,0,1,.13.91C88.21,198.87,88.57,199,88.94,199.06Z"/><rect class="cls-3" x="84.97" y="209.36" width="4.66" height="11.69" transform="translate(-0.55 0.23) rotate(-0.15)"/><path id="path2890-12" data-name="path2890" class="cls-4" d="M85.72,219.71c.44-.14.76-.22,1.11-.35C88,221.05,85.9,222,85.72,219.71Zm1-.76-1.11.28A4.32,4.32,0,0,1,85,217c0-.67.13-1.59,1-1.46.43.11.75.64.9,1.48a1.57,1.57,0,0,1-.08,1,2,2,0,0,0-.12.91Z"/><path id="path2890-7-13" data-name="path2890-7" class="cls-4" d="M88.89,213.56c-.45-.14-.76-.22-1.12-.34C86.66,214.92,88.72,215.81,88.89,213.56Zm.09-.47a4.28,4.28,0,0,0,.63-2.27c0-.67-.14-1.59-1.06-1.45-.43.11-.74.64-.89,1.48a1.56,1.56,0,0,0,.09,1.05,2.37,2.37,0,0,1,.13.91Z"/><rect class="cls-5" x="0.5" y="0.5" width="275" height="275"/></g></g></svg>