<svg xmlns="http://www.w3.org/2000/svg" viewBox="0 0 276 276"><defs><style>.cls-1,.cls-3,.cls-4,.cls-6{fill:none;}.cls-1,.cls-2,.cls-6{stroke:#231f20;}.cls-1,.cls-2,.cls-3,.cls-6{stroke-miterlimit:10;}.cls-1{stroke-width:0.25px;}.cls-2{fill:#fff;}.cls-3{stroke:#ed1c24;stroke-width:2px;}.cls-5{fill:#404040;}</style></defs><title>item6</title><g id="Layer_2" data-name="Layer 2"><g id="mailbox1"><rect class="cls-1" x="78.13" y="73.06" width="30" height="60"/><line class="cls-1" x1="78.13" y1="103.06" x2="108.13" y2="103.06"/><g id="Layer_1-2" data-name="Layer 1-2"><rect class="cls-2" x="182.96" y="93.69" width="26.18" height="17.45" transform="translate(7.88 218.66) rotate(-59.29)"/><path class="cls-2" d="M134.84,137.11l26.74-45,60,35.65-26.74,45a34.91,34.91,0,1,1-60-35.65Z"/><rect class="cls-2" x="133.42" y="123.08" width="15.67" height="2.18" transform="translate(-37.65 182.2) rotate(-59.29)"/><path class="cls-2" d="M142.57,192.45h0a4.36,4.36,0,0,1-1.53-6l8.92-15a4.37,4.37,0,0,1,6-1.52h0a4.37,4.37,0,0,1,1.52,6l-8.91,15A4.37,4.37,0,0,1,142.57,192.45Z"/><path class="cls-2" d="M150.54,187l-7-4.18a.28.28,0,0,1-.1-.38l2.13-3.58a4.28,4.28,0,0,1,5.87-1.49h0l.13.08a4.28,4.28,0,0,1,1.5,5.87h0l-2.13,3.58a.28.28,0,0,1-.38.09Z"/></g><rect class="cls-3" x="78.13" y="103.06" width="30" height="30"/><rect class="cls-1" x="78.13" y="133.06" width="30" height="60"/><line class="cls-1" x1="78.13" y1="163.06" x2="108.13" y2="163.06"/><rect class="cls-4" x="91.06" y="63.85" width="4.66" height="11.69" transform="translate(-3.9 5.56) rotate(-3.34)"/><path id="path2890" class="cls-5" d="M92.06,74.28c.44-.17.75-.26,1.09-.41C94.37,75.5,92.37,76.51,92.06,74.28Zm1-.81-1.09.34a4.36,4.36,0,0,1-.77-2.22c0-.67,0-1.6,1-1.52.44.09.79.6,1,1.43a1.58,1.58,0,0,1,0,1.06,2.15,2.15,0,0,0-.07.91Z"/><path id="path2890-7" class="cls-5" d="M94.89,68c-.46-.12-.77-.18-1.13-.28C92.74,69.45,94.84,70.22,94.89,68Zm.06-.48a4.33,4.33,0,0,0,.51-2.3c-.06-.67-.23-1.58-1.14-1.39-.42.14-.71.68-.81,1.52a1.56,1.56,0,0,0,.15,1.06,2.08,2.08,0,0,1,.17.89Z"/><rect class="cls-4" x="91.88" y="77.85" width="4.66" height="11.69" transform="translate(-4.72 5.63) rotate(-3.34)"/><path id="path2890-2" data-name="path2890" class="cls-5" d="M92.88,88.29c.44-.17.75-.27,1.09-.42C95.19,89.5,93.19,90.51,92.88,88.29Zm1-.82-1.09.34A4.27,4.27,0,0,1,92,85.59c0-.67,0-1.6,1-1.51.44.08.78.59,1,1.42a1.52,1.52,0,0,1,0,1.06,2.15,2.15,0,0,0-.06.91Z"/><path id="path2890-7-2" data-name="path2890-7" class="cls-5" d="M95.71,82c-.46-.11-.78-.18-1.14-.28C93.55,83.45,95.66,84.22,95.71,82Zm.06-.48a4.2,4.2,0,0,0,.5-2.3c-.06-.67-.22-1.58-1.13-1.39-.43.14-.71.68-.82,1.53a1.6,1.6,0,0,0,.16,1,2.15,2.15,0,0,1,.17.9Z"/><rect class="cls-4" x="92.7" y="91.85" width="4.66" height="11.69" transform="translate(-5.53 5.7) rotate(-3.34)"/><path id="path2890-3" data-name="path2890" class="cls-5" d="M93.7,102.29l1.09-.41C96,103.5,94,104.52,93.7,102.29Zm1-.82-1.08.35a4.3,4.3,0,0,1-.77-2.23c0-.67,0-1.6,1-1.51.43.09.78.59,1,1.42a1.57,1.57,0,0,1,0,1.06,2.33,2.33,0,0,0-.07.91Z"/><path id="path2890-7-3" data-name="path2890-7" class="cls-5" d="M96.52,96c-.45-.11-.77-.17-1.13-.28C94.37,97.45,96.48,98.22,96.52,96Zm.07-.48a4.27,4.27,0,0,0,.5-2.29c-.06-.68-.23-1.59-1.14-1.4-.42.14-.71.68-.81,1.53a1.67,1.67,0,0,0,.15,1,2.33,2.33,0,0,1,.18.9Z"/><rect class="cls-4" x="93.51" y="105.85" width="4.66" height="11.69" transform="translate(-6.35 5.78) rotate(-3.34)"/><path id="path2890-4" data-name="path2890" class="cls-5" d="M94.51,116.29l1.1-.41C96.82,117.51,94.82,118.52,94.51,116.29Zm1-.81c-.36.1-.72.22-1.08.34a4.18,4.18,0,0,1-.77-2.22c0-.68,0-1.6,1-1.52.44.09.79.59,1,1.42a1.57,1.57,0,0,1,0,1.06,2.39,2.39,0,0,0-.07.92Z"/><path id="path2890-7-4" data-name="path2890-7" class="cls-5" d="M97.34,110c-.46-.12-.77-.18-1.13-.29C95.19,111.45,97.3,112.23,97.34,110Zm.06-.49a4.28,4.28,0,0,0,.51-2.29c-.06-.67-.23-1.59-1.14-1.4-.42.14-.71.69-.81,1.53a1.53,1.53,0,0,0,.15,1,2.33,2.33,0,0,1,.18.9Z"/><rect class="cls-4" x="87.89" y="123.23" width="11.69" height="4.66" transform="translate(-44.96 198.46) rotate(-80.98)"/><path id="path2890-5" data-name="path2890" class="cls-5" d="M91.45,129.76c.47-.07.79-.1,1.16-.17C93.45,131.44,91.28,132,91.45,129.76Zm1.12-.59-1.13.1a4.25,4.25,0,0,1-.28-2.33c.13-.67.39-1.56,1.27-1.28.41.18.64.75.66,1.6a1.61,1.61,0,0,1-.25,1,2.26,2.26,0,0,0-.27.88Z"/><path id="path2890-7-5" data-name="path2890-7" class="cls-5" d="M95.57,124.19l-1-.51C93.15,125.18,95,126.38,95.57,124.19Zm.16-.45a4.26,4.26,0,0,0,1-2.14c.08-.67.11-1.59-.82-1.6-.44,0-.84.51-1.12,1.31a1.59,1.59,0,0,0-.07,1.06,2.19,2.19,0,0,1,0,.92Z"/><rect class="cls-4" x="85.69" y="137.08" width="11.69" height="4.66" transform="translate(-60.5 207.97) rotate(-80.98)"/><path id="path2890-6" data-name="path2890" class="cls-5" d="M89.26,143.61c.46-.07.78-.1,1.15-.17C91.25,145.29,89.08,145.85,89.26,143.61Zm1.11-.59-1.13.1a4.34,4.34,0,0,1-.28-2.33c.13-.66.39-1.56,1.27-1.28.41.18.65.75.66,1.6a1.61,1.61,0,0,1-.25,1,2.36,2.36,0,0,0-.27.88Z"/><path id="path2890-7-6" data-name="path2890-7" class="cls-5" d="M93.37,138.05c-.42-.21-.72-.34-1.05-.52C91,139,92.84,140.23,93.37,138.05Zm.16-.46a4.26,4.26,0,0,0,1-2.14c.08-.66.11-1.59-.81-1.6-.45.05-.85.51-1.13,1.32a1.58,1.58,0,0,0-.07,1.06,2.32,2.32,0,0,1,0,.91C92.84,137.28,93.18,137.44,93.53,137.59Z"/><rect class="cls-4" x="79.39" y="147.48" width="11.69" height="4.66" transform="translate(-22.33 15.13) rotate(-8.98)"/><path id="path2890-7-7" data-name="path2890" class="cls-5" d="M80.53,148.93c.21.42.34.72.52,1C79.55,151.35,78.34,149.46,80.53,148.93Zm.9.89c-.14-.35-.29-.7-.44-1a4.13,4.13,0,0,1,2.13-1c.67-.09,1.6-.12,1.61.81,0,.44-.51.84-1.32,1.12a1.58,1.58,0,0,1-1.06.07,2.2,2.2,0,0,0-.92,0Z"/><path id="path2890-7-8" data-name="path2890-7" class="cls-5" d="M87.09,151.13c.07-.47.1-.79.17-1.16C85.41,149.13,84.85,151.3,87.09,151.13Zm.49,0a4.25,4.25,0,0,0,2.33.28c.66-.13,1.56-.38,1.28-1.27-.18-.41-.75-.64-1.6-.66a1.55,1.55,0,0,0-1,.26,2.42,2.42,0,0,1-.88.26C87.65,150.39,87.61,150.76,87.58,151.14Z"/><rect class="cls-4" x="65.36" y="147.72" width="11.69" height="4.66" transform="translate(-2.64 1.28) rotate(-1.01)"/><path id="path2890-8" data-name="path2890" class="cls-5" d="M66.67,148.54c.15.44.24.75.37,1.11C65.36,150.8,64.43,148.75,66.67,148.54Zm.78,1-.3-1.1a4.33,4.33,0,0,1,2.25-.68c.67,0,1.6.11,1.48,1-.11.43-.63.76-1.46.93a1.54,1.54,0,0,1-1.06-.08,2.34,2.34,0,0,0-.91-.1Z"/><path id="path2890-7-9" data-name="path2890-7" class="cls-5" d="M72.87,151.62c.13-.45.21-.77.32-1.12C71.48,149.41,70.62,151.48,72.87,151.62Zm.48.08a4.25,4.25,0,0,0,2.27.6c.67,0,1.59-.16,1.44-1.08-.12-.43-.65-.74-1.49-.87a1.52,1.52,0,0,0-1.06.11,2.31,2.31,0,0,1-.91.13C73.52,151,73.44,151.33,73.35,151.7Z"/><rect class="cls-6" x="0.5" y="0.5" width="275" height="275"/></g></g></svg>