<svg xmlns="http://www.w3.org/2000/svg" viewBox="0 0 276 276"><defs><style>.cls-1{fill:#fff;}.cls-1,.cls-2,.cls-6{stroke:#231f20;}.cls-1,.cls-2,.cls-3,.cls-6{stroke-miterlimit:10;}.cls-2,.cls-3,.cls-4,.cls-6{fill:none;}.cls-2{stroke-width:0.25px;}.cls-3{stroke:#ed1c24;stroke-width:2px;}.cls-5{fill:#404040;}</style></defs><title>item21</title><g id="Layer_2" data-name="Layer 2"><g id="hairbrush1"><g id="Layer_1-2" data-name="Layer 1-2"><path class="cls-1" d="M153.2,111.75l2.85,9.8h0s2.76,27,5.2,35.38C165,170,181,207.2,181,207.2l-50.27,19.72S117.06,188.77,111,176.65c-3.91-7.81-20.22-29.45-20.22-29.45h0l-4.59-9.15c-9.08-23.14-1.43-47.78,17.08-55S144.12,88.62,153.2,111.75Z"/><path class="cls-1" d="M86.17,138.05l4.57,9.12A55.92,55.92,0,0,1,86.17,138.05Z"/><path class="cls-1" d="M153.2,111.75a56.41,56.41,0,0,1,2.85,9.8Z"/></g><rect class="cls-2" x="28.6" y="76.59" width="30.64" height="154.72"/><line class="cls-2" x1="28.6" y1="200.37" x2="59.24" y2="200.37"/><line class="cls-2" x1="28.6" y1="169.42" x2="59.24" y2="169.42"/><line class="cls-2" x1="28.6" y1="138.48" x2="59.24" y2="138.48"/><line class="cls-2" x1="28.6" y1="107.53" x2="59.24" y2="107.53"/><rect class="cls-3" x="29.07" y="200.84" width="29.7" height="30"/><rect class="cls-4" x="38.91" y="74.58" width="11.69" height="4.66" transform="translate(-34.78 116.81) rotate(-86.44)"/><path id="path2890" class="cls-5" d="M42.89,81.31c.45-.12.77-.18,1.13-.28C45,82.79,42.92,83.56,42.89,81.31Zm1-.69q-.55.09-1.11.21a4.23,4.23,0,0,1-.5-2.3c.06-.67.23-1.58,1.14-1.39.42.14.71.68.81,1.53a1.59,1.59,0,0,1-.16,1,2.33,2.33,0,0,0-.18.9Z"/><path id="path2890-7" class="cls-5" d="M46.45,75.38c-.44-.17-.75-.27-1.09-.42C44.14,76.59,46.14,77.61,46.45,75.38Zm.12-.47a4.28,4.28,0,0,0,.78-2.22c0-.67,0-1.6-1-1.52-.44.09-.79.59-1,1.42a1.52,1.52,0,0,0,0,1.06,2.33,2.33,0,0,1,.07.91Z"/><rect class="cls-4" x="38.04" y="88.58" width="11.69" height="4.66" transform="translate(-49.57 129.07) rotate(-86.44)"/><path id="path2890-2" data-name="path2890" class="cls-5" d="M42,95.31c.45-.12.77-.18,1.13-.28C44.16,96.79,42.05,97.56,42,95.31Zm1-.69q-.55.09-1.11.21a4.23,4.23,0,0,1-.5-2.3c.06-.67.23-1.58,1.14-1.39.42.14.71.68.81,1.53a1.6,1.6,0,0,1-.16,1,2.33,2.33,0,0,0-.18.9Z"/><path id="path2890-7-2" data-name="path2890-7" class="cls-5" d="M45.58,89.38c-.44-.17-.75-.27-1.09-.42C43.27,90.59,45.27,91.61,45.58,89.38Zm.12-.47a4.28,4.28,0,0,0,.78-2.22c0-.67,0-1.6-1-1.52-.44.09-.79.59-1,1.42a1.52,1.52,0,0,0,0,1.06,2.33,2.33,0,0,1,.07.91Z"/><rect class="cls-4" x="37.17" y="102.58" width="11.69" height="4.66" transform="translate(-64.36 141.34) rotate(-86.44)"/><path id="path2890-3" data-name="path2890" class="cls-5" d="M41.15,109.31c.45-.12.77-.18,1.13-.28C43.29,110.79,41.18,111.56,41.15,109.31Zm1.05-.69q-.56.09-1.11.21a4.23,4.23,0,0,1-.5-2.3c.06-.67.23-1.59,1.14-1.39.42.14.71.68.81,1.53a1.6,1.6,0,0,1-.16,1,2.33,2.33,0,0,0-.18.9Z"/><path id="path2890-7-3" data-name="path2890-7" class="cls-5" d="M44.71,103.38c-.44-.17-.75-.27-1.09-.42C42.4,104.59,44.4,105.61,44.71,103.38Zm.12-.47a4.28,4.28,0,0,0,.78-2.22c0-.67,0-1.6-1-1.52-.44.09-.79.59-1,1.42a1.52,1.52,0,0,0,0,1.06,2.33,2.33,0,0,1,.07.91Z"/><rect class="cls-4" x="36.3" y="116.58" width="11.69" height="4.66" transform="translate(-79.15 153.6) rotate(-86.44)"/><path id="path2890-4" data-name="path2890" class="cls-5" d="M40.28,123.31c.45-.12.77-.18,1.13-.28C42.42,124.79,40.31,125.56,40.28,123.31Zm1-.69q-.55.09-1.11.21a4.23,4.23,0,0,1-.5-2.3c.06-.67.23-1.59,1.14-1.39.42.14.71.68.81,1.53a1.6,1.6,0,0,1-.16,1,2.3,2.3,0,0,0-.18.9Z"/><path id="path2890-7-4" data-name="path2890-7" class="cls-5" d="M43.84,117.38c-.44-.17-.75-.27-1.09-.42C41.53,118.59,43.53,119.61,43.84,117.38Zm.12-.47a4.28,4.28,0,0,0,.78-2.22c0-.67,0-1.6-1-1.52-.44.09-.79.59-1,1.42a1.52,1.52,0,0,0,0,1.06,2.33,2.33,0,0,1,.07.91Z"/><rect class="cls-4" x="38.75" y="127.05" width="4.66" height="11.69" transform="translate(-3.93 1.28) rotate(-1.7)"/><path id="path2890-5" data-name="path2890" class="cls-5" d="M39.61,137.44c.45-.16.76-.24,1.11-.38C41.89,138.72,39.86,139.68,39.61,137.44Zm1-.78c-.36.09-.72.2-1.09.31a4.27,4.27,0,0,1-.71-2.25c0-.67.09-1.59,1-1.48.43.1.76.61.94,1.44a1.55,1.55,0,0,1-.06,1.06,2.37,2.37,0,0,0-.1.92Z"/><path id="path2890-7-5" data-name="path2890-7" class="cls-5" d="M42.62,131.21c-.45-.13-.77-.2-1.12-.31C40.43,132.63,42.51,133.46,42.62,131.21Zm.08-.48a4.25,4.25,0,0,0,.57-2.28c0-.67-.18-1.59-1.1-1.43-.43.13-.73.66-.85,1.51a1.55,1.55,0,0,0,.12,1.05,2.35,2.35,0,0,1,.15.91Z"/><rect class="cls-4" x="40.37" y="140.97" width="4.66" height="11.69" transform="translate(-8.24 2.65) rotate(-3.24)"/><path id="path2890-6" data-name="path2890" class="cls-5" d="M41.36,151.4c.44-.17.75-.27,1.09-.41C43.67,152.62,41.66,153.63,41.36,151.4Zm1-.81c-.36.1-.72.22-1.09.34a4.29,4.29,0,0,1-.76-2.23c0-.67,0-1.6,1-1.51.43.09.78.59,1,1.42a1.57,1.57,0,0,1,0,1.06,2.21,2.21,0,0,0-.07.92Z"/><path id="path2890-7-6" data-name="path2890-7" class="cls-5" d="M44.2,145.09c-.46-.12-.78-.18-1.14-.28C42,146.56,44.15,147.34,44.2,145.09Zm.06-.48a4.31,4.31,0,0,0,.51-2.3c-.06-.67-.23-1.58-1.13-1.39-.43.14-.72.68-.82,1.52a1.52,1.52,0,0,0,.15,1.05,2.15,2.15,0,0,1,.17.9Z"/><rect class="cls-4" x="41.16" y="154.97" width="4.66" height="11.69" transform="translate(-9.03 2.72) rotate(-3.24)"/><path id="path2890-7-7" data-name="path2890" class="cls-5" d="M42.15,165.4c.44-.17.75-.26,1.1-.41C44.46,166.62,42.46,167.63,42.15,165.4Zm1-.81-1.08.34a4.18,4.18,0,0,1-.77-2.22c0-.68,0-1.6,1-1.52.44.09.78.6,1,1.43a1.58,1.58,0,0,1,0,1.06,2.33,2.33,0,0,0-.07.91Z"/><path id="path2890-7-8" data-name="path2890-7" class="cls-5" d="M45,159.09c-.46-.11-.77-.18-1.13-.28C42.83,160.57,44.94,161.34,45,159.09Zm.06-.48a4.1,4.1,0,0,0,.51-2.29c-.06-.67-.22-1.59-1.13-1.4-.42.14-.71.68-.82,1.53a1.67,1.67,0,0,0,.15,1.05,2.33,2.33,0,0,1,.18.9Z"/><rect class="cls-4" x="41.95" y="168.97" width="4.66" height="11.69" transform="translate(-9.82 2.78) rotate(-3.24)"/><path id="path2890-8" data-name="path2890" class="cls-5" d="M43,179.41,44,179C45.25,180.63,43.25,181.64,43,179.41Zm1-.81c-.36.1-.72.22-1.08.33a4.27,4.27,0,0,1-.77-2.22c0-.67,0-1.6,1-1.51.44.09.79.59,1,1.42a1.63,1.63,0,0,1,0,1.06,2.19,2.19,0,0,0-.08.92Z"/><path id="path2890-7-9" data-name="path2890-7" class="cls-5" d="M45.78,173.1c-.45-.12-.77-.18-1.13-.29C43.63,174.57,45.74,175.35,45.78,173.1Zm.07-.48a4.33,4.33,0,0,0,.51-2.3c-.06-.67-.23-1.58-1.14-1.4-.42.14-.71.68-.81,1.53a1.53,1.53,0,0,0,.15,1.05,2.15,2.15,0,0,1,.17.9Z"/><rect class="cls-4" x="38.68" y="186.51" width="11.69" height="4.66" transform="translate(-144.41 232.93) rotate(-89.87)"/><path id="path2890-9" data-name="path2890" class="cls-5" d="M42.92,193.34c.45-.14.76-.22,1.12-.35C45.15,194.69,43.09,195.58,42.92,193.34Zm1-.75q-.55.12-1.11.27a4.24,4.24,0,0,1-.63-2.26c0-.68.14-1.6,1.06-1.46.43.12.74.64.89,1.48a1.6,1.6,0,0,1-.09,1.06,2.14,2.14,0,0,0-.12.91Z"/><path id="path2890-7-10" data-name="path2890-7" class="cls-5" d="M46.12,187.21c-.44-.15-.76-.23-1.11-.35C43.89,188.55,45.94,189.45,46.12,187.21Zm.1-.48a4.32,4.32,0,0,0,.64-2.26c0-.67-.13-1.6-1-1.46-.43.11-.75.64-.9,1.47a1.54,1.54,0,0,0,.08,1.06,2,2,0,0,1,.12.91Z"/><rect class="cls-4" x="38.65" y="200.53" width="11.69" height="4.66" transform="translate(-158.47 246.9) rotate(-89.87)"/><path id="path2890-10" data-name="path2890" class="cls-5" d="M42.89,207.36c.45-.14.76-.22,1.11-.34C45.12,208.72,43.06,209.61,42.89,207.36Zm1-.75-1.1.28a4.19,4.19,0,0,1-.63-2.27c0-.67.14-1.59,1-1.45.43.11.75.64.9,1.48a1.56,1.56,0,0,1-.09,1,2.19,2.19,0,0,0-.13.91Z"/><path id="path2890-7-11" data-name="path2890-7" class="cls-5" d="M46.09,201.23c-.45-.14-.76-.22-1.11-.35C43.85,202.58,45.91,203.48,46.09,201.23Zm.09-.47a4.3,4.3,0,0,0,.65-2.27c0-.67-.13-1.59-1-1.46-.43.12-.75.64-.91,1.48a1.6,1.6,0,0,0,.09,1.06,2.14,2.14,0,0,1,.12.91C45.45,200.56,45.81,200.66,46.18,200.76Z"/><rect class="cls-4" x="38.62" y="214.56" width="11.69" height="4.66" transform="translate(-172.53 260.86) rotate(-89.87)"/><path id="path2890-11" data-name="path2890" class="cls-5" d="M42.86,221.39c.45-.14.76-.22,1.11-.35C45.09,222.74,43,223.63,42.86,221.39Zm1-.75c-.37.08-.73.18-1.1.27a4.23,4.23,0,0,1-.64-2.26c0-.68.14-1.6,1.06-1.46.43.12.75.64.9,1.48a1.6,1.6,0,0,1-.09,1.06,2.19,2.19,0,0,0-.13.91Z"/><path id="path2890-7-12" data-name="path2890-7" class="cls-5" d="M46.06,215.26c-.45-.14-.76-.22-1.11-.35C43.82,216.6,45.88,217.5,46.06,215.26Zm.09-.48a4.24,4.24,0,0,0,.65-2.26c0-.67-.14-1.59-1-1.46-.44.11-.76.64-.91,1.48a1.56,1.56,0,0,0,.09,1.05,2.36,2.36,0,0,1,.12.91Z"/><rect class="cls-6" x="0.5" y="0.5" width="275" height="275"/></g></g></svg>