<svg xmlns="http://www.w3.org/2000/svg" viewBox="0 0 276 276"><defs><style>.cls-1{fill:#fff;}.cls-1,.cls-2{stroke:#231f20;}.cls-1,.cls-2,.cls-3{stroke-miterlimit:10;}.cls-2,.cls-3{fill:none;}.cls-2{stroke-width:0.25px;}.cls-3{stroke:#ed1c24;stroke-width:2px;}.cls-4{fill:#404040;}</style></defs><title>item14</title><g id="Layer_2" data-name="Layer 2"><g id="alarmclock1"><rect class="cls-1" x="0.5" y="0.5" width="275" height="275"/><g id="Layer_1-2" data-name="Layer 1-2"><polygon class="cls-1" points="228.12 142.93 215.91 179.57 138.95 142.45 159.88 110.01 228.12 142.93"/><polygon class="cls-1" points="231.52 147.21 228.17 154.17 206.45 150.81 207.54 143.79 231.52 147.21"/><path class="cls-1" d="M162.26,115.55c2.21,5.08-7.64,26.86-14.28,27.38-6.42.48-18.27-5.33-18.15-11.8s6-18.27,10.92-23S159.86,110.06,162.26,115.55Z"/><path class="cls-1" d="M146.86,119.9c1.06,2.28-1.62,7.36-4,8.2-1.49.54-5.68-1.6-6.36-3.07-1.06-2.29,1.42-7.84,4-8.2C142.13,116.6,146.18,118.43,146.86,119.9Z"/><path class="cls-1" d="M141.83,119.6l-2.28,4.73s-19.11-9-24.15-11.65c-1.16-.61,1.1-5.3,2.28-4.72C123.61,110.84,141.83,119.6,141.83,119.6Z"/></g><rect class="cls-2" x="60.4" y="62.87" width="30" height="120"/><line class="cls-2" x1="60.4" y1="182.87" x2="90.4" y2="182.87"/><line class="cls-2" x1="60.4" y1="152.87" x2="90.4" y2="152.87"/><line class="cls-2" x1="60.4" y1="122.87" x2="90.4" y2="122.87"/><line class="cls-2" x1="60.4" y1="92.87" x2="90.4" y2="92.87"/><rect class="cls-3" x="60.4" y="62.87" width="30" height="30"/><rect class="cls-2" x="60.4" y="182.87" width="30" height="30"/><path id="path2890" class="cls-4" d="M71.88,64.94c.45-.13.76-.21,1.12-.33C74.08,66.34,72,67.18,71.88,64.94Zm1-.73c-.37.07-.74.16-1.11.25a4.27,4.27,0,0,1-.59-2.28c0-.67.17-1.59,1.09-1.43.42.12.73.65.86,1.5a1.5,1.5,0,0,1-.11,1,2.15,2.15,0,0,0-.14.91Z"/><path id="path2890-7" class="cls-4" d="M75.2,58.87c-.44-.15-.75-.24-1.1-.37C72.94,60.17,75,61.11,75.2,58.87Zm.11-.47A4.34,4.34,0,0,0,76,56.15c0-.67-.1-1.6-1-1.48-.43.1-.76.62-.93,1.46a1.56,1.56,0,0,0,.07,1.06,2.3,2.3,0,0,1,.1.91Z"/><path id="path2890-2" data-name="path2890" class="cls-4" d="M71.56,79l1.12-.32C73.76,80.36,71.68,81.21,71.56,79Zm1-.73-1.11.25a4.27,4.27,0,0,1-.59-2.28c0-.67.17-1.59,1.09-1.43.43.13.73.66.87,1.5a1.55,1.55,0,0,1-.12,1,2.2,2.2,0,0,0-.14.91Z"/><path id="path2890-7-2" data-name="path2890-7" class="cls-4" d="M74.89,72.9c-.45-.16-.76-.24-1.11-.38C72.62,74.19,74.66,75.13,74.89,72.9Zm.1-.48a4.31,4.31,0,0,0,.69-2.25c0-.67-.1-1.59-1-1.48-.44.11-.77.62-.94,1.46a1.61,1.61,0,0,0,.07,1.06,2.17,2.17,0,0,1,.1.91C74.26,72.21,74.62,72.32,75,72.42Z"/><path id="path2890-3" data-name="path2890" class="cls-4" d="M71.24,93c.45-.13.77-.2,1.12-.32C73.45,94.38,71.37,95.23,71.24,93Zm1-.73-1.11.25a4.26,4.26,0,0,1-.59-2.27c0-.68.18-1.59,1.09-1.44.43.13.74.66.87,1.5a1.59,1.59,0,0,1-.12,1.06,2.13,2.13,0,0,0-.14.9Z"/><path id="path2890-7-3" data-name="path2890-7" class="cls-4" d="M74.57,86.92c-.45-.15-.76-.24-1.11-.37C72.3,88.22,74.34,89.16,74.57,86.92Zm.1-.48a4.3,4.3,0,0,0,.69-2.24c0-.68-.1-1.6-1-1.49-.43.11-.77.63-.93,1.46a1.55,1.55,0,0,0,.06,1.06,2.17,2.17,0,0,1,.1.91Z"/><path id="path2890-4" data-name="path2890" class="cls-4" d="M70.73,107c.46-.12.78-.18,1.14-.29C72.89,108.42,70.79,109.19,70.73,107Zm1.06-.7-1.12.21a4.28,4.28,0,0,1-.51-2.29c.06-.67.22-1.59,1.13-1.4.42.14.71.68.82,1.53a1.54,1.54,0,0,1-.15,1,2.15,2.15,0,0,0-.17.9Z"/><path id="path2890-7-4" data-name="path2890-7" class="cls-4" d="M74.26,101c-.44-.16-.75-.26-1.1-.41C72,102.22,74,103.22,74.26,101Zm.11-.47a4.18,4.18,0,0,0,.77-2.22c0-.68,0-1.6-1-1.52-.43.09-.78.6-1,1.43a1.57,1.57,0,0,0,0,1.06,2.33,2.33,0,0,1,.07.91Z"/><path id="path2890-5" data-name="path2890" class="cls-4" d="M70.42,121.14c.43-.19.73-.3,1.07-.47C72.78,122.24,70.83,123.35,70.42,121.14Zm.92-.86-1.07.4a4.3,4.3,0,0,1-.88-2.18c0-.68,0-1.6.89-1.57.44.07.82.56,1.06,1.37a1.58,1.58,0,0,1,0,1.07,2.15,2.15,0,0,0,0,.91Z"/><path id="path2890-7-5" data-name="path2890-7" class="cls-4" d="M72.92,114.69c-.46-.09-.78-.13-1.14-.22C70.85,116.28,73,116.94,72.92,114.69Zm0-.48a4.24,4.24,0,0,0,.39-2.32c-.1-.67-.31-1.57-1.21-1.33-.41.16-.67.71-.73,1.56a1.6,1.6,0,0,0,.2,1,2.13,2.13,0,0,1,.22.89Z"/><path id="path2890-6" data-name="path2890" class="cls-4" d="M75.55,134.65c.38-.27.66-.44,1-.67C78.08,135.26,76.39,136.73,75.55,134.65Zm.74-1-1,.6a4.25,4.25,0,0,1-1.29-2c-.18-.65-.35-1.56.57-1.71.44,0,.91.39,1.3,1.14a1.56,1.56,0,0,1,.23,1,2.14,2.14,0,0,0,.16.9Z"/><path id="path2890-7-6" data-name="path2890-7" class="cls-4" d="M76.75,127.83c-.47,0-.79,0-1.17,0C75,129.79,77.25,130,76.75,127.83Zm-.06-.48a4.18,4.18,0,0,0-.07-2.35c-.22-.63-.6-1.48-1.44-1.07-.37.24-.52.83-.41,1.68a1.52,1.52,0,0,0,.4,1,2.26,2.26,0,0,1,.39.83Z"/><path id="path2890-7-7" data-name="path2890" class="cls-4" d="M74,148.22c.45-.12.77-.18,1.13-.29C76.17,149.68,74.07,150.47,74,148.22Zm1-.7-1.12.22a4.29,4.29,0,0,1-.52-2.29c.06-.68.22-1.59,1.13-1.41.43.14.72.68.82,1.53a1.61,1.61,0,0,1-.14,1.05,2.15,2.15,0,0,0-.17.9Z"/><path id="path2890-7-8" data-name="path2890-7" class="cls-4" d="M77.51,142.26l-1.09-.41C75.21,143.49,77.22,144.49,77.51,142.26Zm.12-.48a4.26,4.26,0,0,0,.76-2.22c0-.68-.06-1.6-1-1.51-.44.09-.78.6-1,1.43a1.57,1.57,0,0,0,0,1.06,2.33,2.33,0,0,1,.07.91C76.91,141.55,77.26,141.67,77.63,141.78Z"/><path id="path2890-8" data-name="path2890" class="cls-4" d="M75.44,162.42c.42-.21.72-.34,1-.52C77.86,163.41,76,164.61,75.44,162.42Zm.89-.9-1,.44a4.23,4.23,0,0,1-1-2.14c-.09-.67-.11-1.6.82-1.6.44.05.83.52,1.11,1.32a1.59,1.59,0,0,1,.07,1.06,2.38,2.38,0,0,0,0,.92Z"/><path id="path2890-7-9" data-name="path2890-7" class="cls-4" d="M77.66,155.87c-.46-.08-.78-.11-1.15-.18C75.66,157.54,77.83,158.11,77.66,155.87Zm0-.49a4.26,4.26,0,0,0,.29-2.33c-.12-.67-.38-1.56-1.26-1.28-.41.18-.65.74-.67,1.59a1.55,1.55,0,0,0,.25,1,2.18,2.18,0,0,1,.26.88Z"/><path id="path2890-9" data-name="path2890" class="cls-4" d="M75.89,176.24l1.1-.38C78.16,177.52,76.13,178.48,75.89,176.24Zm1-.79-1.09.32a4.27,4.27,0,0,1-.71-2.25c0-.67.09-1.59,1-1.49.44.11.77.62,1,1.45a1.61,1.61,0,0,1-.06,1.06,2.34,2.34,0,0,0-.1.91Z"/><path id="path2890-7-10" data-name="path2890-7" class="cls-4" d="M78.89,170c-.46-.13-.77-.2-1.13-.32C76.69,171.42,78.78,172.26,78.89,170Zm.07-.48a4.21,4.21,0,0,0,.57-2.28c0-.68-.18-1.59-1.1-1.43-.42.13-.72.66-.85,1.51a1.55,1.55,0,0,0,.12,1,2.13,2.13,0,0,1,.15.9Z"/><path id="path2890-10" data-name="path2890" class="cls-4" d="M73,189.64c.46-.09.78-.14,1.14-.22C75.1,191.23,73,191.88,73,189.64Zm1.09-.64c-.38,0-.75.1-1.13.15a4.33,4.33,0,0,1-.38-2.32c.1-.67.32-1.57,1.22-1.33.41.17.67.72.72,1.57a1.54,1.54,0,0,1-.21,1,2.29,2.29,0,0,0-.22.89Z"/><path id="path2890-7-11" data-name="path2890-7" class="cls-4" d="M76.91,183.9c-.43-.19-.73-.31-1.07-.47C74.53,185,76.48,186.11,76.91,183.9Zm.14-.46a4.23,4.23,0,0,0,.89-2.18c.06-.67,0-1.6-.88-1.57-.44.07-.82.55-1.06,1.37a1.56,1.56,0,0,0,0,1.06,2.2,2.2,0,0,1,0,.92C76.34,183.16,76.69,183.3,77.05,183.44Z"/><path id="path2890-11" data-name="path2890" class="cls-4" d="M82.82,200.85c.18-.44.31-.73.44-1.09C85.28,200,84.67,202.14,82.82,200.85Zm.06-1.27-.48,1a4.26,4.26,0,0,1-2.16-.94c-.5-.45-1.14-1.12-.45-1.74.36-.26,1-.18,1.71.24a1.6,1.6,0,0,1,.76.74,2.21,2.21,0,0,0,.62.67Z"/><path id="path2890-7-12" data-name="path2890-7" class="cls-4" d="M80.11,194.48c-.39.26-.65.45-1,.64C79.73,197.06,81.73,196,80.11,194.48Zm-.31-.37c0-.47-1-1.73-1.34-1.93-.53-.41-1.32-.91-1.8-.12-.18.41,0,1,.57,1.64a1.61,1.61,0,0,0,.88.6,2.42,2.42,0,0,1,.78.48Z"/><path id="path2890-12" data-name="path2890" class="cls-4" d="M98.47,201c-.08-.46-.11-.78-.19-1.15C100.12,199,100.71,201.14,98.47,201Zm-.6-1.11c0,.38.07.75.11,1.13a4.15,4.15,0,0,1-2.33.31c-.66-.12-1.56-.36-1.29-1.25.18-.41.74-.65,1.59-.68a1.6,1.6,0,0,1,1,.24,2.23,2.23,0,0,0,.88.25Z"/><path id="path2890-7-13" data-name="path2890-7" class="cls-4" d="M92.85,197c-.2.43-.33.73-.5,1.06C93.87,199.36,95.05,197.45,92.85,197Zm-.46-.15a4.13,4.13,0,0,0-2.14-1c-.67-.08-1.6-.1-1.6.83,0,.45.52.84,1.33,1.11a1.64,1.64,0,0,0,1.06.06,2.19,2.19,0,0,1,.92,0C92.1,197.5,92.24,197.15,92.39,196.8Z"/></g></g></svg>