<svg xmlns="http://www.w3.org/2000/svg" viewBox="0 0 276 276"><defs><style>.cls-1{fill:#fff;}.cls-1,.cls-2{stroke:#231f20;}.cls-1,.cls-2,.cls-3{stroke-miterlimit:10;}.cls-2,.cls-3{fill:none;}.cls-2{stroke-width:0.25px;}.cls-3{stroke:#ed1c24;stroke-width:2px;}.cls-4{fill:#404040;}</style></defs><title>item15</title><g id="Layer_2" data-name="Layer 2"><g id="item15"><rect class="cls-1" x="0.5" y="0.5" width="275" height="275"/><rect class="cls-2" x="42.62" y="81.96" width="30" height="90"/><line class="cls-2" x1="42.62" y1="141.96" x2="72.62" y2="141.96"/><line class="cls-2" x1="42.62" y1="111.96" x2="72.62" y2="111.96"/><g id="item15 side" data-name="item15 side"><rect class="cls-1" x="85.77" y="77.27" width="179.18" height="134.39" rx="10.75" transform="translate(-17.02 265.34) rotate(-71.62)"/><circle class="cls-1" cx="194.31" cy="216.51" r="17.92"/><circle class="cls-1" cx="155.69" cy="203.68" r="17.92"/><circle class="cls-1" cx="117.07" cy="190.85" r="17.92"/><circle class="cls-1" cx="207.42" cy="177.03" r="17.92"/><circle class="cls-1" cx="168.8" cy="164.2" r="17.92"/><circle class="cls-1" cx="130.19" cy="151.37" r="17.92"/><circle class="cls-1" cx="220.53" cy="137.56" r="17.92"/><circle class="cls-1" cx="181.91" cy="124.73" r="17.92"/><circle class="cls-1" cx="143.3" cy="111.9" r="17.92"/><circle class="cls-1" cx="233.65" cy="98.08" r="17.92"/><circle class="cls-1" cx="195.03" cy="85.26" r="17.92"/><circle class="cls-1" cx="156.41" cy="72.43" r="17.92"/></g><rect class="cls-3" x="42.62" y="81.96" width="30" height="30"/><rect class="cls-2" x="42.62" y="141.96" width="30" height="30"/><rect class="cls-2" x="42.62" y="171.96" width="30" height="30"/><path id="path2890" class="cls-4" d="M68.28,192.42c.17.44.27.75.42,1.09C67.08,194.74,66.05,192.75,68.28,192.42Zm.82,1c-.11-.36-.23-.72-.35-1.08a4.32,4.32,0,0,1,2.21-.79c.68,0,1.6,0,1.53,1-.09.43-.59.79-1.42,1a1.52,1.52,0,0,1-1.06,0,2.33,2.33,0,0,0-.91-.06Z"/><path id="path2890-7" class="cls-4" d="M74.62,195.19c.11-.45.17-.77.27-1.13C73.12,193.05,72.37,195.17,74.62,195.19Zm.48.06a4.32,4.32,0,0,0,2.3.49c.67-.07,1.58-.24,1.38-1.15-.14-.42-.68-.71-1.53-.8a1.59,1.59,0,0,0-1,.16,2.16,2.16,0,0,1-.9.18C75.24,194.51,75.17,194.88,75.1,195.25Z"/><path id="path2890-2" data-name="path2890" class="cls-4" d="M54.28,193.36c.18.44.28.75.42,1.09C53.09,195.68,52.06,193.69,54.28,193.36Zm.82,1c-.11-.36-.23-.72-.35-1.08a4.3,4.3,0,0,1,2.22-.79c.67,0,1.6,0,1.52,1-.08.43-.58.79-1.41,1a1.52,1.52,0,0,1-1.06,0,2.38,2.38,0,0,0-.92-.06Z"/><path id="path2890-7-2" data-name="path2890-7" class="cls-4" d="M60.62,196.13c.11-.45.17-.77.27-1.13C59.13,194,58.37,196.11,60.62,196.13Zm.48.06a4.32,4.32,0,0,0,2.3.49c.67-.07,1.59-.24,1.39-1.15-.15-.42-.69-.71-1.54-.8a1.6,1.6,0,0,0-1,.16,2.09,2.09,0,0,1-.89.18Z"/><path id="path2890-3" data-name="path2890" class="cls-4" d="M40.29,194.3c.17.44.27.74.42,1.09C39.09,196.62,38.06,194.63,40.29,194.3Zm.82,1c-.11-.36-.23-.72-.35-1.08a4.18,4.18,0,0,1,2.21-.79c.68,0,1.6,0,1.53,1-.09.44-.59.79-1.42,1a1.58,1.58,0,0,1-1.06,0,2.33,2.33,0,0,0-.91-.06Z"/><path id="path2890-7-3" data-name="path2890-7" class="cls-4" d="M46.63,197.07c.11-.45.17-.77.27-1.13C45.13,194.93,44.38,197.05,46.63,197.07Zm.48.06a4.32,4.32,0,0,0,2.3.49c.67-.07,1.58-.25,1.38-1.15-.14-.43-.68-.71-1.53-.8a1.59,1.59,0,0,0-1,.16,2.33,2.33,0,0,1-.9.18C47.25,196.38,47.18,196.75,47.11,197.13Z"/><path id="path2890-4" data-name="path2890" class="cls-4" d="M54.68,91.17c.39-.25.67-.41,1-.62C57.18,91.9,55.43,93.3,54.68,91.17Zm.78-1-1,.56a4.37,4.37,0,0,1-1.2-2c-.15-.66-.28-1.58.64-1.68.45,0,.89.42,1.26,1.19a1.57,1.57,0,0,1,.18,1,2.16,2.16,0,0,0,.12.91Z"/><path id="path2890-7-4" data-name="path2890-7" class="cls-4" d="M56.17,84.42c-.47,0-.79,0-1.17,0C54.36,86.3,56.58,86.63,56.17,84.42Zm0-.48a4.31,4.31,0,0,0,0-2.36c-.2-.64-.55-1.5-1.4-1.13-.39.22-.56.81-.49,1.66a1.62,1.62,0,0,0,.36,1A2.17,2.17,0,0,1,55,84Z"/><path id="path2890-5" data-name="path2890" class="cls-4" d="M52.78,104.43c.46-.08.78-.11,1.15-.19C54.81,106.07,52.65,106.68,52.78,104.43Zm1.1-.61-1.13.13a4.25,4.25,0,0,1-.33-2.33c.12-.66.35-1.56,1.24-1.3.42.17.66.73.7,1.58a1.53,1.53,0,0,1-.24,1,2.31,2.31,0,0,0-.24.88Z"/><path id="path2890-7-5" data-name="path2890-7" class="cls-4" d="M56.77,98.78c-.43-.2-.73-.32-1.06-.49C54.37,99.82,56.29,101,56.77,98.78Zm.15-.46a4.26,4.26,0,0,0,.94-2.15c.07-.67.08-1.6-.85-1.59-.44.06-.83.53-1.09,1.34A1.51,1.51,0,0,0,55.87,97a2.2,2.2,0,0,1,0,.92C56.22,98,56.57,98.18,56.92,98.32Z"/><path id="path2890-6" data-name="path2890" class="cls-4" d="M55.39,118.57c.42-.21.72-.33,1-.51C57.81,119.56,55.91,120.76,55.39,118.57Zm.88-.9c-.35.14-.69.29-1,.45a4.2,4.2,0,0,1-1-2.14c-.09-.67-.12-1.6.81-1.6.45,0,.84.51,1.12,1.32a1.58,1.58,0,0,1,.07,1.06,2.32,2.32,0,0,0,0,.91Z"/><path id="path2890-7-6" data-name="path2890-7" class="cls-4" d="M57.59,112l-1.15-.17C55.59,113.69,57.77,114.26,57.59,112Zm0-.49a4.25,4.25,0,0,0,.28-2.33c-.12-.67-.38-1.56-1.26-1.28-.41.18-.65.75-.67,1.6a1.55,1.55,0,0,0,.26,1,2.42,2.42,0,0,1,.26.88Z"/><path id="path2890-7-7" data-name="path2890" class="cls-4" d="M54.54,132.35c.45-.13.76-.2,1.12-.31C56.73,133.77,54.64,134.6,54.54,132.35Zm1-.72c-.37.07-.74.16-1.11.24a4.28,4.28,0,0,1-.57-2.28c0-.67.19-1.59,1.1-1.43.43.13.73.67.86,1.51a1.61,1.61,0,0,1-.13,1.05,2.38,2.38,0,0,0-.15.91Z"/><path id="path2890-7-8" data-name="path2890-7" class="cls-4" d="M57.91,126.31c-.44-.15-.75-.24-1.1-.38C55.64,127.59,57.67,128.55,57.91,126.31Zm.11-.47a4.3,4.3,0,0,0,.71-2.24c0-.68-.09-1.6-1-1.49-.44.1-.77.61-.95,1.45a1.63,1.63,0,0,0,.06,1.06,2.16,2.16,0,0,1,.09.91Z"/><path id="path2890-8" data-name="path2890" class="cls-4" d="M54.1,146.43l1.1-.38C56.37,147.71,54.34,148.66,54.1,146.43Zm1-.79L54,146a4.21,4.21,0,0,1-.71-2.24c0-.67.08-1.59,1-1.49.43.1.77.62.94,1.45a1.56,1.56,0,0,1,0,1.06,2.17,2.17,0,0,0-.1.91Z"/><path id="path2890-7-9" data-name="path2890-7" class="cls-4" d="M57.09,140.19c-.45-.13-.77-.2-1.13-.31C54.9,141.61,57,142.44,57.09,140.19Zm.07-.48a4.25,4.25,0,0,0,.57-2.28c0-.67-.19-1.59-1.1-1.42-.43.13-.73.66-.85,1.5a1.58,1.58,0,0,0,.12,1.06,2.13,2.13,0,0,1,.15.9C56.42,139.54,56.79,139.63,57.16,139.71Z"/><path id="path2890-9" data-name="path2890" class="cls-4" d="M54.06,160.32c.45-.15.76-.23,1.12-.36C56.31,161.65,54.25,162.56,54.06,160.32Zm1-.76c-.37.08-.73.18-1.1.28a4.24,4.24,0,0,1-.65-2.26c0-.67.12-1.59,1-1.46.43.11.76.63.91,1.47a1.54,1.54,0,0,1-.08,1.06,2.31,2.31,0,0,0-.12.91Z"/><path id="path2890-7-10" data-name="path2890-7" class="cls-4" d="M57.22,154.16c-.45-.14-.77-.22-1.12-.34C55,155.52,57.05,156.4,57.22,154.16Zm.08-.48a4.25,4.25,0,0,0,.63-2.27c0-.67-.15-1.59-1.06-1.45-.43.12-.75.65-.9,1.49a1.56,1.56,0,0,0,.1,1.05,2.19,2.19,0,0,1,.13.91C56.57,153.49,56.93,153.59,57.3,153.68Z"/><path id="path2890-10" data-name="path2890" class="cls-4" d="M57.39,174.33c.41-.24.69-.39,1-.6C59.88,175.12,58.09,176.47,57.39,174.33Zm.81-1-1,.53a4.29,4.29,0,0,1-1.15-2c-.13-.66-.24-1.58.69-1.66.44,0,.88.44,1.22,1.22a1.58,1.58,0,0,1,.16,1,2.15,2.15,0,0,0,.09.91Z"/><path id="path2890-7-11" data-name="path2890-7" class="cls-4" d="M59.06,167.62c-.47,0-.79,0-1.17-.08C57.2,169.45,59.41,169.84,59.06,167.62Zm0-.49a4.27,4.27,0,0,0,.1-2.35c-.18-.65-.51-1.51-1.37-1.17-.39.22-.58.8-.53,1.65a1.61,1.61,0,0,0,.34,1,2.32,2.32,0,0,1,.33.85Z"/><path id="path2890-11" data-name="path2890" class="cls-4" d="M67.15,185.21c.15-.44.27-.74.37-1.1C69.55,184.2,69.07,186.39,67.15,185.21Zm0-1.26L66.71,185a4.29,4.29,0,0,1-2.21-.82c-.53-.41-1.21-1-.56-1.71.35-.28,1-.23,1.73.14a1.6,1.6,0,0,1,.8.7,2.2,2.2,0,0,0,.66.63Z"/><path id="path2890-7-12" data-name="path2890-7" class="cls-4" d="M64.06,179c-.38.28-.63.48-.94.69C63.83,181.63,65.77,180.49,64.06,179Zm-.34-.36c0-.46-1.12-1.66-1.45-1.84-.56-.38-1.37-.83-1.8,0-.16.42.08,1,.67,1.6a1.57,1.57,0,0,0,.9.55,2,2,0,0,1,.81.43Z"/><path id="path2890-12" data-name="path2890" class="cls-4" d="M82.73,184.67c-.11-.46-.16-.78-.25-1.14C84.26,182.56,85,184.69,82.73,184.67Zm-.67-1.07c.06.37.12.74.19,1.12a4.34,4.34,0,0,1-2.31.45c-.67-.08-1.58-.28-1.37-1.18.15-.42.7-.69,1.55-.77a1.59,1.59,0,0,1,1,.18,2.1,2.1,0,0,0,.89.2Z"/><path id="path2890-7-13" data-name="path2890-7" class="cls-4" d="M76.88,181c-.18.44-.28.74-.44,1.08C78,183.31,79.1,181.34,76.88,181Zm-.46-.13a4.28,4.28,0,0,0-2.21-.83c-.67,0-1.6,0-1.54.93.08.44.58.8,1.4,1a1.59,1.59,0,0,0,1.06,0,2.19,2.19,0,0,1,.92,0C76.16,181.56,76.29,181.2,76.42,180.84Z"/></g></g></svg>