<svg xmlns="http://www.w3.org/2000/svg" viewBox="0 0 276 276"><defs><style>.cls-1{fill:#fff;}.cls-1,.cls-2,.cls-3{stroke:#231f20;stroke-miterlimit:10;}.cls-2,.cls-3,.cls-4{fill:none;}.cls-3{stroke-width:0.25px;}.cls-5{fill:#404040;}</style></defs><title>item13</title><g id="Layer_2" data-name="Layer 2"><g id="hairbrush2"><g id="Layer_1-2" data-name="Layer 1-2"><rect class="cls-1" x="115.2" y="89.81" width="4.91" height="27.51" transform="translate(-39.01 108.51) rotate(-43.16)"/><path class="cls-1" d="M124.68,129.55h0l-.31-.34a12.65,12.65,0,0,1,18.44-17.3l.32.34h0l52.47,55.94-18.51,17.37-52.47-55.95Z"/><circle class="cls-1" cx="205.23" cy="196.88" r="32.98"/><circle class="cls-2" cx="205.23" cy="196.88" r="20.1"/><circle class="cls-2" cx="205.23" cy="196.88" r="16.4"/><circle class="cls-2" cx="205.23" cy="196.88" r="12.69"/><circle class="cls-2" cx="205.23" cy="196.88" r="8.99"/><path class="cls-1" d="M218.92,211.47l-7.61-8.11"/><polyline class="cls-2" points="191.48 182.22 205.23 196.88 201.91 216.63"/><line class="cls-2" x1="205.23" y1="196.88" x2="225.16" y2="194.57"/><line class="cls-2" x1="209.01" y1="177.08" x2="206.89" y2="188.08"/><line class="cls-2" x1="185.5" y1="199.13" x2="196.28" y2="198.03"/></g><rect class="cls-3" x="35.37" y="129.72" width="30" height="60"/><line class="cls-3" x1="35.37" y1="159.72" x2="65.37" y2="159.72"/><rect class="cls-3" x="35.37" y="69.72" width="30" height="60"/><line class="cls-3" x1="35.37" y1="99.72" x2="65.37" y2="99.72"/><rect class="cls-2" x="0.5" y="0.5" width="275" height="275"/><rect class="cls-4" x="66.01" y="106.97" width="4.66" height="11.69" transform="translate(-50.06 170.95) rotate(-84.94)"/><path id="path2890" class="cls-5" d="M64,110.83c.1.46.15.78.24,1.14C62.46,112.94,61.75,110.81,64,110.83Zm.66,1.07c0-.37-.12-.74-.18-1.12a4.31,4.31,0,0,1,2.31-.44c.67.09,1.58.28,1.36,1.18-.15.42-.7.69-1.55.77a1.65,1.65,0,0,1-1-.18,2.28,2.28,0,0,0-.89-.21Z"/><path id="path2890-7" class="cls-5" d="M69.83,114.55c.18-.44.29-.74.44-1.08C68.68,112.2,67.61,114.17,69.83,114.55Zm.47.13a4.28,4.28,0,0,0,2.19.84c.68,0,1.6,0,1.55-.93-.08-.44-.57-.8-1.39-1a1.54,1.54,0,0,0-1.06,0,2.2,2.2,0,0,1-.92,0C70.55,114,70.42,114.32,70.3,114.68Z"/><rect class="cls-4" x="48.77" y="110.86" width="11.69" height="4.66" transform="translate(-16.39 9.5) rotate(-8.65)"/><path id="path2890-2" data-name="path2890" class="cls-5" d="M49.92,112.29c.21.42.34.72.51,1C48.92,114.7,47.73,112.8,49.92,112.29Zm.9.89c-.14-.35-.29-.7-.44-1.05a4.15,4.15,0,0,1,2.14-1c.67-.08,1.6-.11,1.6.82,0,.44-.52.84-1.32,1.11a1.59,1.59,0,0,1-1.06.07,2.19,2.19,0,0,0-.92,0Z"/><path id="path2890-7-2" data-name="path2890-7" class="cls-5" d="M56.47,114.52c.07-.47.11-.79.18-1.15C54.8,112.51,54.23,114.68,56.47,114.52Zm.49,0a4.23,4.23,0,0,0,2.33.29c.66-.12,1.55-.38,1.28-1.26-.18-.41-.74-.65-1.59-.67a1.6,1.6,0,0,0-1,.25,2.42,2.42,0,0,1-.88.26C57,113.78,57,114.16,57,114.54Z"/><rect class="cls-4" x="42.28" y="121.29" width="11.69" height="4.66" transform="translate(-79.28 160.59) rotate(-84.91)"/><path id="path2890-3" data-name="path2890" class="cls-5" d="M46.14,128c.46-.1.78-.16,1.14-.25C48.25,129.51,46.12,130.22,46.14,128Zm1.07-.66-1.12.18a4.25,4.25,0,0,1-.43-2.32c.08-.66.27-1.57,1.18-1.35.41.15.69.7.76,1.55a1.62,1.62,0,0,1-.18,1,2.37,2.37,0,0,0-.21.9Z"/><path id="path2890-7-3" data-name="path2890-7" class="cls-5" d="M49.86,122.14c-.43-.18-.74-.29-1.08-.45C47.51,123.28,49.49,124.36,49.86,122.14Zm.13-.47a4.26,4.26,0,0,0,.84-2.2c0-.67,0-1.6-.92-1.54-.44.07-.8.57-1,1.39a1.59,1.59,0,0,0,0,1.06,2.38,2.38,0,0,1,0,.92C49.28,121.41,49.63,121.54,50,121.67Z"/><rect class="cls-4" x="47.16" y="131.73" width="4.66" height="11.69" transform="translate(-11.04 4.49) rotate(-4.67)"/><path id="path2890-4" data-name="path2890" class="cls-5" d="M48.27,142.2c.43-.18.74-.28,1.08-.44C50.61,143.36,48.63,144.42,48.27,142.2Zm.95-.84-1.08.37a4.24,4.24,0,0,1-.82-2.2c0-.68,0-1.6.93-1.54.44.08.8.57,1,1.4a1.53,1.53,0,0,1,0,1.06,2.33,2.33,0,0,0,0,.91Z"/><path id="path2890-7-4" data-name="path2890-7" class="cls-5" d="M51,135.82c-.46-.1-.78-.16-1.14-.25C48.83,137.35,51,138.07,51,135.82Zm0-.48a4.32,4.32,0,0,0,.45-2.31c-.08-.67-.26-1.58-1.17-1.37-.42.15-.69.7-.78,1.55a1.65,1.65,0,0,0,.18,1,2.27,2.27,0,0,1,.2.89Z"/><rect class="cls-4" x="48.3" y="145.71" width="4.66" height="11.69" transform="translate(-12.18 4.63) rotate(-4.67)"/><path id="path2890-5" data-name="path2890" class="cls-5" d="M49.41,156.18c.44-.18.74-.29,1.08-.44C51.75,157.34,49.77,158.4,49.41,156.18Zm1-.84-1.08.37a4.24,4.24,0,0,1-.82-2.2c0-.68,0-1.6.93-1.54.44.08.8.57,1,1.4a1.59,1.59,0,0,1,0,1.06,2.15,2.15,0,0,0,0,.91Z"/><path id="path2890-7-5" data-name="path2890-7" class="cls-5" d="M52.09,149.8c-.46-.1-.78-.16-1.14-.25C50,151.33,52.1,152.05,52.09,149.8Zm0-.48a4.32,4.32,0,0,0,.45-2.31c-.07-.67-.26-1.58-1.17-1.37-.42.15-.69.7-.77,1.55a1.59,1.59,0,0,0,.17,1.05,2.1,2.1,0,0,1,.2.89Z"/><rect class="cls-4" x="45.23" y="163.22" width="11.69" height="4.66" transform="translate(-117.26 206.49) rotate(-86.52)"/><path id="path2890-6" data-name="path2890" class="cls-5" d="M49.21,170c.46-.12.77-.18,1.13-.28C51.36,171.43,49.25,172.2,49.21,170Zm1.06-.7-1.12.21a4.18,4.18,0,0,1-.5-2.29c.06-.67.23-1.59,1.14-1.39.42.14.71.68.81,1.52a1.58,1.58,0,0,1-.16,1,2.15,2.15,0,0,0-.17.9Z"/><path id="path2890-7-6" data-name="path2890-7" class="cls-5" d="M52.77,164l-1.1-.41C50.45,165.22,52.45,166.24,52.77,164Zm.12-.47a4.27,4.27,0,0,0,.77-2.22c0-.67,0-1.6-1-1.52-.44.09-.79.59-1,1.42a1.58,1.58,0,0,0,0,1.06,2.21,2.21,0,0,1,.07.92Z"/><rect class="cls-4" x="44.38" y="177.22" width="11.69" height="4.66" transform="translate(-132.04 218.79) rotate(-86.52)"/><path id="path2890-7-7" data-name="path2890" class="cls-5" d="M48.36,184c.46-.12.77-.18,1.13-.28C50.51,185.43,48.4,186.2,48.36,184Zm1.06-.7-1.12.21a4.18,4.18,0,0,1-.5-2.29c.06-.67.23-1.59,1.14-1.39.42.14.71.68.81,1.52a1.58,1.58,0,0,1-.16,1,2.15,2.15,0,0,0-.17.9Z"/><path id="path2890-7-8" data-name="path2890-7" class="cls-5" d="M51.92,178l-1.1-.41C49.6,179.22,51.6,180.24,51.92,178Zm.11-.47a4.2,4.2,0,0,0,.78-2.22c0-.67,0-1.6-1-1.52-.44.09-.79.59-1,1.42a1.58,1.58,0,0,0,0,1.06,2.21,2.21,0,0,1,.07.92Z"/><rect class="cls-4" x="43.53" y="191.22" width="11.69" height="4.66" transform="translate(-146.81 231.09) rotate(-86.52)"/><path id="path2890-8" data-name="path2890" class="cls-5" d="M47.51,198c.46-.12.77-.18,1.13-.28C49.66,199.43,47.55,200.2,47.51,198Zm1.06-.7-1.12.21a4.18,4.18,0,0,1-.5-2.29c.06-.67.23-1.59,1.14-1.39.42.14.71.68.81,1.52a1.62,1.62,0,0,1-.16,1.06,2.08,2.08,0,0,0-.17.89Z"/><path id="path2890-7-9" data-name="path2890-7" class="cls-5" d="M51.07,192,50,191.6C48.75,193.22,50.75,194.24,51.07,192Zm.11-.47a4.2,4.2,0,0,0,.78-2.22c0-.67,0-1.6-1-1.52-.44.09-.79.59-1,1.42a1.58,1.58,0,0,0,0,1.06,2.21,2.21,0,0,1,.07.92Z"/><rect class="cls-2" x="0.5" y="0.5" width="275" height="275"/></g></g></svg>