<svg xmlns="http://www.w3.org/2000/svg" viewBox="0 0 276 276"><defs><style>.cls-1{fill:#fff;}.cls-1,.cls-2{stroke:#231f20;stroke-miterlimit:10;}.cls-2,.cls-3{fill:none;}.cls-2{stroke-width:0.25px;}.cls-4{fill:#404040;}</style></defs><title>item16</title><g id="Layer_2" data-name="Layer 2"><g id="item16"><rect class="cls-1" x="0.5" y="0.5" width="275" height="275"/><rect class="cls-2" x="73.67" y="123.51" width="30" height="60"/><line class="cls-2" x1="73.67" y1="153.51" x2="103.67" y2="153.51"/><g id="Layer_1-2" data-name="Layer 1-2"><rect class="cls-1" x="145.51" y="91.11" width="50" height="100" transform="translate(-48.14 175.4) rotate(-48.52)"/><rect class="cls-1" x="187.98" y="102.52" width="1.56" height="40.63" transform="translate(-28.29 182.9) rotate(-48.52)"/><rect class="cls-1" x="207.19" y="173.17" width="6.25" height="6.25" transform="translate(-61.07 217.11) rotate(-48.52)"/></g><rect class="cls-3" x="60.74" y="133.69" width="11.69" height="4.66" transform="translate(-12.74 7.01) rotate(-5.5)"/><path id="path2890" class="cls-4" d="M71.22,137.17c-.18-.43-.29-.73-.45-1.07C72.35,134.82,73.44,136.78,71.22,137.17Zm-.85-.93c.12.36.25.71.38,1.07a4.21,4.21,0,0,1-2.19.85c-.67.05-1.6,0-1.55-.91.07-.44.56-.8,1.38-1a1.64,1.64,0,0,1,1.07,0,2.15,2.15,0,0,0,.91,0Z"/><path id="path2890-7" class="cls-4" d="M64.8,134.59c-.09.46-.14.78-.23,1.14C66.36,136.68,67.05,134.55,64.8,134.59Zm-.48-.05a4.22,4.22,0,0,0-2.31-.41c-.67.08-1.58.28-1.35,1.18.15.42.7.69,1.55.76a1.57,1.57,0,0,0,1-.19,2.11,2.11,0,0,1,.89-.21C64.2,135.29,64.26,134.92,64.32,134.54Z"/><rect class="cls-3" x="78.09" y="130.17" width="4.66" height="11.69" transform="translate(-62.53 203.34) rotate(-84.63)"/><path id="path2890-2" data-name="path2890" class="cls-4" d="M84.75,138c-.1-.46-.15-.78-.24-1.14C86.31,135.92,87,138.06,84.75,138Zm-.65-1.08c.05.38.11.75.17,1.13a4.22,4.22,0,0,1-2.31.42c-.67-.08-1.58-.28-1.35-1.19.15-.41.7-.68,1.55-.75a1.54,1.54,0,0,1,1,.19,2.36,2.36,0,0,0,.9.2Z"/><path id="path2890-7-2" data-name="path2890-7" class="cls-4" d="M78.94,134.27c-.18.43-.29.74-.45,1.08C80.08,136.62,81.16,134.66,78.94,134.27Zm-.46-.13a4.19,4.19,0,0,0-2.2-.85c-.67,0-1.6,0-1.55.91.08.44.57.81,1.39,1a1.59,1.59,0,0,0,1.06,0,2.2,2.2,0,0,1,.92,0C78.22,134.85,78.34,134.5,78.48,134.14Z"/><rect class="cls-3" x="85.26" y="140.76" width="4.66" height="11.69" transform="translate(-10.96 7.13) rotate(-4.39)"/><path id="path2890-3" data-name="path2890" class="cls-4" d="M86.35,151.22c.43-.18.74-.28,1.08-.43C88.68,152.4,86.69,153.44,86.35,151.22Zm1-.83-1.08.36a4.25,4.25,0,0,1-.81-2.2c0-.68,0-1.61.94-1.54.44.08.8.58,1,1.4a1.56,1.56,0,0,1,0,1.07,2.15,2.15,0,0,0,0,.91Z"/><path id="path2890-7-3" data-name="path2890-7" class="cls-4" d="M89.06,144.86l-1.14-.26C86.93,146.37,89.05,147.11,89.06,144.86Zm0-.49a4.21,4.21,0,0,0,.47-2.3c-.08-.67-.26-1.58-1.17-1.37-.42.14-.7.69-.78,1.54a1.6,1.6,0,0,0,.17,1,2.26,2.26,0,0,1,.19.89Z"/><rect class="cls-3" x="81.25" y="158.3" width="11.69" height="4.66" transform="translate(-76.53 241.95) rotate(-87.96)"/><path id="path2890-4" data-name="path2890" class="cls-4" d="M85.34,165.07c.45-.13.77-.19,1.13-.31C87.53,166.5,85.44,167.32,85.34,165.07Zm1-.72c-.37.07-.74.16-1.11.24a4.2,4.2,0,0,1-.56-2.28c0-.68.19-1.59,1.1-1.42.43.13.73.66.85,1.5a1.57,1.57,0,0,1-.13,1.06,2.3,2.3,0,0,0-.15.9Z"/><path id="path2890-7-4" data-name="path2890-7" class="cls-4" d="M88.75,159.05c-.45-.16-.76-.25-1.11-.39C86.46,160.32,88.49,161.28,88.75,159.05Zm.1-.47a4.22,4.22,0,0,0,.72-2.24c0-.68-.08-1.6-1-1.5-.43.1-.77.61-.95,1.45a1.56,1.56,0,0,0,0,1.06,2.16,2.16,0,0,1,.09.91Z"/><rect class="cls-3" x="85.05" y="168.8" width="4.66" height="11.69" transform="translate(-6.79 3.57) rotate(-2.25)"/><path id="path2890-5" data-name="path2890" class="cls-4" d="M86,179.21c.45-.17.76-.26,1.1-.4C88.25,180.46,86.23,181.44,86,179.21Zm1-.8-1.09.32a4.23,4.23,0,0,1-.73-2.23c0-.68.07-1.6,1-1.5.44.1.78.61,1,1.44a1.56,1.56,0,0,1,0,1.06,2.16,2.16,0,0,0-.08.91Z"/><path id="path2890-7-5" data-name="path2890-7" class="cls-4" d="M88.91,173c-.45-.13-.77-.2-1.13-.31C86.73,174.38,88.82,175.19,88.91,173Zm.07-.48a4.22,4.22,0,0,0,.55-2.29c0-.67-.2-1.59-1.11-1.42-.42.14-.72.67-.84,1.52a1.55,1.55,0,0,0,.13,1.05,2.14,2.14,0,0,1,.16.9Z"/><rect class="cls-3" x="86.25" y="182.75" width="4.66" height="11.69" transform="translate(-25.12 13.99) rotate(-7.91)"/><path id="path2890-6" data-name="path2890" class="cls-4" d="M87.62,193.28c.42-.2.72-.32,1.06-.5C90,194.31,88.1,195.48,87.62,193.28Zm.9-.89-1.06.43a4.26,4.26,0,0,1-.94-2.15c-.07-.67-.09-1.6.84-1.59.45,0,.83.53,1.1,1.34a1.57,1.57,0,0,1,.05,1.06,2.15,2.15,0,0,0,0,.91Z"/><path id="path2890-7-6" data-name="path2890-7" class="cls-4" d="M89.93,186.76c-.46-.08-.78-.11-1.15-.19C87.91,188.41,90.07,189,89.93,186.76Zm0-.48a4.37,4.37,0,0,0,.32-2.33c-.12-.67-.36-1.56-1.25-1.3-.41.17-.65.73-.68,1.59a1.57,1.57,0,0,0,.23,1,2.33,2.33,0,0,1,.25.88Z"/><rect class="cls-2" x="73.67" y="93.51" width="30" height="30"/></g></g></svg>