<svg xmlns="http://www.w3.org/2000/svg" viewBox="0 0 276 276"><defs><style>.cls-1{fill:#fff;}.cls-1,.cls-2,.cls-3{stroke:#231f20;}.cls-1,.cls-2,.cls-3,.cls-4{stroke-miterlimit:10;}.cls-2,.cls-3,.cls-4,.cls-5{fill:none;}.cls-3{stroke-width:0.25px;}.cls-4{stroke:#ed1c24;stroke-width:2px;}.cls-6{fill:#404040;}</style></defs><title>item4</title><g id="Layer_2" data-name="Layer 2"><g id="item4"><rect class="cls-1" x="0.5" y="0.5" width="275" height="275"/><g id="item4_side" data-name="item4 side"><circle class="cls-2" cx="155.83" cy="148.58" r="42.79"/><circle class="cls-2" cx="155.69" cy="148.58" r="21.32"/><circle class="cls-2" cx="155.83" cy="148.58" r="6.03"/><line class="cls-2" x1="161.87" y1="148.58" x2="198.62" y2="148.58"/><line class="cls-2" x1="155.83" y1="142.55" x2="155.83" y2="105.79"/><line class="cls-2" x1="149.8" y1="148.58" x2="113.04" y2="148.58"/><line class="cls-2" x1="155.83" y1="154.62" x2="155.83" y2="191.37"/></g><rect class="cls-3" x="49.54" y="113.5" width="30" height="90"/><line class="cls-3" x1="49.54" y1="173.5" x2="79.54" y2="173.5"/><line class="cls-3" x1="49.54" y1="143.5" x2="79.54" y2="143.5"/><rect class="cls-4" x="49.54" y="113.5" width="30" height="30"/><rect class="cls-5" x="49.9" y="182.9" width="11.69" height="4.66" transform="translate(-38.63 16.38) rotate(-12.45)"/><path id="path2890" class="cls-6" d="M60.49,185.81c-.23-.4-.38-.69-.58-1C61.33,183.34,62.64,185.16,60.49,185.81Zm-1-.82c.16.34.33.67.5,1-.18.43-1.69,1.08-2.07,1.12-.66.12-1.58.21-1.65-.72,0-.45.46-.87,1.25-1.2a1.62,1.62,0,0,1,1-.14,2.2,2.2,0,0,0,.92-.07Z"/><path id="path2890-7" class="cls-6" d="M53.81,184c0,.47-.05.79-.1,1.16C55.61,185.91,56,183.71,53.81,184Zm-.49,0A4.25,4.25,0,0,0,51,183.9c-.66.17-1.53.48-1.2,1.34.21.4.79.6,1.64.56a1.54,1.54,0,0,0,1-.31,2.24,2.24,0,0,1,.86-.32Z"/><rect class="cls-5" x="52.87" y="170.09" width="11.69" height="4.66" transform="translate(-114.9 227.54) rotate(-88.81)"/><path id="path2890-2" data-name="path2890" class="cls-6" d="M60.4,168c-.45.13-.77.21-1.12.33C58.19,166.56,60.27,165.71,60.4,168Zm-1,.74,1.11-.26a4.27,4.27,0,0,1,.59,2.28c0,.67-.17,1.59-1.08,1.43-.43-.12-.74-.65-.87-1.49a1.53,1.53,0,0,1,.11-1.06,2.13,2.13,0,0,0,.14-.9Z"/><path id="path2890-7-2" data-name="path2890-7" class="cls-6" d="M57.08,174c.45.15.76.24,1.11.37C59.34,172.72,57.3,171.78,57.08,174Zm-.1.48a4.21,4.21,0,0,0-.68,2.25c0,.67.1,1.59,1,1.48.43-.11.76-.63.93-1.46a1.61,1.61,0,0,0-.07-1.06,2.34,2.34,0,0,1-.1-.91Z"/><rect class="cls-5" x="55.73" y="152.57" width="4.66" height="11.69" transform="translate(-7.32 2.88) rotate(-2.67)"/><path id="path2890-3" data-name="path2890" class="cls-6" d="M59.44,153.84c-.44.16-.75.26-1.1.4C57.14,152.59,59.16,151.61,59.44,153.84Zm-1,.8c.37-.1.73-.22,1.09-.33a4.28,4.28,0,0,1,.75,2.23c0,.67-.07,1.6-1,1.51-.43-.1-.78-.61-1-1.44a1.63,1.63,0,0,1,0-1.06,2.16,2.16,0,0,0,.08-.91Z"/><path id="path2890-7-3" data-name="path2890-7" class="cls-6" d="M56.54,160.12c.45.12.77.18,1.13.29C58.71,158.67,56.61,157.87,56.54,160.12Zm-.07.48a4.28,4.28,0,0,0-.53,2.29c.05.67.21,1.58,1.12,1.41.42-.14.72-.68.83-1.52a1.6,1.6,0,0,0-.14-1.05,2.16,2.16,0,0,1-.16-.91C57.21,160.76,56.85,160.68,56.47,160.6Z"/><rect class="cls-5" x="55.07" y="138.56" width="4.66" height="11.69" transform="translate(-6.67 2.83) rotate(-2.67)"/><path id="path2890-4" data-name="path2890" class="cls-6" d="M58.79,139.83c-.45.16-.75.25-1.1.4C56.49,138.58,58.51,137.59,58.79,139.83Zm-1,.8,1.09-.33a4.18,4.18,0,0,1,.74,2.23c0,.67-.06,1.6-1,1.5-.44-.09-.78-.6-1-1.43a1.56,1.56,0,0,1,0-1.06,2.16,2.16,0,0,0,.08-.91Z"/><path id="path2890-7-4" data-name="path2890-7" class="cls-6" d="M55.89,146.11c.45.12.77.18,1.13.29C58.06,144.65,56,143.86,55.89,146.11Zm-.07.48a4.19,4.19,0,0,0-.53,2.29c.05.67.21,1.58,1.12,1.4.42-.13.72-.67.83-1.51a1.64,1.64,0,0,0-.14-1.06,2.15,2.15,0,0,1-.17-.9Z"/><rect class="cls-5" x="51.33" y="128.08" width="11.69" height="4.66" transform="translate(-75.43 182.29) rotate(-87.7)"/><path id="path2890-5" data-name="path2890" class="cls-6" d="M58.94,126c-.45.12-.77.19-1.12.3C56.76,124.53,58.86,123.72,58.94,126Zm-1,.71,1.12-.23a4.28,4.28,0,0,1,.54,2.29c-.05.67-.2,1.58-1.11,1.41-.43-.13-.72-.67-.84-1.51a1.6,1.6,0,0,1,.13-1,2.22,2.22,0,0,0,.16-.91Z"/><path id="path2890-7-5" data-name="path2890-7" class="cls-6" d="M55.51,132c.44.16.75.26,1.1.4C57.8,130.72,55.78,129.74,55.51,132Zm-.11.48a4.29,4.29,0,0,0-.73,2.23c0,.68.07,1.6,1,1.5.43-.1.77-.61,1-1.44a1.62,1.62,0,0,0-.05-1.06,2.34,2.34,0,0,1-.09-.91Z"/><rect class="cls-5" x="62.68" y="115.93" width="4.66" height="11.69" transform="translate(-71.97 138.94) rotate(-69.05)"/><path id="path2890-6" data-name="path2890" class="cls-6" d="M68.64,124.88c0-.47.07-.79.08-1.17C70.7,123.27,70.8,125.52,68.64,124.88Zm-.34-1.22c0,.38-.09.75-.14,1.13a4.24,4.24,0,0,1-2.34-.21c-.62-.26-1.44-.7-1-1.51.26-.36.86-.47,1.7-.31a1.58,1.58,0,0,1,.95.46,2.14,2.14,0,0,0,.81.44Z"/><path id="path2890-7-6" data-name="path2890-7" class="cls-6" d="M64.05,119.7c-.29.37-.48.64-.72.92C64.51,122.28,66.08,120.67,64.05,119.7Zm-.41-.25c-.12-.45-1.52-1.32-1.89-1.41-.63-.22-1.54-.44-1.74.47,0,.44.33.93,1.06,1.37a1.56,1.56,0,0,0,1,.29,2.24,2.24,0,0,1,.89.21C63.2,120.07,63.41,119.76,63.64,119.45Z"/><rect class="cls-5" x="66.78" y="128.75" width="4.66" height="11.69" transform="translate(-9.73 5.46) rotate(-4.23)"/><path id="path2890-7-7" data-name="path2890" class="cls-6" d="M67.85,139.2c.44-.17.74-.27,1.08-.43C70.18,140.38,68.19,141.43,67.85,139.2Zm1-.82-1.08.35a4.33,4.33,0,0,1-.8-2.21c0-.67,0-1.6.94-1.53.44.09.8.58,1,1.41a1.59,1.59,0,0,1,0,1.06,2.39,2.39,0,0,0-.06.92Z"/><path id="path2890-7-8" data-name="path2890-7" class="cls-6" d="M70.58,132.85c-.46-.11-.78-.17-1.14-.27C68.45,134.36,70.57,135.1,70.58,132.85Zm0-.49a4.21,4.21,0,0,0,.47-2.3c-.07-.67-.25-1.58-1.16-1.38-.42.15-.7.7-.78,1.54a1.58,1.58,0,0,0,.16,1.05,2.17,2.17,0,0,1,.19.9Z"/><rect class="cls-5" x="67.81" y="142.74" width="4.66" height="11.69" transform="translate(-10.76 5.57) rotate(-4.23)"/><path id="path2890-8" data-name="path2890" class="cls-6" d="M68.88,153.19c.44-.17.75-.28,1.09-.43C71.21,154.37,69.22,155.42,68.88,153.19Zm1-.83-1.08.36a4.26,4.26,0,0,1-.81-2.21c0-.67,0-1.6,1-1.53.44.08.79.58,1,1.41a1.53,1.53,0,0,1,0,1.06,2.15,2.15,0,0,0,0,.91Z"/><path id="path2890-7-9" data-name="path2890-7" class="cls-6" d="M71.61,146.84c-.46-.11-.77-.17-1.14-.27C69.48,148.35,71.6,149.09,71.61,146.84Zm.06-.49a4.3,4.3,0,0,0,.47-2.3c-.07-.67-.26-1.58-1.16-1.38-.42.15-.7.69-.79,1.54a1.53,1.53,0,0,0,.17,1,2.34,2.34,0,0,1,.19.9Z"/><rect class="cls-5" x="68.85" y="156.72" width="4.66" height="11.69" transform="translate(-11.79 5.69) rotate(-4.23)"/><path id="path2890-9" data-name="path2890" class="cls-6" d="M69.92,167.18c.43-.18.74-.28,1.08-.43C72.25,168.36,70.26,169.4,69.92,167.18Zm1-.83-1.08.36a4.16,4.16,0,0,1-.8-2.21c0-.67,0-1.6.94-1.53.44.08.8.58,1,1.41a1.65,1.65,0,0,1,0,1.06,2.15,2.15,0,0,0-.06.91Z"/><path id="path2890-7-10" data-name="path2890-7" class="cls-6" d="M72.65,160.82c-.46-.11-.78-.16-1.14-.26C70.52,162.33,72.64,163.07,72.65,160.82Zm0-.48a4.21,4.21,0,0,0,.47-2.3c-.07-.67-.25-1.58-1.16-1.38-.42.15-.7.69-.79,1.54a1.59,1.59,0,0,0,.17,1.05,2.27,2.27,0,0,1,.19.9C72,160.2,72.32,160.27,72.7,160.34Z"/><rect class="cls-5" x="65.51" y="174.25" width="11.69" height="4.66" transform="translate(-106.21 245.45) rotate(-89.2)"/><path id="path2890-10" data-name="path2890" class="cls-6" d="M69.7,181.07c.45-.14.76-.22,1.12-.34C71.92,182.44,69.84,183.31,69.7,181.07Zm1-.75-1.1.27a4.2,4.2,0,0,1-.61-2.28c0-.67.16-1.59,1.07-1.44.43.12.74.65.88,1.49a1.6,1.6,0,0,1-.1,1.06,2.13,2.13,0,0,0-.14.9Z"/><path id="path2890-7-11" data-name="path2890-7" class="cls-6" d="M73,175c-.45-.15-.76-.23-1.11-.36C70.72,176.29,72.77,177.21,73,175Zm.09-.47a4.26,4.26,0,0,0,.67-2.26c0-.67-.11-1.59-1-1.47-.43.11-.76.63-.92,1.46a1.61,1.61,0,0,0,.07,1.06,2.17,2.17,0,0,1,.11.91C72.34,174.29,72.7,174.39,73.07,174.5Z"/><rect class="cls-5" x="65.32" y="188.28" width="11.69" height="4.66" transform="translate(-120.43 259.08) rotate(-89.2)"/><path id="path2890-11" data-name="path2890" class="cls-6" d="M69.5,195.09c.45-.14.77-.21,1.12-.33C71.72,196.47,69.65,197.33,69.5,195.09Zm1-.74-1.11.26a4.35,4.35,0,0,1-.61-2.27c0-.67.16-1.59,1.08-1.44.43.12.74.65.88,1.49a1.62,1.62,0,0,1-.11,1.05,2.19,2.19,0,0,0-.13.91Z"/><path id="path2890-7-12" data-name="path2890-7" class="cls-6" d="M72.78,189c-.45-.15-.76-.24-1.11-.37C70.52,190.31,72.57,191.24,72.78,189Zm.1-.48a4.32,4.32,0,0,0,.67-2.25c0-.68-.12-1.6-1-1.47-.43.1-.76.62-.92,1.46a1.54,1.54,0,0,0,.08,1.06,2.35,2.35,0,0,1,.11.91Z"/><rect class="cls-5" x="63.89" y="202.22" width="11.69" height="4.66" transform="translate(-141.93 248.12) rotate(-82.81)"/><path id="path2890-12" data-name="path2890" class="cls-6" d="M67.59,208.82c.47-.09.79-.13,1.15-.21C69.64,210.43,67.49,211.06,67.59,208.82Zm1.1-.63-1.13.14a4.24,4.24,0,0,1-.35-2.32c.11-.67.34-1.57,1.23-1.32.41.17.66.73.71,1.58a1.66,1.66,0,0,1-.22,1,2.31,2.31,0,0,0-.24.88Z"/><path id="path2890-7-13" data-name="path2890-7" class="cls-6" d="M71.53,203.13c-.43-.2-.73-.32-1.07-.49C69.14,204.18,71.07,205.33,71.53,203.13Zm.15-.47a4.24,4.24,0,0,0,.91-2.16c.06-.67.07-1.6-.86-1.58-.44.06-.82.54-1.08,1.35a1.56,1.56,0,0,0,0,1.06,2.37,2.37,0,0,1,0,.92Z"/></g></g></svg>