<svg xmlns="http://www.w3.org/2000/svg" viewBox="0 0 276 276"><defs><style>.cls-1{fill:#fff;}.cls-1,.cls-2{stroke:#231f20;stroke-miterlimit:10;}.cls-2,.cls-3{fill:none;}.cls-2{stroke-width:0.25px;}.cls-4{fill:#404040;}</style></defs><title>item9</title><g id="Layer_2" data-name="Layer 2"><g id="muffin2"><rect class="cls-1" x="0.5" y="0.5" width="275" height="275"/><rect class="cls-2" x="89.38" y="129.99" width="30" height="90"/><line class="cls-2" x1="89.38" y1="189.99" x2="119.38" y2="189.99"/><line class="cls-2" x1="89.38" y1="159.99" x2="119.38" y2="159.99"/><g id="muffin_tin_side" data-name="muffin tin side"><rect class="cls-1" x="163.5" y="67.49" width="3" height="150" transform="translate(-38.09 63.23) rotate(-19.49)"/><polygon class="cls-1" points="134.89 115.87 126.01 90.78 140.75 78.47 154.09 116.18 134.89 115.87"/><polygon class="cls-1" points="151.06 161.53 142.17 136.44 156.91 124.14 170.26 161.84 151.06 161.53"/><polygon class="cls-1" points="167.22 207.19 158.34 182.1 173.08 169.8 186.43 207.51 167.22 207.19"/></g><rect class="cls-3" x="89.46" y="139.09" width="11.69" height="4.66" transform="translate(-8.54 6.15) rotate(-3.54)"/><path id="path2890" class="cls-4" d="M99.9,142.74c-.17-.44-.27-.75-.42-1.09C101.11,140.42,102.13,142.42,99.9,142.74Zm-.82-1c.11.36.23.72.35,1.09a4.27,4.27,0,0,1-2.22.77c-.68,0-1.6,0-1.52-1,.09-.44.59-.79,1.42-1a1.58,1.58,0,0,1,1.06,0,2.15,2.15,0,0,0,.91.06Z"/><path id="path2890-7" class="cls-4" d="M93.57,139.93c-.11.46-.17.77-.27,1.14C95.06,142.08,95.82,140,93.57,139.93Zm-.48-.06a4.29,4.29,0,0,0-2.3-.5c-.67.07-1.58.24-1.39,1.14.15.43.69.71,1.53.81a1.52,1.52,0,0,0,1-.15,2.16,2.16,0,0,1,.9-.18Z"/><rect class="cls-3" x="103.46" y="143.35" width="4.66" height="11.69" transform="translate(-65.52 85.15) rotate(-34.16)"/><path id="path2890-2" data-name="path2890" class="cls-4" d="M107,153.82c.29-.37.5-.61.73-.92C109.61,153.68,108.4,155.57,107,153.82Zm.41-1.2-.75.85c-.47,0-1.63-1.17-1.8-1.51-.36-.57-.79-1.4,0-1.8.42-.15,1,.11,1.57.72a1.53,1.53,0,0,1,.52.92,2.26,2.26,0,0,0,.41.82Z"/><path id="path2890-7-2" data-name="path2890-7" class="cls-4" d="M106.19,147c-.45.13-.75.24-1.12.33C105.1,149.32,107.31,148.9,106.19,147Zm-.19-.45a4.27,4.27,0,0,0-.74-2.23c-.4-.54-1-1.24-1.7-.61-.29.33-.26.94.09,1.72a1.6,1.6,0,0,0,.67.83,2.33,2.33,0,0,1,.61.68Z"/><rect class="cls-3" x="99.97" y="160.83" width="11.69" height="4.66" transform="translate(-63.38 259.02) rotate(-86.57)"/><path id="path2890-3" data-name="path2890" class="cls-4" d="M104,167.56l1.14-.28C106.1,169,104,169.81,104,167.56Zm1.06-.7-1.12.22a4.23,4.23,0,0,1-.5-2.3c.06-.67.23-1.58,1.14-1.39.42.14.71.68.81,1.53a1.6,1.6,0,0,1-.16,1.05,2.08,2.08,0,0,0-.17.89Z"/><path id="path2890-7-3" data-name="path2890-7" class="cls-4" d="M107.5,161.62l-1.09-.41C105.19,162.83,107.19,163.85,107.5,161.62Zm.12-.47a4.27,4.27,0,0,0,.77-2.22c0-.67,0-1.6-1-1.52-.44.09-.79.59-1,1.42a1.57,1.57,0,0,0,0,1.06,2.39,2.39,0,0,1,.07.92Z"/><rect class="cls-3" x="103.14" y="171.32" width="4.66" height="11.69" transform="translate(-2.06 1.24) rotate(-0.67)"/><path id="path2890-4" data-name="path2890" class="cls-4" d="M103.93,181.69c.45-.15.76-.23,1.11-.36C106.18,183,104.13,183.93,103.93,181.69Zm1-.76-1.1.29a4.25,4.25,0,0,1-.66-2.26c0-.67.12-1.59,1-1.47.43.11.75.63.91,1.47A1.54,1.54,0,0,1,105,180a2.5,2.5,0,0,0-.11.91Z"/><path id="path2890-7-4" data-name="path2890-7" class="cls-4" d="M107.05,175.52c-.45-.14-.77-.22-1.12-.34C104.83,176.89,106.9,177.76,107.05,175.52Zm.08-.48a4.17,4.17,0,0,0,.61-2.27c0-.67-.15-1.59-1.07-1.45-.43.12-.74.65-.88,1.49a1.6,1.6,0,0,0,.1,1.06,2.13,2.13,0,0,1,.14.9Z"/><rect class="cls-3" x="103.78" y="185.32" width="4.66" height="11.69" transform="translate(-23.6 15.16) rotate(-7.36)"/><path id="path2890-5" data-name="path2890" class="cls-4" d="M105.11,195.83c.42-.2.72-.31,1.06-.48C107.5,196.88,105.57,198,105.11,195.83Zm.9-.88-1.05.42a4.27,4.27,0,0,1-.93-2.16c-.06-.67-.07-1.6.86-1.58.44.06.83.54,1.08,1.35a1.51,1.51,0,0,1,0,1.06,2.33,2.33,0,0,0,0,.91Z"/><path id="path2890-7-5" data-name="path2890-7" class="cls-4" d="M107.48,189.34c-.46-.09-.78-.13-1.15-.21C105.44,191,107.6,191.58,107.48,189.34Zm0-.49a4.24,4.24,0,0,0,.35-2.32c-.11-.67-.34-1.57-1.24-1.31-.41.16-.66.72-.7,1.58a1.57,1.57,0,0,0,.23,1,2.14,2.14,0,0,1,.23.89Z"/><rect class="cls-3" x="100.27" y="202.73" width="11.69" height="4.66" transform="translate(-112.18 280.26) rotate(-81.65)"/><path id="path2890-6" data-name="path2890" class="cls-4" d="M103.88,209.28c.46-.07.78-.11,1.15-.18C105.89,210.94,103.73,211.53,103.88,209.28Zm1.11-.6c-.38,0-.75.07-1.13.12a4.29,4.29,0,0,1-.31-2.34c.12-.66.37-1.55,1.26-1.28.41.17.65.74.68,1.59a1.55,1.55,0,0,1-.25,1,2.28,2.28,0,0,0-.25.88Z"/><path id="path2890-7-6" data-name="path2890-7" class="cls-4" d="M107.93,203.67c-.43-.2-.73-.33-1.06-.5C105.52,204.68,107.43,205.87,107.93,203.67Zm.15-.46a4.13,4.13,0,0,0,1-2.14c.08-.67.1-1.6-.83-1.6-.44.05-.83.52-1.1,1.33a1.59,1.59,0,0,0-.07,1.06,2.2,2.2,0,0,1,0,.92Z"/><rect class="cls-3" x="98.23" y="216.6" width="11.69" height="4.66" transform="translate(-127.65 290.11) rotate(-81.65)"/><path id="path2890-7-7" data-name="path2890" class="cls-4" d="M101.84,223.16c.47-.08.79-.11,1.15-.18C103.86,224.82,101.69,225.4,101.84,223.16Zm1.11-.6-1.13.11a4.24,4.24,0,0,1-.3-2.33c.12-.66.36-1.56,1.25-1.29.41.18.65.74.68,1.6a1.57,1.57,0,0,1-.25,1,2.23,2.23,0,0,0-.25.88Z"/><path id="path2890-7-8" data-name="path2890-7" class="cls-4" d="M105.89,217.55c-.43-.21-.72-.33-1-.51C103.48,218.56,105.39,219.74,105.89,217.55Zm.16-.46a4.33,4.33,0,0,0,1-2.15c.07-.67.09-1.59-.83-1.59-.45.05-.84.52-1.11,1.33a1.52,1.52,0,0,0-.06,1.06,2.37,2.37,0,0,1,0,.92C105.35,216.79,105.69,216.94,106.05,217.09Z"/><rect class="cls-2" x="89.38" y="69.99" width="30" height="60"/><line class="cls-2" x1="119.38" y1="99.99" x2="89.38" y2="99.99"/></g></g></svg>