<svg xmlns="http://www.w3.org/2000/svg" viewBox="0 0 276 276"><defs><style>.cls-1{fill:#fff;stroke:#231f20;}.cls-1,.cls-2,.cls-3{stroke-miterlimit:10;}.cls-2,.cls-3,.cls-4{fill:none;}.cls-2{stroke:#622819;stroke-width:0.25px;}.cls-3{stroke:#ed1c24;stroke-width:2px;}.cls-5{fill:#404040;}</style></defs><title>item22</title><g id="Layer_2" data-name="Layer 2"><g id="teacup1"><rect class="cls-1" x="0.5" y="0.5" width="275" height="275"/><g id="Layer_1-2" data-name="Layer 1-2"><circle class="cls-1" cx="184.04" cy="124.34" r="46.3"/><circle class="cls-1" cx="184.04" cy="124.34" r="23.15"/><path class="cls-1" d="M144.52,99.55,139.63,110,113.4,97.82a5.79,5.79,0,0,1,4.89-10.49Z"/></g><rect class="cls-2" x="60" y="73.31" width="30" height="90"/><line class="cls-2" x1="60" y1="133.31" x2="90" y2="133.31"/><line class="cls-2" x1="60" y1="103.31" x2="90" y2="103.31"/><rect class="cls-3" x="60" y="103.31" width="30" height="30"/><rect class="cls-4" x="69.63" y="64.34" width="11.69" height="4.66" transform="translate(4.71 138.32) rotate(-86.81)"/><path id="path2890" class="cls-5" d="M73.63,71.08c.46-.11.77-.18,1.13-.28C75.79,72.55,73.68,73.33,73.63,71.08Zm1.06-.69c-.38.06-.75.14-1.12.21a4.28,4.28,0,0,1-.51-2.29c.06-.67.22-1.59,1.13-1.4.42.14.71.68.82,1.53a1.6,1.6,0,0,1-.15,1,2.12,2.12,0,0,0-.17.9Z"/><path id="path2890-7" class="cls-5" d="M77.16,65.13c-.44-.16-.75-.26-1.09-.41C74.85,66.35,76.86,67.36,77.16,65.13Zm.12-.47A4.26,4.26,0,0,0,78,62.44c0-.68-.05-1.6-1-1.52-.44.09-.79.6-1,1.43a1.58,1.58,0,0,0,0,1.06,2.33,2.33,0,0,1,.07.91Z"/><rect class="cls-4" x="68.85" y="78.35" width="11.69" height="4.66" transform="translate(-10.01 150.77) rotate(-86.81)"/><path id="path2890-2" data-name="path2890" class="cls-5" d="M72.85,85.09c.46-.12.77-.18,1.13-.29C75,86.56,72.9,87.34,72.85,85.09Zm1.06-.7-1.12.22a4.31,4.31,0,0,1-.51-2.3c.06-.67.22-1.58,1.13-1.4.42.14.71.68.82,1.53a1.6,1.6,0,0,1-.15,1,2.15,2.15,0,0,0-.17.9Z"/><path id="path2890-7-2" data-name="path2890-7" class="cls-5" d="M76.38,79.14c-.44-.17-.75-.27-1.09-.41C74.07,80.36,76.08,81.37,76.38,79.14Zm.12-.47a4.32,4.32,0,0,0,.76-2.23c0-.67-.05-1.6-1-1.51-.44.09-.79.59-1,1.42a1.57,1.57,0,0,0,0,1.06,2.39,2.39,0,0,1,.07.92C75.77,78.43,76.13,78.55,76.5,78.67Z"/><rect class="cls-4" x="68.07" y="92.35" width="11.69" height="4.66" transform="translate(-24.73 163.22) rotate(-86.81)"/><path id="path2890-3" data-name="path2890" class="cls-5" d="M72.07,99.09c.46-.11.77-.18,1.13-.28C74.23,100.56,72.12,101.34,72.07,99.09Zm1.06-.69c-.38.06-.75.14-1.12.21a4.28,4.28,0,0,1-.51-2.29c.06-.68.22-1.59,1.13-1.4.42.14.71.68.82,1.52a1.62,1.62,0,0,1-.15,1.06,2.09,2.09,0,0,0-.17.9Z"/><path id="path2890-7-3" data-name="path2890-7" class="cls-5" d="M75.6,93.14c-.44-.17-.75-.26-1.09-.41C73.29,94.36,75.3,95.37,75.6,93.14Zm.12-.47a4.26,4.26,0,0,0,.76-2.22c0-.68,0-1.6-1-1.52-.44.09-.79.6-1,1.43a1.58,1.58,0,0,0,0,1.06,2.33,2.33,0,0,1,.07.91Z"/><rect class="cls-4" x="67.29" y="106.36" width="11.69" height="4.66" transform="translate(-39.45 175.67) rotate(-86.81)"/><path id="path2890-4" data-name="path2890" class="cls-5" d="M71.29,113.1c.46-.12.77-.18,1.13-.29C73.45,114.57,71.34,115.35,71.29,113.1Zm1.06-.7-1.12.22a4.24,4.24,0,0,1-.51-2.3c.06-.67.22-1.58,1.13-1.4.42.14.71.68.82,1.53a1.6,1.6,0,0,1-.15,1,2.15,2.15,0,0,0-.17.9Z"/><path id="path2890-7-4" data-name="path2890-7" class="cls-5" d="M74.82,107.15c-.44-.17-.75-.27-1.09-.41C72.51,108.37,74.52,109.38,74.82,107.15Zm.12-.48a4.26,4.26,0,0,0,.76-2.22c0-.67,0-1.6-1-1.51-.44.09-.79.59-1,1.42a1.57,1.57,0,0,0,0,1.06,2.38,2.38,0,0,1,.07.92Z"/><rect class="cls-4" x="66.79" y="120.36" width="11.69" height="4.66" transform="translate(-50.5 194.59) rotate(-89.66)"/><path id="path2890-5" data-name="path2890" class="cls-5" d="M71,127.19c.45-.14.76-.22,1.11-.34C73.23,128.55,71.17,129.43,71,127.19Zm1-.75-1.1.27a4.25,4.25,0,0,1-.63-2.27c0-.67.15-1.59,1.07-1.45.43.12.74.65.89,1.49a1.56,1.56,0,0,1-.1,1,2.37,2.37,0,0,0-.13.91Z"/><path id="path2890-7-5" data-name="path2890-7" class="cls-5" d="M74.23,121.07l-1.11-.35C72,122.41,74,123.31,74.23,121.07Zm.1-.48a4.24,4.24,0,0,0,.65-2.26c0-.67-.13-1.59-1-1.46-.43.11-.75.63-.91,1.47a1.6,1.6,0,0,0,.09,1.06,2.36,2.36,0,0,1,.12.91Z"/><rect class="cls-4" x="70.91" y="130.86" width="4.66" height="11.69" transform="translate(-5.9 3.33) rotate(-2.5)"/><path id="path2890-6" data-name="path2890" class="cls-5" d="M71.85,141.28c.44-.17.75-.26,1.09-.4C74.14,142.53,72.12,143.51,71.85,141.28Zm1-.8-1.09.32a4.26,4.26,0,0,1-.73-2.23c0-.67.06-1.6,1-1.5.43.09.77.6,1,1.44a1.63,1.63,0,0,1,0,1.06,2.34,2.34,0,0,0-.09.91Z"/><path id="path2890-7-6" data-name="path2890-7" class="cls-5" d="M74.76,135c-.45-.13-.77-.19-1.12-.3C72.59,136.45,74.69,137.25,74.76,135Zm.07-.49a4.16,4.16,0,0,0,.54-2.28c-.05-.68-.2-1.59-1.11-1.41-.43.13-.73.67-.84,1.51a1.54,1.54,0,0,0,.14,1,2.33,2.33,0,0,1,.16.91Z"/><rect class="cls-4" x="73.91" y="144.29" width="4.66" height="11.69" transform="translate(-55.93 45.8) rotate(-24.79)"/><path id="path2890-7-7" data-name="path2890" class="cls-5" d="M76.69,154.9c.34-.32.59-.52.86-.79C79.28,155.18,77.79,156.86,76.69,154.9Zm.6-1.11-.89.71c-.45-.09-1.41-1.42-1.53-1.78-.26-.63-.54-1.51.35-1.77.44-.08,1,.27,1.44,1a1.6,1.6,0,0,1,.36,1,2.1,2.1,0,0,0,.27.88Z"/><path id="path2890-7-8" data-name="path2890-7" class="cls-5" d="M77,148l-1.16.15C75.54,150.15,77.79,150.1,77,148Zm-.12-.47a4.33,4.33,0,0,0-.37-2.33c-.3-.6-.79-1.39-1.57-.88-.34.29-.41.9-.2,1.72a1.54,1.54,0,0,0,.53.92,2.28,2.28,0,0,1,.49.78C76.14,147.65,76.51,147.58,76.89,147.52Z"/><rect class="cls-4" x="84.16" y="149.57" width="11.69" height="4.66" transform="translate(-1.08 0.64) rotate(-0.41)"/><path id="path2890-8" data-name="path2890" class="cls-5" d="M94.52,153.46c-.14-.45-.23-.76-.35-1.11C95.85,151.21,96.76,153.27,94.52,153.46Zm-.76-1c.09.37.19.73.29,1.1a4.3,4.3,0,0,1-2.26.66c-.68,0-1.6-.13-1.47-1.05.11-.43.63-.75,1.47-.91a1.6,1.6,0,0,1,1.06.09,2.17,2.17,0,0,0,.91.11Z"/><path id="path2890-7-9" data-name="path2890-7" class="cls-5" d="M88.36,150.31c-.14.45-.22.77-.34,1.12C89.73,152.54,90.6,150.47,88.36,150.31Zm-.48-.08a4.24,4.24,0,0,0-2.26-.63c-.68,0-1.6.15-1.45,1.07.11.43.64.74,1.48.89a1.6,1.6,0,0,0,1.06-.1,2.29,2.29,0,0,1,.9-.13Z"/><rect class="cls-2" x="60" y="163.31" width="30" height="30"/></g></g></svg>