<svg xmlns="http://www.w3.org/2000/svg" viewBox="0 0 276 276"><defs><style>.cls-1,.cls-3,.cls-4,.cls-6{fill:none;}.cls-1,.cls-2,.cls-6{stroke:#231f20;}.cls-1,.cls-2,.cls-3,.cls-6{stroke-miterlimit:10;}.cls-1{stroke-width:0.25px;}.cls-2{fill:#fff;}.cls-3{stroke:#ed1c24;stroke-width:2px;}.cls-5{fill:#404040;}</style></defs><title>item15</title><g id="Layer_2" data-name="Layer 2"><g id="muffin1"><rect class="cls-1" x="61.16" y="83.41" width="30" height="90"/><line class="cls-1" x1="61.16" y1="143.41" x2="91.16" y2="143.41"/><line class="cls-1" x1="61.16" y1="113.41" x2="91.16" y2="113.41"/><g id="muffin_tin_top" data-name="muffin tin top"><rect class="cls-2" x="122.44" y="103.04" width="77.41" height="103.21" rx="6.19" transform="translate(-33.07 264.95) rotate(-73.42)"/><circle class="cls-2" cx="202.28" cy="142.44" r="10.32"/><circle class="cls-2" cx="195.59" cy="164.91" r="10.32"/><circle class="cls-2" cx="188.9" cy="187.37" r="10.32"/><circle class="cls-2" cx="179.31" cy="135.6" r="10.32"/><circle class="cls-2" cx="172.62" cy="158.07" r="10.32"/><circle class="cls-2" cx="165.93" cy="180.53" r="10.32"/><circle class="cls-2" cx="156.35" cy="128.77" r="10.32"/><circle class="cls-2" cx="149.66" cy="151.23" r="10.32"/><circle class="cls-2" cx="142.97" cy="173.69" r="10.32"/><circle class="cls-2" cx="133.39" cy="121.93" r="10.32"/><circle class="cls-2" cx="126.7" cy="144.39" r="10.32"/><circle class="cls-2" cx="120.01" cy="166.86" r="10.32"/></g><rect class="cls-3" x="61.16" y="83.41" width="30" height="30"/><rect class="cls-1" x="61.16" y="143.41" width="30" height="30"/><rect class="cls-1" x="61.16" y="173.41" width="30" height="30"/><rect class="cls-4" x="75.58" y="80.67" width="4.66" height="11.69" transform="translate(-0.87 0.79) rotate(-0.58)"/><path id="path2890" class="cls-5" d="M76.36,91c.44-.15.76-.23,1.11-.36C78.61,92.36,76.55,93.28,76.36,91Zm1-.77-1.1.29a4.24,4.24,0,0,1-.66-2.25c0-.68.12-1.6,1-1.47.43.11.76.63.91,1.47a1.52,1.52,0,0,1-.08,1,2.35,2.35,0,0,0-.11.91Z"/><path id="path2890-7" class="cls-5" d="M79.48,84.87c-.45-.14-.76-.22-1.11-.34C77.26,86.24,79.33,87.11,79.48,84.87Zm.09-.48a4.36,4.36,0,0,0,.62-2.27c0-.67-.16-1.59-1.07-1.45-.43.12-.75.65-.89,1.49a1.6,1.6,0,0,0,.1,1.06,2,2,0,0,1,.13.9Z"/><rect class="cls-4" x="75.72" y="94.7" width="4.66" height="11.69" transform="translate(-1.01 0.79) rotate(-0.58)"/><path id="path2890-2" data-name="path2890" class="cls-5" d="M76.5,105.06c.44-.14.76-.23,1.11-.36C78.75,106.39,76.7,107.3,76.5,105.06Zm1-.76-1.1.29a4.25,4.25,0,0,1-.66-2.26c0-.67.12-1.6,1-1.47.43.11.76.63.92,1.47a1.67,1.67,0,0,1-.08,1.06,2.36,2.36,0,0,0-.12.91Z"/><path id="path2890-7-2" data-name="path2890-7" class="cls-5" d="M79.63,98.89c-.45-.13-.77-.21-1.12-.33C77.4,100.26,79.47,101.14,79.63,98.89Zm.08-.47a4.29,4.29,0,0,0,.62-2.27c0-.68-.15-1.6-1.07-1.45-.43.12-.74.64-.89,1.49a1.56,1.56,0,0,0,.1,1,2.2,2.2,0,0,1,.14.91Z"/><rect class="cls-4" x="75.86" y="108.72" width="4.66" height="11.69" transform="translate(-1.15 0.79) rotate(-0.58)"/><path id="path2890-3" data-name="path2890" class="cls-5" d="M76.64,119.09c.45-.15.76-.23,1.11-.36C78.89,120.41,76.84,121.33,76.64,119.09Zm1-.77-1.1.29a4.24,4.24,0,0,1-.66-2.25c0-.68.12-1.6,1-1.47.43.11.76.63.92,1.47a1.63,1.63,0,0,1-.08,1,2.36,2.36,0,0,0-.12.91Z"/><path id="path2890-7-3" data-name="path2890-7" class="cls-5" d="M79.77,112.92c-.45-.14-.77-.22-1.12-.34C77.54,114.29,79.61,115.16,79.77,112.92Zm.08-.48a4.27,4.27,0,0,0,.62-2.27c0-.67-.15-1.59-1.07-1.45-.43.12-.74.65-.89,1.49a1.59,1.59,0,0,0,.11,1.06,2.29,2.29,0,0,1,.13.9Z"/><rect class="cls-4" x="76" y="122.75" width="4.66" height="11.69" transform="translate(-1.29 0.79) rotate(-0.58)"/><path id="path2890-4" data-name="path2890" class="cls-5" d="M76.78,133.11l1.11-.35C79,134.44,77,135.36,76.78,133.11Zm1-.76-1.1.29a4.34,4.34,0,0,1-.66-2.26c0-.67.12-1.59,1-1.47.43.11.76.63.92,1.47a1.6,1.6,0,0,1-.08,1.06,2.36,2.36,0,0,0-.12.91Z"/><path id="path2890-7-4" data-name="path2890-7" class="cls-5" d="M79.91,126.94c-.45-.13-.77-.21-1.12-.33C77.69,128.32,79.75,129.19,79.91,126.94Zm.08-.47a4.29,4.29,0,0,0,.62-2.27c0-.68-.15-1.6-1.07-1.45-.43.12-.74.65-.89,1.49a1.55,1.55,0,0,0,.11,1.05,2.37,2.37,0,0,1,.13.91C79.26,126.28,79.62,126.37,80,126.47Z"/><rect class="cls-4" x="76.14" y="136.77" width="4.66" height="11.69" transform="translate(-1.43 0.8) rotate(-0.58)"/><path id="path2890-5" data-name="path2890" class="cls-5" d="M76.92,147.14c.45-.15.76-.23,1.11-.36C79.17,148.47,77.12,149.38,76.92,147.14Zm1-.77-1.1.29a4.34,4.34,0,0,1-.67-2.25c0-.68.12-1.6,1-1.47.44.11.76.63.92,1.47a1.6,1.6,0,0,1-.08,1.06,2.11,2.11,0,0,0-.11.9Z"/><path id="path2890-7-5" data-name="path2890-7" class="cls-5" d="M80.05,141c-.45-.14-.76-.21-1.12-.34C77.83,142.34,79.9,143.21,80.05,141Zm.08-.48a4.24,4.24,0,0,0,.62-2.27c0-.67-.15-1.59-1.07-1.44-.43.11-.74.64-.88,1.48a1.54,1.54,0,0,0,.1,1.06,2.31,2.31,0,0,1,.13.91Z"/><rect class="cls-4" x="76.28" y="150.8" width="4.66" height="11.69" transform="translate(-1.57 0.8) rotate(-0.58)"/><path id="path2890-6" data-name="path2890" class="cls-5" d="M77.06,161.17l1.11-.36C79.31,162.49,77.26,163.41,77.06,161.17Zm1-.77-1.1.29a4.35,4.35,0,0,1-.67-2.26c0-.67.12-1.59,1-1.47.44.11.76.63.92,1.47a1.54,1.54,0,0,1-.08,1.06,2.17,2.17,0,0,0-.11.91Z"/><path id="path2890-7-6" data-name="path2890-7" class="cls-5" d="M80.19,155c-.45-.14-.76-.22-1.12-.34C78,156.37,80,157.24,80.19,155Zm.09-.48a4.28,4.28,0,0,0,.61-2.27c0-.68-.15-1.59-1.07-1.45-.43.12-.74.65-.88,1.49a1.56,1.56,0,0,0,.1,1.05,2.37,2.37,0,0,1,.13.91Z"/><rect class="cls-4" x="76.42" y="164.83" width="4.66" height="11.69" transform="translate(-1.71 0.8) rotate(-0.58)"/><path id="path2890-7-7" data-name="path2890" class="cls-5" d="M77.2,175.19c.45-.15.76-.23,1.11-.36C79.45,176.52,77.4,177.43,77.2,175.19Zm1-.76-1.1.28a4.19,4.19,0,0,1-.66-2.25c0-.68.12-1.6,1-1.47.43.11.75.63.91,1.47a1.54,1.54,0,0,1-.08,1.06,2.14,2.14,0,0,0-.11.91Z"/><path id="path2890-7-8" data-name="path2890-7" class="cls-5" d="M80.33,169c-.45-.14-.76-.21-1.12-.34C78.11,170.39,80.18,171.27,80.33,169Zm.09-.48a4.23,4.23,0,0,0,.61-2.27c0-.67-.15-1.59-1.07-1.44-.43.12-.74.64-.88,1.48a1.6,1.6,0,0,0,.1,1.06,2.31,2.31,0,0,1,.13.91Z"/><rect class="cls-4" x="67.94" y="180.05" width="11.69" height="4.66" transform="translate(-109.09 109.81) rotate(-46.33)"/><path id="path2890-8" data-name="path2890" class="cls-5" d="M69.52,184.54c.42.21.7.36,1,.52C70.2,187.06,68.1,186.28,69.52,184.54Zm1.25.15-1-.56a4.29,4.29,0,0,1,1.1-2.08c.48-.47,1.2-1.05,1.77-.32.23.38.1,1-.37,1.69a1.62,1.62,0,0,1-.79.7,2.22,2.22,0,0,0-.72.57Z"/><path id="path2890-7-9" data-name="path2890-7" class="cls-5" d="M76.06,182.3c-.22-.41-.39-.68-.56-1C73.51,181.74,74.39,183.8,76.06,182.3Zm.4-.28a4.26,4.26,0,0,0,2-1.2c.45-.5,1-1.24.25-1.78-.4-.21-1,0-1.68.45a1.59,1.59,0,0,0-.66.83,2.31,2.31,0,0,1-.54.74C76.06,181.37,76.26,181.69,76.46,182Z"/><rect class="cls-4" x="57.66" y="178.02" width="4.66" height="11.69" transform="translate(-124.59 241.61) rotate(-89.3)"/><path id="path2890-9" data-name="path2890" class="cls-5" d="M55.5,182.22c.14.45.22.76.34,1.12C54.13,184.44,53.26,182.37,55.5,182.22Zm.75,1q-.12-.56-.27-1.11a4.37,4.37,0,0,1,2.27-.61c.68,0,1.6.16,1.45,1.07-.12.43-.65.74-1.49.89a1.59,1.59,0,0,1-1.06-.11,2.29,2.29,0,0,0-.9-.13Z"/><path id="path2890-7-10" data-name="path2890-7" class="cls-5" d="M61.6,185.48c.15-.45.24-.76.36-1.11C60.28,183.23,59.36,185.28,61.6,185.48Zm.48.1a4.24,4.24,0,0,0,2.25.66c.68,0,1.6-.11,1.47-1-.1-.43-.62-.76-1.46-.92a1.54,1.54,0,0,0-1.06.08,2.17,2.17,0,0,1-.91.11C62.28,184.84,62.18,185.21,62.08,185.58Z"/><rect class="cls-6" x="0.5" y="0.5" width="275" height="275"/><rect class="cls-4" x="57.68" y="195.5" width="11.69" height="4.66" transform="translate(-27.68 11.14) rotate(-8.24)"/><path id="path2890-10" data-name="path2890" class="cls-5" d="M68.21,198.76c-.2-.42-.33-.72-.5-1C69.23,196.35,70.41,198.26,68.21,198.76Zm-.89-.9c.14.36.29.7.43,1.06a4.2,4.2,0,0,1-2.14,1c-.67.08-1.6.1-1.6-.83,0-.44.53-.83,1.33-1.1a1.59,1.59,0,0,1,1.06-.07,2.19,2.19,0,0,0,.92,0Z"/><path id="path2890-7-11" data-name="path2890-7" class="cls-5" d="M61.68,196.48c-.08.47-.11.79-.18,1.15C63.34,198.5,63.93,196.33,61.68,196.48Zm-.48,0a4.36,4.36,0,0,0-2.33-.31c-.67.12-1.56.37-1.3,1.25.18.41.74.65,1.59.68a1.53,1.53,0,0,0,1-.24,2.23,2.23,0,0,1,.88-.25C61.11,197.22,61.15,196.84,61.2,196.46Z"/><rect class="cls-4" x="75.09" y="191.3" width="4.66" height="11.69" transform="translate(-127.6 250.28) rotate(-83.09)"/><path id="path2890-11" data-name="path2890" class="cls-5" d="M81.7,199.27c-.08-.46-.13-.78-.21-1.15C83.31,197.21,84,199.36,81.7,199.27Zm-.62-1.1c0,.38.09.75.14,1.13a4.25,4.25,0,0,1-2.32.36c-.67-.1-1.57-.32-1.32-1.22.16-.41.72-.67,1.57-.72a1.6,1.6,0,0,1,1,.22,2.14,2.14,0,0,0,.89.23Z"/><path id="path2890-7-12" data-name="path2890-7" class="cls-5" d="M76,195.36c-.19.43-.31.73-.48,1.07C77.06,197.74,78.2,195.81,76,195.36Zm-.46-.14a4.19,4.19,0,0,0-2.17-.91c-.67-.06-1.6-.06-1.57.87.06.44.54.82,1.36,1.07a1.56,1.56,0,0,0,1.06,0,2.15,2.15,0,0,1,.91,0C75.25,195.92,75.39,195.57,75.53,195.22Z"/><rect class="cls-4" x="85.31" y="193.21" width="11.69" height="4.66" transform="translate(-43.33 26.84) rotate(-13.57)"/><path id="path2890-12" data-name="path2890" class="cls-5" d="M95.91,196c-.24-.4-.4-.68-.6-1C96.7,193.55,98.05,195.34,95.91,196Zm-1-.8.53,1a4.27,4.27,0,0,1-2,1.16c-.66.13-1.59.24-1.67-.69,0-.44.45-.88,1.23-1.22a1.57,1.57,0,0,1,1-.16,2.34,2.34,0,0,0,.91-.09Z"/><path id="path2890-7-13" data-name="path2890-7" class="cls-5" d="M89.19,194.37c0,.47,0,.8-.07,1.17C91,196.23,91.42,194,89.19,194.37Zm-.48,0a4.18,4.18,0,0,0-2.35-.09c-.65.18-1.52.5-1.17,1.36.21.4.8.58,1.65.53a1.52,1.52,0,0,0,1-.33,2.11,2.11,0,0,1,.86-.33C88.7,195.16,88.7,194.78,88.71,194.4Z"/></g></g></svg>