<svg xmlns="http://www.w3.org/2000/svg" viewBox="0 0 276 276"><defs><style>.cls-1{fill:#fff;}.cls-1,.cls-2{stroke:#231f20;stroke-miterlimit:10;}.cls-2,.cls-3{fill:none;}.cls-2{stroke-width:0.25px;}.cls-4{fill:#404040;}</style></defs><title>item5</title><g id="Layer_2" data-name="Layer 2"><g id="item5" data-name="item5"><rect class="cls-1" x="0.5" y="0.5" width="275" height="275"/><g id="Layer_1-2" data-name="Layer 1-2"><rect class="cls-1" x="163.01" y="159.43" width="12.48" height="1.88" transform="matrix(0.8, -0.59, 0.59, 0.8, -62.16, 131.81)"/><rect class="cls-1" x="125.26" y="91.81" width="27" height="81" transform="translate(-52.53 145.23) rotate(-47.5)"/><path class="cls-1" d="M194,172.27l-1.28-1.17,3.82-4.17-18.79-17.21s5.18-8.45,8.15-8.9c6.73-1,19.76,11.59,20.07,18.39.13,3-8.15,8.9-8.15,8.9Z"/><rect class="cls-1" x="169.6" y="158.73" width="0.01" height="0.47" transform="translate(-62.18 176.61) rotate(-47.5)"/></g><rect class="cls-2" x="53.99" y="17.84" width="30" height="120"/><line class="cls-2" x1="53.99" y1="107.84" x2="83.99" y2="107.84"/><line class="cls-2" x1="53.99" y1="77.84" x2="83.99" y2="77.84"/><line class="cls-2" x1="53.99" y1="47.84" x2="83.99" y2="47.84"/><rect class="cls-2" x="53.99" y="137.84" width="30" height="120"/><line class="cls-2" x1="53.99" y1="227.84" x2="83.99" y2="227.84"/><line class="cls-2" x1="53.99" y1="197.84" x2="83.99" y2="197.84"/><line class="cls-2" x1="53.99" y1="167.84" x2="83.99" y2="167.84"/><rect class="cls-3" x="64.91" y="11.18" width="4.66" height="11.69" transform="translate(-0.7 3.04) rotate(-2.57)"/><path id="path2890" class="cls-4" d="M65.85,21.6c.44-.16.75-.26,1.1-.4C68.15,22.85,66.13,23.83,65.85,21.6Zm1-.8-1.09.33A4.33,4.33,0,0,1,65,18.89c0-.67.07-1.59,1-1.5.43.1.78.61,1,1.44a1.57,1.57,0,0,1,0,1.06,2.16,2.16,0,0,0-.08.91Z"/><path id="path2890-7" class="cls-4" d="M68.76,15.32c-.45-.12-.77-.18-1.12-.29C66.59,16.77,68.69,17.57,68.76,15.32Zm.07-.48a4.19,4.19,0,0,0,.54-2.29c-.05-.67-.21-1.58-1.12-1.4-.42.13-.72.67-.83,1.51a1.54,1.54,0,0,0,.14,1.05,2.33,2.33,0,0,1,.16.91Z"/><rect class="cls-3" x="65.54" y="25.2" width="4.66" height="11.69" transform="translate(-1.32 3.08) rotate(-2.57)"/><path id="path2890-2" data-name="path2890" class="cls-4" d="M66.48,35.61c.44-.16.75-.25,1.1-.4C68.78,36.86,66.76,37.84,66.48,35.61Zm1-.8-1.09.33a4.3,4.3,0,0,1-.74-2.23c0-.68.07-1.6,1-1.51.43.1.78.61,1,1.44a1.51,1.51,0,0,1,0,1.06,2.16,2.16,0,0,0-.08.91Z"/><path id="path2890-7-2" data-name="path2890-7" class="cls-4" d="M69.39,29.34c-.45-.13-.77-.19-1.13-.3C67.22,30.78,69.32,31.59,69.39,29.34Zm.07-.48A4.22,4.22,0,0,0,70,26.57c0-.68-.21-1.59-1.12-1.41-.42.13-.72.67-.83,1.51a1.57,1.57,0,0,0,.14,1.06,2.31,2.31,0,0,1,.16.9Z"/><rect class="cls-3" x="66.17" y="39.21" width="4.66" height="11.69" transform="translate(-1.95 3.12) rotate(-2.57)"/><path id="path2890-3" data-name="path2890" class="cls-4" d="M67.11,49.62c.44-.16.75-.25,1.1-.39C69.41,50.87,67.39,51.86,67.11,49.62Zm1-.8L67,49.15a4.27,4.27,0,0,1-.74-2.23c0-.68.06-1.6,1-1.5.43.09.78.6,1,1.43a1.51,1.51,0,0,1,0,1.06,2.16,2.16,0,0,0-.08.91Z"/><path id="path2890-7-3" data-name="path2890-7" class="cls-4" d="M70,43.35c-.45-.12-.77-.19-1.13-.3C67.85,44.8,70,45.6,70,43.35Zm.07-.48a4.22,4.22,0,0,0,.54-2.29c0-.67-.21-1.59-1.12-1.41-.42.13-.72.67-.83,1.52a1.49,1.49,0,0,0,.14,1.05,2.31,2.31,0,0,1,.16.9Z"/><rect class="cls-3" x="66.8" y="53.22" width="4.66" height="11.69" transform="translate(-2.58 3.16) rotate(-2.57)"/><path id="path2890-4" data-name="path2890" class="cls-4" d="M67.74,63.64c.44-.17.75-.26,1.1-.4C70,64.88,68,65.87,67.74,63.64Zm1-.8-1.09.32a4.27,4.27,0,0,1-.74-2.23c0-.67.06-1.6,1-1.5.43.09.78.6,1,1.43a1.51,1.51,0,0,1,0,1.06,2.2,2.2,0,0,0-.08.92Z"/><path id="path2890-7-4" data-name="path2890-7" class="cls-4" d="M70.65,57.36c-.45-.12-.77-.19-1.13-.3C68.48,58.81,70.58,59.61,70.65,57.36Zm.07-.48a4.22,4.22,0,0,0,.54-2.29c-.05-.67-.21-1.59-1.12-1.41-.43.14-.72.67-.83,1.52a1.55,1.55,0,0,0,.13,1,2.15,2.15,0,0,1,.17.9Z"/><rect class="cls-3" x="67.43" y="67.23" width="4.66" height="11.69" transform="translate(-3.21 3.2) rotate(-2.57)"/><path id="path2890-5" data-name="path2890" class="cls-4" d="M68.37,77.65c.44-.16.75-.26,1.1-.4C70.67,78.89,68.65,79.88,68.37,77.65Zm1-.8-1.09.33a4.33,4.33,0,0,1-.74-2.24c0-.67.06-1.6,1-1.5.43.09.78.6,1,1.43a1.54,1.54,0,0,1,0,1.07,2.16,2.16,0,0,0-.08.91Z"/><path id="path2890-7-5" data-name="path2890-7" class="cls-4" d="M71.28,71.37l-1.13-.29C69.11,72.82,71.21,73.62,71.28,71.37Zm.07-.48a4.19,4.19,0,0,0,.54-2.29c0-.67-.21-1.58-1.12-1.41-.43.14-.72.67-.83,1.52a1.55,1.55,0,0,0,.13,1.05,2.15,2.15,0,0,1,.17.9Z"/><rect class="cls-3" x="64.05" y="84.76" width="11.69" height="4.66" transform="translate(-20.15 153.13) rotate(-87.51)"/><path id="path2890-6" data-name="path2890" class="cls-4" d="M68.11,91.52c.45-.12.77-.19,1.13-.3C70.28,93,68.19,93.77,68.11,91.52Zm1-.71L68,91a4.22,4.22,0,0,1-.54-2.29c0-.67.21-1.59,1.12-1.41.42.13.72.67.83,1.51a1.57,1.57,0,0,1-.13,1.06,2.15,2.15,0,0,0-.17.9Z"/><path id="path2890-7-6" data-name="path2890-7" class="cls-4" d="M71.56,85.53c-.44-.17-.75-.26-1.09-.4C69.27,86.78,71.29,87.76,71.56,85.53Zm.11-.48a4.18,4.18,0,0,0,.74-2.23c0-.67-.06-1.6-1-1.5-.43.09-.78.6-1,1.43a1.6,1.6,0,0,0,0,1.07,2.16,2.16,0,0,1,.08.91Z"/><rect class="cls-3" x="63.44" y="98.77" width="11.69" height="4.66" transform="translate(-34.73 165.92) rotate(-87.51)"/><path id="path2890-7-7" data-name="path2890" class="cls-4" d="M67.5,105.53c.45-.12.77-.19,1.13-.3C69.67,107,67.58,107.78,67.5,105.53Zm1-.71-1.11.23a4.19,4.19,0,0,1-.54-2.29c0-.67.21-1.58,1.12-1.41.42.14.72.67.83,1.52a1.55,1.55,0,0,1-.14,1,2.31,2.31,0,0,0-.16.9Z"/><path id="path2890-7-8" data-name="path2890-7" class="cls-4" d="M71,99.54c-.44-.16-.75-.26-1.1-.4C68.66,100.79,70.68,101.77,71,99.54Zm.11-.47a4.24,4.24,0,0,0,.74-2.24c0-.67-.07-1.6-1-1.5-.43.1-.78.61-1,1.44a1.57,1.57,0,0,0,0,1.06,2.16,2.16,0,0,1,.08.91C70.34,98.84,70.7,99,71.06,99.07Z"/><rect class="cls-3" x="62.83" y="112.78" width="11.69" height="4.66" transform="translate(-49.32 178.72) rotate(-87.51)"/><path id="path2890-8" data-name="path2890" class="cls-4" d="M66.89,119.55c.45-.13.77-.19,1.13-.3C69.06,121,67,121.79,66.89,119.55Zm1-.72-1.11.23a4.16,4.16,0,0,1-.54-2.28c0-.68.2-1.59,1.12-1.41.42.13.72.67.83,1.51a1.55,1.55,0,0,1-.14,1.05,2.31,2.31,0,0,0-.16.9Z"/><path id="path2890-7-9" data-name="path2890-7" class="cls-4" d="M70.34,113.55c-.44-.16-.75-.25-1.1-.39C68.05,114.8,70.07,115.78,70.34,113.55Zm.11-.47a4.33,4.33,0,0,0,.74-2.23c0-.68-.07-1.6-1-1.51-.43.1-.78.61-1,1.44a1.56,1.56,0,0,0,0,1.06,2.16,2.16,0,0,1,.08.91Z"/><rect class="cls-3" x="62.22" y="126.8" width="11.69" height="4.66" transform="translate(-63.9 191.51) rotate(-87.51)"/><path id="path2890-9" data-name="path2890" class="cls-4" d="M66.28,133.56c.45-.13.77-.19,1.13-.3C68.45,135,66.36,135.81,66.28,133.56Zm1-.71-1.11.23a4.22,4.22,0,0,1-.54-2.29c0-.67.2-1.59,1.12-1.41.42.13.72.67.83,1.51a1.58,1.58,0,0,1-.14,1.06,2.31,2.31,0,0,0-.16.9Z"/><path id="path2890-7-10" data-name="path2890-7" class="cls-4" d="M69.73,127.56c-.44-.16-.75-.25-1.1-.39C67.44,128.81,69.46,129.8,69.73,127.56Zm.11-.47a4.27,4.27,0,0,0,.74-2.23c0-.68-.07-1.6-1-1.5-.44.09-.78.6-1,1.43a1.56,1.56,0,0,0,0,1.06,2.2,2.2,0,0,1,.08.92Z"/><rect class="cls-3" x="61.61" y="140.81" width="11.69" height="4.66" transform="translate(-78.48 204.3) rotate(-87.51)"/><path id="path2890-10" data-name="path2890" class="cls-4" d="M65.67,147.57c.45-.12.77-.19,1.13-.3C67.84,149,65.75,149.82,65.67,147.57Zm1-.71-1.11.23a4.19,4.19,0,0,1-.54-2.29c0-.67.2-1.59,1.12-1.41.42.13.72.67.83,1.52a1.55,1.55,0,0,1-.14,1.05,2.31,2.31,0,0,0-.16.9Z"/><path id="path2890-7-11" data-name="path2890-7" class="cls-4" d="M69.12,141.58c-.44-.16-.75-.26-1.1-.4C66.83,142.83,68.85,143.81,69.12,141.58Zm.11-.48a4.27,4.27,0,0,0,.74-2.23c0-.67-.07-1.6-1-1.5-.44.1-.78.6-1,1.44a1.51,1.51,0,0,0,0,1.06,2.16,2.16,0,0,1,.08.91Z"/><rect class="cls-3" x="58.6" y="153.43" width="11.69" height="4.66" transform="translate(-82.64 73.41) rotate(-38.28)"/><path id="path2890-11" data-name="path2890" class="cls-4" d="M59.92,157.3c.39.26.64.46,1,.66C60.24,159.89,58.26,158.83,59.92,157.3Zm1.22.33-.91-.7c0-.46,1.06-1.71,1.39-1.9.54-.4,1.33-.88,1.79-.08.18.41,0,1-.6,1.62a1.53,1.53,0,0,1-.89.59,2.15,2.15,0,0,0-.78.47Z"/><path id="path2890-7-12" data-name="path2890-7" class="cls-4" d="M66.71,156c-.16-.44-.3-.74-.42-1.09C64.27,155.08,64.84,157.25,66.71,156Zm.43-.22a4.26,4.26,0,0,0,2.17-.91c.52-.43,1.17-1.09.49-1.73-.35-.26-1-.19-1.71.21a1.55,1.55,0,0,0-.78.73,2.2,2.2,0,0,1-.63.66C66.84,155.08,67,155.42,67.14,155.78Z"/><rect class="cls-3" x="48.28" y="147.96" width="4.66" height="11.69" transform="translate(-109.61 177.18) rotate(-80.09)"/><path id="path2890-12" data-name="path2890" class="cls-4" d="M46.45,151.46c.06.47.09.79.15,1.16C44.74,153.43,44.21,151.25,46.45,151.46Zm.57,1.13q0-.57-.09-1.14a4.37,4.37,0,0,1,2.34-.24c.66.14,1.55.41,1.26,1.29-.19.41-.76.63-1.61.64a1.56,1.56,0,0,1-1-.28,2.26,2.26,0,0,0-.87-.27Z"/><path id="path2890-7-13" data-name="path2890-7" class="cls-4" d="M52,155.66c.21-.42.35-.71.53-1C51,153.22,49.77,155.1,52,155.66Zm.45.17a4.29,4.29,0,0,0,2.12,1c.67.09,1.59.14,1.62-.79,0-.44-.5-.85-1.3-1.14a1.54,1.54,0,0,0-1.06-.09,2.2,2.2,0,0,1-.92,0C52.72,155.14,52.56,155.48,52.4,155.83Z"/></g></g></svg>