<svg xmlns="http://www.w3.org/2000/svg" viewBox="0 0 63.63 94.47"><defs><style>.cls-1,.cls-2,.cls-3{fill:#010101;}.cls-1,.cls-2,.cls-3,.cls-4,.cls-5{stroke:#010101;stroke-linecap:round;stroke-linejoin:round;}.cls-2{font-size:8.88px;}.cls-2,.cls-3{font-family:LondrinaSolid-Light, LondrinaSolid Light;font-weight:300;}.cls-3{font-size:8.68px;}.cls-4,.cls-5{fill:none;stroke-width:0.75px;}.cls-4{stroke-dasharray:0.5 2.98;}</style></defs><title>balloon_penny</title><g id="Layer_2" data-name="Layer 2"><g id="Pennies"><path class="cls-1" d="M32.16,88.17,35.38,94l3-5.93a17.67,17.67,0,0,1-6.21.13Z"/><path class="cls-1" d="M30.45,6.43l3-5.93,3.23,5.8a17.72,17.72,0,0,0-6.22.13Z"/><path class="cls-1" d="M5.5,44.49l-5,3.29,5.13,3.08c-.08-1-.15-2.11-.17-3.18S5.46,45.54,5.5,44.49Z"/><text class="cls-2" transform="matrix(0.23, 1.22, -0.98, 0.18, 52.48, 36.34)">P</text><text class="cls-2" transform="translate(53.62 43.05) rotate(87.52) scale(1.24 1)">E</text><text class="cls-2" transform="matrix(-0.13, 1.24, -0.99, -0.11, 53.9, 49.39)">N</text><text class="cls-2" transform="translate(52.98 57.47) rotate(106.93) scale(1.24 1)">N</text><text class="cls-2" transform="matrix(-0.61, 1.09, -0.87, -0.49, 50.53, 65.11)">Y</text><text class="cls-2" transform="matrix(-0.8, 0.95, -0.77, -0.64, 47.03, 70.93)"> </text><text class="cls-3" transform="translate(44.93 38.68) rotate(79.47) scale(1.27 1)">P</text><text class="cls-3" transform="translate(45.99 43.96) rotate(89.38) scale(1.27 1)">A</text><text class="cls-3" transform="matrix(-0.24, 1.25, -0.98, -0.19, 46.01, 51.06)">R</text><text class="cls-3" transform="translate(44.86 57.14) rotate(114.13) scale(1.27 1)">K</text><ellipse class="cls-4" cx="34.23" cy="47.16" rx="29.03" ry="41.22" transform="translate(-0.97 0.72) rotate(-1.19)"/><path class="cls-5" d="M21.43,62.41c-7.13.15-13-6.12-13.2-14-.14-6.3,4.38-11.51,10.09-11.63,4.56-.09,8.34,3.92,8.45,9,.08,4-2.81,7.37-6.46,7.44a5.59,5.59,0,0,1-5.41-5.73A4.47,4.47,0,0,1,19,42.69a3.58,3.58,0,0,1,3.47,3.67,2.86,2.86,0,0,1-2.65,3,2.28,2.28,0,0,1-2.22-2.34,1.83,1.83,0,0,1,1.7-2"/><ellipse class="cls-5" cx="32.4" cy="61.37" rx="4.47" ry="4.94" transform="translate(-1.27 0.69) rotate(-1.19)"/><ellipse class="cls-5" cx="32.78" cy="79.64" rx="4.47" ry="4.94" transform="translate(-1.65 0.7) rotate(-1.19)"/><path class="cls-5" d="M32.78,79.64l10-4.53.09,4.5a1.4,1.4,0,1,1-2.79,0v-.3"/><line class="cls-5" x1="32.58" y1="70.01" x2="41.98" y2="65.49"/><polyline class="cls-5" points="39.42 76.66 39.21 66.79 32.95 61.36 32.4 61.37 32.58 70.01 39.42 76.66"/><line class="cls-5" x1="41.94" y1="63.83" x2="42.03" y2="67.99"/><path class="cls-5" d="M37.48,11.65c1.38.9-.75,12.9.8,15.27s3.15,3.28,2.4,4.41-1.84,2.51-2,3.77-.21,2.77-2.21,2-5.74-2.34-7.55-1-1.07-2.62-.87-3.77a22.14,22.14,0,0,0,.66-7.2c-.4-2.91-2.86-10.8-1.44-13.13S33.61,9.14,37.48,11.65Z"/><path class="cls-5" d="M40.68,31.33c1.59,1.68,2.57,2.34,2.48,4.09s-.59,4.43-1.34,4.14-1.25-1.92-.88-2.82-2.24-1.88-2.24-1.88"/><path class="cls-5" d="M37.3,37.3c-.32,2,1.37,3.79.71,5.45s-1.93,0-1.93,0-.55,2.32-1.94.45l-.8-1.68-.62-2.12"/><path class="cls-5" d="M33.52,41.89c-.64,1.37-2.31,1-3.2-3.52"/><path class="cls-5" d="M30.86,40.23c-1.21.92-2-.43-2.25-4"/><path class="cls-5" d="M36.08,42.75c-.46-1-1.15-3.58-1.15-3.58"/><path class="cls-5" d="M37.78,19.45c-3.77.53-6.17.86-10.6-1.63"/><path class="cls-5" d="M34.7,19.8c-3.12-1.66-5.91-3.66-7.66-7.36"/><path class="cls-5" d="M29.28,15.7c2.29-1.06,6.07-.45,8.64-.51"/><path class="cls-5" d="M37.82,25.36a10.79,10.79,0,0,1-9.5-2.16"/><path class="cls-5" d="M40,32.3a20.49,20.49,0,0,1-11.33-3.8"/><path class="cls-5" d="M39,28a8.44,8.44,0,0,1-6.63,2.6"/></g></g></svg>