<svg xmlns="http://www.w3.org/2000/svg" viewBox="0 0 63.81 83.19"><defs><style>.cls-1,.cls-2,.cls-3{fill:#010101;}.cls-1,.cls-2,.cls-3,.cls-4,.cls-5{stroke:#010101;stroke-linecap:round;stroke-linejoin:round;}.cls-2{font-size:8.88px;}.cls-2,.cls-3{font-family:LondrinaSolid-Light, LondrinaSolid Light;font-weight:300;}.cls-3{font-size:8.12px;}.cls-4,.cls-5{fill:none;stroke-width:0.75px;}.cls-5{stroke-dasharray:0.5 2.98;}</style></defs><title>bigtop</title><g id="Layer_2" data-name="Layer 2"><g id="Pennies"><path class="cls-1" d="M58.27,44.67l5-3.22L58.23,38.3c.07,1.05.12,2.11.12,3.18S58.33,43.62,58.27,44.67Z"/><path class="cls-1" d="M53.8,74.52,52,67.44l-.22.25a34.44,34.44,0,0,1-3.57,5.24Z"/><path class="cls-1" d="M51.43,15.37l.22.25,1.7-7.11-5.56,1.67A34.26,34.26,0,0,1,51.43,15.37Z"/><text class="cls-2" transform="matrix(-0.31, -1.21, 0.97, -0.25, 12.14, 55.57)">P</text><text class="cls-2" transform="translate(10.56 48.98) rotate(-95.91) scale(1.24 1)">E</text><text class="cls-2" transform="translate(9.91 42.65) rotate(-87.35) scale(1.24 1)">N</text><text class="cls-2" transform="matrix(0.28, -1.21, 0.98, 0.22, 10.35, 34.54)">N</text><text class="cls-2" transform="matrix(0.5, -1.14, 0.92, 0.4, 12.23, 26.72)">Y</text><text class="cls-2" transform="translate(15.17 20.51) rotate(-57.09) scale(1.24 1)"> </text><text class="cls-3" transform="matrix(-0.31, -1.32, 0.97, -0.23, 18.92, 52.48)">P</text><text class="cls-3" transform="matrix(-0.08, -1.36, 1, -0.06, 17.6, 47.02)">A</text><text class="cls-3" transform="matrix(0.17, -1.35, 0.99, 0.12, 17.24, 39.6)">R</text><text class="cls-3" transform="matrix(0.43, -1.29, 0.95, 0.32, 18.07, 33.12)">K</text><path class="cls-1" d="M43,34.92h0c-1,.09-2.2.19-2,1.84a8.39,8.39,0,0,0,.49,1.2.06.06,0,0,1-.07.09c-.29-.06-.46-.5-1.26-.38a2.38,2.38,0,0,0-1.79,1.48,4.43,4.43,0,0,0,.58,3.7A.1.1,0,0,1,39,43a4.06,4.06,0,0,0-2.57,4.73,4,4,0,0,0,2.37,2.87c1.13.43,2.59-.26,3.47-.84a.08.08,0,0,1,.13.08c0,.56-.1,2.76,1.75,3.32,1.64.5,3-.76,3-2.69v-.1L47,34.53a2.27,2.27,0,0,0-2.11-2.4c-1.68,0-2.09,1.37-1.87,2.79Z"/><path class="cls-1" d="M48.67,47.15a.09.09,0,0,0,0,.15,8.74,8.74,0,0,0,2.27,1,1.14,1.14,0,0,0,0-2.26,8.41,8.41,0,0,0-2.25,1.07Z"/><path class="cls-1" d="M48.63,42.61a.08.08,0,0,0,0,.14,8.13,8.13,0,0,0,2.27,1,1.14,1.14,0,0,0,0-2.26,9,9,0,0,0-2.26,1.08Z"/><path class="cls-1" d="M48.6,38.21a8.8,8.8,0,0,0,2.28,1,1.14,1.14,0,0,0,0-2.26,8.62,8.62,0,0,0-2.26,1.07.09.09,0,0,0,0,.15Z"/><path class="cls-1" d="M52.8,40.47a8.74,8.74,0,0,0,2.27,1,1.14,1.14,0,0,0,0-2.26,8.62,8.62,0,0,0-2.26,1.07.09.09,0,0,0,0,.15Z"/><path class="cls-1" d="M52.83,45a8.42,8.42,0,0,0,2.27,1,1.14,1.14,0,0,0,0-2.26,8.45,8.45,0,0,0-2.25,1.08.08.08,0,0,0,0,.14Z"/><path class="cls-1" d="M31.31,12.48a.75.75,0,0,1,.72.79l.13,17.9a.78.78,0,0,1-.72.81l-8,.05a.76.76,0,0,1-.73-.79L22.6,13.33a.76.76,0,0,1,.72-.8Z"/><polygon class="cls-1" points="39.98 15.84 40.08 31.63 36.11 29.56 36.03 18.23 39.98 15.84"/><rect class="cls-1" x="25.19" y="19.76" width="8.89" height="4.95" transform="translate(-0.15 0.2) rotate(-0.39)"/><path class="cls-4" d="M37.48,17.7c0-.86.17-1.1-.16-1.88s-1-1.15-1.27-1.93a3.05,3.05,0,0,1,1.5-4.17"/><path class="cls-1" d="M37.58,11.42a2.87,2.87,0,0,0,2.1-2.35c.13-1-.06-2.54-1.18-2.12a2.68,2.68,0,0,0-1.82,1.94c-.25,1-.32,1.92.61,2.4Z"/><line class="cls-4" x1="34.13" y1="28.82" x2="34.04" y2="15.88"/><polygon class="cls-1" points="35.27 72.17 36.79 72.04 38.4 60.92 35.08 57.52 33.39 57.53 32.31 65.87 35.27 72.17"/><polygon class="cls-1" points="20.59 65.5 29.48 66.17 30.42 57.34 21.14 56.43 21.08 57.41 21.79 57.54 21.39 64.58 20.58 64.53 20.59 65.5"/><line class="cls-4" x1="20.59" y1="65.5" x2="33" y2="66.29"/><line class="cls-4" x1="21.14" y1="56.43" x2="33.8" y2="57.68"/><line class="cls-4" x1="35.08" y1="57.67" x2="43.92" y2="57.61"/><line class="cls-4" x1="37.92" y1="61.21" x2="48.76" y2="61.14"/><line class="cls-4" x1="36.6" y1="71.58" x2="46.89" y2="71.15"/><line class="cls-4" x1="37.72" y1="65.57" x2="42.72" y2="65.28"/><line class="cls-4" x1="43.13" y1="71.18" x2="39.53" y2="65.45"/><line class="cls-4" x1="44.98" y1="61.17" x2="40.21" y2="57.63"/><ellipse class="cls-5" cx="29.4" cy="41.59" rx="29.03" ry="41.22" transform="matrix(1, -0.01, 0.01, 1, -0.28, 0.2)"/></g></g></svg>