<svg xmlns="http://www.w3.org/2000/svg" viewBox="0 0 63.81 88.88"><defs><style>.cls-1,.cls-2{fill:#010101;}.cls-1,.cls-2,.cls-3{stroke:#010101;stroke-linecap:round;stroke-linejoin:round;}.cls-2{font-size:8.88px;font-family:LondrinaSolid-Light, LondrinaSolid Light;font-weight:300;}.cls-3{fill:none;stroke-width:0.75px;stroke-dasharray:0.5 2.98;}</style></defs><title>cactus2_penny</title><g id="Layer_2" data-name="Layer 2"><g id="Pennies"><path class="cls-1" d="M26.64,82.54l3.15,5.84,3.06-5.89a18.82,18.82,0,0,1-3.1.3A17.8,17.8,0,0,1,26.64,82.54Z"/><path class="cls-1" d="M58.28,44.43l5-3.24-5.09-3.14c.07,1.05.12,2.11.13,3.19S58.33,43.37,58.28,44.43Z"/><path class="cls-1" d="M7.41,67.82l-.22-.24-1.68,7.1L11.06,73A34.52,34.52,0,0,1,7.41,67.82Z"/><text class="cls-2" transform="matrix(0.66, -1.06, 0.85, 0.53, 14, 22.38)">P</text><text class="cls-2" transform="matrix(0.92, -0.84, 0.68, 0.74, 17.58, 16.8)">E</text><text class="cls-2" transform="translate(21.93 12.59) rotate(-17.73) scale(1.24 1)">N</text><text class="cls-2" transform="matrix(1.19, 0.35, -0.28, 0.96, 29.36, 10.37)">N</text><text class="cls-2" transform="matrix(0.93, 0.83, -0.67, 0.74, 36.65, 12.89)">Y</text><text class="cls-2" transform="matrix(0.73, 1.01, -0.81, 0.58, 41.47, 17.64)"> </text><text class="cls-2" transform="matrix(0.68, -1.09, 0.85, 0.53, 19.45, 28.28)">P</text><text class="cls-2" transform="matrix(1.05, -0.75, 0.58, 0.81, 22.02, 23.54)">A</text><text class="cls-2" transform="translate(27.27 19.62) rotate(4.54) scale(1.29 1)">R</text><text class="cls-2" transform="matrix(0.98, 0.83, -0.65, 0.76, 33.09, 20.13)">K</text><path class="cls-1" d="M41.38,57.24a1.71,1.71,0,0,1-.22.74,1.93,1.93,0,0,1-1.37,1.15c-1.4.19-3-1.68-3.91-2.68l-.15-.17c-.14-.16-.29-.35-.46-.57-1.24-1.58-3.28-4.2-6.71-2-1.88,1.22-2.9,3.08-3.31,6A29.67,29.67,0,0,0,25,64.21c0,2,.15,2.73.29,5.07.28,4.86-.21,6,.72,8.27.62,1.54,4,2.77,4.34,3.41,0-.66-.91-2-.58-3.37.49-2.08,1.58-1.18,4-4.5,2-2.7,2.95-5,2.93-7.27a7.56,7.56,0,0,0-1-3.58l0-.06a11.66,11.66,0,0,0-1.22-1.68c-.84-1-3.6-1.58-3.56-3.51,0-.9,1.79-1.33,2.6-.84.65.39,2.56,3,3.14,3.42a4.78,4.78,0,0,0,4.12.87,4.25,4.25,0,0,0,2.47-3.8,4.6,4.6,0,0,0-2-3.38,3.52,3.52,0,0,1-.55-.54c-.3-.41-1.33-.14-1.92.37a.2.2,0,0,1-.21,0c-1.3-.59-2-.5-2.16-.4a12,12,0,0,0,3.92,3.44c.54.3.89.5,1,.88A.64.64,0,0,1,41.38,57.24Z"/><path class="cls-1" d="M24.23,43.11c-.75,0-6.1,3.11-7.88,3.43s-2.52-.24-3.34-.22a9.66,9.66,0,0,0-2.91.43l-.23-.18-1.81.1s-1,1.45-.83,5l1.13.15S8.43,56.05,6.92,56c0,0-.51.27.64,5.29,0,0,.86,4.91,3.22,6.2l1-.66.11-.52s1.48-.27,1.47-1.45-.78-2,.07-4.85c0,0,.8-.15,1.1-1.85l0-.64.39-.36-.06-.41.14-.59.52-.24-.07-.44.24-.37.38-.17.17-.38.5-.54.41,0,.17-.37.69-.43.29.09.23-.54.4-.08.37,0,.48-.32.52-.19.17,0,.43-.1.72-.08.21.21.29-.11.43-.07.46.05.2.23.53-.26.89-.07s0,.13.38.17.19-.3.19-.3a1.21,1.21,0,0,0,.79-.25.7.7,0,0,0,.19-.62l.74-.23s-.28-1.16-.85-1.42C26.05,49.42,25.15,43.06,24.23,43.11Z"/><path class="cls-1" d="M47.53,44.32a3.89,3.89,0,0,0,0-.49l-1.05-2.72,1.87,2a4.46,4.46,0,0,0,3.06,1.23A5.08,5.08,0,0,0,56.12,39a5.08,5.08,0,0,0-4.84-5.25,4.45,4.45,0,0,0-3,1.28l-1.76,2,.93-2.69a4.21,4.21,0,0,0,0-.5,5.08,5.08,0,0,0-4.84-5.25A5.06,5.06,0,0,0,37.87,34a5.48,5.48,0,0,0,1.51,3.78l1.93.82-7.9-1,0,3.51,7.8-1.38-1.83.85A5.44,5.44,0,0,0,38,44.4a5.05,5.05,0,0,0,4.83,5.25A5.05,5.05,0,0,0,47.53,44.32Z"/><ellipse class="cls-3" cx="29.4" cy="41.59" rx="29.03" ry="41.22" transform="translate(-0.35 0.25) rotate(-0.48)"/></g></g></svg>