<svg xmlns="http://www.w3.org/2000/svg" viewBox="0 0 63.63 88.76"><defs><style>.cls-1,.cls-2,.cls-3{fill:#010101;}.cls-1,.cls-2,.cls-3,.cls-4,.cls-5{stroke:#010101;stroke-linecap:round;stroke-linejoin:round;}.cls-2{font-size:8.88px;}.cls-2,.cls-3{font-family:LondrinaSolid-Light, LondrinaSolid Light;font-weight:300;}.cls-3{font-size:8.68px;}.cls-4,.cls-5{fill:none;stroke-width:0.75px;}.cls-4{stroke-dasharray:0.5 2.98;}</style></defs><title>cactus1_penny</title><g id="Layer_2" data-name="Layer 2"><g id="Pennies"><path class="cls-1" d="M32.6,82.37l-3.06,5.89-3.15-5.84a18.91,18.91,0,0,0,3.11.25A17.7,17.7,0,0,0,32.6,82.37Z"/><path class="cls-1" d="M58.09,44.67l5-3.22-5.08-3.16c.07,1.05.11,2.12.12,3.19S58.15,43.62,58.09,44.67Z"/><text class="cls-2" transform="matrix(0.56, -1.11, 0.89, 0.45, 12.7, 24.95)">P</text><text class="cls-2" transform="translate(15.78 19.03) rotate(-49.88) scale(1.24 1)">E</text><text class="cls-2" transform="translate(19.64 14.24) rotate(-28.4) scale(1.24 1)">N</text><text class="cls-2" transform="matrix(1.24, 0.1, -0.08, 1, 26.48, 10.62)">N</text><text class="cls-2" transform="matrix(1.04, 0.69, -0.55, 0.83, 34.1, 11.6)">Y</text><text class="cls-2" transform="matrix(0.83, 0.92, -0.74, 0.67, 39.49, 15.58)"> </text><text class="cls-3" transform="matrix(0.61, -1.12, 0.88, 0.48, 19.5, 29.69)">P</text><text class="cls-3" transform="translate(21.64 25.12) rotate(-41.69) scale(1.27 1)">A</text><text class="cls-3" transform="translate(26.13 20.69) rotate(1.17) scale(1.27 1)">R</text><text class="cls-3" transform="translate(31.77 20.85) rotate(41.03) scale(1.27 1)">K</text><ellipse class="cls-4" cx="29.4" cy="41.59" rx="29.03" ry="41.22" transform="translate(-0.28 0.2) rotate(-0.39)"/><path class="cls-5" d="M52.39,49.27a11.29,11.29,0,0,1,1-4.07c1-2.2,3.21-5.08,0-7.13a14,14,0,0,1-2.72,8.81.12.12,0,0,1-.15,0s-.08-.1,0-.15C52,44.66,55.94,35.65,50,34.32a20.14,20.14,0,0,1-.62,12.07.11.11,0,0,1-.14.08.13.13,0,0,1-.08-.15C50.49,42,51,35.26,49.34,32.85a7.48,7.48,0,0,0-3-1.54C48.27,36.07,48.42,42.93,48,46a.11.11,0,0,1-.12.1.1.1,0,0,1-.11-.11c-.11-1.29.26-3.67.18-5-.33-5.69-1-12.75-4.62-11.19a37.41,37.41,0,0,1,3.06,15.44.12.12,0,0,1-.1.12.13.13,0,0,1-.13-.11c-.15-1.18-.28-2.45-.41-3.8-.51-5.2-2.3-15.7-5.78-14.21.09,3.49,2.62,7.8,3.38,13.4.15,1.08.78,3.58,1,4.63a.12.12,0,0,1-.09.14.13.13,0,0,1-.14-.09c-2.63-12-4.85-18.78-8-20.23a3.27,3.27,0,0,0-3.11.22c6.77,5.93,6.88,14.94,11.35,25.46,3.59-.88,6.46.84,8.82,2.77A8.77,8.77,0,0,1,52.39,49.27Z"/><path class="cls-5" d="M36.29,53.53V55a.14.14,0,0,0,.11.14.12.12,0,0,0,.14-.09l.4-1.38a6.68,6.68,0,0,1,1.32.32,7.14,7.14,0,0,1,1.24.58l-.39,1.38a.16.16,0,0,0,.06.17.13.13,0,0,0,.17-.05l.76-1.17a7.51,7.51,0,0,1,1.16.75,8.61,8.61,0,0,1,1,1l-.77,1.18a.15.15,0,0,0,0,.18.11.11,0,0,0,.16,0l1.06-.86a9.88,9.88,0,0,1,.89,1.12,7.37,7.37,0,0,1,.7,1.28l-1,.86a.15.15,0,0,0,0,.17.12.12,0,0,0,.16.07l1.24-.45A9,9,0,0,1,45.52,63l-1.24.46a.13.13,0,0,0-.09.15.14.14,0,0,0,.13.12h1.31a9.23,9.23,0,0,1,.13,1.49,8.49,8.49,0,0,1-.11,1.48H44.34a.15.15,0,0,0,0,.28l1.25.44a8.87,8.87,0,0,1-.81,2.83l-1.25-.44a.12.12,0,0,0-.15.07.15.15,0,0,0,0,.18l1.06.85a8.32,8.32,0,0,1-1.56,2.41l-1.07-.84a.11.11,0,0,0-.16,0,.17.17,0,0,0,0,.19l.78,1.16a7.27,7.27,0,0,1-1,1,6.53,6.53,0,0,1-1.15.77l-.78-1.16a.12.12,0,0,0-.16,0,.14.14,0,0,0-.06.17l.41,1.37a6.82,6.82,0,0,1-1.24.6,7.15,7.15,0,0,1-1.31.34l-.42-1.38a.13.13,0,0,0-.14-.09.14.14,0,0,0-.11.14V77a7.1,7.1,0,0,1-1.34.14A5.87,5.87,0,0,1,33.77,77V75.55a.14.14,0,0,0-.11-.14.13.13,0,0,0-.15.1l-.39,1.37a6.15,6.15,0,0,1-1.32-.32A6.45,6.45,0,0,1,30.55,76l.39-1.38a.16.16,0,0,0-.06-.17.13.13,0,0,0-.17,0L30,75.65a7.51,7.51,0,0,1-1.16-.75,8.62,8.62,0,0,1-1-1l.77-1.17a.17.17,0,0,0,0-.19.11.11,0,0,0-.16,0l-1.06.86a9,9,0,0,1-.9-1.12A7.86,7.86,0,0,1,25.7,71l1.05-.85a.16.16,0,0,0,0-.18.14.14,0,0,0-.16-.07l-1.24.45A8.62,8.62,0,0,1,24.85,69a8.73,8.73,0,0,1-.31-1.46l1.24-.45a.15.15,0,0,0,.09-.16.14.14,0,0,0-.13-.12H24.43a9,9,0,0,1-.13-1.49,8.39,8.39,0,0,1,.11-1.48h1.31a.14.14,0,0,0,.13-.12.16.16,0,0,0-.09-.16l-1.25-.44a9.07,9.07,0,0,1,.81-2.83l1.25.44a.12.12,0,0,0,.15-.07.15.15,0,0,0,0-.18l-1.06-.84a8.41,8.41,0,0,1,.68-1.29,8.61,8.61,0,0,1,.88-1.13l1.07.84a.11.11,0,0,0,.16,0,.15.15,0,0,0,0-.18l-.78-1.17a8.64,8.64,0,0,1,1-1,6.92,6.92,0,0,1,1.15-.77l.78,1.16a.11.11,0,0,0,.16,0,.14.14,0,0,0,.06-.17L30.4,54.6a8.52,8.52,0,0,1,1.24-.6A6.71,6.71,0,0,1,33,53.67L33.37,55a.11.11,0,0,0,.14.09.14.14,0,0,0,.11-.14V53.55A6.15,6.15,0,0,1,35,53.4,7.35,7.35,0,0,1,36.29,53.53Z"/><path class="cls-5" d="M27.63,65.31c0,4.51,3.37,8.16,7.46,8.13s7.38-3.72,7.34-8.23S39.06,57.05,35,57.08,27.59,60.8,27.63,65.31Z"/><path class="cls-5" d="M33,65.28a.2.2,0,0,1,.2-.23.21.21,0,0,1,.2.22.22.22,0,0,1-.2.23A.21.21,0,0,1,33,65.28Z"/><path class="cls-5" d="M35.77,65.26a.74.74,0,1,1-1.48,0,.74.74,0,1,1,1.48,0Z"/><path class="cls-5" d="M34.26,63.42a.15.15,0,0,1,0-.07.22.22,0,0,1,.14-.21.16.16,0,0,1,.15,0,.24.24,0,0,1,.11.13.23.23,0,0,1-.13.28A.2.2,0,0,1,34.26,63.42Z"/><path class="cls-5" d="M36.37,63.89a.2.2,0,0,1,.29,0,.27.27,0,0,1,0,.32.2.2,0,0,1-.29,0,.28.28,0,0,1,0-.13A.23.23,0,0,1,36.37,63.89Z"/><path class="cls-5" d="M35.76,62.71c1.1.38,2.41-.38,3.34-2a.62.62,0,0,0,.09-.34.66.66,0,0,0-.21-.49,5.85,5.85,0,0,0-4.4-1.55.62.62,0,0,0-.53.61C34,60.87,34.66,62.32,35.76,62.71Z"/><path class="cls-5" d="M36.39,66.62a.25.25,0,0,1-.08-.18.23.23,0,0,1,0-.14.19.19,0,0,1,.28,0,.26.26,0,0,1,0,.32.26.26,0,0,1-.14.09A.21.21,0,0,1,36.39,66.62Z"/><path class="cls-5" d="M29,63.61a.69.69,0,0,0,.36.74c1.59.64,3.06.38,3.73-.65a2.5,2.5,0,0,0,.37-1.38,4.87,4.87,0,0,0-1-2.73.55.55,0,0,0-.75-.14l-.34.25A7,7,0,0,0,29,63.61Z"/><path class="cls-5" d="M37.46,65.24c0,1.28,1.07,2.42,2.7,2.92a.6.6,0,0,0,.69-.38,7.7,7.7,0,0,0,.42-2.57,7.51,7.51,0,0,0-.46-2.54.57.57,0,0,0-.69-.37C38.49,62.81,37.45,64,37.46,65.24Z"/><path class="cls-5" d="M35.8,67.81c-1.1.4-1.75,1.85-1.67,3.73a.62.62,0,0,0,.54.6,5.83,5.83,0,0,0,4.07-1.32l.32-.28a.73.73,0,0,0,.1-.84C38.21,68.15,36.89,67.4,35.8,67.81Z"/><path class="cls-5" d="M34.54,67a.21.21,0,0,1,.13.28.21.21,0,0,1-.1.13.16.16,0,0,1-.15,0,.21.21,0,0,1-.14-.21.17.17,0,0,1,0-.07.19.19,0,0,1,.1-.13A.16.16,0,0,1,34.54,67Z"/><path class="cls-5" d="M32.49,71a4.81,4.81,0,0,0,1-2.75,2.48,2.48,0,0,0-.39-1.37c-.69-1-2.15-1.26-3.74-.6A.69.69,0,0,0,29,67a7.06,7.06,0,0,0,1,2.35,6.34,6.34,0,0,0,1.73,1.77A.56.56,0,0,0,32.49,71Z"/><path class="cls-5" d="M9.41,58.91l.44,1a1.88,1.88,0,0,0-.56,1.59c0,1.16.36,2.14.59,2.14s1.39-2.83.48-3.56c0-.3-.12-.54.12-.63a.64.64,0,0,1,.57.08s.1.35.33.26a.57.57,0,0,0,.31-.52c.42,0,.77-.41,1.17-.33s.22.22.47.31.43.11.46-.16c-.09.6.6.44.88.2s.31-1.08.35-1.6.19-1.29-.16-1.72a.51.51,0,0,0-.56-.24c-.26.06-.16.13-.32.33,0-.35-.4-.3-.61-.15s-.15.13-.26.13a.8.8,0,0,1-.34-.13,2.5,2.5,0,0,0-.71-.28c-.37-.12-.12-.24-.33-.57s-.64-.15-.7.32c-.31-.09-.75-.15-.54-.69s.32-.54.25-1c-.1-.8-.17-2-1-2.14a5.5,5.5,0,0,0-.53,2.07,1.25,1.25,0,0,0,.32,1c.24.33,0,.46-.13.83a3.3,3.3,0,0,0-1-1.43c-.4-.26-1.48-.37-1.82.13A7.17,7.17,0,0,1,8.33,55c.21.23.59.71.52,1.05s-.26.48-.28.8a3.07,3.07,0,0,0,.06.86c.07.26.29.39.32.67a2.37,2.37,0,0,1-.46.89,3.6,3.6,0,0,1-.64.7c-.21.18-1,0-1.19.16a2.63,2.63,0,0,0,1.27.58c.32,0,.44-.18.68-.42a3.81,3.81,0,0,0,.47-.69C9.23,59.34,9.27,59.1,9.41,58.91Z"/><path class="cls-5" d="M9.74,51.49a44.94,44.94,0,0,0-.29-8.93c-.19-2-.49-3.73.15-5.5s2.18-1.77,3.6-.94a3.15,3.15,0,0,0,3.68,0c.73-.71.95-1.24,1.75-1.21A4.1,4.1,0,0,0,21.17,34c.47-.49,1.55-.26,1.55-.26l.07,1.49-1.19.35a6.81,6.81,0,0,1-2.2.58c-.82,0-1.83,1.53-1.83,1.53A4.23,4.23,0,0,1,20,37.65a8.46,8.46,0,0,0,2.36.56l.65.49-.1,1.9s-1.13-.52-1.25-.87-1.48-.35-2.19-.38a13.9,13.9,0,0,1-2-.08c-1-.12-1.17,2.58-.85,4.37s1.06,2.45.42,4.88c0,0-.39,1.39-.08,1.57S18,49.4,18.5,49.5a5.88,5.88,0,0,0,3.44-.75l.94.35a4.39,4.39,0,0,1,0,2.07L22,50.51s-.64-.36-1.74.42-1,.43-1.81.5a2,2,0,0,0-1.36.74l.38,1.19,1.94.69a1.73,1.73,0,0,0,1.51.75l.93.26.8.49s.21,1.63-.27,1.91l-.86-.81a4.56,4.56,0,0,1-2-.74c-.6-.56-.52-.34-2-.89s-1.05-.21-1.05-.21a5.1,5.1,0,0,1-1.64,1.12"/><path class="cls-5" d="M16.91,44.58c.31,0,1-.4,1.14-.76.16.17,1.33,1.33,1.43.94s-1.14-1.23-1.32-1.42l.15-1.23c.24,0,1.91.62,1.67,0-.11-.32-1.35-.21-1.61-.26,0-.12.05-1.1.05-1.22.29,0,1.58.08,1.55-.27,0-.59-1.27-.4-1.54-.35-.06-.29-.36-.41-.47-.67"/><path class="cls-5" d="M10.67,35.76c.54,0,1.81-1.42,2.37-1.42a3.45,3.45,0,0,1,.85,0c.15,0,.3.14.46.19a2.28,2.28,0,0,0,1.91-.39c-.44-.09-.78-.43-1.27-.37a3.09,3.09,0,0,0-1.16.58"/><path class="cls-1" d="M5.1,74.34l1.69-7.1.23.24a34.36,34.36,0,0,0,3.64,5.2Z"/></g></g></svg>