<svg xmlns="http://www.w3.org/2000/svg" xmlns:xlink="http://www.w3.org/1999/xlink" viewBox="0 0 63.63 88.92"><defs><style>.cls-1,.cls-6,.cls-8{fill:none;}.cls-2,.cls-3,.cls-7{fill:#010101;}.cls-2,.cls-3,.cls-4,.cls-6,.cls-7,.cls-8{stroke:#010101;stroke-linecap:round;stroke-linejoin:round;}.cls-3{font-size:8.88px;}.cls-3,.cls-7{font-family:LondrinaSolid-Light, LondrinaSolid Light;font-weight:300;}.cls-4{fill:#fff;}.cls-4,.cls-6,.cls-8{stroke-width:0.75px;}.cls-5{clip-path:url(#clip-path);}.cls-7{font-size:8.68px;}.cls-8{stroke-dasharray:0.5 2.98;}</style><clipPath id="clip-path"><rect class="cls-1" x="-0.74" y="33.51" width="31.13" height="16.26" transform="translate(-26.94 56.13) rotate(-89.55)"/></clipPath></defs><title>cascade1_penny</title><g id="Layer_2" data-name="Layer 2"><g id="Pennies"><path class="cls-2" d="M31,82.52,34,88.42l3.16-5.85a17.72,17.72,0,0,1-6.22,0Z"/><path class="cls-2" d="M5.59,38.1.5,41.24l5,3.23c-.06-1-.09-2.11-.08-3.19S5.52,39.15,5.59,38.1Z"/><path class="cls-2" d="M58.32,74.71,56.64,67.6l-.23.24A33.77,33.77,0,0,1,52.77,73Z"/><text class="cls-3" transform="matrix(1.12, -0.53, 0.43, 0.9, 26.31, 13.65)">P</text><text class="cls-3" transform="matrix(1.24, 0.04, -0.03, 1, 32.15, 11.02)">E</text><text class="cls-3" transform="translate(38.13 11.16) rotate(30.38) scale(1.24 1)">N</text><text class="cls-3" transform="translate(44.81 15.37) rotate(53.21) scale(1.24 1)">N</text><text class="cls-3" transform="translate(49.4 21.86) rotate(67.1) scale(1.24 1)">Y</text><text class="cls-3" transform="translate(51.91 28.29) rotate(74.73) scale(1.24 1)"> </text><path class="cls-2" d="M21.46,74.17v-.66a1.37,1.37,0,0,1,1.3-1.42l1.85,0,.12-15.43-1.84,0a1.35,1.35,0,0,1-1.28-1.43v-.67a1.36,1.36,0,0,1,1.3-1.41h1.94a1.3,1.3,0,0,1,1.2-.89l3.61,0a1.33,1.33,0,0,1,1.25,1.15V54l5,2.5a.05.05,0,0,1,0,0,2.2,2.2,0,0,1,.9,1.85l0,2.51H38a1.36,1.36,0,0,1,1.28,1.44l0,4.36a1.36,1.36,0,0,1-1.3,1.41H36.79l0,2.52a2.19,2.19,0,0,1-.93,1.83l0,0-5.06,2.42v.55a1.34,1.34,0,0,1-1.28,1.13l-3.6,0a1.31,1.31,0,0,1-1.19-.92H22.74A1.37,1.37,0,0,1,21.46,74.17Z"/><path class="cls-4" d="M26.22,73.51a1.61,1.61,0,1,1,1.59,1.78A1.69,1.69,0,0,1,26.22,73.51Z"/><path class="cls-4" d="M26.37,55.24A1.6,1.6,0,1,1,28,57,1.68,1.68,0,0,1,26.37,55.24Z"/><path class="cls-4" d="M26.16,69.09l.08-9.37c0-.2.28-.36.62-.36H27c.34,0,.62.16.62.36l-.08,9.37c0,.2-.28.36-.61.36h-.14C26.44,69.45,26.16,69.29,26.16,69.09Z"/><path class="cls-4" d="M28,69.1l.07-9.36c0-.2.28-.36.62-.36h.14c.34,0,.61.17.61.37l-.08,9.36c0,.2-.27.36-.61.36h-.14C28.27,69.47,28,69.3,28,69.1Z"/><path class="cls-4" d="M30.72,72.8l.13-16.72a.34.34,0,0,1,.13-.25.25.25,0,0,1,.25,0l4,2,.07,0a.73.73,0,0,1,.19.49l-.1,12.25a.7.7,0,0,1-.19.49l-.08.06-4,1.93a.25.25,0,0,1-.26,0A.32.32,0,0,1,30.72,72.8Z"/><g class="cls-5"><path class="cls-6" d="M20.1,58.7c-1.28,0-2.31-1.52-2.29-3.38S18.87,52,20.15,52c-1.28,0-2.3-1.52-2.29-3.38s1.07-3.36,2.34-3.35a2.44,2.44,0,0,1-2.28-3.39c.64-1.71,1.06-3.35,2.34-3.34C19,38.5,18,37,18,35.12s1.06-3.36,2.34-3.35C19,31.76,18,30.25,18,28.39S19.08,25,20.36,25c-1.28,0-2.3-1.52-2.29-3.38s1.07-3.36,2.35-3.35"/><path class="cls-6" d="M15.79,62.61c-1.28,0-2.31-1.53-2.29-3.39s1.06-3.35,2.34-3.34c-1.28,0-2.3-1.53-2.29-3.39s1.06-3.36,2.34-3.35c-1.28,0-2.3-1.52-2.29-3.38S14.67,42.4,16,42.41c-1.28,0-2.31-1.52-2.29-3.38s1.06-3.36,2.34-3.35c-1.28,0-2.3-1.53-2.29-3.39s1.06-3.35,2.34-3.34c-1.28,0-2.3-1.53-2.29-3.39s1.07-3.36,2.35-3.35"/><path class="cls-6" d="M11.53,58.64c-1.28,0-2.3-1.53-2.29-3.39s1.07-3.36,2.35-3.35c-1.28,0-2.31-1.52-2.29-3.38s1.06-3.36,2.34-3.35c-1.28,0-2.3-1.52-2.29-3.38s1.06-3.36,2.34-3.35c-1.28,0-2.3-1.53-2.29-3.39s1.07-3.35,2.35-3.34c-1.28,0-2.31-1.53-2.29-3.39S10.52,25,11.8,25c-1.28,0-2.3-1.52-2.29-3.38s1.06-3.36,2.34-3.35"/></g><text class="cls-7" transform="matrix(1.11, -0.62, 0.48, 0.88, 27.95, 22.59)">P</text><text class="cls-7" transform="matrix(1.27, 0.12, -0.09, 1, 31.88, 19.8)">A</text><text class="cls-7" transform="matrix(0.96, 0.84, -0.66, 0.75, 38.19, 20.56)">R</text><text class="cls-7" transform="translate(42.71 24.71) rotate(62.11) scale(1.27 1)">K</text><path class="cls-6" d="M55.69,60.6a18.21,18.21,0,0,0,1.2-5c.08-2.17,0-6.94.08-9.7a5.89,5.89,0,0,0-3.36-5.65c-2-.9-4.86-3-4.5-4.54l-2,0S46,40.27,46.32,42.2l-4.47-.53,0,2.13,4,1.28a12.44,12.44,0,0,0,.6,12.06"/><path class="cls-6" d="M49,55.9c-3.5.57-4,4.34-4,4.34l-2.85-2.32-.86.93v1.54l3.18,2.77s2-1.39,3.39-1a7.86,7.86,0,0,0,4.09,0"/><path class="cls-6" d="M53.61,40.29c0-1,.23-2.46,1.13-3A10,10,0,0,1,56.12,37a4.19,4.19,0,0,0,1.24-.76c0,1.44,0,5.28-1.77,5.6"/><path class="cls-6" d="M55.53,46.29c.12-.7-.87-2.1-1.31-2.59s-.81-.51-1.14-.9-.38-1-.64-1.44c-.47,1.53-2,5.93.46,6.07"/><ellipse class="cls-6" cx="50.38" cy="41.24" rx="0.53" ry="0.48" transform="translate(8.74 91.29) rotate(-89.55)"/><path class="cls-6" d="M55.42,60.29c.89.66.88,3.56.29,4.4a2.21,2.21,0,0,1-2.89.77,3,3,0,0,1-1-3c.26-1,1.87-1.49,2-.2,0,.47-.24.71-.33,1.07.81,0,.8-2,.34-2.44"/><ellipse class="cls-8" cx="34.23" cy="41.59" rx="41.22" ry="29.02" transform="matrix(0.01, -1, 1, 0.01, -7.63, 75.5)"/></g></g></svg>