<svg xmlns="http://www.w3.org/2000/svg" viewBox="0 0 70.29 85.3"><defs><style>.cls-1,.cls-2,.cls-3{fill:#010101;}.cls-1,.cls-2,.cls-3,.cls-4,.cls-5,.cls-6{stroke:#010101;stroke-linecap:round;stroke-linejoin:round;stroke-width:0.75px;}.cls-2{font-size:9.81px;}.cls-2,.cls-3{font-family:LondrinaSolid-Light, LondrinaSolid Light;font-weight:300;}.cls-3{font-size:9.59px;}.cls-4,.cls-5{fill:none;}.cls-4{stroke-dasharray:0.5 3.02;}</style></defs><title>Asset 3</title><g id="Layer_2" data-name="Layer 2"><g id="Pennies"><path class="cls-1" d="M36.92,5.8,33.66.38l-3.6,5.19a26,26,0,0,1,3.43-.14A24.16,24.16,0,0,1,36.92,5.8Z"/><path class="cls-1" d="M34.46,79.73l-3.61,5.2L27.6,79.51a25.73,25.73,0,0,0,3.42.36A24.56,24.56,0,0,0,34.46,79.73Z"/><text class="cls-2" transform="matrix(-0.27, -0.98, 0.97, -0.26, 12.73, 54.75)">P</text><text class="cls-2" transform="matrix(-0.09, -1.01, 1, -0.09, 11.22, 48.88)">E</text><text class="cls-2" transform="translate(10.69 43.25) rotate(-85.04) scale(1.02 1)">N</text><text class="cls-2" transform="translate(11.38 36.01) rotate(-73.08) scale(1.02 1)">N</text><text class="cls-2" transform="translate(13.58 29.17) rotate(-61.09) scale(1.02 1)">Y</text><text class="cls-2" transform="matrix(0.63, -0.8, 0.79, 0.62, 16.71, 23.88)"> </text><text class="cls-3" transform="matrix(-0.24, -1.01, 0.97, -0.23, 20.67, 51.11)">P</text><text class="cls-3" transform="translate(19.5 46.68) rotate(-91.39) scale(1.04 1)">A</text><text class="cls-3" transform="matrix(0.22, -1.02, 0.98, 0.21, 19.38, 40.56)">R</text><text class="cls-3" transform="translate(20.47 35.35) rotate(-64.09) scale(1.04 1)">K</text><ellipse class="cls-4" cx="32.46" cy="42.73" rx="37.3" ry="32.08" transform="matrix(0.03, -1, 1, 0.03, -11.33, 73.75)"/><path class="cls-1" d="M64.23,46.68,69.92,44l-5.5-3.07c0,1,0,1.91,0,2.89S64.33,45.73,64.23,46.68Z"/><path class="cls-5" d="M26.89,17.23a3.13,3.13,0,0,1-1.45-2.81,3.49,3.49,0,0,1,3.76-3.18,3.49,3.49,0,0,1,3.55,3.43A3.5,3.5,0,0,1,29,17.85"/><path class="cls-5" d="M26.26,19.14a5.26,5.26,0,0,1-3-4.79,5.58,5.58,0,0,1,6-5.08,5.57,5.57,0,0,1,5.65,5.47,5.45,5.45,0,0,1-5,5"/><path class="cls-5" d="M33.6,17.92a2.44,2.44,0,0,1,0,.27A2.32,2.32,0,0,1,29,18a2.21,2.21,0,0,1,2.38-2,2.35,2.35,0,0,1,.88.19"/><path class="cls-5" d="M34.89,15.16l1.83.45L43.25,27.1a1,1,0,0,1-.31,1.43l-10.19,4a1.2,1.2,0,0,1-1.41-.71L25.82,20.21l2.45-6.66,4.47,1.09"/><path class="cls-6" d="M49.78,38l-1.22-.43-1.34-1.89.57-.51-1-.51s-.25-.89.34-1,.49-.2.46-.72c0,0,.71-.43-.06-.64l-.07-.37.28,0s-.25-1.09-1.13-1.09-1,.19-1,.19-.62-.78-1,.07-.37,1.54.22,1.2a1.36,1.36,0,0,0,1.1,1.2s.32.15-.06.84c0,0-1,.79,0,2.64s.53-.72.53-.72l1.88,2,2.92.81a.51.51,0,0,0,.72.39A2.9,2.9,0,0,0,53,38.75l.26.3L54.56,38l.11,2.14.71.12,2.4,9.38s-1.61.25-1.35,1.08l3-.38-.11-.64.4-.07-1.11-6.1-.38-2.89,1.49,1.18-1.65-4.27-.31-1.72-.07-2,0-1.1-.48-.89-.55-.41-.48-.58-.36-.61.27-.05a1.44,1.44,0,0,0-.49-1.78,1.7,1.7,0,0,0-2.16.25c-.47.4-.34,1.15,0,1.28s-.12.94.1.84.35.16.48.47.34.18.6-.11.37.32.37.32l-.08.3,0,.26s-1.08,1-.86,2a16.68,16.68,0,0,1,.27,2.28l-2.39,1.89a.88.88,0,0,0-.69.25"/><path class="cls-5" d="M44.86,30.89c-.77.14-1.47.19-1.92.89a8.41,8.41,0,0,0-.84,2.76,14.79,14.79,0,0,0-.4,2.27,9,9,0,0,0,0,1.47c0,.28.09.55.13.83,0,.08,0,.33,0,.4.39.48,1.07.14,1.24.39s.33.13.63.07.72,0,.84-.33,0-.44.08-.31a2.28,2.28,0,0,0,1-.43c0-.18.33-.42.52-.5a12.49,12.49,0,0,0-.43-1.26c-.12-.51-.23-1-.35-1.55a8.78,8.78,0,0,1-.35-2.88"/><path class="cls-5" d="M46.26,37.47a3.35,3.35,0,0,1,.4,1.44,5.75,5.75,0,0,0-1.9,2.16,13.6,13.6,0,0,0-.91,1.63,10.39,10.39,0,0,0-.63,2.12c-.19,1-.31,1.41-.51,2.4a22.11,22.11,0,0,0-.68,5.1c0,.23-.06.65.2.73s.84-.23,1-.76c-.14,1.5,1.4.67,1.77.58,0-.17,0-2.54,0-2.72.06.36-.19,2.91.24,2.94a3.37,3.37,0,0,0,1.54-.38c0-.12-.1-2.33-.1-2.44a19.61,19.61,0,0,0,.24,2.61,1.94,1.94,0,0,0,.6.07,5.64,5.64,0,0,0,1.8-.42c0-.16-.38-2.34-.4-2.45a16.71,16.71,0,0,0,.45,2.32,3.4,3.4,0,0,0,.88-.07,9.43,9.43,0,0,0,1.84-.21c0-.22-.52-2.58-.55-2.74,0,.41.28,2.54.66,2.49a5.71,5.71,0,0,0,1.67-.36,20.47,20.47,0,0,1-.53-2.61c0,.31.43,2.31.51,2.62a5.54,5.54,0,0,0,1.23-.19c.29-.13.23-.28.2-.57.23.39.75,0,1.1,0a6.09,6.09,0,0,0-.28-1.51,16.77,16.77,0,0,0-3.95-7,21.86,21.86,0,0,0-1.8-2,12.14,12.14,0,0,1-1.75-1.61c-.29-.51.5-1.3.53-1.85a1.55,1.55,0,0,0-.4-1.22,8.44,8.44,0,0,0-2-.94"/><line class="cls-5" x1="43.13" y1="39.9" x2="43.26" y2="36.15"/><ellipse class="cls-5" cx="33.25" cy="58.99" rx="9.64" ry="1.8" transform="translate(-10.02 6.91) rotate(-10.31)"/><path class="cls-5" d="M42.85,60c.17,1-3.76,2.51-8.8,3.42s-9.25.87-9.43-.11"/><line class="cls-5" x1="42.74" y1="57.26" x2="42.85" y2="59.96"/><line class="cls-5" x1="23.8" y1="60.86" x2="24.62" y2="63.27"/><path class="cls-5" d="M25.54,63.85s3,10.89,3.51,11.75,1.86,1.89,4.19,1.61,7.77-.86,9.24-2.92-.38-11.82-.23-13.37"/><path class="cls-5" d="M40.64,60.36c-1.2,3.94-4.63,8.9-11.11,12.47s-4.24-2.53-3.09-5.75"/><ellipse class="cls-5" cx="40.64" cy="60.39" rx="0.46" ry="0.41" transform="translate(-10.15 8.25) rotate(-10.31)"/></g></g></svg>