<svg xmlns="http://www.w3.org/2000/svg" viewBox="0 0 64.9 85.43"><defs><style>.cls-1,.cls-3,.cls-4{fill:#010101;}.cls-1,.cls-2,.cls-3,.cls-4,.cls-5{stroke:#010101;stroke-linecap:round;stroke-linejoin:round;stroke-width:0.75px;}.cls-2,.cls-5{fill:none;}.cls-2{stroke-dasharray:0.5 3.02;}.cls-3{font-size:9.81px;}.cls-3,.cls-4{font-family:LondrinaSolid-Light, LondrinaSolid Light;font-weight:300;}.cls-4{font-size:9.59px;}</style></defs><title>events</title><g id="Layer_2" data-name="Layer 2"><g id="Pennies"><path class="cls-1" d="M35.5,79.78,32,85.05,28.63,79.7a24.42,24.42,0,0,0,3.43.29A26.15,26.15,0,0,0,35.5,79.78Z"/><path class="cls-1" d="M56.74,66.53l.25-.21,1.86,6.43-6.14-1.54A31.91,31.91,0,0,0,56.74,66.53Z"/><ellipse class="cls-2" cx="32.45" cy="42.71" rx="37.3" ry="32.08" transform="matrix(0.01, -1, 1, 0.01, -10.6, 74.72)"/><path class="cls-1" d="M36.27,5.72,32.89.38,29.41,5.65a22.9,22.9,0,0,1,3.43-.21A24.29,24.29,0,0,1,36.27,5.72Z"/><text class="cls-3" transform="translate(12.18 52.2) rotate(-100.94) scale(1.02 1)">P</text><text class="cls-3" transform="matrix(-0.03, -1.02, 1, -0.03, 11.11, 46.24)">E</text><text class="cls-3" transform="matrix(0.16, -1.01, 0.99, 0.15, 10.96, 40.59)">N</text><text class="cls-3" transform="translate(12.14 33.44) rotate(-68.72) scale(1.02 1)">N</text><text class="cls-3" transform="matrix(0.57, -0.84, 0.83, 0.56, 14.85, 26.78)">Y</text><text class="cls-3" transform="matrix(0.71, -0.73, 0.72, 0.7, 18.44, 21.83)"> </text><text class="cls-4" transform="translate(20.72 50.47) rotate(-102.19) scale(1.04 1)">P</text><text class="cls-4" transform="translate(19.64 45.98) rotate(-90.49) scale(1.04 1)">A</text><text class="cls-4" transform="translate(19.62 39.9) rotate(-76.84) scale(1.04 1)">R</text><text class="cls-4" transform="translate(20.79 34.73) rotate(-62.33) scale(1.04 1)">K</text><ellipse class="cls-5" cx="34.32" cy="18.4" rx="3.05" ry="11.89" transform="translate(15.56 52.53) rotate(-89.4)"/><path class="cls-5" d="M46.21,18.53l-.08,7.74c0,1.68-5.36,3-11.92,2.92S22.33,27.7,22.35,26l.08-7.74"/><path class="cls-5" d="M22.41,20.27c0,.74,1,1.44,2.77,2,0,.94-.72,3.39.58,3.86,1.46.52,1.39-1.19,1.38-2,0-.29,0-1,0-1.34,0,0,2.27.34,3.65.46,0,.84.05,1.75,1.23,1.64.93-.08,1.11-.76,1.06-1.5.35,0,.7,0,1.17,0,.86,0,1.69,0,2.5,0,0,1.08-.64,4.11,1.55,3.58.74-.17.68-.82.68-1.44a10.44,10.44,0,0,1,.14-1.48c0-.17-.11-.68,0-.87,1-.11,2.18-.25,3-.43a2,2,0,0,0,.3,1.33,1.58,1.58,0,0,0,.62.27,1.38,1.38,0,0,0,.92-.14,1.23,1.23,0,0,0,.34-.72c0-.42,0-1,0-1.38,1.16-.46,1.83-1,1.84-1.61"/><line class="cls-5" x1="29.3" y1="18.8" x2="29.35" y2="13.86"/><line class="cls-5" x1="34.33" y1="17.18" x2="34.39" y2="11.84"/><line class="cls-5" x1="39.43" y1="18.91" x2="39.48" y2="13.97"/><path class="cls-5" d="M29.34,9.72s-2.05,2.66-1.07,3.61,1.81.54,2.19-.39S29.34,9.72,29.34,9.72Z"/><path class="cls-5" d="M34.44,7.7s-2,2.66-1.07,3.61,1.81.54,2.19-.39S34.44,7.7,34.44,7.7Z"/><path class="cls-5" d="M39.57,9.82s-2,2.67-1.07,3.61,1.81.54,2.19-.39S39.57,9.82,39.57,9.82Z"/><path class="cls-1" d="M33.41,52.17c-.89,0-2.13,0-2.2.69-.15,1.54,2.78,4.46,8.24,5.2a29,29,0,0,0,6.59.09h0c5.55-.62,8.56-3.49,8.45-5-.05-.71-1.3-.73-2.18-.74h0a20,20,0,0,0-3.11.32c.06.79.15,1.59.27,2.38a.1.1,0,0,1-.07.1A22.11,22.11,0,0,1,36.27,55a.1.1,0,0,1-.06-.1c.14-.85.44-1.63.51-2.37a24,24,0,0,0-3.3-.39Z"/><path class="cls-1" d="M36.84,51.38a41.41,41.41,0,0,0-.28-8.77s0-.07.06-.08a31.21,31.21,0,0,1,12.68.13s.07.05.06.08a39.83,39.83,0,0,0-.46,8.76,18.49,18.49,0,0,1-5.81.56A24.69,24.69,0,0,1,36.84,51.38Z"/><path class="cls-1" d="M42.8,54.73a13.46,13.46,0,0,1-4.56-.64.08.08,0,0,1-.05-.07c.13-.76.2-.26.26-1.09l0,0h.07a17.17,17.17,0,0,0,8.6.09h.06a.05.05,0,0,1,0,.05c0,.78.13.28.24,1.09a.06.06,0,0,1,0,.07A14.15,14.15,0,0,1,42.8,54.73Z"/><path class="cls-5" d="M49.45,55.07a39.14,39.14,0,0,1-.15-12.41"/><path class="cls-5" d="M36.21,54.93s1.41-4.47.35-12.32"/><path class="cls-5" d="M31.69,71.17a37,37,0,0,0-8.66.76.76.76,0,0,0-.45.33.6.6,0,0,0-.07.52.77.77,0,0,0,.94.48,37.29,37.29,0,0,1,8.3-.7,56.92,56.92,0,0,1,9.42.9l.14,0a.75.75,0,0,0,.76-.56A.62.62,0,0,0,42,72.4a.77.77,0,0,0-.48-.29,59.54,59.54,0,0,0-9.78-.94h0"/><path class="cls-1" d="M20.45,62.57a1.52,1.52,0,1,0,1.66,1.53,1.6,1.6,0,0,0-1.66-1.53Z"/><path class="cls-1" d="M44.18,62.69a1.52,1.52,0,1,0,1.66,1.53,1.6,1.6,0,0,0-1.66-1.53Z"/><path class="cls-1" d="M32.25,67a.18.18,0,0,0-.16.08l-.94,1.39a.15.15,0,0,0,0,.18l.91,1.41a.18.18,0,0,0,.16.08.21.21,0,0,0,.16-.08l.94-1.39a.19.19,0,0,0,0-.18l-.91-1.41a.18.18,0,0,0-.16-.08Z"/><path class="cls-1" d="M32.26,61.37a1.52,1.52,0,1,0,1.66,1.53,1.6,1.6,0,0,0-1.66-1.53Z"/><path class="cls-5" d="M39.51,68.27l.18-.11a6.12,6.12,0,0,1-1.14-3.3,1.37,1.37,0,0,0,1.06-1.26,1.48,1.48,0,0,0-2.94,0,1.27,1.27,0,0,0,.56,1.05,4.45,4.45,0,0,1-2.69,2.86,1,1,0,0,0,.11.17"/><path class="cls-5" d="M29.79,67.66l.12-.16a4.55,4.55,0,0,1-2.78-3,1.29,1.29,0,0,0,.59-1,1.48,1.48,0,0,0-2.94,0,1.35,1.35,0,0,0,1,1.28,6.18,6.18,0,0,1-1.15,3.2l.17.12"/><path class="cls-5" d="M31.67,73.93a37.08,37.08,0,0,0-8.67.76.76.76,0,0,0-.45.33.6.6,0,0,0-.07.52.77.77,0,0,0,.94.48,36.56,36.56,0,0,1,8.3-.7,57.14,57.14,0,0,1,9.43.9l.14,0a.75.75,0,0,0,.75-.56.62.62,0,0,0-.12-.52.77.77,0,0,0-.48-.29,59.53,59.53,0,0,0-9.77-.94h0"/><line class="cls-5" x1="20.39" y1="65.59" x2="23.23" y2="71.89"/><line class="cls-5" x1="23.82" y1="73.18" x2="24.28" y2="74.33"/><line class="cls-5" x1="41.17" y1="72.06" x2="44.2" y2="65.72"/><line class="cls-5" x1="40.05" y1="74.52" x2="40.55" y2="73.36"/><path class="cls-5" d="M42.68,64.89C41.83,66.25,39.79,69,37.17,69"/><path class="cls-5" d="M36.55,68.92c-1.72-.3-2.66-1.87-3-5.06"/><path class="cls-5" d="M37.17,69a6.2,6.2,0,0,1-.62-.06"/><path class="cls-5" d="M27.29,68.87c-2.56,0-4.51-2.69-5.37-4.1"/><path class="cls-5" d="M27.91,68.83a3.18,3.18,0,0,1-.62,0"/><path class="cls-5" d="M31,63.91c-.43,3.13-1.4,4.66-3.11,4.92"/></g></g></svg>