<svg xmlns="http://www.w3.org/2000/svg" viewBox="0 0 70.1 85.35"><defs><style>.cls-1,.cls-2,.cls-3{fill:#010101;}.cls-1,.cls-2,.cls-3,.cls-4,.cls-5{stroke:#010101;stroke-linecap:round;stroke-linejoin:round;stroke-width:0.75px;}.cls-2{font-size:9.81px;}.cls-2,.cls-3{font-family:LondrinaSolid-Light, LondrinaSolid Light;font-weight:300;}.cls-3{font-size:9.59px;}.cls-4,.cls-5{fill:none;}.cls-4{stroke-dasharray:0.5 3.02;}</style></defs><title>movie2_penny</title><g id="Layer_2" data-name="Layer 2"><g id="Pennies"><path class="cls-1" d="M40.63,5.66,37.17.38l-3.4,5.33a22.89,22.89,0,0,1,3.43-.27A24.3,24.3,0,0,1,40.63,5.66Z"/><path class="cls-1" d="M41.13,79.64,37.73,85l-3.47-5.28a24.2,24.2,0,0,0,6.87,0Z"/><text class="cls-2" transform="translate(57.55 32.81) rotate(78.09) scale(1.02 1)">P</text><text class="cls-2" transform="translate(58.72 38.75) rotate(87.58) scale(1.02 1)">E</text><text class="cls-2" transform="matrix(-0.14, 1.01, -0.99, -0.14, 58.98, 44.4)">N</text><text class="cls-2" transform="matrix(-0.35, 0.96, -0.94, -0.35, 57.91, 51.58)">N</text><text class="cls-2" transform="matrix(-0.56, 0.85, -0.84, -0.55, 55.32, 58.26)">Y</text><text class="cls-2" transform="matrix(-0.7, 0.74, -0.73, -0.68, 51.81, 63.28)"> </text><text class="cls-3" transform="translate(49.16 34.91) rotate(77.57) scale(1.04 1)">P</text><text class="cls-3" transform="translate(50.23 39.39) rotate(88.92) scale(1.04 1)">A</text><text class="cls-3" transform="translate(50.29 45.47) rotate(102.91) scale(1.04 1)">R</text><text class="cls-3" transform="translate(49.13 50.66) rotate(117.35) scale(1.04 1)">K</text><ellipse class="cls-4" cx="37.65" cy="42.74" rx="32.08" ry="37.3" transform="translate(-0.28 0.25) rotate(-0.38)"/><path class="cls-1" d="M6,40,.38,42.91,6,45.76c-.07-.95-.12-1.91-.13-2.88S5.89,40.94,6,40Z"/><path class="cls-5" d="M25.81,22.51l.83,6,21.41-.15.77-6-1.67-5.55-4.41,0,2.15-4.44L42.5,11.23l.67-1.37-1.83-.71A8.71,8.71,0,0,1,33,9.21l-1.78.73.64,1.5L29.45,12.5l2.21,4.39-4.33,0Z"/><path class="cls-5" d="M32.62,18.6c-2,.23-3.25.59-3.25,1,0,.66,3.58,1.16,8,1.13s8-.58,8-1.24c0-.4-1.36-.75-3.42-.95"/><line class="cls-5" x1="42.74" y1="16.84" x2="40.74" y2="20.58"/><line class="cls-5" x1="31.66" y1="16.89" x2="33.75" y2="20.61"/><line class="cls-5" x1="31.82" y1="11.44" x2="35.4" y2="18.75"/><line class="cls-5" x1="34.48" y1="9.84" x2="35.94" y2="15.51"/><line class="cls-5" x1="42.5" y1="11.23" x2="38.94" y2="18.73"/><line class="cls-5" x1="48.82" y1="22.36" x2="25.81" y2="22.51"/><polygon class="cls-5" points="20.5 42.86 23.1 41.6 32.67 42.77 22.98 44.07 20.5 42.86"/><polyline class="cls-5" points="20.5 42.86 21.88 45.09 25.78 47.57 22.98 44.07"/><polygon class="cls-5" points="20.5 42.86 19.12 40.51 20.43 31.84 21.85 40.61 20.5 42.86"/><polyline class="cls-5" points="20.5 42.86 22.97 41.6 25.72 38.07 21.85 40.61"/><polygon class="cls-5" points="20.5 42.86 17.91 44.11 8.33 42.94 18.02 41.64 20.5 42.86"/><polyline class="cls-5" points="20.5 42.86 19.13 40.63 15.22 38.14 18.02 41.64"/><polygon class="cls-5" points="20.5 42.86 21.88 45.2 20.58 53.87 19.15 45.1 20.5 42.86"/><polyline class="cls-5" points="20.5 42.86 18.04 44.11 15.29 47.64 19.15 45.1"/><polygon class="cls-1" points="32.09 42.72 31.04 40.22 39.02 42.67 31.21 45.36 32.09 42.72"/><path class="cls-5" d="M28.57,60.62a3.29,3.29,0,0,1,3.34-2c.71,0,3.93-.13,7,0,2.31.06,4.52.28,5.43.34a2.08,2.08,0,0,1,2.15,2s-11.34-1.07-12.7-.13c-.9.62-3.3,4.39-2.22,5.23S42.91,67.56,48,65.45"/><path class="cls-5" d="M31.4,64.56s6.86-.35,8.79-.33a25.3,25.3,0,0,1,7.55.88c1.42.58,2.95,4,3,5.69s-1.34,2.1-7.36,2.59a102.12,102.12,0,0,1-14.76.07c-2.62-.29-5.46-1-5.42-1.52.05-1,1-2.9,1.94-4.72.24-.49,1.22-2.34,1.92-3.95"/><path class="cls-5" d="M50.78,70.67c-1.77.65-17,2-24.63.54A5.7,5.7,0,0,1,23.84,70"/><path class="cls-5" d="M45.64,59.34A60.6,60.6,0,0,0,39.18,59c-3.71-.1-7.51,0-7.88.89-.64,1.55-5.11,9.15-5.15,11.34"/><path class="cls-5" d="M28.53,63.13c-.14.31-.39.52-.56.45l-2.06-.75c-.17-.06-.19-.37-.05-.68l.72-1.6c.14-.31.39-.51.56-.45l2.06.75c.17.07.19.37.05.69Z"/><path class="cls-1" d="M23.93,70c-.1-.11-.92,1.89-.52,2.16,1.18.79,4.17,1.14,5.71,1.24a93.37,93.37,0,0,0,16-.22c3.37-.44,5.62-.5,5.67-2.44,0,0-7.89,1-13,1-3.56,0-8.68.13-11.44-.61A5.9,5.9,0,0,1,23.93,70Z"/></g></g></svg>