<svg xmlns="http://www.w3.org/2000/svg" viewBox="0 0 64.9 85.42"><defs><style>.cls-1,.cls-3,.cls-4{fill:#010101;}.cls-1,.cls-2,.cls-3,.cls-4,.cls-5{stroke:#010101;stroke-linecap:round;stroke-linejoin:round;stroke-width:0.75px;}.cls-2,.cls-5{fill:none;}.cls-2{stroke-dasharray:0.5 3.02;}.cls-3{font-size:9.81px;}.cls-3,.cls-4{font-family:LondrinaSolid-Light, LondrinaSolid Light;font-weight:300;}.cls-4{font-size:9.59px;}</style></defs><title>safari1_penny</title><g id="Layer_2" data-name="Layer 2"><g id="Pennies"><path class="cls-1" d="M35.31,5.63,31.8.38,28.45,5.74a22.78,22.78,0,0,1,3.43-.3A24.4,24.4,0,0,1,35.31,5.63Z"/><path class="cls-1" d="M56.62,18.77l.25.22,1.83-6.45-6.13,1.57A30.79,30.79,0,0,1,56.62,18.77Z"/><ellipse class="cls-2" cx="32.45" cy="42.71" rx="32.08" ry="37.3" transform="translate(-0.66 0.51) rotate(-0.89)"/><path class="cls-1" d="M29.59,79.79l3.52,5.26,3.35-5.37A23,23,0,0,1,33,80,24.54,24.54,0,0,1,29.59,79.79Z"/><text class="cls-3" transform="matrix(-0.34, -0.96, 0.94, -0.33, 13.89, 56.61)">P</text><text class="cls-3" transform="translate(11.95 50.89) rotate(-99.62) scale(1.02 1)">E</text><text class="cls-3" transform="translate(11.01 45.33) rotate(-89.31) scale(1.02 1)">N</text><text class="cls-3" transform="matrix(0.22, -1, 0.98, 0.22, 11.16, 38.06)">N</text><text class="cls-3" transform="matrix(0.42, -0.93, 0.91, 0.41, 12.83, 31.06)">Y</text><text class="cls-3" transform="translate(15.53 25.53) rotate(-56.6) scale(1.02 1)"> </text><text class="cls-4" transform="translate(22.01 53.31) rotate(-110.56) scale(1.04 1)">P</text><text class="cls-4" transform="matrix(-0.15, -1.03, 0.99, -0.14, 20.3, 49.08)">A</text><text class="cls-4" transform="matrix(0.09, -1.04, 1, 0.09, 19.47, 43.02)">R</text><text class="cls-4" transform="translate(19.93 37.68) rotate(-71.51) scale(1.04 1)">K</text><polyline class="cls-5" points="44.03 23.29 40.56 23.34 40.77 36.8 44.24 36.74"/><polyline class="cls-5" points="49.71 23.2 53.18 23.14 53.39 36.6 49.92 36.65"/><ellipse class="cls-1" cx="31.55" cy="15.31" rx="7.28" ry="6.59" transform="translate(-0.23 0.49) rotate(-0.89)"/><path class="cls-1" d="M25.09,23.7a.64.64,0,0,1-.29-.91l4.94-8.08a.79.79,0,0,1,1-.27l2.32,1.16a.64.64,0,0,1,.3.92L28.44,24.6a.79.79,0,0,1-1,.27Z"/><path class="cls-5" d="M26.52,23.28c.39,3.63-3.45,4-4,1.75s-4.56-2.23-5.43.09"/><line class="cls-5" x1="14.97" y1="25.01" x2="12.59" y2="25.05"/><line class="cls-5" x1="15.55" y1="23.59" x2="13.84" y2="22.09"/><line class="cls-5" x1="17.2" y1="23.39" x2="17.16" y2="21.24"/><line class="cls-5" x1="18.6" y1="26.46" x2="20.3" y2="27.96"/><line class="cls-5" x1="16.95" y1="27.02" x2="16.99" y2="29.18"/><line class="cls-5" x1="15.38" y1="26.32" x2="13.72" y2="27.87"/><line class="cls-5" x1="18.98" y1="25.22" x2="21.36" y2="25.18"/><path class="cls-5" d="M30.26,59.09c.63.47,1.11.92,2,.41a1.58,1.58,0,0,0,.63-2.28c-1-1.09-4-1.29-3.55.7A2.35,2.35,0,0,0,30.26,59.09Z"/><path class="cls-5" d="M29.13,57a11.08,11.08,0,0,0-2.41-.15,6.42,6.42,0,0,0-2.28.82,1.85,1.85,0,0,0-.41,2c.24.64,1.22,1,1.76,1.51a2.05,2.05,0,0,0,2.83.33,6.59,6.59,0,0,0,1.17-1c.28-.32.81-.7.93-1.08"/><path class="cls-5" d="M23.92,58.87c-5.09-.28-2.78,2.94-2.81,3.56a3.53,3.53,0,0,0,.65,1.95,4.36,4.36,0,0,0,1.57,1.76c.22.12.28.07.37.28s0,.38,0,.54a7.61,7.61,0,0,0,.47,1.23,7.51,7.51,0,0,0,2,3.1c.21.19.41.64.64.74a6.09,6.09,0,0,0,1.48,0c.88.09,1.08,1.25,1.67,1.75s1.28,1.32,1.94,2c1.07,1,2.88.22,4.29.41a6,6,0,0,1,1.63-1.1c.38-.19.82-.06,1.19-.22.55-.25.92-1,1.36-1.36a3.11,3.11,0,0,1,1.19-.79c.4-.12.78,0,1-.34s.19-.6.43-.88.7-.67,1-1c.64-.64,1-1.47,1.65-2.12s1.5-.94,1.9-1.83c.56-1.26.92-2.61,1.53-3.85.27-.54,0-.86-.23-1.34a1.28,1.28,0,0,0-.43-.55"/><path class="cls-5" d="M46.47,56.16c-1.09-.13-4.65-.23-3.62,1.11.5.65,1.09,1.63,1.68,1.91a2.66,2.66,0,0,0,2.38.13c.5-.26,2.53-2.26,2.26-2.87C49,56,46.89,56.16,46.47,56.16Z"/><path class="cls-5" d="M42.35,57.55a8.24,8.24,0,0,0-3,.49c-1,.37-.78,1-.31,1.78a8.25,8.25,0,0,0,1.86,1.82,2.51,2.51,0,0,0,1.9.8c.88,0,1.38-.72,2.06-1.14.3-.18.69-.28.9-.57a2.76,2.76,0,0,0,.4-1.1"/><path class="cls-5" d="M46,60.58c1.07-.12,2.89.63,3.43-.67.14-.32,1.32-1.27,1-1.57s-2-.16-2.31-.24"/><path class="cls-5" d="M38.3,70.46c.22.56,1.19,1.09,1.73,1.37a5.06,5.06,0,0,0,1,.5,4.44,4.44,0,0,1,1,.25"/><path class="cls-5" d="M30.08,69.38a4.23,4.23,0,0,0-1,0c-.25.09-.49.49-.66.65a11.28,11.28,0,0,0-1.27,1.22,2.55,2.55,0,0,1-.57.61"/><path class="cls-1" d="M38.83,58.84c-1.3,0-2.51-.19-3.8-.28a21.89,21.89,0,0,0-2.57-.18,3.91,3.91,0,0,1-.4,1.13c.47.24.2,1.73.11,2.14a15.76,15.76,0,0,0-.6,1.75c-.09.86.83,1.93,1.49,2.47a4.89,4.89,0,0,0,1.09.89c.51.2.75,0,1.13-.29s1.09-.84,1.52-1.18a3.37,3.37,0,0,0,.71-1C38,63.53,38.56,62.81,39,62c.29-.48.87-1.15.69-1.69A4.11,4.11,0,0,0,38.91,59"/><path class="cls-5" d="M35.28,66.47c-.7.85-2.18.74-2.8.84a1.8,1.8,0,0,1-1.64-.73c-.87-1.11-1.8-2-1.22-3.32a3.11,3.11,0,0,0,.34-1.6,1.26,1.26,0,0,0-.45-.83"/><path class="cls-5" d="M44.41,67.08c-.63-.12-.68-1.63-.91-2.1-.43-.89-1.25-.88-2.22-.86"/></g></g></svg>