<svg xmlns="http://www.w3.org/2000/svg" viewBox="0 0 63.38 83.19"><defs><style>.cls-1,.cls-2,.cls-3{fill:#010101;}.cls-1,.cls-2,.cls-3,.cls-4,.cls-5{stroke:#010101;stroke-linecap:round;stroke-linejoin:round;}.cls-2{font-size:8.88px;}.cls-2,.cls-3{font-family:LondrinaSolid-Light, LondrinaSolid Light;font-weight:300;}.cls-3{font-size:8.68px;}.cls-4,.cls-5{fill:none;stroke-width:0.75px;}.cls-4{stroke-dasharray:0.5 2.98;}</style></defs><title>yesterday_penny</title><g id="Layer_2" data-name="Layer 2"><g id="Pennies"><path class="cls-1" d="M9.51,8.76l1.77,7.09.22-.25a34.21,34.21,0,0,1,3.59-5.23Z"/><text class="cls-2" transform="matrix(0.27, 1.22, -0.98, 0.22, 51.44, 28.55)">P</text><text class="cls-2" transform="matrix(0.09, 1.24, -1, 0.08, 52.83, 35.19)">E</text><text class="cls-2" transform="matrix(-0.09, 1.24, -1, -0.07, 53.31, 41.52)">N</text><text class="cls-2" transform="translate(52.66 49.62) rotate(104.5) scale(1.24 1)">N</text><text class="cls-2" transform="translate(50.53 57.38) rotate(115.75) scale(1.24 1)">Y</text><text class="cls-2" transform="matrix(-0.72, 1.01, -0.81, -0.58, 47.37, 63.44)"> </text><text class="cls-3" transform="matrix(0.28, 1.24, -0.98, 0.22, 44, 31.49)">P</text><text class="cls-3" transform="translate(45.25 36.73) rotate(87.6) scale(1.27 1)">A</text><text class="cls-3" transform="translate(45.48 43.82) rotate(98.85) scale(1.27 1)">R</text><text class="cls-3" transform="matrix(-0.46, 1.19, -0.93, -0.36, 44.52, 49.97)">K</text><ellipse class="cls-4" cx="33.98" cy="41.6" rx="29.02" ry="41.22" transform="translate(-0.15 0.12) rotate(-0.21)"/><path class="cls-5" d="M34.09,24.67l.6.08s.75-.47,1.48-5.66,0-5.11,0-5.11l-.45-.06a1.11,1.11,0,0,0-1.06-.64c-.84,0-1.52,1-1.87,3s-.92,6.23-.67,7.44S33.05,25,33.33,25A2,2,0,0,0,34.09,24.67Z"/><path class="cls-5" d="M36.55,24.59l1.86,1.51a17.53,17.53,0,0,0,.91-4.66l-2.19-1"/><path class="cls-5" d="M34.74,24.69,36.11,28s1.41.07,1.53-2.55"/><path class="cls-5" d="M38.45,20.94c.24-1,1.66-3.5,1.18-5.45l-1.86.37"/><path class="cls-5" d="M39,15.4c.18-1.27-1.12-1.4-.93-3v-.06C38.1,11.21,36.19,14,36.19,14"/><path class="cls-5" d="M37.52,26.82c1.95,1.38,5.16,2.78,7.53-1.78,0,0,1.4,1.31,1.93-.07,0,0,1.63-6.16,1-8.51,0,0-1-1.06-1.71,0,0,0,.52-6.35-8.16-3.26"/><ellipse class="cls-5" cx="33.7" cy="19.03" rx="5.11" ry="1.01" transform="translate(10.17 49.76) rotate(-82)"/><path class="cls-5" d="M43.83,14.15a4.64,4.64,0,0,0-2.93.07s.51,1.15,0,1.85a4,4,0,0,1,2.75-.5A2.15,2.15,0,0,0,43.83,14.15Z"/><path class="cls-5" d="M23.59,15.74a.35.35,0,0,0,.51,0l6-8.77A.42.42,0,0,0,30,6.41l-.62-.5a.34.34,0,0,0-.51,0l-6,8.77a.42.42,0,0,0,.13.54Z"/><path class="cls-5" d="M23.65,17.89c.16.13.43,0,.61-.23l.28-.42c.18-.25.2-.57,0-.7l-2.69-2.19c-.16-.13-.43,0-.6.23L21,15a.54.54,0,0,0,0,.7Z"/><path class="cls-5" d="M23.33,19.73a.49.49,0,0,0,.73-.13l.29-.41a.62.62,0,0,0-.1-.81l-3.88-3.17a.49.49,0,0,0-.73.13l-.29.41a.62.62,0,0,0,.1.81Z"/><path class="cls-5" d="M22.39,21.09a.5.5,0,0,0,.74-.13l.28-.41a.61.61,0,0,0-.09-.81l-3.88-3.17a.5.5,0,0,0-.74.13l-.28.42a.61.61,0,0,0,.09.8Z"/><path class="cls-5" d="M20.87,22c.16.13.43,0,.61-.23l.28-.42a.56.56,0,0,0,0-.7l-2.69-2.19c-.16-.13-.43,0-.6.23l-.29.42a.54.54,0,0,0,0,.7Z"/><path class="cls-5" d="M23.13,21c1.13-1,2.89-1,4.3-.82s1.51,1,2.53.59.38-2.7-1.46-2.09c-1.46.48-3.55,0-3.82-1.4"/><rect class="cls-5" x="11.54" y="30.23" width="17.58" height="19.53" transform="translate(-22.1 54.56) rotate(-82)"/><line class="cls-5" x1="12.23" y1="43.08" x2="13.67" y2="32.8"/><line class="cls-5" x1="14.38" y1="43.38" x2="15.82" y2="33.11"/><line class="cls-5" x1="16.53" y1="43.68" x2="17.97" y2="33.41"/><line class="cls-5" x1="18.67" y1="43.98" x2="20.12" y2="33.71"/><line class="cls-5" x1="20.82" y1="44.28" x2="22.27" y2="34.01"/><line class="cls-5" x1="22.97" y1="44.59" x2="24.41" y2="34.31"/><line class="cls-5" x1="25.12" y1="44.89" x2="26.56" y2="34.62"/><line class="cls-5" x1="27.27" y1="45.19" x2="28.71" y2="34.92"/><ellipse class="cls-5" cx="12.28" cy="45.31" rx="0.6" ry="0.54" transform="translate(-34.3 51.17) rotate(-82)"/><ellipse class="cls-5" cx="19.44" cy="46.32" rx="0.6" ry="0.54" transform="translate(-29.13 59.12) rotate(-82)"/><ellipse class="cls-5" cx="26.6" cy="47.33" rx="0.6" ry="0.54" transform="translate(-23.97 67.08) rotate(-82)"/><path class="cls-1" d="M6,37.58.5,40,5.07,43.9c.09-1,.19-2.11.34-3.17S5.75,38.61,6,37.58Z"/><rect class="cls-5" x="19.02" y="52.93" width="14.6" height="21.36" transform="translate(-40.33 80.82) rotate(-82)"/><rect class="cls-5" x="21.24" y="53.84" width="11.57" height="19.92" transform="translate(-39.92 81.69) rotate(-82)"/><line class="cls-5" x1="16.36" y1="68.14" x2="14.73" y2="69.35"/><line class="cls-5" x1="17.97" y1="56.69" x2="16.76" y2="54.89"/><ellipse class="cls-5" cx="26.59" cy="67.03" rx="1.01" ry="0.91" transform="matrix(0.14, -0.99, 0.99, 0.14, -43.49, 84.03)"/><path class="cls-1" d="M5.29,70.81,8,64l.19.27A34.12,34.12,0,0,0,11,70Z"/></g></g></svg>