<svg xmlns="http://www.w3.org/2000/svg" viewBox="0 0 63.62 94.39"><defs><style>.cls-1,.cls-2,.cls-3{fill:#010101;}.cls-1,.cls-2,.cls-3,.cls-4,.cls-5{stroke:#010101;stroke-linecap:round;stroke-linejoin:round;}.cls-2{font-size:8.88px;}.cls-2,.cls-3{font-family:LondrinaSolid-Light, LondrinaSolid Light;font-weight:300;}.cls-3{font-size:8.68px;}.cls-4,.cls-5{fill:none;stroke-width:0.75px;}.cls-4{stroke-dasharray:0.5 2.98;}</style></defs><title>castle</title><g id="Layer_2" data-name="Layer 2"><g id="Pennies"><path class="cls-1" d="M24.57,87.88l2.82,6,3.39-5.72a18,18,0,0,1-3.12.13A18.68,18.68,0,0,1,24.57,87.88Z"/><path class="cls-1" d="M28.45,6.21,31.83.5l2.83,6a18.68,18.68,0,0,0-3.09-.42A19.08,19.08,0,0,0,28.45,6.21Z"/><text class="cls-2" transform="matrix(-0.27, -1.21, 0.98, -0.22, 11.92, 61.41)">P</text><text class="cls-2" transform="translate(10.52 54.78) rotate(-94.13) scale(1.24 1)">E</text><text class="cls-2" transform="translate(10.07 48.46) rotate(-85.56) scale(1.24 1)">N</text><text class="cls-2" transform="matrix(0.31, -1.21, 0.97, 0.25, 10.77, 40.34)">N</text><text class="cls-2" transform="matrix(0.53, -1.13, 0.91, 0.42, 12.88, 32.57)">Y</text><text class="cls-2" transform="matrix(0.69, -1.03, 0.83, 0.56, 15.96, 26.43)"> </text><text class="cls-3" transform="translate(19.48 58.55) rotate(-103.4) scale(1.27 1)">P</text><text class="cls-3" transform="matrix(-0.06, -1.27, 1, -0.05, 18.17, 53.37)">A</text><text class="cls-3" transform="matrix(0.18, -1.26, 0.99, 0.15, 17.9, 46.26)">R</text><text class="cls-3" transform="matrix(0.44, -1.2, 0.94, 0.34, 18.82, 40.06)">K</text><ellipse class="cls-4" cx="29.43" cy="47.11" rx="41.22" ry="29.03" transform="translate(-19.02 74.27) rotate(-87.28)"/><path class="cls-1" d="M57.91,51.74l5.21-3-4.9-3.42c0,1.05,0,2.11,0,3.19S58,50.69,57.91,51.74Z"/><polygon class="cls-1" points="31.17 75.44 30.98 84.64 26.58 76.88 18.6 79.6 23.96 72.5 19.22 64.99 26.94 68.37 31.99 61 31.4 70.18 39.26 73.15 31.17 75.44"/><path class="cls-5" d="M49,68.86s-3.66-3.09-4.31-3.23-3.56,1.13-3.56,1.13l2-5.18s-2.83-7-3-12,3.43-14.46,4.69-14.78,6.53,7.46,6.56,13.47S47,61.85,47,61.85Z"/><path class="cls-5" d="M51.29,48.49c3.17.67,4.11,0,3.63,3S53.33,58.83,50,55.18"/><path class="cls-5" d="M40.35,46.15s-7.52,4.42-3.91,5.58,2.51,1.18,3.74-.61"/><path class="cls-5" d="M41.29,56.33c-1.95,1-4.33,2.68-2.43,3.92s2.23,2.22,3.62-.23"/><ellipse class="cls-5" cx="46.62" cy="40.74" rx="0.57" ry="0.52" transform="translate(3.7 85.37) rotate(-87.28)"/><path class="cls-5" d="M44.6,34.86c-.46,2.82-.55,5.19-.78,6.32"/><path class="cls-5" d="M41.14,42.71c1.69,2.8,4.85,3.81,6.53,2.23"/><rect class="cls-5" x="10.11" y="24.14" width="28.78" height="1.13" transform="translate(-1.34 48) rotate(-87.28)"/><polyline class="cls-5" points="25.81 11.55 34.19 11.95 34.09 14.04 32.27 13.95 32.18 15.95 34 16.03 33.9 18.07 32.05 17.98 31.95 20.04 33.8 20.13 33.72 21.86"/><polyline class="cls-5" points="24.55 38.08 32.93 38.48 33.03 36.39 31.21 36.3 31.3 34.31 33.13 34.39 33.22 32.35 31.37 32.27 31.47 30.2 33.32 30.29 33.41 28.56"/><rect class="cls-5" x="29.64" y="13.8" width="0.31" height="1.66" transform="translate(13.77 43.69) rotate(-87.28)"/><rect class="cls-5" x="29.45" y="17.88" width="0.31" height="1.66" transform="translate(9.5 47.39) rotate(-87.28)"/><rect class="cls-5" x="28.85" y="30.51" width="0.31" height="1.66" transform="translate(-3.68 58.82) rotate(-87.28)"/><rect class="cls-5" x="28.66" y="34.46" width="0.31" height="1.66" transform="translate(-7.81 62.4) rotate(-87.28)"/><polyline class="cls-5" points="25.27 20.42 34.75 22.18 34.45 28.54 24.84 29.37"/><polyline class="cls-5" points="34.45 28.54 36.26 29.84 39.35 29.99 39.44 28.18 37.54 28.09 37.62 26.41 39.52 26.5 39.62 24.49 37.72 24.4 37.8 22.69 39.72 22.78 39.8 20.94 36.52 20.79 34.75 22.18"/><rect class="cls-5" x="25.89" y="22.98" width="2.38" height="4.06" transform="translate(0.81 50.88) rotate(-87.28)"/><polyline class="cls-5" points="39.59 25.46 44.56 25.7 43.5 29.98 42.66 25.61"/></g></g></svg>