<svg xmlns="http://www.w3.org/2000/svg" viewBox="0 0 63.63 88.76"><defs><style>.cls-1,.cls-2,.cls-3{fill:#010101;}.cls-1,.cls-2,.cls-3,.cls-4,.cls-5,.cls-6,.cls-7{stroke:#010101;stroke-linecap:round;stroke-linejoin:round;}.cls-2{font-size:8.88px;}.cls-2,.cls-3{font-family:LondrinaSolid-Light, LondrinaSolid Light;font-weight:300;}.cls-3{font-size:8.68px;}.cls-4,.cls-5,.cls-6{fill:none;stroke-width:0.75px;}.cls-4{stroke-dasharray:0.5 2.98;}.cls-6{fill-rule:evenodd;}.cls-7{fill:#171717;}</style></defs><title>movie1_penny</title><g id="Layer_2" data-name="Layer 2"><g id="Pennies"><path class="cls-1" d="M36.8,82.42l-3.15,5.84-3.06-5.9a17.82,17.82,0,0,0,3.11.31A18.79,18.79,0,0,0,36.8,82.42Z"/><text class="cls-2" transform="matrix(1.2, 0.32, -0.25, 0.97, 34.56, 10.54)">P</text><text class="cls-2" transform="matrix(0.97, 0.78, -0.62, 0.78, 40.74, 12.41)">E</text><text class="cls-2" transform="translate(45.52 16.27) rotate(56.6) scale(1.24 1)">N</text><text class="cls-2" transform="translate(49.83 23.1) rotate(70.72) scale(1.24 1)">N</text><text class="cls-2" transform="translate(52.36 30.74) rotate(80.86) scale(1.24 1)">Y</text><text class="cls-2" transform="translate(53.3 37.61) rotate(87.13) scale(1.24 1)"> </text><text class="cls-3" transform="matrix(1.24, 0.27, -0.21, 0.98, 32.61, 20.26)">P</text><text class="cls-3" transform="translate(36.8 20.72) rotate(42.83) scale(1.27 1)">A</text><text class="cls-3" transform="matrix(0.56, 1.14, -0.9, 0.44, 41.45, 25.22)">R</text><text class="cls-3" transform="matrix(0.29, 1.24, -0.97, 0.23, 44.13, 30.78)">K</text><path class="cls-4" d="M34.58.38c16,.13,28.87,18.7,28.67,41.46S49.91,83,33.88,82.81,5,64.11,5.21,41.35,18.55.24,34.58.38Z"/><path class="cls-1" d="M5.59,38.08.5,41.22l5,3.24c-.06-1.06-.09-2.12-.08-3.2S5.52,39.13,5.59,38.08Z"/><path class="cls-1" d="M58.47,74.55l-1.68-7.1-.22.24a35,35,0,0,1-3.65,5.19Z"/><path class="cls-1" d="M16.82,51.17a1.28,1.28,0,0,1-.8,1.22h0l-.23.08a5.93,5.93,0,0,1-1.4.33c-2,.14-3.34-2.13-3.82-3.11-1-2.1-1.25-6.52-1.23-9.59h0a50.53,50.53,0,0,1,.43-6.18,11.94,11.94,0,0,1,1.08-3.58,7.13,7.13,0,0,1,1.63-2.07,2.92,2.92,0,0,1,2.41-.76,8.15,8.15,0,0,1,1.07.31l.27.1h0A1.28,1.28,0,0,1,17,29.15a1.65,1.65,0,0,1,0,.32c-.15.58-.28,1.18-.41,1.76s-.21.59-.31,1.19a1.32,1.32,0,0,1-.49.84.94.94,0,0,1-.78.21l-.83-.13c-.83-.13-1.47.64-1.6,1.44a69.36,69.36,0,0,0-.09,10.69A1.55,1.55,0,0,0,14,46.94l.83-.12a1.06,1.06,0,0,1,.79.22,1.34,1.34,0,0,1,.47.86c.08.59.19.6.29,1.19s.24,1.18.37,1.76A1.22,1.22,0,0,1,16.82,51.17Z"/><path class="cls-1" d="M19.29,31.63,17.86,36c-.17.33-1.29.52-1.63.52-.88,0-1.6.18-1.61,1.16l0,5.31c0,.73.84.87,1.64.89h0c.34,0,1.46.22,1.61.55l1.37,4.34a4.63,4.63,0,0,0,4.1,2.74l2.38,0a1,1,0,0,0,.92-1L26.73,30a1,1,0,0,0-.9-1l-2.37,0A4.69,4.69,0,0,0,19.29,31.63Zm5.24,8.6a3.31,3.31,0,0,1-3.16,3.43,3.48,3.48,0,0,1,.06-6.92A3.32,3.32,0,0,1,24.53,40.23Z"/><path class="cls-1" d="M38.28,43.86c-.61,0-1.09,0-1.11,1.6l-.08,9.41c0,1.61.48,1.61,1.08,1.62h.94c.61,0,1.09,0,1.11-1.6l.08-9.41c0-1.61-.48-1.61-1.08-1.62Z"/><rect class="cls-1" x="34.95" y="48.24" width="9.18" height="3.89" transform="translate(-10.98 89.3) rotate(-89.51)"/><line class="cls-5" x1="41.51" y1="52.59" x2="56.44" y2="55.2"/><line class="cls-5" x1="41.53" y1="50.12" x2="56.49" y2="50.28"/><line class="cls-5" x1="41.55" y1="47.64" x2="56.55" y2="45.1"/><line class="cls-5" x1="49.33" y1="45.49" x2="49.25" y2="54.85"/><line class="cls-5" x1="56.56" y1="41.21" x2="56.4" y2="60.37"/><path class="cls-6" d="M37.29,77c.61-.22.08-1.47-.61-.92s-.11,1.92.87,1.87A1.9,1.9,0,0,0,39,75.42c-.49-2-3.82-1.43-7.64-.57s-8,2.24-9.85-.62c0,0,2.77-1.41,4.57.26s4,5.44,6.61,3.87c1.83-1.1,2.07-4.92.21-5.86a2.26,2.26,0,0,0-3.3,2.21c.21,1.93,2.61,2.39,2.79.65"/><ellipse class="cls-7" cx="41.22" cy="63.31" rx="1.46" ry="1.32" transform="matrix(0.01, -1, 1, 0.01, -22.44, 103.98)"/><ellipse class="cls-7" cx="27.85" cy="68.14" rx="1.46" ry="1.32" transform="matrix(0.01, -1, 1, 0.01, -40.53, 95.41)"/><ellipse class="cls-7" cx="40.4" cy="68.36" rx="1.46" ry="1.32" transform="matrix(0.01, -1, 1, 0.01, -28.3, 108.17)"/><polyline class="cls-6" points="40.41 66.9 33.74 67.22 34.92 62.36 41.23 61.85"/><path class="cls-5" d="M27.86,66.68l-8-.07a9,9,0,0,0,2.45-2.33A2.83,2.83,0,0,1,26,63.59"/><ellipse class="cls-7" cx="31.81" cy="59.14" rx="1.46" ry="1.32" transform="translate(-27.6 90.44) rotate(-89.51)"/><line class="cls-5" x1="31.82" y1="57.68" x2="23.72" y2="57.61"/></g></g></svg>