<svg xmlns="http://www.w3.org/2000/svg" viewBox="0 0 64.91 85.32"><defs><style>.cls-1,.cls-2,.cls-3{fill:#010101;}.cls-1,.cls-2,.cls-3,.cls-4,.cls-5,.cls-6{stroke:#010101;stroke-linecap:round;stroke-linejoin:round;stroke-width:0.75px;}.cls-2{font-size:9.81px;}.cls-2,.cls-3{font-family:LondrinaSolid-Light, LondrinaSolid Light;font-weight:300;}.cls-3{font-size:9.59px;}.cls-4,.cls-5{fill:none;}.cls-4{stroke-dasharray:0.5 3.02;}</style></defs><title>safari2_penny</title><g id="Layer_2" data-name="Layer 2"><g id="Pennies"><path class="cls-1" d="M36.73,5.78,33.45.38,29.87,5.59a24.41,24.41,0,0,1,3.43-.16A25.71,25.71,0,0,1,36.73,5.78Z"/><path class="cls-1" d="M34.65,79.73l-3.59,5.21-3.28-5.4a24.3,24.3,0,0,0,3.43.34A24.55,24.55,0,0,0,34.65,79.73Z"/><text class="cls-2" transform="matrix(-0.31, -0.97, 0.95, -0.3, 13.19, 55.89)">P</text><text class="cls-2" transform="matrix(-0.13, -1.01, 0.99, -0.13, 11.46, 50.09)">E</text><text class="cls-2" transform="matrix(0.05, -1.02, 1, 0.05, 10.72, 44.5)">N</text><text class="cls-2" transform="matrix(0.26, -0.99, 0.97, 0.25, 11.15, 37.24)">N</text><text class="cls-2" transform="translate(13.08 30.31) rotate(-63.53) scale(1.02 1)">Y</text><text class="cls-2" transform="translate(15.99 24.88) rotate(-54.5) scale(1.02 1)"> </text><text class="cls-3" transform="matrix(-0.34, -0.98, 0.94, -0.33, 21.55, 53.12)">P</text><text class="cls-3" transform="translate(19.94 48.85) rotate(-96.69) scale(1.04 1)">A</text><text class="cls-3" transform="translate(19.27 42.77) rotate(-83.38) scale(1.04 1)">R</text><text class="cls-3" transform="matrix(0.35, -0.98, 0.94, 0.34, 19.87, 37.44)">K</text><ellipse class="cls-4" cx="32.46" cy="42.73" rx="37.3" ry="32.08" transform="translate(-11.17 73.97) rotate(-88.39)"/><path class="cls-1" d="M57.87,19.88l.24.23,2.1-6.36L54,15.05A31.52,31.52,0,0,1,57.87,19.88Z"/><path class="cls-5" d="M30.31,16.7c1.44.11,5.56-1,8.17-.32s4.8,2.93,7.63,2.29a3.39,3.39,0,0,1-2.78.9,30.16,30.16,0,0,1,2,4.11c.73,2,1.57.9,2.06,2a18.77,18.77,0,0,1,.89,2.7c.14.41-1.49,1.15-2.46.7s-.07-1.58,1-1.3a2.66,2.66,0,0,0-1.16-1.18C45,26.28,45.09,25.32,44,25a7.69,7.69,0,0,1-2.09-1.17,6.75,6.75,0,0,1-1.62-.65"/><path class="cls-5" d="M41.36,21.29c-.77,1.14-1.85,2.86-1.85,2.86a1,1,0,0,0,.07.74c.19.32,1.64,1.4,1.67,1.73a12.39,12.39,0,0,1-1.33,2.31s.39.69-1.12.77S37.16,30,37,29.41s.36-1.6,1.27-.95c0,0,1,.18.75-1.3a8.4,8.4,0,0,0-1.7-1.24A2.23,2.23,0,0,1,36,24.59c-.31-.66-.77-.59-.51-1.35a21,21,0,0,1-3.44.93c-.78,0-3,.2-3,.2"/><path class="cls-5" d="M29.19,22.55c.22,1.42-.71,3.4-.66,4.33s.19,2.95-.47,3.36-2.45.91-2.77.19.39-1.65,1.47-1.36a10.76,10.76,0,0,0-.28-2.94A9.65,9.65,0,0,1,26,24"/><path class="cls-6" d="M24,14.54c.14-.08,1.89-.44,1-2s-2.2-.32-2.19.53c-.5-1.16-1.25-.49-1.83-.54s-.56.56-.64.11a1.6,1.6,0,0,1,.17-1.15c0,.35-.06,1.24.65,1,.43-.12.38-.19.36-.5a1.3,1.3,0,0,1,.73-1.33c-.1.39-.48.85-.27,1.24.47,0,1.14-.55,1.49-.79s1.41-.8,1.89-.45c-.26.28-1.23.23-.95.9.24,0,.49-.06.72,0a4.66,4.66,0,0,1,.79.22c.41.12,1.86-.17,2,.16-.41.09-1.33-.08-1.55.37a1.48,1.48,0,0,1,1.38.21,2.08,2.08,0,0,0,.73.47c.54.15,1-.09,1.87.07-.58.38-2.37,0-2.75,0-.07.6.62.67,1.12.71a10.88,10.88,0,0,1,2.51.79c-1.06-.08-2-.64-2.82-.47-.46.1-.08.41.22.61a3.66,3.66,0,0,0,2.23.22,1.67,1.67,0,0,0-.76.22,2.77,2.77,0,0,1-.81.16,6.58,6.58,0,0,0,2,.4.94.94,0,0,0,.67-.22c-.48.42-1.31.31-1.95.37.23.18.58.18.86.3s.34.23.53.3a1.38,1.38,0,0,0,.94-.07,5.72,5.72,0,0,1-1.43.25c-.43,0-.62-.26-1-.29a7.07,7.07,0,0,1,1,1.54c-.43-.27-.66-.74-1.05-1a5.08,5.08,0,0,0-.59-.35c0,.54.11,1.08.14,1.63,0,.35-.16.69-.11,1A11.61,11.61,0,0,1,29,18a4,4,0,0,0-.18-.52c-.29.28-.35.72-.54,1.05s-.57.7-.92.69a1.9,1.9,0,0,0,.58-1.16,4.44,4.44,0,0,0-.83,2.67,1.7,1.7,0,0,1-.15-1.6,3,3,0,0,0-.8,1c-.11.22-.11.5-.2.7-.11-.36-.32-1,0-1.32A3.1,3.1,0,0,0,25.68,22c.18.39.56.67.72,1.06-.4-.27-1-.72-1.12-1.21,0,.5-.12.89.15,1.33a5.8,5.8,0,0,1,.65,1.13c.15.44-.1,1-.81,1,.32-.45.41-.31.39-.84a.91.91,0,0,0-.24-.67c-.22-.21-.56-.23-.56-.59a1.63,1.63,0,0,0,.22,1.15,1.48,1.48,0,0,1-.87-1.39c0-.34.15-1-.17-1.24a3.76,3.76,0,0,0-.41,1,2.29,2.29,0,0,0,.37,1.6c-.18-.61-.77-1.08-.64-1.71,0-.21.23-.58.19-.79s-.22-.32-.25-.56a4,4,0,0,1,0-.5c0,.3-.43.53-.52.84a3.9,3.9,0,0,0,0,1.23c-.59-.45,0-1.23-.15-1.87-.37.13-.58.67-.69,1.2-.4-.66.14-1.64.48-2.24-.19.13-.4.21-.59.32s-.36.47-.49.81a1.91,1.91,0,0,1,.24-1.23c.17-.22.32-.2.3-.54s-.11-.31-.38-.05-.49.35-.53.65a1.48,1.48,0,0,1,.42-1.22c-1,0,.2-.35.57-.51a1.76,1.76,0,0,0,.71-.39c.22-.26,0-.57.11-.84.2-.58,1.18-.71,1.45-1.2S24.17,14.88,24,14.54Z"/><path class="cls-5" d="M21.7,18.07,20.77,18c-1.35,1.26-2-.11-2-.11-.65.09-.73-.8-.73-.8-1.32-.69,1.64-2.22,1.64-2.22a2.3,2.3,0,0,1,.71-2.05c.95-.58,1.7-.85,2.43.27"/><ellipse class="cls-5" cx="21.59" cy="14.76" rx="0.15" ry="0.17" transform="translate(6.23 35.92) rotate(-88.39)"/><path class="cls-5" d="M29.64,24.33c.14.51-1.25.94.19,2.2s2.54.74,3,.26.37-1.44-1.21-1.17-.14-.74,0-1.42"/><path class="cls-5" d="M46.11,18.67c2.73-1.18.63-5.4-2.57-5.61"/><path class="cls-5" d="M43.54,13.06c-.32,0-.74-.36-1-.47a2.75,2.75,0,0,0-1.31-.13c-1,.13-2.16-.13-3.1.24a17,17,0,0,0,2.07,1c.49.17.84.35,1.32.12a7.29,7.29,0,0,0,1-.48A2.19,2.19,0,0,1,43.54,13.06Z"/><path class="cls-5" d="M38.42,36.15l.13,5.44,4.52,4.89L57.79,44l.67-6.25s0-5.13-3.63-6.12l-15.08.63S38,32.3,38.42,36.15Z"/><path class="cls-5" d="M52.35,31.78c2.73,0,4.51,3.22,4.39,4.83s0,1.32,0,1.32"/><path class="cls-5" d="M41.51,32.25c2.24.17,3.27,5.75,3.32,6.86"/><path class="cls-5" d="M38.42,36.3l4.64,3.16c-.41-2.93-1.25-7-3.49-7.12"/><polyline class="cls-5" points="50.33 38.67 43.06 39.46 43.07 46.48"/><line class="cls-5" x1="58.46" y1="37.79" x2="52.41" y2="38.45"/><path class="cls-5" d="M47,32c2.19.43,3.54,5.37,3.37,6.93l-1.55,2.14,2.75,2.19L54,40.37,52.4,38.69s-.08-6-4-6.75"/><line class="cls-5" x1="44.83" y1="39.11" x2="44.96" y2="46.17"/><line class="cls-5" x1="56.7" y1="37.93" x2="56.35" y2="44.28"/><line class="cls-5" x1="51.54" y1="40.28" x2="51.52" y2="40.96"/><rect class="cls-5" x="34.72" y="57.59" width="3.69" height="11.44" transform="translate(-27.76 98.08) rotate(-88.39)"/><line class="cls-5" x1="32.44" y1="61.35" x2="32.38" y2="63.67"/><line class="cls-5" x1="34.55" y1="61.41" x2="34.49" y2="63.73"/><line class="cls-5" x1="36.67" y1="61.47" x2="36.6" y2="63.79"/><line class="cls-5" x1="38.78" y1="61.53" x2="38.71" y2="63.85"/><line class="cls-5" x1="40.89" y1="61.59" x2="40.82" y2="63.91"/><line class="cls-5" x1="32.98" y1="67.49" x2="32.86" y2="71.85"/><line class="cls-5" x1="34.42" y1="67.15" x2="34.27" y2="72.33"/><line class="cls-5" x1="35.85" y1="67" x2="35.7" y2="72.5"/><line class="cls-5" x1="37.28" y1="67.04" x2="37.13" y2="72.54"/><line class="cls-5" x1="38.71" y1="67.32" x2="38.57" y2="72.33"/><line class="cls-5" x1="40.12" y1="67.86" x2="40.01" y2="71.92"/><line class="cls-5" x1="41.52" y1="68.88" x2="41.46" y2="70.97"/><line class="cls-5" x1="31.53" y1="68.31" x2="31.46" y2="70.92"/><ellipse class="cls-5" cx="21.3" cy="61.25" rx="0.82" ry="0.91" transform="translate(-40.53 80.82) rotate(-88.39)"/><ellipse class="cls-5" cx="21.01" cy="71.59" rx="0.82" ry="0.91" transform="translate(-51.15 90.57) rotate(-88.39)"/><line class="cls-5" x1="20.81" y1="64.69" x2="22.36" y2="64.73"/><line class="cls-5" x1="20.77" y1="66.12" x2="22.32" y2="66.16"/><line class="cls-5" x1="20.73" y1="67.55" x2="22.28" y2="67.59"/><path class="cls-5" d="M42.51,59.72l-17.92-.5s0-.08,0-.12a1.51,1.51,0,0,0-1.53-1.48h-.48A1.52,1.52,0,0,0,21,59s0,.09,0,.13l-.78,0a1.86,1.86,0,0,0-2,1.71L17.88,72a1.86,1.86,0,0,0,1.9,1.82l22.32.63a1.88,1.88,0,0,0,2-1.72l.31-11.19A1.87,1.87,0,0,0,42.51,59.72Z"/><line class="cls-5" x1="24.44" y1="58.43" x2="43.37" y2="54.54"/><ellipse class="cls-5" cx="43.33" cy="54.54" rx="0.5" ry="0.56" transform="translate(-12.4 96.31) rotate(-88.39)"/></g></g></svg>