<svg xmlns="http://www.w3.org/2000/svg" viewBox="0 0 64.91 85.33"><defs><style>.cls-1,.cls-2,.cls-3{fill:#010101;}.cls-1,.cls-2,.cls-3,.cls-4,.cls-5{stroke:#010101;stroke-linecap:round;stroke-linejoin:round;stroke-width:0.75px;}.cls-2{font-size:9.81px;}.cls-2,.cls-3{font-family:LondrinaSolid-Light, LondrinaSolid Light;font-weight:300;}.cls-3{font-size:9.59px;}.cls-4,.cls-5{fill:none;}.cls-4{stroke-dasharray:0.5 3.02;}</style></defs><title>space</title><g id="Layer_2" data-name="Layer 2"><g id="Pennies"><path class="cls-1" d="M28.46,79.58,31.78,85l3.54-5.24a26.16,26.16,0,0,1-3.44.18A25.72,25.72,0,0,1,28.46,79.58Z"/><path class="cls-1" d="M30,5.61,33.53.38l3.32,5.38a22.78,22.78,0,0,0-3.43-.32A24.4,24.4,0,0,0,30,5.61Z"/><text class="cls-2" transform="translate(11.58 48.61) rotate(-94.7) scale(1.02 1)">P</text><text class="cls-2" transform="matrix(0.08, -1.02, 1, 0.08, 11.16, 42.56)">E</text><text class="cls-2" transform="matrix(0.27, -0.98, 0.97, 0.26, 11.6, 36.94)">N</text><text class="cls-2" transform="translate(13.55 29.95) rotate(-61.7) scale(1.02 1)">N</text><text class="cls-2" transform="matrix(0.68, -0.76, 0.74, 0.67, 17.04, 23.72)">Y</text><text class="cls-2" transform="matrix(0.82, -0.61, 0.6, 0.8, 21.28, 19.36)"> </text><text class="cls-3" transform="translate(19.99 46.91) rotate(-93) scale(1.04 1)">P</text><text class="cls-3" transform="matrix(0.16, -1.03, 0.99, 0.15, 19.63, 42.29)">A</text><text class="cls-3" transform="matrix(0.41, -0.96, 0.92, 0.39, 20.55, 36.35)">R</text><text class="cls-3" transform="matrix(0.66, -0.81, 0.78, 0.63, 22.51, 31.55)">K</text><ellipse class="cls-4" cx="32.45" cy="42.59" rx="37.3" ry="32.08" transform="translate(-10.8 74.16) rotate(-88.81)"/><path class="cls-1" d="M34.36,64.79C29.16,64.14,24.74,62.07,23,58s3.8-6.06,6.15-4.51a13.84,13.84,0,0,1,5,6.44A13.12,13.12,0,0,1,34.36,64.79Z"/><path class="cls-5" d="M11.17,56.08c1.57-1.66,3.38-4.5,7.08-2.8a3.32,3.32,0,0,1,.42,5.42c-2.15,2.11-.53,3.77,1.27,4.54.57.25,1.29.23,1.77.59a3.36,3.36,0,0,1,1.47,3.71,1.93,1.93,0,0,1-2.05,1.72,4.89,4.89,0,0,0-1.4.66c-2.67,1.49-5-.26-7.35-2S7,60.45,11.17,56.08Z"/><path class="cls-5" d="M21.14,67.52c.21,1.07-.09,1.71-.47,1.83"/><path class="cls-5" d="M15.16,52.82c1.36,0,3.21,0,3.44,2.59.21,2.25-3.24,2.65-3.27,5.35s2.48,2.71,4.6,4.92"/><path class="cls-5" d="M20.19,67.81c-.16-.18-.41-.28-.53-.53a.66.66,0,0,1,0-.61c.14-.3.3-.36.29-.7a2.53,2.53,0,0,0-.2-.81c-.08-.2-.09-.55.18-.64s.45.15.58.3a3.62,3.62,0,0,1,1,1.75C21.64,67.31,20.87,67.75,20.19,67.81Z"/><path class="cls-5" d="M23.48,72.45c-.28-.73,1-1.18,1.48-2.34s2-3,6.15-2.78,6.07-.51,8.21,1.44a56.19,56.19,0,0,1-6.5,2.83c-1.72.44-3.51,1.45-6.14,1.58a58,58,0,0,0,6.23.72c1.88,0,5.5.65,6.75-.6.79-.8-1.13-.94-1.73-1.13-.27-.09.22-.07.22-.07s3.77.5,1.89,2.13-3.92,2.06-6.41,2.26-5.57.46-7.94-1.18S23.76,73.19,23.48,72.45Z"/><path class="cls-1" d="M37.64,69.58c1.37.53,2.35,1.32,1.79,1.8a9.35,9.35,0,0,1-2,1.58,19.92,19.92,0,0,1-2.17,1.09,18.81,18.81,0,0,0-2.33-.15,29.82,29.82,0,0,1-3.29-.28l-2.94-.44a15.91,15.91,0,0,0,4-.89,25.42,25.42,0,0,1,3.13-1C34.7,70.92,37.64,69.58,37.64,69.58Z"/><path class="cls-5" d="M48.15,61.8c2.32,3.37,4.3-.35,4.3-.35l.09.08C57,62.48,55.93,59,55.93,59c3.23-.87,1.3-3.84,1.3-3.84,1.57-2.18,0-3.28,0-3.28l-4-3.14c1.32-1.69,1.9-2.53.94-2.69s-4.88-.1-4.88-.1c-.36-1.06-.8-1.1-.8-1.1h-.11s-.44,0-.85,1.06c0,0-3.91-.22-4.88-.1s-.63,1.08.62,2.83l-3.92,2.87s-1.58,1-.1,3.27c0,0-2.05,2.9,1.14,3.89,0,0-1.21,3.47,3.28,2.7l.09-.07s1.57,3.51,4.28.53Z"/><line class="cls-5" x1="48.46" y1="44.95" x2="53.26" y2="48.71"/><line class="cls-5" x1="43.3" y1="48.61" x2="48.46" y2="44.95"/><line class="cls-5" x1="39.28" y1="54.75" x2="48.46" y2="44.95"/><line class="cls-5" x1="40.42" y1="58.64" x2="48.41" y2="44.82"/><line class="cls-5" x1="43.79" y1="61.27" x2="48.46" y2="44.95"/><line class="cls-5" x1="48.07" y1="61.8" x2="48.46" y2="44.95"/><line class="cls-5" x1="52.45" y1="61.45" x2="48.46" y2="44.95"/><line class="cls-5" x1="55.93" y1="58.97" x2="48.52" y2="44.82"/><line class="cls-5" x1="57.23" y1="55.13" x2="48.46" y2="44.95"/><path class="cls-5" d="M29.73,13.73c.82-2.39,3.22-3.31,5.93-3.26,2.91.06,5,1,5.82,3.42"/><path class="cls-5" d="M41.87,15.29a8,8,0,0,1,.1.87c0,3.19-2.93,5.73-6.46,5.68s-6.34-2.68-6.3-5.87a4.9,4.9,0,0,1,.06-.77"/><path class="cls-5" d="M29.53,18c-4.63-.39-7.7-1.3-7.68-2.1,0-1.11,6.19-2.47,13.78-2.36s13.71,1.65,13.7,2.75c0,.8-3.12,1.63-7.78,1.89"/><path class="cls-5" d="M29.18,16.9c-1.52-.27-2.12-.6-2.12-1,0-.73,3.93-1.09,8.77-1s8.74.54,8.73,1.27c0,.4-.79.74-2.57,1"/><polygon class="cls-5" points="26.64 10.25 25.73 10.47 26.3 9.79 25.79 9.06 26.68 9.34 27.28 8.68 27.27 9.54 28.15 9.86 27.24 10.1 27.19 10.96 26.64 10.25"/><polygon class="cls-5" points="29.49 31.36 29.04 30.6 29.91 30.94 30.56 30.32 30.48 31.17 31.34 31.54 30.41 31.73 30.3 32.58 29.8 31.84 28.88 32 29.49 31.36"/><polygon class="cls-5" points="45.32 24.66 43.38 23.04 46.01 23.23 47.11 21.07 47.73 23.39 50.35 23.67 48.11 24.91 48.63 27.25 46.62 25.7 44.33 26.87 45.32 24.66"/><polygon class="cls-5" points="25.22 22.54 23.46 22.37 24.95 21.51 24.58 19.94 25.95 20.97 27.48 20.17 26.83 21.66 28.15 22.74 26.38 22.63 25.66 24.09 25.22 22.54"/><path class="cls-5" d="M38.65,24.69c-.74.07-1.13,1.87-.86,4s1.08,3.82,1.83,3.75A4.27,4.27,0,0,1,34.84,29,4,4,0,0,1,38.65,24.69Z"/><path class="cls-1" d="M56.5,66.66l.25-.22,1.79,6.45-6.12-1.6A31.81,31.81,0,0,0,56.5,66.66Z"/></g></g></svg>