<svg xmlns="http://www.w3.org/2000/svg" viewBox="0 0 70.27 75.35"><defs><style>.cls-1,.cls-2,.cls-3{fill:#010101;}.cls-1,.cls-2,.cls-3,.cls-4,.cls-5{stroke:#010101;stroke-linecap:round;stroke-linejoin:round;stroke-width:0.75px;}.cls-2{font-size:9.81px;}.cls-2,.cls-3{font-family:LondrinaSolid-Light, LondrinaSolid Light;font-weight:300;}.cls-3{font-size:9.59px;}.cls-4,.cls-5{fill:none;}.cls-4{stroke-dasharray:0.5 3.02;}</style></defs><title>story_penny</title><g id="Layer_2" data-name="Layer 2"><g id="Pennies"><path class="cls-1" d="M58.71,68l-1.79-6.45-.25.21a31.89,31.89,0,0,1-4.08,4.64Z"/><text class="cls-2" transform="translate(12.87 49.04) rotate(-103.83) scale(1.02 1)">P</text><text class="cls-2" transform="translate(11.51 43.17) rotate(-94.15) scale(1.02 1)">E</text><text class="cls-2" transform="matrix(0.11, -1.01, 0.99, 0.11, 11.09, 37.52)">N</text><text class="cls-2" transform="matrix(0.32, -0.97, 0.95, 0.31, 11.93, 30.32)">N</text><text class="cls-2" transform="translate(14.28 23.52) rotate(-59.53) scale(1.02 1)">Y</text><text class="cls-2" transform="translate(17.56 18.32) rotate(-50.01) scale(1.02 1)"> </text><text class="cls-3" transform="translate(21.14 46.36) rotate(-103.93) scale(1.04 1)">P</text><text class="cls-3" transform="matrix(-0.03, -1.04, 1, -0.03, 19.93, 41.93)">A</text><text class="cls-3" transform="translate(19.76 35.81) rotate(-78.5) scale(1.04 1)">R</text><text class="cls-3" transform="translate(20.79 30.6) rotate(-64.59) scale(1.04 1)">K</text><ellipse class="cls-4" cx="32.45" cy="37.67" rx="37.3" ry="32.08" transform="translate(-5.92 69.29) rotate(-88.75)"/><path class="cls-1" d="M64.23,41.26l5.66-2.76-5.53-3c0,.95.07,1.91,0,2.89S64.32,40.31,64.23,41.26Z"/><path class="cls-1" d="M60,8.48,58,14.85l-.24-.22a32.14,32.14,0,0,0-3.88-4.81Z"/><path class="cls-1" d="M35.15,6.69a16.59,16.59,0,0,0,3,5.39c-.16-.38-.33-.75-.49-1.12a13.85,13.85,0,0,1-1.32-4.64,5.14,5.14,0,0,1,.35-2.42c.07-.16.17-.3.29-.51.3,1,.54,2,.85,2.94a31.68,31.68,0,0,0,4.41,9.15A10.75,10.75,0,0,0,44,17.28a2.18,2.18,0,0,0,2.47.26,13.84,13.84,0,0,1,2.46-.79,1.91,1.91,0,0,1,1.06.09,3.44,3.44,0,0,0,1.71.13A1.63,1.63,0,0,1,52,17a21,21,0,0,0-1.84,1.93,11.74,11.74,0,0,0-1.08,2c-1.65,3.44-4.72,4.72-8.67,4.65a7.08,7.08,0,0,1-1.13,0,6.7,6.7,0,0,0-4.52,1,36.1,36.1,0,0,0-5.33,3.87c-.16.13-.51.29-.61.23a3.75,3.75,0,0,1-.78-.76s.15-.23.26-.3c1-.63,2-1.24,3-1.86,0,0,.06-.06.06-.14l-2,1c-.4.21-.8.39-1.18.61s-.58.12-.69-.24a1.66,1.66,0,0,0-.06-.16c-.24-.58-.16-.72.46-1,1.8-.78,3.65-1.49,5.39-2.38,1.44-.75,2.74-1.72,4.11-2.59a4.36,4.36,0,0,0,.37-.32,8.94,8.94,0,0,1-2.8-3.74,8.26,8.26,0,0,0,2.8,1.39,7.55,7.55,0,0,1-3.92-5.59,15,15,0,0,0,3.85,2.59c-2.13-1.79-4-3.7-3.64-6.6a17.21,17.21,0,0,0,3.57,3.56C35.83,11.88,34.35,9.58,35.15,6.69Z"/><path class="cls-5" d="M48.13,44.94l.27-12.2s2.38-1.46,3.65-1.44a6.72,6.72,0,0,1,3,.93,6.63,6.63,0,0,0,2.39.34l-.26,12.2a3.4,3.4,0,0,1-1.89-.08c-.67-.35-1.64-1.33-3-1.17A21.25,21.25,0,0,0,48.13,44.94Z"/><path class="cls-5" d="M48.4,32.74s-2.32-1.57-3.59-1.59a6.8,6.8,0,0,0-3,.79,12.94,12.94,0,0,1-2.41.6l-.26,12.2A6.15,6.15,0,0,0,41,44.38c.69-.33,1.7-1.26,3-1a21.36,21.36,0,0,1,4.1,1.6"/><polyline class="cls-5" points="57.41 33.86 59.01 33.9 58.73 46.62 37.49 46.16 37.76 33.43 39.35 33.47"/><path class="cls-5" d="M20.51,55.66c-.76.5-.36,4.67-.4,6.23s-.56,5.57.79,5.85A59.32,59.32,0,0,0,29.18,69c1.73,0,2.45-.77,2.52-1.8s.47-8.87.5-10.05-.06-2.28-1.79-2.33-6.85-.53-8-.35S21.06,55.29,20.51,55.66Z"/><path class="cls-5" d="M32,55.51c-.84-.49-2.57-1-3.37.64L28,68.92"/><path class="cls-5" d="M28.56,56.7c-1-1.2-2.88-.89-4.11-.91s-3.95-.38-4.29,1.3"/><line class="cls-5" x1="30.12" y1="54.79" x2="30.22" y2="50.27"/><line class="cls-5" x1="26.02" y1="54.51" x2="26.11" y2="50.37"/><polygon class="cls-5" points="25.53 50.36 26.28 50.38 26.3 49.23 30.11 49.18 30.07 50.27 30.78 50.28 30.82 48.65 25.57 48.81 25.53 50.36"/><path class="cls-1" d="M21.47,67.86a.93.93,0,0,0-.27.62,1.08,1.08,0,0,0,2.15,0,.88.88,0,0,0-.06-.33Z"/><path class="cls-1" d="M26.53,68.74a.88.88,0,0,0-.18.52,1.08,1.08,0,0,0,2.14,0,.83.83,0,0,0-.06-.35C27.81,68.91,27.09,68.82,26.53,68.74Z"/><path class="cls-5" d="M25.79,66.35c.4.2.23.35,0,.34l-4-.64c-.21,0-.38-.16,0-.34l.15-7.2c-.39-.19-.22-.34,0-.34l4,.3c.21,0,.38.16,0,.34Z"/><path class="cls-5" d="M49.21,64.79a1.25,1.25,0,0,1-1.46.92L36,63.77a1.16,1.16,0,0,1-1-1.32l1.32-6.73a1.26,1.26,0,0,1,1.47-.92l4.14.68,7.59,1.25a1.17,1.17,0,0,1,1,1.33Z"/><line class="cls-5" x1="41.55" y1="54.12" x2="41.92" y2="55.48"/><line class="cls-5" x1="46.02" y1="54.85" x2="45.35" y2="56.05"/><path class="cls-5" d="M45.8,54.45c.24.39.88.6.5-.21s-1.66-.87-2.29-1-2.42-.21-2.76.3.57.44.61.2c.09-.44,1.64-.33,2.41-.16A2.13,2.13,0,0,1,45.8,54.45Z"/><polygon class="cls-5" points="39.29 64.29 37.73 64.12 39.5 55.14 41.05 55.31 39.29 64.29"/><polygon class="cls-5" points="46.26 65.38 44.7 65.21 46.47 56.23 48.02 56.4 46.26 65.38"/></g></g></svg>