<svg xmlns="http://www.w3.org/2000/svg" viewBox="0 0 70.26 75.34"><defs><style>.cls-1,.cls-2,.cls-3{fill:#010101;}.cls-1,.cls-2,.cls-3,.cls-4,.cls-5,.cls-6{stroke:#010101;stroke-linecap:round;stroke-linejoin:round;stroke-width:0.75px;}.cls-2{font-size:9.81px;}.cls-2,.cls-3{font-family:LondrinaSolid-Light, LondrinaSolid Light;font-weight:300;}.cls-3{font-size:9.59px;}.cls-4,.cls-5{fill:none;}.cls-4{stroke-dasharray:0.5 3.02;}</style></defs><title>wizard_penny</title><g id="Layer_2" data-name="Layer 2"><g id="Pennies"><path class="cls-1" d="M60.28,8.73l-2.12,6.35-.24-.22A31.51,31.51,0,0,0,54.08,10Z"/><text class="cls-2" transform="matrix(-0.02, -1.02, 1, -0.02, 11.23, 41.39)">P</text><text class="cls-2" transform="translate(11.18 35.35) rotate(-81.84) scale(1.02 1)">E</text><text class="cls-2" transform="translate(11.97 29.76) rotate(-70.98) scale(1.02 1)">N</text><text class="cls-2" transform="matrix(0.55, -0.86, 0.84, 0.54, 14.37, 22.94)">N</text><text class="cls-2" transform="matrix(0.75, -0.69, 0.68, 0.73, 18.3, 17)">Y</text><text class="cls-2" transform="translate(22.91 13.03) rotate(-31.06) scale(1.02 1)"> </text><text class="cls-3" transform="matrix(-0.03, -1.04, 1, -0.03, 19.83, 41.32)">P</text><text class="cls-3" transform="translate(19.58 36.73) rotate(-80.09) scale(1.04 1)">A</text><text class="cls-3" transform="matrix(0.43, -0.95, 0.91, 0.41, 20.64, 30.79)">R</text><text class="cls-3" transform="translate(22.71 26.05) rotate(-49.4) scale(1.04 1)">K</text><ellipse class="cls-4" cx="32.46" cy="37.67" rx="37.3" ry="32.08" transform="translate(-6.2 68.94) rotate(-88.22)"/><path class="cls-1" d="M64.38,35.77l5.51,3.06L64.2,41.54c.1-.95.17-1.91.2-2.88S64.42,36.72,64.38,35.77Z"/><path class="cls-1" d="M58.43,68.28l-1.72-6.47-.26.21a31.29,31.29,0,0,1-4.12,4.6Z"/><path class="cls-5" d="M25.27,65.09a8.39,8.39,0,0,1,6.93-7.37c4.91-1.13,9.58,1.93,10.58,4.12,1.37,3-.77,6.31-5,6.5s-6.26-1.4-6.45-3.47,2.06-4.44,5.22-3.2,2.12,5.3-.9,4.61-.37-2.54-.37-2.54"/><path class="cls-5" d="M46.62,64.52c-.92,4.11-11.07,7-13.75,2.85"/><path class="cls-5" d="M32.87,67.37c-3.77-.09-8.13-.79-9.69-5.53"/><path class="cls-1" d="M23.18,61.84c-.1-.32-.19-.65-.27-1-1.25-5.65.16-12,11.89-12s13,5.92,12.55,11.65a16.47,16.47,0,0,1-.73,4c-.1-.39-.37-.65-.44-1.08a8.52,8.52,0,0,1-.21-1.1,10.45,10.45,0,0,1,.32-2.3c.1-.71.32-1.83-.75-1.86-.86,0-1.21.84-2,.84-.26-.5-.7-.86-.83-1.43a8.66,8.66,0,0,1-.12-2.16c0-.59-.21-2.16-1.21-2.06-.51.05-1.29,1.47-1.58,1.91s-.62,1.34-1.57,1.39c-.61,0-1-.55-1.33-1A8.61,8.61,0,0,1,36,53c-.14-.7-.08-1.7-1-1.93s-1.94.61-2.39,1.27-.25,2.24-1.43,2.3c-.91,0-1.72-.82-2.66-.64-1.65.33-1,3-1.74,4s-1.22-.13-1.77-.59a1.37,1.37,0,0,0-1.11-.39c-.41.11-.35.59-.39,1a20.17,20.17,0,0,0,.14,2.21,9.31,9.31,0,0,1-.32,1.73.34.34,0,0,0-.14.05"/><ellipse class="cls-5" cx="49.73" cy="45.41" rx="1.46" ry="3.47" transform="translate(2.8 93.71) rotate(-88.22)"/><path class="cls-5" d="M49.82,42.42c3.83.12,3.73-1.8,3.77-3.32s.15-4.39.15-4.39"/><path class="cls-5" d="M49.88,40.69c.43-.94,1.79-1,1.79-1s1.71-2.9-1.67-3"/><path class="cls-5" d="M51.25,36.9s.29-2.13-1.19-2.17"/><path class="cls-5" d="M51.38,35.5s1.92-.25,2.58-1.41.64-2.14.71-4.39l-4.45-.14"/><path class="cls-5" d="M53.69,36.3c2.61,1.64,5.3,1.51,7.83,1.19,0,0-1.25-5.61-6.94-4.85"/><line class="cls-5" x1="60.46" y1="35.64" x2="57.53" y2="36.03"/><line class="cls-5" x1="59.66" y1="34.23" x2="57.57" y2="34.48"/><path class="cls-5" d="M49.82,42.42c-3.83-.12-3.6-2-3.56-3.55s.13-4.39.13-4.39"/><path class="cls-5" d="M49.88,40.69c-.39-1-1.74-1.12-1.74-1.12s-1.51-3,1.86-2.9"/><path class="cls-5" d="M48.74,36.82s-.2-2.14,1.32-2.09"/><path class="cls-5" d="M48.7,35.41s-1.91-.36-2.49-1.56-.51-2.18-.44-4.43l4.45.14"/><path class="cls-5" d="M46.34,36.07c-2.7,1.47-5.38,1.18-7.88.7,0,0,1.59-5.52,7.22-4.4"/><line class="cls-5" x1="39.63" y1="35" x2="42.53" y2="35.56"/><line class="cls-5" x1="40.51" y1="33.64" x2="42.58" y2="34.02"/><path class="cls-6" d="M48.42,12.77c.36.16.56.31.35.65s-.32.83.11,1c.15,0,.3.09.44.15.71.29,1,.68.63,1.27s-1,1.09-1.42,1.67a.91.91,0,0,0-.2.67,6.2,6.2,0,0,1-1.12,4.95,6.44,6.44,0,0,1-4.87,2.76,12.36,12.36,0,0,1-5.89-.36,6,6,0,0,1-4.35-6.32,8.41,8.41,0,0,1,1.43-4,5.35,5.35,0,0,0,1.18-4.05c-.26-1.27-.63-2.52-.94-3.77-.05-.17-.09-.34-.14-.55a5.26,5.26,0,0,1,.55,0c3,.09,5.9.19,8.84.26.44,0,.61.12.66.53.16,1.57.36,1.69,2.08,1.56a6.13,6.13,0,0,1,1.05,0,1.31,1.31,0,0,1,1.27,1.7c-.12.75.1.55.48,1S48.28,12.19,48.42,12.77Z"/></g></g></svg>