<svg xmlns="http://www.w3.org/2000/svg" viewBox="0 0 350.8 1578.2"><defs><style>.cls-1{fill:#231f20;}</style></defs><title>puzzle</title><g id="Layer_2" data-name="Layer 2"><g id="Layer_1-2" data-name="Layer 1"><path class="cls-1" d="M7.2,36.1H12v2.4H0V36.1H4.8V28.9H2.4V26.5H7.2Z" transform="translate(0 -3.5)"/><path class="cls-1" d="M18.6,36.1H21v2.4H18.6Z" transform="translate(0 -3.5)"/><path class="cls-1" d="M60.42,38.5H55.2V36.4h2.1V30.1H55.2V28h5.22a5.08,5.08,0,0,1,2,.4,5.25,5.25,0,0,1,1.69,1.14,6,6,0,0,1,1.15,1.69,5,5,0,0,1,.44,2,4.91,4.91,0,0,1-.44,2A5.52,5.52,0,0,1,64.12,37a5.14,5.14,0,0,1-3.7,1.55Zm0-2.1a3.06,3.06,0,0,0,1.22-.25,3.17,3.17,0,0,0,1-.68,2.87,2.87,0,0,0,.68-1,3.1,3.1,0,0,0,0-2.44,2.87,2.87,0,0,0-.68-1,3.17,3.17,0,0,0-1-.68,3.06,3.06,0,0,0-1.22-.25h-1v6.3Z" transform="translate(0 -3.5)"/><path class="cls-1" d="M85.27,38.5h-18V34.9h3.61V24.1H67.27V20.5h18v7.2h-3.6V24.1H74.48v3.6h3.59v3.6H74.48v3.6h7.19V31.3h3.6Z" transform="translate(0 -3.5)"/><path class="cls-1" d="M88,29.5h6.49a2.83,2.83,0,0,1,1,.23,2.4,2.4,0,0,1,.79.56,2.49,2.49,0,0,1,.5.83A2.83,2.83,0,0,1,97,32.2a3,3,0,0,1-.2,1.1,2.4,2.4,0,0,1-.55.86,2.5,2.5,0,0,1-.85.55,3,3,0,0,1-1.11.19H91.58v1.8h1.8v1.8H88V36.7h1.79V31.3H88Zm3.6,1.82V33.1h2.69a.86.86,0,0,0,.91-.9.92.92,0,0,0-.19-.58.83.83,0,0,0-.52-.3Z" transform="translate(0 -3.5)"/><path class="cls-1" d="M98.32,21a19.48,19.48,0,0,1,1.26-7.17,15.49,15.49,0,0,1,9.09-9.07,21,21,0,0,1,14.33,0,15.48,15.48,0,0,1,9.06,9.07A19.48,19.48,0,0,1,133.32,21a19.61,19.61,0,0,1-1.26,7.16A15.46,15.46,0,0,1,123,37.24a21,21,0,0,1-14.33,0,15.47,15.47,0,0,1-9.09-9.08A19.61,19.61,0,0,1,98.32,21Zm7,0a11.86,11.86,0,0,0,.76,4.29,9.28,9.28,0,0,0,5.46,5.46,12.67,12.67,0,0,0,8.59,0,9.32,9.32,0,0,0,5.44-5.46,11.86,11.86,0,0,0,.75-4.29,11.81,11.81,0,0,0-.75-4.31,9.36,9.36,0,0,0-5.44-5.44,12.67,12.67,0,0,0-8.59,0,9.32,9.32,0,0,0-5.46,5.44A11.81,11.81,0,0,0,105.32,21Z" transform="translate(0 -3.5)"/><path class="cls-1" d="M149.35,34.9a1.78,1.78,0,0,0,1.8-1.8,1.7,1.7,0,0,0-.14-.71,1.91,1.91,0,0,0-.39-.58,1.61,1.61,0,0,0-.56-.37,1.83,1.83,0,0,0-.71-.14h-7.2a5.18,5.18,0,0,1-2.07-.42,5.38,5.38,0,0,1-1.72-1.16A5.64,5.64,0,0,1,137.19,28a5.17,5.17,0,0,1-.44-2.1,5.27,5.27,0,0,1,.43-2.08,5.49,5.49,0,0,1,1.16-1.72,5.58,5.58,0,0,1,1.72-1.17,5.08,5.08,0,0,1,2.09-.43h12.6v3.6h-12.6a1.7,1.7,0,0,0-1.27.52,1.75,1.75,0,0,0-.53,1.28,1.63,1.63,0,0,0,.15.7,1.61,1.61,0,0,0,.39.57,2,2,0,0,0,.56.39,1.82,1.82,0,0,0,.7.14h7.2a5,5,0,0,1,2.08.43A5.56,5.56,0,0,1,154.32,31a5.13,5.13,0,0,1,.43,2.1,5.26,5.26,0,0,1-.42,2.08,5.61,5.61,0,0,1-1.16,1.72,5.38,5.38,0,0,1-1.72,1.16,5.25,5.25,0,0,1-2.1.42h-12.6V34.9Z" transform="translate(0 -3.5)"/><path class="cls-1" d="M175.46,38.5h-18V34.9h3.6V24.1h-3.6V20.5h18v7.2h-3.61V24.1h-7.19v3.6h3.59v3.6h-3.59v3.6h7.19V31.3h3.61Z" transform="translate(0 -3.5)"/><path class="cls-1" d="M195.55,38.5H178.16v-7h7v-21h-7v-7h17.39a17.19,17.19,0,0,1,12.36,5.15,19.71,19.71,0,0,1,3.81,5.63,16.25,16.25,0,0,1,1.45,6.7,15.88,15.88,0,0,1-1.45,6.74,18.65,18.65,0,0,1-3.81,5.6,17.06,17.06,0,0,1-12.36,5.18Zm0-7a10.22,10.22,0,0,0,4.06-.84A10.37,10.37,0,0,0,203,28.4a9.68,9.68,0,0,0,2.24-3.34,10.23,10.23,0,0,0,0-8.12A9.68,9.68,0,0,0,203,13.6a10.37,10.37,0,0,0-3.36-2.26,10.22,10.22,0,0,0-4.06-.84h-3.39v21Z" transform="translate(0 -3.5)"/><path class="cls-1" d="M8.4,75.5a3.45,3.45,0,0,1,1.39.28,3.73,3.73,0,0,1,1.14.78,3.61,3.61,0,0,1,.78,1.14A3.47,3.47,0,0,1,12,79.1a3.33,3.33,0,0,1-.13.94,3.79,3.79,0,0,1-.35.86,3.65,3.65,0,0,1-.55.74,3.08,3.08,0,0,1-.72.54L5,85.1h7v2.4H0V85.1l8.92-4.92a.92.92,0,0,0,.48-.4,1.21,1.21,0,0,0,.2-.68,1.06,1.06,0,0,0-.1-.46,1.3,1.3,0,0,0-.25-.39A1.39,1.39,0,0,0,8.87,78a1.07,1.07,0,0,0-.47-.1H4.8a2.76,2.76,0,0,0-1,.17,2.18,2.18,0,0,0-.77.48,2.18,2.18,0,0,0-.48.77,2.76,2.76,0,0,0-.17,1H0V75.5H2.4V76a5.24,5.24,0,0,1,2.4-.53Z" transform="translate(0 -3.5)"/><path class="cls-1" d="M18.6,85.1H21v2.4H18.6Z" transform="translate(0 -3.5)"/><path class="cls-1" d="M67.18,84.7h2v2.8H65.78l-4.21-5.6H60.8v5.6H55.2V84.7H58V76.3H55.2V73.5H65a4.32,4.32,0,0,1,1.64.32,4.09,4.09,0,0,1,1.33.89,4.21,4.21,0,0,1,1.23,3A4.4,4.4,0,0,1,69,78.9a4.17,4.17,0,0,1-.48,1.1,4,4,0,0,1-1.83,1.56,2.66,2.66,0,0,1-.64.17c-.3.06-.66.11-1.08.17ZM65,79.1a1.79,1.79,0,0,0,1-.43,1.22,1.22,0,0,0,.41-1,1.35,1.35,0,0,0-.41-1,1.41,1.41,0,0,0-1-.39H60.8v2.8Z" transform="translate(0 -3.5)"/><path class="cls-1" d="M71.3,84a3.89,3.89,0,0,1,.25-1.44,3.41,3.41,0,0,1,.71-1.1,3.35,3.35,0,0,1,1.11-.71,4.21,4.21,0,0,1,2.86,0,3.35,3.35,0,0,1,1.11.71,3.41,3.41,0,0,1,.71,1.1,4.24,4.24,0,0,1,0,2.87,3.07,3.07,0,0,1-1.82,1.82,4.21,4.21,0,0,1-2.86,0,3.07,3.07,0,0,1-1.82-1.82A3.87,3.87,0,0,1,71.3,84Zm1.4,0a2.39,2.39,0,0,0,.15.86A1.91,1.91,0,0,0,73.94,86a2.39,2.39,0,0,0,.86.15,2.35,2.35,0,0,0,.86-.15,1.91,1.91,0,0,0,1.09-1.09A2.39,2.39,0,0,0,76.9,84a2.35,2.35,0,0,0-.15-.86,1.91,1.91,0,0,0-1.09-1.09,2.35,2.35,0,0,0-.86-.15,2.39,2.39,0,0,0-.86.15,1.91,1.91,0,0,0-1.09,1.09A2.35,2.35,0,0,0,72.7,84Z" transform="translate(0 -3.5)"/><path class="cls-1" d="M89.85,77v5.28a4.91,4.91,0,0,1-.42,2,5.45,5.45,0,0,1-2.8,2.79,5.21,5.21,0,0,1-4,0A5.45,5.45,0,0,1,80.91,86a5.23,5.23,0,0,1-1.14-1.66,5,5,0,0,1-.42-2V77h2.1v5.25a3,3,0,0,0,.25,1.22,3.08,3.08,0,0,0,1.67,1.68,3,3,0,0,0,1.23.25,3,3,0,0,0,1.22-.25,3.14,3.14,0,0,0,1-.67,3.34,3.34,0,0,0,.68-1,3,3,0,0,0,.25-1.23V79.1h-2.1V77Z" transform="translate(0 -3.5)"/><path class="cls-1" d="M91.42,69.5H95L105.82,82V73.1h-3.6V69.5h7.2v18h-3.6L95,75V83.9h3.6v3.6h-7.2Z" transform="translate(0 -3.5)"/><path class="cls-1" d="M129.52,87.5h-17.4v-7h7v-21h-7v-7h17.4a17.15,17.15,0,0,1,12.35,5.15,19.75,19.75,0,0,1,3.82,5.63,16.25,16.25,0,0,1,1.45,6.7,15.88,15.88,0,0,1-1.45,6.74,18.69,18.69,0,0,1-3.82,5.6,16.87,16.87,0,0,1-5.63,3.85A17.18,17.18,0,0,1,129.52,87.5Zm0-7a10.22,10.22,0,0,0,4.06-.84,10.37,10.37,0,0,0,3.36-2.26,9.68,9.68,0,0,0,2.24-3.34,10.23,10.23,0,0,0,0-8.12,9.68,9.68,0,0,0-2.24-3.34,10.37,10.37,0,0,0-3.36-2.26,10.22,10.22,0,0,0-4.06-.84h-3.4v21Z" transform="translate(0 -3.5)"/><path class="cls-1" d="M179,73.5v7a6.45,6.45,0,0,1-.56,2.69A7.21,7.21,0,0,1,174.73,87a6.7,6.7,0,0,1-2.71.55,6.63,6.63,0,0,1-2.68-.55,7.09,7.09,0,0,1-3.76-3.7,6.67,6.67,0,0,1-.56-2.71v-7h2.8v7a4.06,4.06,0,0,0,.33,1.63,4.27,4.27,0,0,0,.9,1.34,4.16,4.16,0,0,0,1.34.9,4.22,4.22,0,0,0,3.27,0,4.5,4.5,0,0,0,1.33-.89,4.45,4.45,0,0,0,.9-1.34,4.15,4.15,0,0,0,.34-1.64V76.3h-2.81V73.5Z" transform="translate(0 -3.5)"/><path class="cls-1" d="M181.12,78.5h6.5a2.83,2.83,0,0,1,1,.23,2.51,2.51,0,0,1,.79.56,2.49,2.49,0,0,1,.5.83,3,3,0,0,1,.18,1.07,3,3,0,0,1-.19,1.1,2.4,2.4,0,0,1-.55.86,2.5,2.5,0,0,1-.85.55,3,3,0,0,1-1.11.19h-2.7v1.8h1.8v1.8h-5.4V85.7h1.8V80.3h-1.8Zm3.6,1.82V82.1h2.7a.84.84,0,0,0,.9-.9.91.91,0,0,0-.18-.58.83.83,0,0,0-.52-.3Z" transform="translate(0 -3.5)"/><path class="cls-1" d="M5,126.9H4.8a2.76,2.76,0,0,0-1,.17,2.14,2.14,0,0,0-1.25,1.25,2.76,2.76,0,0,0-.17,1H0v-4.8H2.4V125a4.51,4.51,0,0,1,1.12-.4,5.77,5.77,0,0,1,1.28-.14H8.4a4.1,4.1,0,0,1,1.48.26,3.2,3.2,0,0,1,1.86,1.86A4.1,4.1,0,0,1,12,128.1a4.36,4.36,0,0,1-.2,1.33,3.36,3.36,0,0,1-.59,1.07,3.36,3.36,0,0,1,.59,1.07,4.36,4.36,0,0,1,.2,1.33,4,4,0,0,1-.26,1.47,3.23,3.23,0,0,1-.73,1.14,3.19,3.19,0,0,1-1.13.73,4.1,4.1,0,0,1-1.48.26H0v-2.4H8.4a1.2,1.2,0,1,0,0-2.4H4.8v-2.4H8.4a1.15,1.15,0,0,0,.88-.33,1.21,1.21,0,0,0,.32-.87,1.13,1.13,0,0,0-1.2-1.2Z" transform="translate(0 -3.5)"/><path class="cls-1" d="M18.6,134.1H21v2.4H18.6Z" transform="translate(0 -3.5)"/><path class="cls-1" d="M62.4,127.5h1.8v9H62.4v-3.6H58.8v3.6H55.2v-1.8H57v-5.4H55.2v-1.8h3.6v3.6h3.6Z" transform="translate(0 -3.5)"/><path class="cls-1" d="M100.55,101.5v7h-14v21h14v7h-35v-7h14v-21h-14v-7Z" transform="translate(0 -3.5)"/><path class="cls-1" d="M112.1,136.5h-9v-1.8h1.8v-5.4h-1.8v-1.8h9v3.6h-1.8v-1.8h-3.6v1.8h1.8v1.8h-1.8v1.8h3.6v-1.8h1.8Z" transform="translate(0 -3.5)"/><path class="cls-1" d="M127.37,136.5H113.45v-5.6h5.6V114.1h-5.6v-5.6h13.92a13.8,13.8,0,0,1,5.38,1.06,13.62,13.62,0,0,1,4.5,3.06,15.87,15.87,0,0,1,3.06,4.5,13.19,13.19,0,0,1,1.16,5.37,12.76,12.76,0,0,1-1.16,5.39,15.11,15.11,0,0,1-3.06,4.48,13.53,13.53,0,0,1-4.5,3.08A13.8,13.8,0,0,1,127.37,136.5Zm0-5.6a8.15,8.15,0,0,0,3.25-.67,8.34,8.34,0,0,0,2.69-1.81,7.7,7.7,0,0,0,1.79-2.67,8.22,8.22,0,0,0,0-6.5,7.7,7.7,0,0,0-1.79-2.67,8.34,8.34,0,0,0-2.69-1.81,8.15,8.15,0,0,0-3.25-.67h-2.72v16.8Z" transform="translate(0 -3.5)"/><path class="cls-1" d="M9.6,301.9H12v2.4H9.6v2.4H7.2v-2.4H0v-2.4l6.35-4.8H4.8v-2.4H9.6Zm-2.4,0v-2.4l-3.13,2.4Z" transform="translate(0 -3.5)"/><path class="cls-1" d="M18.6,304.3H21v2.4H18.6Z" transform="translate(0 -3.5)"/><path class="cls-1" d="M62.55,304.6a1,1,0,0,0,1.05-1.05,1.11,1.11,0,0,0-.08-.41,1.2,1.2,0,0,0-.23-.34,1,1,0,0,0-.33-.22,1.11,1.11,0,0,0-.41-.08h-4.2a2.91,2.91,0,0,1-1.21-.25,3.3,3.3,0,0,1-1-.67,3.39,3.39,0,0,1-.68-1,3,3,0,0,1-.25-1.22,2.91,2.91,0,0,1,.25-1.21,3.3,3.3,0,0,1,.67-1,3.39,3.39,0,0,1,1-.68,3,3,0,0,1,1.22-.25H65.7v2.1H58.35a1,1,0,0,0-1.05,1.05,1.11,1.11,0,0,0,.08.41,1.14,1.14,0,0,0,.23.33,1,1,0,0,0,.33.23,1.11,1.11,0,0,0,.41.08h4.2a2.91,2.91,0,0,1,1.21.25,3.18,3.18,0,0,1,1.69,1.69,3,3,0,0,1,.25,1.22,2.91,2.91,0,0,1-.25,1.21,3.18,3.18,0,0,1-.67,1,3.3,3.3,0,0,1-1,.67,3,3,0,0,1-1.22.25H55.2v-2.1Z" transform="translate(0 -3.5)"/><path class="cls-1" d="M77.69,302.5a5.13,5.13,0,0,1-.59,1.73,4.74,4.74,0,0,1-1.1,1.33,5,5,0,0,1-1.55.85,6.25,6.25,0,0,1-1.93.29,5.86,5.86,0,0,1-2.14-.38,4.82,4.82,0,0,1-1.66-1.06,4.7,4.7,0,0,1-1.07-1.66,6,6,0,0,1-.38-2.15,5.88,5.88,0,0,1,.38-2.15,4.7,4.7,0,0,1,1.07-1.66,4.82,4.82,0,0,1,1.66-1.06,5.86,5.86,0,0,1,2.14-.38,6.27,6.27,0,0,1,1.72.23,5.09,5.09,0,0,1,1.43.67v-.9h2.1v4.2H75.53a2.84,2.84,0,0,0-1.07-1.54,3.29,3.29,0,0,0-1.94-.56,3.55,3.55,0,0,0-1.28.23,2.81,2.81,0,0,0-1,.64,2.69,2.69,0,0,0-.64,1,3.49,3.49,0,0,0-.22,1.29,3.57,3.57,0,0,0,.22,1.29,2.77,2.77,0,0,0,.64,1,2.81,2.81,0,0,0,1,.64,3.55,3.55,0,0,0,1.28.23,3.29,3.29,0,0,0,1.94-.56,2.84,2.84,0,0,0,1.07-1.54Z" transform="translate(0 -3.5)"/><path class="cls-1" d="M87.05,304.9h1.3v1.8h-2.2l-2.7-3.6H83v3.6h-3.6v-1.8h1.8v-5.4h-1.8v-1.8h6.3a2.66,2.66,0,0,1,1,.21,2.69,2.69,0,0,1,.86.57,2.56,2.56,0,0,1,.58.86,2.67,2.67,0,0,1,.21,1.06,2.87,2.87,0,0,1-.11.77,2.67,2.67,0,0,1-.81,1.3,2.41,2.41,0,0,1-.67.41,1.63,1.63,0,0,1-.42.11l-.69.11Zm-1.4-3.6a1.16,1.16,0,0,0,.64-.27.83.83,0,0,0,.26-.63.89.89,0,0,0-.9-.9H83v1.8Z" transform="translate(0 -3.5)"/><path class="cls-1" d="M89.7,306.7l2.24-5.6H91.1v-1.4h2.8l2.8,7H95.19l-.56-1.4H91.76l-.56,1.4Zm2.63-2.8h1.74l-.88-2.16Z" transform="translate(0 -3.5)"/><path class="cls-1" d="M97.75,306.69v-7h1.4v4.65l1.4-1.85H102l1.4,1.85V301.1H102v-1.4h2.8v7h-1.4l-2.1-2.79-2.1,2.79Z" transform="translate(0 -3.5)"/><path class="cls-1" d="M105.8,170.7h81.6v27.2H160.2v81.6h54.4V252.3h27.2v54.4h-136V279.5H133V197.9H105.8Z" transform="translate(0 -3.5)"/><path class="cls-1" d="M0,359.3H12v2.4H2.4v2.4h6a3.47,3.47,0,0,1,1.4.28,3.76,3.76,0,0,1,1.14.77,3.55,3.55,0,0,1,.78,1.15,3.64,3.64,0,0,1,0,2.8A3.75,3.75,0,0,1,9.8,371a3.47,3.47,0,0,1-1.4.28H0v-2.4H8.4a1,1,0,0,0,.47-.1,1.3,1.3,0,0,0,.39-.25,1.19,1.19,0,0,0,.25-.38,1.27,1.27,0,0,0,0-.94,1.19,1.19,0,0,0-.25-.38,1.3,1.3,0,0,0-.39-.25,1,1,0,0,0-.47-.1H0Z" transform="translate(0 -3.5)"/><path class="cls-1" d="M18.6,368.9H21v2.4H18.6Z" transform="translate(0 -3.5)"/><path class="cls-1" d="M58.68,371.3H55.2v-1.4h1.4v-4.2H55.2v-1.4h3.48a3.38,3.38,0,0,1,1.34.27,3.31,3.31,0,0,1,1.13.76,3.87,3.87,0,0,1,.76,1.13,3.23,3.23,0,0,1,.29,1.34,3,3,0,0,1-.29,1.34,3.58,3.58,0,0,1-.76,1.12A3.2,3.2,0,0,1,60,371,3.38,3.38,0,0,1,58.68,371.3Zm0-1.4a2.06,2.06,0,0,0,.81-.17,2.09,2.09,0,0,0,1.12-1.12,2,2,0,0,0,0-1.62,2.09,2.09,0,0,0-1.12-1.12,2.06,2.06,0,0,0-.81-.17H58v4.2Z" transform="translate(0 -3.5)"/><path class="cls-1" d="M104.34,361.7h6.91v9.6H99.54L85.09,352.1H82.45v19.2H63.25v-9.6h9.6V332.9h-9.6v-9.6h33.6a14.55,14.55,0,0,1,5.62,1.1,14.34,14.34,0,0,1,8.78,13.3,14.77,14.77,0,0,1-.58,4.13A14.94,14.94,0,0,1,109,345.6a13.58,13.58,0,0,1-6.27,5.35,11.46,11.46,0,0,1-2.2.57c-1,.2-2.26.39-3.7.58Zm-7.49-19.2a6.18,6.18,0,0,0,3.41-1.46,4.22,4.22,0,0,0,1.39-3.34,4.55,4.55,0,0,0-1.42-3.46,4.75,4.75,0,0,0-3.38-1.34H82.45v9.6Z" transform="translate(0 -3.5)"/><path class="cls-1" d="M113.27,366.8a4.9,4.9,0,0,1,.32-1.84,4,4,0,0,1,2.34-2.34,5.45,5.45,0,0,1,3.68,0,4.05,4.05,0,0,1,1.42.92,3.94,3.94,0,0,1,.91,1.42,4.9,4.9,0,0,1,.33,1.84,5,5,0,0,1-.33,1.84,3.94,3.94,0,0,1-.91,1.42,4.05,4.05,0,0,1-1.42.92,5.45,5.45,0,0,1-3.68,0,4,4,0,0,1-2.34-2.34A5,5,0,0,1,113.27,366.8Zm1.8,0a3,3,0,0,0,.19,1.1,2.4,2.4,0,0,0,.55.86,2.5,2.5,0,0,0,.85.55,3,3,0,0,0,1.11.19,3,3,0,0,0,1.1-.19,2.5,2.5,0,0,0,.85-.55,2.4,2.4,0,0,0,.55-.86,3.15,3.15,0,0,0,0-2.21,2.45,2.45,0,0,0-.55-.85,2.5,2.5,0,0,0-.85-.55,3,3,0,0,0-1.1-.19,3,3,0,0,0-1.11.19,2.5,2.5,0,0,0-.85.55,2.45,2.45,0,0,0-.55.85A3,3,0,0,0,115.07,366.8Z" transform="translate(0 -3.5)"/><path class="cls-1" d="M123.62,371.28v-18h3.6v12l3.6-4.77h3.6l3.6,4.77V356.9h-3.6v-3.6h7.2v18H138l-5.4-7.18-5.4,7.18Z" transform="translate(0 -3.5)"/><path class="cls-1" d="M156.92,367.7a1.7,1.7,0,0,0,1.27-.52,1.75,1.75,0,0,0,.53-1.28,1.71,1.71,0,0,0-.15-.71,1.65,1.65,0,0,0-.39-.58,2,2,0,0,0-.56-.38,1.82,1.82,0,0,0-.7-.13h-7.2a5.19,5.19,0,0,1-2.08-.42,5.55,5.55,0,0,1-1.72-1.16,5.82,5.82,0,0,1-1.17-1.72,5.16,5.16,0,0,1-.43-2.1,5.26,5.26,0,0,1,.42-2.08,5.49,5.49,0,0,1,1.16-1.72,5.58,5.58,0,0,1,1.72-1.17,5.09,5.09,0,0,1,2.1-.43h12.6v3.6h-12.6a1.78,1.78,0,0,0-1.8,1.8,1.62,1.62,0,0,0,.14.7,1.75,1.75,0,0,0,.39.57,2,2,0,0,0,.56.39,1.83,1.83,0,0,0,.71.14h7.2a5,5,0,0,1,2.07.43,5.58,5.58,0,0,1,1.72,1.17,5.36,5.36,0,0,1,1.17,1.72,5.1,5.1,0,0,1,.44,2.1,5.27,5.27,0,0,1-.43,2.08,5.61,5.61,0,0,1-1.16,1.72,5.55,5.55,0,0,1-1.72,1.16,5.24,5.24,0,0,1-2.09.42h-12.6v-3.6Z" transform="translate(0 -3.5)"/><path class="cls-1" d="M165,362.31h2.25l2.25,3,2.25-3H174l-3.6,4.8v4.2h-1.8v-4.2l-2.25-3H165Z" transform="translate(0 -3.5)"/><path class="cls-1" d="M0,451.5A4.1,4.1,0,0,1,.26,450,3.19,3.19,0,0,1,1,448.89a3.23,3.23,0,0,1,1.14-.73,4,4,0,0,1,1.47-.26H12v2.4H3.6a1.13,1.13,0,0,0-1.2,1.2v1.37a4.3,4.3,0,0,1,1.2-.17H8.4a4.1,4.1,0,0,1,1.48.26,3.2,3.2,0,0,1,1.86,1.86A4.1,4.1,0,0,1,12,456.3a4,4,0,0,1-.26,1.47,3.23,3.23,0,0,1-.73,1.14,3.19,3.19,0,0,1-1.13.73,4.1,4.1,0,0,1-1.48.26H3.6a4,4,0,0,1-1.47-.26,3.16,3.16,0,0,1-1.87-1.87A4,4,0,0,1,0,456.3Zm2.4,4.8a1.13,1.13,0,0,0,1.2,1.2H8.4a1.2,1.2,0,1,0,0-2.4H3.6a1.13,1.13,0,0,0-1.2,1.2Z" transform="translate(0 -3.5)"/><path class="cls-1" d="M18.6,457.5H21v2.4H18.6Z" transform="translate(0 -3.5)"/><path class="cls-1" d="M55.2,459.83V391.9H68.8v45.22l13.6-18H96l13.6,18V405.5H96V391.9h27.2v67.93H109.6L89.2,432.7,68.8,459.83Z" transform="translate(0 -3.5)"/><path class="cls-1" d="M125.65,459.9l3.36-8.4h-1.26v-2.1H132l4.2,10.5h-2.26l-.84-2.1h-4.3l-.85,2.1Zm3.95-4.2h2.61l-1.32-3.24Z" transform="translate(0 -3.5)"/><path class="cls-1" d="M145.07,457.8a1,1,0,0,0,.75-.3,1.05,1.05,0,0,0,.3-.75,1.07,1.07,0,0,0-.08-.41,1,1,0,0,0-.23-.34,1,1,0,0,0-.33-.22,1.07,1.07,0,0,0-.41-.08h-4.2a3,3,0,0,1-1.21-.25,3.14,3.14,0,0,1-1-.67,3.24,3.24,0,0,1-.69-1,3.13,3.13,0,0,1-.25-1.22,2.91,2.91,0,0,1,.25-1.21,3.16,3.16,0,0,1,.68-1,3.34,3.34,0,0,1,1-.68,3,3,0,0,1,1.22-.25h7.35v2.1h-7.35a1,1,0,0,0-1.05,1.05,1,1,0,0,0,.09.41,1,1,0,0,0,.22.33,1.5,1.5,0,0,0,.33.23,1.15,1.15,0,0,0,.41.08h4.2a3,3,0,0,1,1.22.25,3.31,3.31,0,0,1,1,.69,3.16,3.16,0,0,1,.68,1,3,3,0,0,1,.25,1.22A3.07,3.07,0,0,1,148,458a3.21,3.21,0,0,1-.68,1,3.25,3.25,0,0,1-1,.67,3,3,0,0,1-1.23.25h-7.35v-2.1Z" transform="translate(0 -3.5)"/><path class="cls-1" d="M163.6,459.9l5.76-14.4H167.2v-3.6h7.2l7.2,18h-3.87l-1.44-3.6h-7.38l-1.44,3.6Zm6.77-7.2h4.48l-2.27-5.56Z" transform="translate(0 -3.5)"/><path class="cls-1" d="M231.82,459.9H198V446.3h13.6V405.5H198V391.9h33.79a33.35,33.35,0,0,1,24,10,38.87,38.87,0,0,1,7.41,10.94,31.71,31.71,0,0,1,2.82,13A30.91,30.91,0,0,1,263.24,439a36.83,36.83,0,0,1-7.41,10.88,33,33,0,0,1-11,7.48A33.62,33.62,0,0,1,231.82,459.9Zm0-13.6a19.81,19.81,0,0,0,7.89-1.63,20.36,20.36,0,0,0,6.53-4.39,18.73,18.73,0,0,0,4.35-6.49,19.91,19.91,0,0,0,0-15.78,18.83,18.83,0,0,0-4.35-6.49,20.36,20.36,0,0,0-6.53-4.39,19.81,19.81,0,0,0-7.89-1.63h-6.59v40.8Z" transform="translate(0 -3.5)"/><path class="cls-1" d="M304.77,424.9v17.61a16.29,16.29,0,0,1-1.41,6.72,18.27,18.27,0,0,1-3.77,5.53,18,18,0,0,1-5.57,3.76,17.24,17.24,0,0,1-13.47,0,18.19,18.19,0,0,1-5.59-3.73,17.74,17.74,0,0,1-3.79-5.53,16.46,16.46,0,0,1-1.41-6.77V424.9h7v17.5a10.15,10.15,0,0,0,.82,4.08,10.77,10.77,0,0,0,2.24,3.34,10.4,10.4,0,0,0,7.44,3.08,10.14,10.14,0,0,0,4.07-.82,10.78,10.78,0,0,0,3.33-2.24,11.12,11.12,0,0,0,2.26-3.34,10.33,10.33,0,0,0,.84-4.1V431.9h-7v-7Z" transform="translate(0 -3.5)"/><path class="cls-1" d="M312.78,459.9h-5.22v-2.1h2.1v-6.3h-2.1v-2.1h5.22a5.13,5.13,0,0,1,2,.4,5.25,5.25,0,0,1,1.69,1.14,6.14,6.14,0,0,1,1.14,1.69,4.83,4.83,0,0,1,.44,2,4.75,4.75,0,0,1-.44,2,5.67,5.67,0,0,1-1.14,1.68,5,5,0,0,1-1.69,1.15A5.13,5.13,0,0,1,312.78,459.9Zm0-2.1a3,3,0,0,0,1.22-.25,3.21,3.21,0,0,0,1-.68,3,3,0,0,0,.67-1,3.1,3.1,0,0,0,0-2.44,3,3,0,0,0-.67-1,3.21,3.21,0,0,0-1-.68,3,3,0,0,0-1.22-.25h-1v6.3Z" transform="translate(0 -3.5)"/><path class="cls-1" d="M3.25,488.5H0l8.76-9.6H2.4v2.4H0v-4.8H12v2.4Z" transform="translate(0 -3.5)"/><path class="cls-1" d="M18.6,486.1H21v2.4H18.6Z" transform="translate(0 -3.5)"/><path class="cls-1" d="M55.2,484a4.47,4.47,0,0,1,2.74-4.14,4.36,4.36,0,0,1,1.76-.36h4.5v1.8H59.7A2.74,2.74,0,0,0,57.21,483a2.69,2.69,0,0,0,3.27,3.63,3.09,3.09,0,0,0,.71-.34,2.73,2.73,0,0,0,.59-.53,2.77,2.77,0,0,0,.42-.68l0,0a.31.31,0,0,0,0-.08H60.6v-1.8h3.6v5.4H62.4v-.92a4.53,4.53,0,0,1-1.28.69,4.6,4.6,0,0,1-1.43.23,4.32,4.32,0,0,1-1.75-.36,4.53,4.53,0,0,1-1.43-1,4.67,4.67,0,0,1-1-1.43A4.47,4.47,0,0,1,55.2,484Z" transform="translate(0 -3.5)"/><path class="cls-1" d="M81,484.9h2.59v3.6H79.16l-5.42-7.2h-1v7.2h-7.2v-3.6h3.6V474.1h-3.6v-3.6h12.6a5.55,5.55,0,0,1,2.11.41A5.2,5.2,0,0,1,82,472.06a5.43,5.43,0,0,1,1.16,1.72,5.35,5.35,0,0,1,.42,2.12,5.43,5.43,0,0,1-.22,1.55,5.55,5.55,0,0,1-.62,1.41,4.85,4.85,0,0,1-1,1.17,5.13,5.13,0,0,1-1.35.84,4.23,4.23,0,0,1-.82.21c-.39.08-.85.15-1.39.22Zm-2.81-7.2a2.29,2.29,0,0,0,1.28-.55A1.57,1.57,0,0,0,80,475.9a1.73,1.73,0,0,0-.53-1.3,1.82,1.82,0,0,0-1.27-.5h-5.4v3.6Z" transform="translate(0 -3.5)"/><path class="cls-1" d="M95.25,479.5V484a4.18,4.18,0,0,1-.36,1.72,4.53,4.53,0,0,1-2.4,2.39,4.3,4.3,0,0,1-1.74.36,4.42,4.42,0,0,1-1.73-.35,4.5,4.5,0,0,1-1.43-1,4.4,4.4,0,0,1-1-1.42,4.24,4.24,0,0,1-.36-1.74V479.5h1.8V484a2.68,2.68,0,0,0,.79,1.91,2.72,2.72,0,0,0,.86.58,2.73,2.73,0,0,0,2.1,0,2.62,2.62,0,0,0,.85-.58,2.56,2.56,0,0,0,.58-.86,2.5,2.5,0,0,0,.22-1.05v-2.7h-1.8v-1.8Z" transform="translate(0 -3.5)"/><path class="cls-1" d="M100.22,484.94V474.1h-3.6v-3.6h12.54a6.1,6.1,0,0,1,2.23.39A5.06,5.06,0,0,1,113.1,472a4.81,4.81,0,0,1,1.1,1.69,5.73,5.73,0,0,1,.4,2.19,6.1,6.1,0,0,1-.33,2.06,5.56,5.56,0,0,1-.91,1.6,5.43,5.43,0,0,1,.91,1.6,6,6,0,0,1,.33,2.05,5.94,5.94,0,0,1-.39,2.2,4.78,4.78,0,0,1-1.11,1.69,5,5,0,0,1-1.7,1.09,6.05,6.05,0,0,1-2.22.39h-.36l-.34,0H96.6v-3.56Zm9,0a1.79,1.79,0,0,0,1.3-.49,1.75,1.75,0,0,0,.5-1.31,1.83,1.83,0,0,0-.5-1.34,1.76,1.76,0,0,0-1.3-.5h-5.49v3.64Zm0-7.22a1.85,1.85,0,0,0,1.34-.5,1.79,1.79,0,0,0,.5-1.32,1.75,1.75,0,0,0-.5-1.31,1.84,1.84,0,0,0-1.34-.49H103.8v3.62Z" transform="translate(0 -3.5)"/><path class="cls-1" d="M8.48,541.1A3.44,3.44,0,0,1,11,542.17a3.64,3.64,0,0,1,.75,1.14A3.45,3.45,0,0,1,12,544.7a3.49,3.49,0,0,1-.24,1.3,3.65,3.65,0,0,1-.67,1.1,3.49,3.49,0,0,1,.67,1.09A3.58,3.58,0,0,1,12,549.5a3.45,3.45,0,0,1-.28,1.39A3.64,3.64,0,0,1,11,552a3.44,3.44,0,0,1-2.49,1.07h-5a3.38,3.38,0,0,1-1.38-.29,3.61,3.61,0,0,1-1.87-1.92A3.45,3.45,0,0,1,0,549.5a3.39,3.39,0,0,1,.25-1.31,3.68,3.68,0,0,1,.67-1.09A3.86,3.86,0,0,1,.25,546,3.31,3.31,0,0,1,0,544.7a3.45,3.45,0,0,1,.28-1.39,3.61,3.61,0,0,1,1.87-1.92,3.38,3.38,0,0,1,1.38-.29ZM3.6,543.5a1.23,1.23,0,0,0-.47.09,1.19,1.19,0,0,0-.38.25,1.3,1.3,0,0,0-.25.39,1,1,0,0,0-.1.47,1.15,1.15,0,0,0,.35.85,1.19,1.19,0,0,0,.85.34H8.4a1.19,1.19,0,0,0,.47-.09,1.3,1.3,0,0,0,.39-.25,1.19,1.19,0,0,0,.25-.38,1.23,1.23,0,0,0,.09-.47,1.2,1.2,0,0,0-1.2-1.2Zm4.8,7.2a1,1,0,0,0,.47-.1,1.3,1.3,0,0,0,.39-.25,1.19,1.19,0,0,0,.25-.38,1.23,1.23,0,0,0,.09-.47,1.19,1.19,0,0,0-.09-.47,1.08,1.08,0,0,0-.64-.64,1.19,1.19,0,0,0-.47-.09H3.6a1.23,1.23,0,0,0-.47.09,1.19,1.19,0,0,0-.38.25,1.3,1.3,0,0,0-.25.39,1,1,0,0,0-.1.47,1.2,1.2,0,0,0,1.2,1.2Z" transform="translate(0 -3.5)"/><path class="cls-1" d="M18.6,550.7H21v2.4H18.6Z" transform="translate(0 -3.5)"/><path class="cls-1" d="M55.2,553.08v-18h3.6l5.4,7.2,5.4-7.2h3.6v18H69.6v-12L66,545.9H62.4l-3.6-4.79v8.39h3.62v3.58Z" transform="translate(0 -3.5)"/><path class="cls-1" d="M75.9,546.1a7.93,7.93,0,0,1,.5-2.87A6.16,6.16,0,0,1,80,539.6a8.46,8.46,0,0,1,5.73,0,6.18,6.18,0,0,1,3.63,3.63,8.46,8.46,0,0,1,0,5.73A6.32,6.32,0,0,1,88,551.17a6.39,6.39,0,0,1-2.21,1.43,8.46,8.46,0,0,1-5.73,0A6.21,6.21,0,0,1,76.4,549,8,8,0,0,1,75.9,546.1Zm2.8,0a4.69,4.69,0,0,0,.3,1.71A3.7,3.7,0,0,0,81.19,550a4.65,4.65,0,0,0,1.71.3,4.7,4.7,0,0,0,1.72-.3,3.64,3.64,0,0,0,1.32-.86,3.68,3.68,0,0,0,.86-1.33,5.05,5.05,0,0,0,0-3.43,3.74,3.74,0,0,0-2.18-2.18,4.7,4.7,0,0,0-1.72-.3,4.65,4.65,0,0,0-1.71.3,3.93,3.93,0,0,0-1.34.85,3.89,3.89,0,0,0-.85,1.33A4.67,4.67,0,0,0,78.7,546.1Z" transform="translate(0 -3.5)"/><path class="cls-1" d="M92,542.6h6.3v2.1H96.2V551h4.2v-2.1h2.1v4.2H92V551h2.1v-6.3H92Z" transform="translate(0 -3.5)"/><path class="cls-1" d="M104.07,546.1h4.2v1.4h-1.4v4.2h2.8v-1.4h1.4v2.8h-7v-1.4h1.4v-4.2h-1.4Z" transform="translate(0 -3.5)"/><path class="cls-1" d="M140.12,525.1v14.08a13,13,0,0,1-1.12,5.38,14.41,14.41,0,0,1-3,4.42,14.11,14.11,0,0,1-4.45,3,13.76,13.76,0,0,1-10.78,0,14.17,14.17,0,0,1-7.51-7.41,13.35,13.35,0,0,1-1.12-5.42V525.1h5.6v14a8.12,8.12,0,0,0,.66,3.26,8.8,8.8,0,0,0,1.79,2.68,8.42,8.42,0,0,0,2.68,1.8,8.43,8.43,0,0,0,6.54,0,8.53,8.53,0,0,0,2.66-1.79,8.84,8.84,0,0,0,1.8-2.67,8.09,8.09,0,0,0,.67-3.28v-8.4h-5.6v-5.6Z" transform="translate(0 -3.5)"/><path class="cls-1" d="M177.39,543.5a4.75,4.75,0,0,0,4.8-4.8,4.88,4.88,0,0,0-.38-1.9,5,5,0,0,0-1-1.53,4.74,4.74,0,0,0-3.39-1.37h-19.2a13.86,13.86,0,0,1-5.54-1.13,14.61,14.61,0,0,1-4.59-3.09,15,15,0,0,1-3.12-4.59,14.15,14.15,0,0,1,0-11.13,14.36,14.36,0,0,1,3.1-4.59,15,15,0,0,1,4.58-3.12,13.68,13.68,0,0,1,5.59-1.15h33.6v9.6h-33.6a4.75,4.75,0,0,0-4.8,4.8,4.47,4.47,0,0,0,.39,1.87,5,5,0,0,0,2.54,2.55,4.66,4.66,0,0,0,1.87.38h19.2a13.63,13.63,0,0,1,5.55,1.15,14.85,14.85,0,0,1,7.7,7.71,14.15,14.15,0,0,1,0,11.13A14.43,14.43,0,0,1,183,552a14,14,0,0,1-5.59,1.13h-33.6v-9.6Z" transform="translate(0 -3.5)"/><path class="cls-1" d="M196.4,553.1v-7h7v-21h-7v-7h14v14l11.76-14h9.24v7h-6l-8.71,10.5,8.78,10.5h6v7h-9.24l-11.76-14v14Z" transform="translate(0 -3.5)"/><path class="cls-1" d="M12,614.1a4,4,0,0,1-.26,1.47,3.23,3.23,0,0,1-.73,1.14,3.19,3.19,0,0,1-1.13.73,4.1,4.1,0,0,1-1.48.26H0v-2.4H8.4a1.13,1.13,0,0,0,1.2-1.2v-1.37a4.3,4.3,0,0,1-1.2.17H3.6a4,4,0,0,1-1.47-.26,3.16,3.16,0,0,1-1.87-1.87A4,4,0,0,1,0,609.3a4.1,4.1,0,0,1,.26-1.48A3.19,3.19,0,0,1,1,606.69,3.23,3.23,0,0,1,2.13,606a4,4,0,0,1,1.47-.26H8.4a4.1,4.1,0,0,1,1.48.26,3.2,3.2,0,0,1,1.86,1.86A4.1,4.1,0,0,1,12,609.3Zm-2.4-4.8a1.13,1.13,0,0,0-1.2-1.2H3.6a1.2,1.2,0,1,0,0,2.4H8.4a1.13,1.13,0,0,0,1.2-1.2Z" transform="translate(0 -3.5)"/><path class="cls-1" d="M18.6,615.3H21v2.4H18.6Z" transform="translate(0 -3.5)"/><path class="cls-1" d="M59.4,615.6h2.1v2.1H55.2v-2.1h2.1v-6.3H55.2v-2.1H65.7v4.2H63.6v-2.1H59.4v2.1h2.1v2.1H59.4Z" transform="translate(0 -3.5)"/><path class="cls-1" d="M67.27,617.7l3.36-8.4H69.38v-2.1h4.19l4.2,10.5H75.52l-.84-2.1H70.37l-.84,2.1Zm4-4.2h2.62l-1.33-3.24Z" transform="translate(0 -3.5)"/><path class="cls-1" d="M86.35,610.7v1.4h-2.8v4.2h2.8v1.4h-7v-1.4h2.8v-4.2h-2.8v-1.4Z" transform="translate(0 -3.5)"/><path class="cls-1" d="M87.4,610.7h1.4l4.2,4.86V612.1H91.6v-1.4h2.8v7H93l-4.2-4.86v3.46h1.4v1.4H87.4Z" transform="translate(0 -3.5)"/><path class="cls-1" d="M95.45,569.7h48v19.2h-9.6v-9.6h-9.6v28.8h9.6v9.6h-28.8v-9.6h9.6V579.3h-9.6v9.6h-9.6Z" transform="translate(0 -3.5)"/><path class="cls-1" d="M156.19,617.7h-9v-1.8H149v-5.4h-1.8v-1.8h9v3.6h-1.8v-1.8h-3.6v1.8h1.8v1.8h-1.8v1.8h3.6v-1.8h1.8Z" transform="translate(0 -3.5)"/><path class="cls-1" d="M161,617.7h-3.48v-1.4h1.4v-4.2h-1.4v-1.4H161a3.46,3.46,0,0,1,1.35.27,3.27,3.27,0,0,1,1.12.76,3.91,3.91,0,0,1,.77,1.13,3.39,3.39,0,0,1,.29,1.34,3.23,3.23,0,0,1-.29,1.34,3.61,3.61,0,0,1-.77,1.12,3.17,3.17,0,0,1-1.12.77A3.46,3.46,0,0,1,161,617.7Zm0-1.4a2.06,2.06,0,0,0,.81-.17,2,2,0,0,0,.68-.45A1.82,1.82,0,0,0,163,615a2,2,0,0,0,0-1.62,1.82,1.82,0,0,0-.44-.67,2,2,0,0,0-.68-.45,2.06,2.06,0,0,0-.81-.17h-.68v4.2Z" transform="translate(0 -3.5)"/><path class="cls-1" d="M7.2,679.9H12v2.4H0v-2.4H4.8v-7.2H2.4v-2.4H7.2Z" transform="translate(0 -3.5)"/><path class="cls-1" d="M19.79,682.3a5.87,5.87,0,0,1-2.32-.47,6.1,6.1,0,0,1-1.91-1.28,6.31,6.31,0,0,1-1.29-1.91,6,6,0,0,1,0-4.67,6.23,6.23,0,0,1,1.29-1.92,6.1,6.1,0,0,1,1.91-1.28,6,6,0,0,1,4.65,0A6.43,6.43,0,0,1,24,672.06a6.16,6.16,0,0,1,1.3,1.91,6,6,0,0,1-1.3,6.57,6.43,6.43,0,0,1-1.91,1.29A5.91,5.91,0,0,1,19.79,682.3Zm0-9.6a3.45,3.45,0,0,0-1.39.28,3.8,3.8,0,0,0-1.15.77,3.68,3.68,0,0,0-.77,1.15,3.47,3.47,0,0,0-.29,1.4,3.77,3.77,0,0,0,.24,1.3l5.14-4.43a4,4,0,0,0-.86-.35A3.46,3.46,0,0,0,19.8,672.7Zm0,7.2a3.45,3.45,0,0,0,1.39-.28,3.73,3.73,0,0,0,1.14-.78,3.61,3.61,0,0,0,.78-1.14,3.47,3.47,0,0,0,.29-1.4,3.54,3.54,0,0,0-.25-1.31L18,679.42a3,3,0,0,0,.86.36A3.83,3.83,0,0,0,19.8,679.9Z" transform="translate(0 -3.5)"/><path class="cls-1" d="M32.4,679.9h2.38v2.4H32.4Z" transform="translate(0 -3.5)"/><path class="cls-1" d="M55.2,675.3h1.4l4.2,4.86V676.7H59.4v-1.4h2.8v7H60.8l-4.2-4.86v3.46H58v1.4H55.2Z" transform="translate(0 -3.5)"/><path class="cls-1" d="M81.25,664.3v9.05a8.41,8.41,0,0,1-.72,3.46,9.36,9.36,0,0,1-1.94,2.84,9,9,0,0,1-2.87,1.94,8.87,8.87,0,0,1-6.93,0A9.14,9.14,0,0,1,64,676.84a8.55,8.55,0,0,1-.72-3.49V664.3h3.6v9a5.32,5.32,0,0,0,.42,2.1,5.76,5.76,0,0,0,1.15,1.72,5.36,5.36,0,0,0,3.83,1.58,5.32,5.32,0,0,0,2.1-.42,5.45,5.45,0,0,0,1.71-1.16,5.56,5.56,0,0,0,1.16-1.71,5.21,5.21,0,0,0,.43-2.11v-5.4h-3.6v-3.6Z" transform="translate(0 -3.5)"/><path class="cls-1" d="M84,647.3h35v14h-7v-7h-7v21h7v7H91v-7h7v-21H91v7H84Z" transform="translate(0 -3.5)"/><path class="cls-1" d="M142.51,673.9a10.63,10.63,0,0,1-1.18,3.47,9.32,9.32,0,0,1-5.31,4.34,12.08,12.08,0,0,1-3.84.59,11.57,11.57,0,0,1-4.29-.76,9.25,9.25,0,0,1-5.45-5.45,12.52,12.52,0,0,1,0-8.59,9.26,9.26,0,0,1,5.45-5.44,11.57,11.57,0,0,1,4.29-.76,12.11,12.11,0,0,1,3.43.46,9.84,9.84,0,0,1,2.87,1.35V661.3h4.2v8.4h-4.49a5.6,5.6,0,0,0-2.15-3.08,6.52,6.52,0,0,0-3.86-1.12,7,7,0,0,0-2.57.45,5.56,5.56,0,0,0-3.28,3.27,7.59,7.59,0,0,0,0,5.15,5.54,5.54,0,0,0,3.28,3.28,7,7,0,0,0,2.57.45A6.45,6.45,0,0,0,136,677a5.6,5.6,0,0,0,2.15-3.08Z" transform="translate(0 -3.5)"/><path class="cls-1" d="M145.35,682.3l5.76-14.4H149v-3.6h7.2l7.2,18h-3.87L158,678.7h-7.38l-1.44,3.6Zm6.76-7.2h4.49l-2.27-5.56Z" transform="translate(0 -3.5)"/><path class="cls-1" d="M173.4,680.2a1,1,0,0,0,.74-.3,1.06,1.06,0,0,0,.31-.75.91.91,0,0,0-.09-.41,1,1,0,0,0-.55-.56,1.15,1.15,0,0,0-.41-.08h-4.2a3,3,0,0,1-1.22-.25,3.25,3.25,0,0,1-1-.67,3.33,3.33,0,0,1-.68-1,3,3,0,0,1-.25-1.22,3.07,3.07,0,0,1,.24-1.21,3.33,3.33,0,0,1,.68-1,3.47,3.47,0,0,1,1-.68,3,3,0,0,1,1.23-.25h7.35v2.1H169.2a1,1,0,0,0-.75.3,1.05,1.05,0,0,0-.3.75.94.94,0,0,0,.08.41,1,1,0,0,0,.23.33,1.14,1.14,0,0,0,.33.23,1.07,1.07,0,0,0,.41.08h4.2a3,3,0,0,1,1.21.25,3.47,3.47,0,0,1,1,.68,3.16,3.16,0,0,1,.68,1,3,3,0,0,1,.26,1.22,3.08,3.08,0,0,1-.25,1.21,3.14,3.14,0,0,1-1.68,1.68,3,3,0,0,1-1.22.25h-7.35v-2.1Z" transform="translate(0 -3.5)"/><path class="cls-1" d="M226.12,682.3h-48v-9.6h9.6V643.9h-9.6v-9.6h48v19.2h-9.6v-9.6h-19.2v9.6h9.6v9.6h-9.6v9.6h19.2v-9.6h9.6Z" transform="translate(0 -3.5)"/><path class="cls-1" d="M7.2,728.9H12v2.4H0v-2.4H4.8v-7.2H2.4v-2.4H7.2Z" transform="translate(0 -3.5)"/><path class="cls-1" d="M21,728.9h4.8v2.4h-12v-2.4h4.8v-7.2H16.2v-2.4H21Z" transform="translate(0 -3.5)"/><path class="cls-1" d="M32.4,728.9h2.38v2.4H32.4Z" transform="translate(0 -3.5)"/><path class="cls-1" d="M60.1,729.9a.68.68,0,0,0,.7-.7.67.67,0,0,0-.06-.28.54.54,0,0,0-.15-.22.71.71,0,0,0-.22-.15.76.76,0,0,0-.27,0H57.3a2.14,2.14,0,0,1-1.48-.62,2.08,2.08,0,0,1-.45-.67,2,2,0,0,1-.17-.81,2,2,0,0,1,.62-1.48,2.15,2.15,0,0,1,.66-.45,2.08,2.08,0,0,1,.82-.17h4.9v1.4H57.3a.68.68,0,0,0-.7.7.6.6,0,0,0,.06.27A.72.72,0,0,0,57,727a.6.6,0,0,0,.27.06h2.8a2.06,2.06,0,0,1,.81.17A2.09,2.09,0,0,1,62,728.39a2.08,2.08,0,0,1,.17.82A2.05,2.05,0,0,1,62,730a2.18,2.18,0,0,1-.46.66,2,2,0,0,1-.66.46,2.07,2.07,0,0,1-.82.16H55.2v-1.4Z" transform="translate(0 -3.5)"/><path class="cls-1" d="M98,717.3a17.58,17.58,0,0,1-2,5.78,15.59,15.59,0,0,1-3.67,4.42,15.88,15.88,0,0,1-5.17,2.82,20.21,20.21,0,0,1-6.4,1A19.61,19.61,0,0,1,73.59,730,15.42,15.42,0,0,1,64.51,721a21,21,0,0,1,0-14.34,15.46,15.46,0,0,1,9.08-9.06,19.61,19.61,0,0,1,7.16-1.26,20.49,20.49,0,0,1,5.72.77,16.4,16.4,0,0,1,4.78,2.24v-3h7v14H90.76a9.28,9.28,0,0,0-3.57-5.13,10.8,10.8,0,0,0-6.44-1.87,11.86,11.86,0,0,0-4.29.75,9.5,9.5,0,0,0-3.32,2.14A9.32,9.32,0,0,0,71,709.5a11.72,11.72,0,0,0-.75,4.3,11.86,11.86,0,0,0,.75,4.29,9.36,9.36,0,0,0,2.14,3.32,9.5,9.5,0,0,0,3.32,2.14,11.86,11.86,0,0,0,4.29.75,10.8,10.8,0,0,0,6.44-1.87,9.28,9.28,0,0,0,3.57-5.13Z" transform="translate(0 -3.5)"/><path class="cls-1" d="M108.92,720.8H111v10.5h-2.1v-4.2h-4.2v4.2h-4.2v-2.1h2.1v-6.3h-2.1v-2.1h4.2V725h4.2Z" transform="translate(0 -3.5)"/><path class="cls-1" d="M121.6,731.3h-9v-1.8h1.8v-5.4h-1.8v-1.8h9v3.6h-1.8v-1.8h-3.6v1.8H118v1.8h-1.8v1.8h3.6v-1.8h1.8Z" transform="translate(0 -3.5)"/><path class="cls-1" d="M123,731.29v-7h1.4l2.1,2.8,2.1-2.8H130v7h-1.4v-4.66l-1.4,1.87h-1.4l-1.4-1.86v3.26h1.41v1.39Z" transform="translate(0 -3.5)"/><path class="cls-1" d="M140,731.3h-9v-1.8h1.8v-5.4H131v-1.8h9v3.6h-1.8v-1.8h-3.6v1.8h1.8v1.8h-1.8v1.8h3.6v-1.8H140Z" transform="translate(0 -3.5)"/><path class="cls-1" d="M158.74,731.3H141.35v-7h7v-21h-7v-7h17.39a17.24,17.24,0,0,1,12.36,5.14,19.76,19.76,0,0,1,3.81,5.64,16.42,16.42,0,0,1,1.46,6.7,15.89,15.89,0,0,1-1.46,6.74,18.65,18.65,0,0,1-3.81,5.6,16.81,16.81,0,0,1-5.64,3.85A17.18,17.18,0,0,1,158.74,731.3Zm0-7a10.18,10.18,0,0,0,4.06-.84,10.37,10.37,0,0,0,3.36-2.26,9.54,9.54,0,0,0,2.24-3.34,10.23,10.23,0,0,0,0-8.12,9.54,9.54,0,0,0-2.24-3.34,10.37,10.37,0,0,0-3.36-2.26,10.18,10.18,0,0,0-4.06-.84h-3.39v21Z" transform="translate(0 -3.5)"/><path class="cls-1" d="M7.2,899.1H12v2.4H0v-2.4H4.8v-7.2H2.4v-2.4H7.2Z" transform="translate(0 -3.5)"/><path class="cls-1" d="M22.2,889.5a3.45,3.45,0,0,1,1.39.28,3.73,3.73,0,0,1,1.14.78,3.61,3.61,0,0,1,.78,1.14,3.47,3.47,0,0,1,.29,1.4,3.33,3.33,0,0,1-.13.94,3.79,3.79,0,0,1-.35.86,3.65,3.65,0,0,1-.55.74,3.08,3.08,0,0,1-.72.54l-5.29,2.92h7v2.4h-12v-2.4l8.92-4.92a.92.92,0,0,0,.48-.4,1.21,1.21,0,0,0,.2-.68,1.06,1.06,0,0,0-.1-.46,1.3,1.3,0,0,0-.25-.39,1.39,1.39,0,0,0-.38-.25,1.07,1.07,0,0,0-.47-.1H18.6a2.76,2.76,0,0,0-1,.17,2,2,0,0,0-1.25,1.25,2.76,2.76,0,0,0-.17,1H13.8v-4.8h2.4V890a5.24,5.24,0,0,1,2.4-.53Z" transform="translate(0 -3.5)"/><path class="cls-1" d="M32.4,899.1h2.38v2.4H32.4Z" transform="translate(0 -3.5)"/><path class="cls-1" d="M60.8,894.5h1.4v7H60.8v-2.8H58v2.8H55.2v-1.4h1.4v-4.2H55.2v-1.4H58v2.8h2.8Z" transform="translate(0 -3.5)"/><path class="cls-1" d="M199.25,765.5v68.41A63.66,63.66,0,0,1,193.81,860a70.75,70.75,0,0,1-14.69,21.49,69.37,69.37,0,0,1-21.62,14.62,66.9,66.9,0,0,1-52.36.07,69.67,69.67,0,0,1-21.69-14.49,68.73,68.73,0,0,1-14.76-21.49,64.26,64.26,0,0,1-5.44-26.31V765.5h27.2v68a39.41,39.41,0,0,0,3.2,15.84,41.56,41.56,0,0,0,8.7,13,40.61,40.61,0,0,0,28.9,12,39.41,39.41,0,0,0,15.84-3.2A41.07,41.07,0,0,0,160,862.4a41.71,41.71,0,0,0,8.78-13,39.42,39.42,0,0,0,3.26-15.91V792.7h-27.2V765.5Z" transform="translate(0 -3.5)"/><path class="cls-1" d="M203.33,901.49v-9h1.8l2.7,3.6,2.7-3.6h1.8v9h-1.8v-6l-1.8,2.4h-1.8l-1.8-2.39v4.19h1.81v1.79Z" transform="translate(0 -3.5)"/><path class="cls-1" d="M213.68,901.5l5.76-14.4h-2.16v-3.6h7.2l7.2,18h-3.87l-1.44-3.6H219l-1.44,3.6Zm6.77-7.2h4.48l-2.27-5.56Z" transform="translate(0 -3.5)"/><path class="cls-1" d="M234.38,883.5H238L248.78,896V887.1h-3.6v-3.6h7.2v18h-3.6L238,889v8.89h3.6v3.6h-7.2Z" transform="translate(0 -3.5)"/><path class="cls-1" d="M267.68,897.9a1.74,1.74,0,0,0,1.28-.52,1.78,1.78,0,0,0,.52-1.28,1.71,1.71,0,0,0-.15-.71,1.77,1.77,0,0,0-.38-.58,1.9,1.9,0,0,0-.57-.38,1.78,1.78,0,0,0-.7-.13h-7.2a5.22,5.22,0,0,1-2.08-.42,5.67,5.67,0,0,1-1.72-1.16,5.82,5.82,0,0,1-1.17-1.72,5.16,5.16,0,0,1-.43-2.1,5.26,5.26,0,0,1,.42-2.08,5.49,5.49,0,0,1,1.16-1.72,5.7,5.7,0,0,1,1.72-1.17,5.13,5.13,0,0,1,2.1-.43h12.6v3.6h-12.6a1.78,1.78,0,0,0-1.8,1.8,1.78,1.78,0,0,0,.14.7,1.87,1.87,0,0,0,1,1,1.78,1.78,0,0,0,.7.14h7.2a5.1,5.1,0,0,1,2.08.43,5.56,5.56,0,0,1,2.89,2.89,5.09,5.09,0,0,1,.43,2.1,5.26,5.26,0,0,1-.42,2.08,5.43,5.43,0,0,1-2.88,2.88,5.32,5.32,0,0,1-2.1.42h-12.6v-3.6Z" transform="translate(0 -3.5)"/><path class="cls-1" d="M7.2,948.1H12v2.4H0v-2.4H4.8v-7.2H2.4v-2.4H7.2Z" transform="translate(0 -3.5)"/><path class="cls-1" d="M18.77,940.9H18.6a2.76,2.76,0,0,0-1,.17,2.14,2.14,0,0,0-1.25,1.25,2.76,2.76,0,0,0-.17,1H13.8v-4.8h2.4V939a4.51,4.51,0,0,1,1.12-.4,5.77,5.77,0,0,1,1.28-.14h3.6a4.1,4.1,0,0,1,1.48.26,3.2,3.2,0,0,1,1.86,1.86,4.1,4.1,0,0,1,.26,1.48,4.36,4.36,0,0,1-.2,1.33,1.27,1.27,0,0,0,0,2.14,4.36,4.36,0,0,1,.2,1.33,4,4,0,0,1-.26,1.47,3.23,3.23,0,0,1-.73,1.14,3.19,3.19,0,0,1-1.13.73,4.1,4.1,0,0,1-1.48.26H13.8v-2.4h8.4a1.2,1.2,0,1,0,0-2.4H18.6v-2.4h3.6a1.15,1.15,0,0,0,.88-.33,1.21,1.21,0,0,0,.32-.87,1.13,1.13,0,0,0-1.2-1.2Z" transform="translate(0 -3.5)"/><path class="cls-1" d="M32.4,948.1h2.38v2.4H32.4Z" transform="translate(0 -3.5)"/><path class="cls-1" d="M55.2,922.5h28v11.2H77.6v-5.6H72v16.8h5.6v5.6H60.8v-5.6h5.6V928.1H60.8v5.6H55.2Z" transform="translate(0 -3.5)"/><path class="cls-1" d="M86.36,933a19.48,19.48,0,0,1,1.26-7.17,15.87,15.87,0,0,1,3.56-5.52,15.71,15.71,0,0,1,5.53-3.55,21,21,0,0,1,14.33,0,15.48,15.48,0,0,1,9.06,9.07,21,21,0,0,1,0,14.33,15.46,15.46,0,0,1-9.06,9.08,21,21,0,0,1-14.33,0,15.47,15.47,0,0,1-9.09-9.08A19.61,19.61,0,0,1,86.36,933Zm7,0a11.65,11.65,0,0,0,.76,4.29,9.28,9.28,0,0,0,5.46,5.46,12.67,12.67,0,0,0,8.59,0,9.64,9.64,0,0,0,3.31-2.14,9.48,9.48,0,0,0,2.13-3.32,11.86,11.86,0,0,0,.75-4.29,11.72,11.72,0,0,0-.75-4.3,9.43,9.43,0,0,0-2.13-3.31,9.64,9.64,0,0,0-3.31-2.14,12.67,12.67,0,0,0-8.59,0,9.3,9.3,0,0,0-5.46,5.45A11.52,11.52,0,0,0,93.36,933Z" transform="translate(0 -3.5)"/><path class="cls-1" d="M126.61,933a19.48,19.48,0,0,1,1.26-7.17,15.87,15.87,0,0,1,3.56-5.52,15.71,15.71,0,0,1,5.53-3.55,21,21,0,0,1,14.33,0,15.48,15.48,0,0,1,9.06,9.07,21,21,0,0,1,0,14.33,15.46,15.46,0,0,1-9.06,9.08,21,21,0,0,1-14.33,0,15.47,15.47,0,0,1-9.09-9.08A19.61,19.61,0,0,1,126.61,933Zm7,0a11.65,11.65,0,0,0,.76,4.29,9.28,9.28,0,0,0,5.46,5.46,12.67,12.67,0,0,0,8.59,0,9.64,9.64,0,0,0,3.31-2.14,9.48,9.48,0,0,0,2.13-3.32,11.86,11.86,0,0,0,.75-4.29,11.72,11.72,0,0,0-.75-4.3,9.43,9.43,0,0,0-2.13-3.31,9.64,9.64,0,0,0-3.31-2.14,12.67,12.67,0,0,0-8.59,0,9.3,9.3,0,0,0-5.46,5.45A11.52,11.52,0,0,0,133.61,933Z" transform="translate(0 -3.5)"/><path class="cls-1" d="M166.13,950.5v-4.2h4.2V933.7h-4.2v-4.2h8.4v8.4l7.05-8.4h5.55v4.2h-3.61l-5.23,6.3,5.27,6.3h3.57v4.2h-5.55l-7.05-8.4v8.4Z" transform="translate(0 -3.5)"/><path class="cls-1" d="M204.08,945.25a5.68,5.68,0,0,1,.38-2.15,4.68,4.68,0,0,1,1.06-1.66,4.82,4.82,0,0,1,1.66-1.06,6.27,6.27,0,0,1,4.3,0,4.78,4.78,0,0,1,1.65,1.06,4.7,4.7,0,0,1,1.07,1.66,5.88,5.88,0,0,1,.38,2.15,6,6,0,0,1-.38,2.15,4.64,4.64,0,0,1-2.72,2.72,6.27,6.27,0,0,1-4.3,0,4.82,4.82,0,0,1-1.66-1.06,4.77,4.77,0,0,1-1.06-1.66A5.75,5.75,0,0,1,204.08,945.25Zm2.1,0a3.57,3.57,0,0,0,.22,1.29,2.92,2.92,0,0,0,.64,1,2.81,2.81,0,0,0,1,.64,3.73,3.73,0,0,0,2.58,0,2.81,2.81,0,0,0,1.63-1.63,3.57,3.57,0,0,0,.23-1.29,3.49,3.49,0,0,0-.23-1.29,2.69,2.69,0,0,0-.64-1,2.77,2.77,0,0,0-1-.64,3.73,3.73,0,0,0-2.58,0A2.79,2.79,0,0,0,206.4,944,3.49,3.49,0,0,0,206.18,945.25Z" transform="translate(0 -3.5)"/><path class="cls-1" d="M223.15,943.5V947a3.23,3.23,0,0,1-.28,1.35,3.53,3.53,0,0,1-1.87,1.85,3.23,3.23,0,0,1-1.35.28,3.38,3.38,0,0,1-1.34-.27,3.73,3.73,0,0,1-1.12-.75,3.55,3.55,0,0,1-.76-1.1,3.48,3.48,0,0,1-.28-1.36V943.5h1.4V947a2.08,2.08,0,0,0,.17.82,2.15,2.15,0,0,0,.45.66,2,2,0,0,0,.66.46,2.18,2.18,0,0,0,1.64,0,2,2,0,0,0,.66-.45,2.28,2.28,0,0,0,.46-.67,2.07,2.07,0,0,0,.16-.82v-2.1h-1.4v-1.4Z" transform="translate(0 -3.5)"/><path class="cls-1" d="M224.2,936.5h14v5.6h-2.8v-2.8h-2.8v8.4h2.8v2.8H227v-2.8h2.8v-8.4H227v2.8h-2.8Z" transform="translate(0 -3.5)"/><path class="cls-1" d="M7.2,1118.3H12v2.4H0v-2.4H4.8v-7.2H2.4v-2.4H7.2Z" transform="translate(0 -3.5)"/><path class="cls-1" d="M23.4,1115.9h2.4v2.4H23.4v2.4H21v-2.4H13.8v-2.4l6.35-4.8H18.6v-2.4h4.8Zm-2.4,0v-2.4l-3.13,2.4Z" transform="translate(0 -3.5)"/><path class="cls-1" d="M32.4,1118.3h2.38v2.4H32.4Z" transform="translate(0 -3.5)"/><path class="cls-1" d="M79.17,1115.1h4v5.6H76.37l-8.43-11.2H66.4v11.2H55.2v-5.6h5.6v-16.8H55.2v-5.6H74.8a8.6,8.6,0,0,1,3.28.64,8.22,8.22,0,0,1,4.46,4.46,8.24,8.24,0,0,1,.66,3.3,8.94,8.94,0,0,1-1.3,4.61,7.94,7.94,0,0,1-3.66,3.12,6.85,6.85,0,0,1-1.28.33c-.6.12-1.32.23-2.16.34Zm-4.37-11.2a3.6,3.6,0,0,0,2-.85,2.48,2.48,0,0,0,.81-2,2.68,2.68,0,0,0-.83-2,2.77,2.77,0,0,0-2-.78H66.4v5.6Z" transform="translate(0 -3.5)"/><path class="cls-1" d="M115.4,1120.7h-28v-5.6H93v-16.8H87.4v-5.6h28v11.2h-5.6v-5.6H98.6v5.6h5.6v5.6H98.6v5.6h11.2v-5.6h5.6Z" transform="translate(0 -3.5)"/><path class="cls-1" d="M133.6,1112.58l5.74-14.28h-2.88v-5.6H147.6l-11.2,28h-5.6l-11.2-28h6Z" transform="translate(0 -3.5)"/><path class="cls-1" d="M199.8,1120.7h-48v-9.6h9.6v-28.8h-9.6v-9.6h48v19.2h-9.6v-9.6H171v9.6h9.6v9.6H171v9.6h19.2v-9.6h9.6Z" transform="translate(0 -3.5)"/><path class="cls-1" d="M202.73,1120.7l3.36-8.4h-1.26v-2.1H209l4.2,10.5H211l-.84-2.1h-4.3l-.85,2.1Zm4-4.2h2.61l-1.32-3.24Z" transform="translate(0 -3.5)"/><path class="cls-1" d="M214.8,984.7h81.6v27.2H269.2v81.6h54.4v-27.2h27.2v54.4h-136v-27.2H242v-81.6H214.8Z" transform="translate(0 -3.5)"/><path class="cls-1" d="M7.2,1206.9H12v2.4H0v-2.4H4.8v-7.2H2.4v-2.4H7.2Z" transform="translate(0 -3.5)"/><path class="cls-1" d="M13.8,1197.3h12v2.4H16.2v2.4h6a3.47,3.47,0,0,1,1.4.28,3.76,3.76,0,0,1,1.14.77,3.55,3.55,0,0,1,.78,1.15,3.64,3.64,0,0,1,0,2.8A3.75,3.75,0,0,1,23.6,1209a3.47,3.47,0,0,1-1.4.28H13.8v-2.4h8.4a1,1,0,0,0,.47-.1,1.3,1.3,0,0,0,.39-.25,1.19,1.19,0,0,0,.25-.38,1.27,1.27,0,0,0,0-.94,1.19,1.19,0,0,0-.25-.38,1.3,1.3,0,0,0-.39-.25,1,1,0,0,0-.47-.1H13.8Z" transform="translate(0 -3.5)"/><path class="cls-1" d="M32.4,1206.9h2.38v2.4H32.4Z" transform="translate(0 -3.5)"/><path class="cls-1" d="M55.2,1141.3h68v27.2H109.6v-13.6H96v40.8h13.6v13.6H68.8v-13.6H82.4v-40.8H68.8v13.6H55.2Z" transform="translate(0 -3.5)"/><path class="cls-1" d="M127.23,1191.32l0,0h4.5l4.5,6,4.5-6h4.5l-7.2,9.59v8.41h-3.6v-8.41l-4.5-6h-2.68Z" transform="translate(0 -3.5)"/><path class="cls-1" d="M153.09,1207.9h1v1.4h-1.71l-2.1-2.8h-.39v2.8h-2.8v-1.4h1.4v-4.2h-1.4v-1.4H152a2.07,2.07,0,0,1,1.49.61,2,2,0,0,1,.45.66,2.12,2.12,0,0,1,.16.83,2.35,2.35,0,0,1-.08.6,2.48,2.48,0,0,1-.24.55,2.44,2.44,0,0,1-.39.46,2,2,0,0,1-.53.32,1.46,1.46,0,0,1-.32.09l-.54.08Zm-1.09-2.8a.94.94,0,0,0,.5-.21.63.63,0,0,0,.2-.49.67.67,0,0,0-.2-.5.72.72,0,0,0-.5-.2h-2.1v1.4Z" transform="translate(0 -3.5)"/><path class="cls-1" d="M155.15,1209.3l4.48-11.2H158v-2.8h5.6l5.6,14h-3l-1.12-2.8h-5.74l-1.12,2.8Zm5.27-5.6h3.48l-1.76-4.33Z" transform="translate(0 -3.5)"/><path class="cls-1" d="M171.25,1191.3h3.6l10.8,12.49v-8.89h-3.6v-3.6h7.2v18h-3.6l-10.8-12.49v8.89h3.6v3.6h-7.2Z" transform="translate(0 -3.5)"/><path class="cls-1" d="M192,1161.3h48v19.2h-9.6v-9.6h-9.6v28.8h9.6v9.6h-28.8v-9.6h9.6v-28.8h-9.6v9.6H192Z" transform="translate(0 -3.5)"/><path class="cls-1" d="M7.2,1255.9H12v2.4H0v-2.4H4.8v-7.2H2.4v-2.4H7.2Z" transform="translate(0 -3.5)"/><path class="cls-1" d="M13.8,1249.9a4.1,4.1,0,0,1,.26-1.48,3.19,3.19,0,0,1,.73-1.13,3.23,3.23,0,0,1,1.14-.73,4,4,0,0,1,1.47-.26h8.4v2.4H17.4a1.13,1.13,0,0,0-1.2,1.2v1.37a4.3,4.3,0,0,1,1.2-.17h4.8a4.1,4.1,0,0,1,1.48.26,3.2,3.2,0,0,1,1.86,1.86,4.1,4.1,0,0,1,.26,1.48,4,4,0,0,1-.26,1.47,3.23,3.23,0,0,1-.73,1.14,3.19,3.19,0,0,1-1.13.73,4.1,4.1,0,0,1-1.48.26H17.4a4,4,0,0,1-1.47-.26,3.16,3.16,0,0,1-1.87-1.87,4,4,0,0,1-.26-1.47Zm2.4,4.8a1.13,1.13,0,0,0,1.2,1.2h4.8a1.2,1.2,0,1,0,0-2.4H17.4a1.13,1.13,0,0,0-1.2,1.2Z" transform="translate(0 -3.5)"/><path class="cls-1" d="M32.4,1255.9h2.38v2.4H32.4Z" transform="translate(0 -3.5)"/><path class="cls-1" d="M55.2,1240.8a19.57,19.57,0,0,1,1.26-7.18,15.46,15.46,0,0,1,9.08-9.06,21,21,0,0,1,14.33,0,15.48,15.48,0,0,1,9.07,9.06,21,21,0,0,1,0,14.34,15.44,15.44,0,0,1-9.07,9.08,21,21,0,0,1-14.33,0,15.42,15.42,0,0,1-9.08-9.08A19.61,19.61,0,0,1,55.2,1240.8Zm7,0a11.86,11.86,0,0,0,.75,4.29,9.35,9.35,0,0,0,5.46,5.46,11.86,11.86,0,0,0,4.29.75,11.72,11.72,0,0,0,4.3-.75,9.37,9.37,0,0,0,5.45-5.46,11.86,11.86,0,0,0,.75-4.29,11.72,11.72,0,0,0-.75-4.3,9.39,9.39,0,0,0-5.45-5.45,11.72,11.72,0,0,0-4.3-.75,11.86,11.86,0,0,0-4.29.75A9.37,9.37,0,0,0,63,1236.5,11.72,11.72,0,0,0,62.2,1240.8Z" transform="translate(0 -3.5)"/><path class="cls-1" d="M102.48,1251.37V1230.3h-7v-7h24.4a11.87,11.87,0,0,1,4.32.75,9.64,9.64,0,0,1,3.33,2.12,9.54,9.54,0,0,1,2.15,3.29,11.47,11.47,0,0,1,.77,4.27,11.68,11.68,0,0,1-.65,4,10,10,0,0,1-1.77,3.11,10.14,10.14,0,0,1,1.77,3.12,12.55,12.55,0,0,1-.1,8.26,9.15,9.15,0,0,1-2.16,3.29,9.79,9.79,0,0,1-3.32,2.12,11.78,11.78,0,0,1-4.31.75l-.7,0-.66,0H95.45v-6.93Zm17.47,0a3.47,3.47,0,0,0,2.54-.95,3.42,3.42,0,0,0,1-2.55,3.54,3.54,0,0,0-1-2.59,3.41,3.41,0,0,0-2.54-1H109.27v7.07Zm-.07-14a3.54,3.54,0,0,0,2.59-1,3.45,3.45,0,0,0,1-2.57,3.39,3.39,0,0,0-1-2.55,3.58,3.58,0,0,0-2.59-1H109.45v7Z" transform="translate(0 -3.5)"/><path class="cls-1" d="M139,1256.9a.68.68,0,0,0,.7-.7.67.67,0,0,0-.06-.28.54.54,0,0,0-.15-.22.71.71,0,0,0-.22-.15.76.76,0,0,0-.27,0h-2.8a2.14,2.14,0,0,1-1.48-.62,2.08,2.08,0,0,1-.45-.67,2,2,0,0,1-.17-.81,2,2,0,0,1,.62-1.48,2.15,2.15,0,0,1,.66-.45,2.08,2.08,0,0,1,.82-.17h4.9v1.4h-4.9a.68.68,0,0,0-.7.7.6.6,0,0,0,.06.27.72.72,0,0,0,.37.37.6.6,0,0,0,.27.06H139a2.06,2.06,0,0,1,.81.17,2.09,2.09,0,0,1,1.12,1.12,2.08,2.08,0,0,1,.17.82,2.05,2.05,0,0,1-.16.81,2.29,2.29,0,0,1-1.12,1.12,2.07,2.07,0,0,1-.82.16h-4.9v-1.4Z" transform="translate(0 -3.5)"/><path class="cls-1" d="M151.14,1258.3h-9v-1.8h1.8v-5.4h-1.8v-1.8h9v3.6h-1.8v-1.8h-3.6v1.8h1.8v1.8h-1.8v1.8h3.6v-1.8h1.8Z" transform="translate(0 -3.5)"/><path class="cls-1" d="M161.48,1256.2H163v2.1h-2.56l-3.16-4.2h-.58v4.2h-4.2v-2.1h2.1v-6.3h-2.1v-2.1h7.35a3.21,3.21,0,0,1,1.23.24,3,3,0,0,1,1,.67,3.14,3.14,0,0,1,.67,1A3.05,3.05,0,0,1,163,1251a3,3,0,0,1-.13.9,3.07,3.07,0,0,1-.36.83,3.12,3.12,0,0,1-.58.68,3.18,3.18,0,0,1-.79.49,2.72,2.72,0,0,1-.48.12c-.23,0-.5.09-.81.13Zm-1.64-4.2a1.35,1.35,0,0,0,.74-.32.9.9,0,0,0,.31-.73,1,1,0,0,0-.31-.76,1.06,1.06,0,0,0-.74-.29h-3.15v2.1Z" transform="translate(0 -3.5)"/><path class="cls-1" d="M169.81,1255.25l2.16-5.35h-1.08v-2.1h4.17l-4.2,10.5h-2.1l-4.2-10.5h2.26Z" transform="translate(0 -3.5)"/><path class="cls-1" d="M187.14,1258.3h-10.5v-2.1h2.1v-6.3h-2.1v-2.1h10.5v4.2H185v-2.1h-4.2v2.1h2.1v2.1h-2.1v2.1H185v-2.1h2.1Z" transform="translate(0 -3.5)"/><path class="cls-1" d="M193.93,1258.3h-5.22v-2.1h2.1v-6.3h-2.1v-2.1h5.22a5.18,5.18,0,0,1,3.71,1.54,6.14,6.14,0,0,1,1.14,1.69,4.82,4.82,0,0,1,.44,2,4.76,4.76,0,0,1-.44,2,5.67,5.67,0,0,1-1.14,1.68,5.14,5.14,0,0,1-3.71,1.55Zm0-2.1a3,3,0,0,0,1.22-.25,3.21,3.21,0,0,0,1-.68,3,3,0,0,0,.67-1,3.1,3.1,0,0,0,0-2.44,3,3,0,0,0-.67-1,3.21,3.21,0,0,0-1-.68,3,3,0,0,0-1.22-.25h-1v6.3Z" transform="translate(0 -3.5)"/><path class="cls-1" d="M7.2,1426.1H12v2.4H0v-2.4H4.8v-7.2H2.4v-2.4H7.2Z" transform="translate(0 -3.5)"/><path class="cls-1" d="M17.05,1428.5H13.8l8.76-9.6H16.2v2.4H13.8v-4.8h12v2.4Z" transform="translate(0 -3.5)"/><path class="cls-1" d="M32.4,1426.1h2.38v2.4H32.4Z" transform="translate(0 -3.5)"/><path class="cls-1" d="M58,1427.1h1.4v1.4H55.2v-1.4h1.4v-4.2H55.2v-1.4h7v2.8H60.8v-1.4H58v1.4h1.4v1.4H58Z" transform="translate(0 -3.5)"/><path class="cls-1" d="M63.25,1428.5l2.24-5.6h-.84v-1.4h2.8l2.8,7H68.74l-.56-1.4H65.31l-.56,1.4Zm2.63-2.8h1.74l-.88-2.16Z" transform="translate(0 -3.5)"/><path class="cls-1" d="M112.39,1418.9h6.91v9.6H107.59l-14.45-19.2H90.5v19.2H71.3v-9.6h9.6v-28.8H71.3v-9.6h33.6a14.59,14.59,0,0,1,5.62,1.1,14.34,14.34,0,0,1,8.78,13.3,14.77,14.77,0,0,1-.58,4.13,14.94,14.94,0,0,1-1.65,3.77,13.58,13.58,0,0,1-6.27,5.35,11.67,11.67,0,0,1-2.2.57c-1,.2-2.26.39-3.7.58Zm-7.49-19.2a6.18,6.18,0,0,0,3.41-1.46,4.25,4.25,0,0,0,1.39-3.34,4.55,4.55,0,0,0-1.42-3.46,4.75,4.75,0,0,0-3.38-1.34H90.5v9.6Z" transform="translate(0 -3.5)"/><path class="cls-1" d="M133.16,1428.5h-10.5v-2.1h2.1v-6.3h-2.1V1418h10.5v4.2h-2.1v-2.1h-4.2v2.1H129v2.1h-2.1v2.1h4.2v-2.1h2.1Z" transform="translate(0 -3.5)"/><path class="cls-1" d="M134.73,1428.49v-9h1.8v6l1.8-2.39h1.8l1.8,2.39v-4.19h-1.8v-1.8h3.6v9h-1.8l-2.7-3.59-2.7,3.59Z" transform="translate(0 -3.5)"/><path class="cls-1" d="M280.63,1428.5h-136v-27.2h27.2v-81.6h-27.2v-27.2h136v54.4h-27.2v-27.2H199v27.2h27.2v27.2H199v27.2h54.4v-27.2h27.2Z" transform="translate(0 -3.5)"/><path class="cls-1" d="M285.8,1410.5h10.8v3.6H293v10.8h7.2v-3.6h3.6v7.2h-18v-3.6h3.6v-10.8h-3.6Z" transform="translate(0 -3.5)"/><path class="cls-1" d="M306.5,1418h6.3v2.1h-2.1v6.3h4.2v-2.1H317v4.2H306.5v-2.1h2.1v-6.3h-2.1Z" transform="translate(0 -3.5)"/><path class="cls-1" d="M7.2,1490.7H12v2.4H0v-2.4H4.8v-7.2H2.4v-2.4H7.2Z" transform="translate(0 -3.5)"/><path class="cls-1" d="M22.28,1481.1a3.44,3.44,0,0,1,2.49,1.07,3.64,3.64,0,0,1,.75,1.14,3.61,3.61,0,0,1,0,2.69,3.65,3.65,0,0,1-.67,1.1,3.49,3.49,0,0,1,.67,1.09,3.58,3.58,0,0,1,.24,1.31,3.45,3.45,0,0,1-.28,1.39,3.53,3.53,0,0,1-.75,1.14,3.44,3.44,0,0,1-2.49,1.07h-5a3.38,3.38,0,0,1-1.38-.29,3.64,3.64,0,0,1-1.12-.78,3.53,3.53,0,0,1-.75-1.14,3.45,3.45,0,0,1-.28-1.39,3.39,3.39,0,0,1,.25-1.31,3.68,3.68,0,0,1,.67-1.09,3.86,3.86,0,0,1-.67-1.1,3.27,3.27,0,0,1-.25-1.3,3.45,3.45,0,0,1,.28-1.39,3.61,3.61,0,0,1,1.87-1.92,3.38,3.38,0,0,1,1.38-.29Zm-4.88,2.4a1.23,1.23,0,0,0-.47.09,1.19,1.19,0,0,0-.38.25,1.3,1.3,0,0,0-.25.39,1.07,1.07,0,0,0-.1.47,1.15,1.15,0,0,0,.35.85,1.19,1.19,0,0,0,.85.34h4.8a1.19,1.19,0,0,0,.47-.09,1.3,1.3,0,0,0,.39-.25,1.19,1.19,0,0,0,.25-.38,1.23,1.23,0,0,0,.09-.47,1.2,1.2,0,0,0-1.2-1.2Zm4.8,7.2a1,1,0,0,0,.47-.1,1.3,1.3,0,0,0,.39-.25,1.19,1.19,0,0,0,.25-.38,1.23,1.23,0,0,0,.09-.47,1.19,1.19,0,0,0-.09-.47,1.08,1.08,0,0,0-.64-.64,1.19,1.19,0,0,0-.47-.09H17.4a1.23,1.23,0,0,0-.47.09,1.19,1.19,0,0,0-.38.25,1.3,1.3,0,0,0-.25.39,1,1,0,0,0-.1.47,1.2,1.2,0,0,0,1.2,1.2Z" transform="translate(0 -3.5)"/><path class="cls-1" d="M32.4,1490.7h2.38v2.4H32.4Z" transform="translate(0 -3.5)"/><path class="cls-1" d="M64.13,1489.5a4.53,4.53,0,0,1-.51,1.49,3.84,3.84,0,0,1-.95,1.13,4,4,0,0,1-1.32.73,5.51,5.51,0,0,1-3.49-.07,4,4,0,0,1-2.34-2.34,5.45,5.45,0,0,1,0-3.68,4,4,0,0,1,.92-1.42,4.1,4.1,0,0,1,1.42-.92,5.15,5.15,0,0,1,1.84-.32,5.28,5.28,0,0,1,1.47.2,4.09,4.09,0,0,1,1.23.58v-.78h1.8v3.6H62.27a2.35,2.35,0,0,0-.91-1.32,2.81,2.81,0,0,0-1.66-.48,3,3,0,0,0-1.1.19,2.54,2.54,0,0,0-.86.55,2.45,2.45,0,0,0-.55.85,3.31,3.31,0,0,0,0,2.21,2.4,2.4,0,0,0,.55.86,2.54,2.54,0,0,0,.86.55,3,3,0,0,0,1.1.19,2.81,2.81,0,0,0,1.66-.48,2.35,2.35,0,0,0,.91-1.32Z" transform="translate(0 -3.5)"/><path class="cls-1" d="M106.64,1483.5h6.91v9.6H101.84l-14.45-19.2H84.75v19.2H65.55v-9.6h9.6v-28.8h-9.6v-9.6h33.6a14.59,14.59,0,0,1,5.62,1.1,14.34,14.34,0,0,1,8.78,13.3,14.77,14.77,0,0,1-.58,4.13,14.94,14.94,0,0,1-1.65,3.77,13.43,13.43,0,0,1-2.67,3.12,13.71,13.71,0,0,1-3.6,2.23,11.67,11.67,0,0,1-2.2.57c-1,.2-2.26.39-3.7.58Zm-7.49-19.2a6.18,6.18,0,0,0,3.41-1.46,4.25,4.25,0,0,0,1.39-3.34,4.55,4.55,0,0,0-1.42-3.46,4.75,4.75,0,0,0-3.38-1.34H84.75v9.6Z" transform="translate(0 -3.5)"/><path class="cls-1" d="M123.29,1493.1h-7v-1.4h1.4v-4.2h-1.4v-1.4h7v2.8h-1.4v-1.4h-2.8v1.4h1.4v1.4h-1.4v1.4h2.8v-1.4h1.4Z" transform="translate(0 -3.5)"/><path class="cls-1" d="M124.34,1475.1h13v0a5.46,5.46,0,0,1,2.06.47,4.6,4.6,0,0,1,1.58,1.11,5.11,5.11,0,0,1,1,1.67,6.47,6.47,0,0,1,0,4.34,5.08,5.08,0,0,1-1.1,1.71,4.78,4.78,0,0,1-1.7,1.09,6,6,0,0,1-2.21.39h-5.4v3.6h3.6v3.6h-10.8v-3.6h3.6v-10.8h-3.6Zm7.2,3.64v3.56h5.4a1.75,1.75,0,0,0,1.3-.49,1.78,1.78,0,0,0,.5-1.31,1.81,1.81,0,0,0-.38-1.17,1.68,1.68,0,0,0-1-.59Z" transform="translate(0 -3.5)"/><path class="cls-1" d="M145,1475.1h18v7.2h-3.6v-3.6h-3.6v10.8h3.6v3.6h-10.8v-3.6h3.6v-10.8h-3.6v3.6H145Z" transform="translate(0 -3.5)"/><path class="cls-1" d="M7.2,1579.3H12v2.4H0v-2.4H4.8v-7.2H2.4v-2.4H7.2Z" transform="translate(0 -3.5)"/><path class="cls-1" d="M25.8,1578.1a4,4,0,0,1-.26,1.47,3.23,3.23,0,0,1-.73,1.14,3.19,3.19,0,0,1-1.13.73,4.1,4.1,0,0,1-1.48.26H13.8v-2.4h8.4a1.13,1.13,0,0,0,1.2-1.2v-1.37a4.3,4.3,0,0,1-1.2.17H17.4a4,4,0,0,1-1.47-.26,3.16,3.16,0,0,1-1.87-1.87,4,4,0,0,1-.26-1.47,4.1,4.1,0,0,1,.26-1.48,3.19,3.19,0,0,1,.73-1.13,3.23,3.23,0,0,1,1.14-.73,4,4,0,0,1,1.47-.26h4.8a4.1,4.1,0,0,1,1.48.26,3.2,3.2,0,0,1,1.86,1.86,4.1,4.1,0,0,1,.26,1.48Zm-2.4-4.8a1.13,1.13,0,0,0-1.2-1.2H17.4a1.2,1.2,0,1,0,0,2.4h4.8a1.13,1.13,0,0,0,1.2-1.2Z" transform="translate(0 -3.5)"/><path class="cls-1" d="M32.4,1579.3h2.38v2.4H32.4Z" transform="translate(0 -3.5)"/><path class="cls-1" d="M55.2,1576.45a5.88,5.88,0,0,1,.38-2.15,4.57,4.57,0,0,1,2.72-2.72,6,6,0,0,1,2.15-.38,5.88,5.88,0,0,1,2.15.38,4.57,4.57,0,0,1,2.72,2.72,5.88,5.88,0,0,1,.38,2.15,6,6,0,0,1-.38,2.15,4.57,4.57,0,0,1-2.72,2.72,5.88,5.88,0,0,1-2.15.38,6,6,0,0,1-2.15-.38,4.57,4.57,0,0,1-2.72-2.72A6,6,0,0,1,55.2,1576.45Zm2.1,0a3.57,3.57,0,0,0,.23,1.29,2.77,2.77,0,0,0,.64,1,2.69,2.69,0,0,0,1,.64,3.37,3.37,0,0,0,1.29.23,3.3,3.3,0,0,0,1.29-.23,2.69,2.69,0,0,0,1-.64,2.77,2.77,0,0,0,.64-1,3.57,3.57,0,0,0,.23-1.29,3.49,3.49,0,0,0-.23-1.29,2.81,2.81,0,0,0-1.63-1.63,3.49,3.49,0,0,0-1.29-.23,3.57,3.57,0,0,0-1.29.23,2.81,2.81,0,0,0-1.63,1.63A3.49,3.49,0,0,0,57.3,1576.45Z" transform="translate(0 -3.5)"/><path class="cls-1" d="M76.27,1576.48,80,1567.3H78.11v-3.6h7.16l-7.2,18H74.48l-7.21-18h3.88Z" transform="translate(0 -3.5)"/><path class="cls-1" d="M134.23,1581.7h-48v-9.6h9.6v-28.8h-9.6v-9.6h48v19.2h-9.6v-9.6h-19.2v9.6H115v9.6h-9.6v9.6h19.2v-9.6h9.6Z" transform="translate(0 -3.5)"/><path class="cls-1" d="M196.71,1568.1h9.79v13.6H189.91l-20.47-27.2H165.7v27.2H138.5v-13.6h13.6v-40.8H138.5v-13.6h47.6a20.5,20.5,0,0,1,8,1.56,20.31,20.31,0,0,1,12.44,18.84,21,21,0,0,1-.82,5.85,21.24,21.24,0,0,1-2.34,5.34,19.15,19.15,0,0,1-3.78,4.42,19.44,19.44,0,0,1-5.1,3.16,16.22,16.22,0,0,1-3.13.81q-2.18.42-5.23.82Zm-10.61-27.2a8.77,8.77,0,0,0,4.83-2.07,6,6,0,0,0,2-4.73,6.46,6.46,0,0,0-2-4.9,6.73,6.73,0,0,0-4.79-1.9H165.7v13.6Z" transform="translate(0 -3.5)"/><path class="cls-1" d="M215.69,1580.3h1v1.4H215l-2.11-2.8h-.39v2.8h-2.8v-1.4h1.4v-4.2h-1.4v-1.4h4.9a2,2,0,0,1,.82.16,2.08,2.08,0,0,1,.67.45,2.15,2.15,0,0,1,.45.66,2.12,2.12,0,0,1,.16.83,2,2,0,0,1-.08.6,2.48,2.48,0,0,1-.24.55,2.44,2.44,0,0,1-.39.46,2,2,0,0,1-.52.32,1.8,1.8,0,0,1-.33.09l-.54.08Zm-1.1-2.8a.84.84,0,0,0,.5-.21.6.6,0,0,0,.2-.49.63.63,0,0,0-.2-.5.7.7,0,0,0-.5-.2h-2.1v1.4Z" transform="translate(0 -3.5)"/><path class="cls-1" d="M218,1581.7l2.24-5.6h-.84v-1.4h2.8l2.8,7h-1.51l-.56-1.4H220l-.56,1.4Zm2.63-2.8h1.74l-.88-2.16Z" transform="translate(0 -3.5)"/><path class="cls-1" d="M226.23,1572.7H228l5.4,6.25v-4.45h-1.8v-1.8h3.6v9h-1.8l-5.4-6.25v4.45h1.8v1.8h-3.6Z" transform="translate(0 -3.5)"/></g></g></svg>