<svg xmlns="http://www.w3.org/2000/svg" xmlns:xlink="http://www.w3.org/1999/xlink" viewBox="0 0 413.4 625"><defs><style>.cls-1,.cls-86,.cls-87{fill:none;}.cls-2{clip-path:url(#clip-path);}.cls-3{clip-path:url(#clip-path-2);}.cls-4{fill:#ee220c;}.cls-5{clip-path:url(#clip-path-3);}.cls-6{clip-path:url(#clip-path-4);}.cls-7{clip-path:url(#clip-path-5);}.cls-8{clip-path:url(#clip-path-6);}.cls-9{clip-path:url(#clip-path-7);}.cls-10{clip-path:url(#clip-path-8);}.cls-11{clip-path:url(#clip-path-9);}.cls-12{clip-path:url(#clip-path-10);}.cls-13{clip-path:url(#clip-path-11);}.cls-14{clip-path:url(#clip-path-12);}.cls-15{clip-path:url(#clip-path-13);}.cls-16{clip-path:url(#clip-path-14);}.cls-17{clip-path:url(#clip-path-15);}.cls-18{clip-path:url(#clip-path-16);}.cls-19{clip-path:url(#clip-path-17);}.cls-20{clip-path:url(#clip-path-18);}.cls-21{clip-path:url(#clip-path-19);}.cls-22{clip-path:url(#clip-path-20);}.cls-23{clip-path:url(#clip-path-21);}.cls-24{clip-path:url(#clip-path-22);}.cls-25{clip-path:url(#clip-path-23);}.cls-26{clip-path:url(#clip-path-24);}.cls-27{clip-path:url(#clip-path-25);}.cls-28{clip-path:url(#clip-path-26);}.cls-29{clip-path:url(#clip-path-27);}.cls-30{clip-path:url(#clip-path-28);}.cls-31{clip-path:url(#clip-path-29);}.cls-32{clip-path:url(#clip-path-30);}.cls-33{clip-path:url(#clip-path-31);}.cls-34{clip-path:url(#clip-path-32);}.cls-35{clip-path:url(#clip-path-33);}.cls-36{clip-path:url(#clip-path-34);}.cls-37{clip-path:url(#clip-path-35);}.cls-38{clip-path:url(#clip-path-36);}.cls-39{clip-path:url(#clip-path-37);}.cls-40{clip-path:url(#clip-path-38);}.cls-41{clip-path:url(#clip-path-39);}.cls-42{clip-path:url(#clip-path-40);}.cls-43{clip-path:url(#clip-path-41);}.cls-44{clip-path:url(#clip-path-42);}.cls-45{clip-path:url(#clip-path-43);}.cls-46{clip-path:url(#clip-path-44);}.cls-47{clip-path:url(#clip-path-45);}.cls-48{clip-path:url(#clip-path-46);}.cls-49{clip-path:url(#clip-path-47);}.cls-50{clip-path:url(#clip-path-48);}.cls-51{clip-path:url(#clip-path-49);}.cls-52{clip-path:url(#clip-path-50);}.cls-53{clip-path:url(#clip-path-51);}.cls-54{clip-path:url(#clip-path-52);}.cls-55{clip-path:url(#clip-path-53);}.cls-56{clip-path:url(#clip-path-54);}.cls-57{clip-path:url(#clip-path-55);}.cls-58{clip-path:url(#clip-path-56);}.cls-59{clip-path:url(#clip-path-57);}.cls-60{clip-path:url(#clip-path-58);}.cls-61{clip-path:url(#clip-path-59);}.cls-62{clip-path:url(#clip-path-60);}.cls-63{clip-path:url(#clip-path-61);}.cls-64{clip-path:url(#clip-path-62);}.cls-65{clip-path:url(#clip-path-63);}.cls-66{clip-path:url(#clip-path-64);}.cls-67{clip-path:url(#clip-path-65);}.cls-68{clip-path:url(#clip-path-66);}.cls-69{clip-path:url(#clip-path-67);}.cls-70{clip-path:url(#clip-path-68);}.cls-71{clip-path:url(#clip-path-69);}.cls-72{clip-path:url(#clip-path-70);}.cls-73{clip-path:url(#clip-path-71);}.cls-74{clip-path:url(#clip-path-72);}.cls-75{clip-path:url(#clip-path-73);}.cls-76{clip-path:url(#clip-path-74);}.cls-77{clip-path:url(#clip-path-75);}.cls-78{clip-path:url(#clip-path-76);}.cls-79{clip-path:url(#clip-path-77);}.cls-80{clip-path:url(#clip-path-78);}.cls-81{clip-path:url(#clip-path-79);}.cls-82{clip-path:url(#clip-path-80);}.cls-83{clip-path:url(#clip-path-81);}.cls-84{clip-path:url(#clip-path-82);}.cls-85{clip-path:url(#clip-path-83);}.cls-86,.cls-87{stroke:#000;}.cls-86{stroke-width:3px;}</style><clipPath id="clip-path" transform="translate(-21.1 -20)"><rect class="cls-1" x="217.5" y="65" width="20.6" height="19"/></clipPath><clipPath id="clip-path-2" transform="translate(-21.1 -20)"><rect class="cls-1" x="66.3" y="85" width="20.6" height="19"/></clipPath><clipPath id="clip-path-3" transform="translate(-21.1 -20)"><rect class="cls-1" x="87.9" y="85" width="20.6" height="19"/></clipPath><clipPath id="clip-path-4" transform="translate(-21.1 -20)"><rect class="cls-1" x="109.5" y="85" width="20.6" height="19"/></clipPath><clipPath id="clip-path-5" transform="translate(-21.1 -20)"><rect class="cls-1" x="131.1" y="85" width="20.6" height="19"/></clipPath><clipPath id="clip-path-6" transform="translate(-21.1 -20)"><rect class="cls-1" x="152.7" y="85" width="20.6" height="19"/></clipPath><clipPath id="clip-path-7" transform="translate(-21.1 -20)"><rect class="cls-1" x="174.3" y="85" width="20.6" height="19"/></clipPath><clipPath id="clip-path-8" transform="translate(-21.1 -20)"><rect class="cls-1" x="195.9" y="85" width="20.6" height="19"/></clipPath><clipPath id="clip-path-9" transform="translate(-21.1 -20)"><rect class="cls-1" x="217.5" y="85" width="20.6" height="19"/></clipPath><clipPath id="clip-path-10" transform="translate(-21.1 -20)"><rect class="cls-1" x="239.1" y="85" width="20.6" height="19"/></clipPath><clipPath id="clip-path-11" transform="translate(-21.1 -20)"><rect class="cls-1" x="217.5" y="105" width="20.6" height="19"/></clipPath><clipPath id="clip-path-12" transform="translate(-21.1 -20)"><rect class="cls-1" x="217.5" y="125" width="20.6" height="20"/></clipPath><clipPath id="clip-path-13" transform="translate(-21.1 -20)"><rect class="cls-1" x="217.5" y="146" width="20.6" height="20"/></clipPath><clipPath id="clip-path-14" transform="translate(-21.1 -20)"><rect class="cls-1" x="152.7" y="167" width="20.6" height="19"/></clipPath><clipPath id="clip-path-15" transform="translate(-21.1 -20)"><rect class="cls-1" x="174.3" y="167" width="20.6" height="19"/></clipPath><clipPath id="clip-path-16" transform="translate(-21.1 -20)"><rect class="cls-1" x="195.9" y="167" width="20.6" height="19"/></clipPath><clipPath id="clip-path-17" transform="translate(-21.1 -20)"><rect class="cls-1" x="217.5" y="167" width="20.6" height="19"/></clipPath><clipPath id="clip-path-18" transform="translate(-21.1 -20)"><rect class="cls-1" x="195.9" y="187" width="20.6" height="19"/></clipPath><clipPath id="clip-path-19" transform="translate(-21.1 -20)"><rect class="cls-1" x="195.9" y="207" width="20.6" height="20"/></clipPath><clipPath id="clip-path-20" transform="translate(-21.1 -20)"><rect class="cls-1" x="195.9" y="228" width="20.6" height="21"/></clipPath><clipPath id="clip-path-21" transform="translate(-21.1 -20)"><rect class="cls-1" x="195.9" y="250" width="20.6" height="20"/></clipPath><clipPath id="clip-path-22" transform="translate(-21.1 -20)"><rect class="cls-1" x="195.9" y="271" width="20.6" height="19"/></clipPath><clipPath id="clip-path-23" transform="translate(-21.1 -20)"><rect class="cls-1" x="303.9" y="271" width="20.6" height="19"/></clipPath><clipPath id="clip-path-24" transform="translate(-21.1 -20)"><rect class="cls-1" x="131.1" y="291" width="20.6" height="19"/></clipPath><clipPath id="clip-path-25" transform="translate(-21.1 -20)"><rect class="cls-1" x="152.7" y="291" width="20.6" height="19"/></clipPath><clipPath id="clip-path-26" transform="translate(-21.1 -20)"><rect class="cls-1" x="174.3" y="291" width="20.6" height="19"/></clipPath><clipPath id="clip-path-27" transform="translate(-21.1 -20)"><rect class="cls-1" x="195.9" y="291" width="20.6" height="19"/></clipPath><clipPath id="clip-path-28" transform="translate(-21.1 -20)"><rect class="cls-1" x="217.5" y="291" width="20.6" height="19"/></clipPath><clipPath id="clip-path-29" transform="translate(-21.1 -20)"><rect class="cls-1" x="239.1" y="291" width="20.6" height="19"/></clipPath><clipPath id="clip-path-30" transform="translate(-21.1 -20)"><rect class="cls-1" x="260.7" y="291" width="20.6" height="19"/></clipPath><clipPath id="clip-path-31" transform="translate(-21.1 -20)"><rect class="cls-1" x="282.3" y="291" width="20.6" height="19"/></clipPath><clipPath id="clip-path-32" transform="translate(-21.1 -20)"><rect class="cls-1" x="303.9" y="291" width="20.6" height="19"/></clipPath><clipPath id="clip-path-33" transform="translate(-21.1 -20)"><rect class="cls-1" x="325.5" y="291" width="20.6" height="19"/></clipPath><clipPath id="clip-path-34" transform="translate(-21.1 -20)"><rect class="cls-1" x="347.1" y="291" width="20.6" height="19"/></clipPath><clipPath id="clip-path-35" transform="translate(-21.1 -20)"><rect class="cls-1" x="195.9" y="311" width="20.6" height="20"/></clipPath><clipPath id="clip-path-36" transform="translate(-21.1 -20)"><rect class="cls-1" x="303.9" y="311" width="20.6" height="20"/></clipPath><clipPath id="clip-path-37" transform="translate(-21.1 -20)"><rect class="cls-1" x="195.9" y="332" width="20.6" height="21"/></clipPath><clipPath id="clip-path-38" transform="translate(-21.1 -20)"><rect class="cls-1" x="303.9" y="332" width="20.6" height="21"/></clipPath><clipPath id="clip-path-39" transform="translate(-21.1 -20)"><rect class="cls-1" x="303.9" y="354" width="20.6" height="20"/></clipPath><clipPath id="clip-path-40" transform="translate(-21.1 -20)"><rect class="cls-1" x="303.9" y="375" width="20.6" height="19"/></clipPath><clipPath id="clip-path-41" transform="translate(-21.1 -20)"><rect class="cls-1" x="109.5" y="395" width="20.6" height="19"/></clipPath><clipPath id="clip-path-42" transform="translate(-21.1 -20)"><rect class="cls-1" x="303.9" y="395" width="20.6" height="19"/></clipPath><clipPath id="clip-path-43" transform="translate(-21.1 -20)"><rect class="cls-1" x="109.5" y="415" width="20.6" height="19"/></clipPath><clipPath id="clip-path-44" transform="translate(-21.1 -20)"><rect class="cls-1" x="131.1" y="415" width="20.6" height="19"/></clipPath><clipPath id="clip-path-45" transform="translate(-21.1 -20)"><rect class="cls-1" x="152.7" y="415" width="20.6" height="19"/></clipPath><clipPath id="clip-path-46" transform="translate(-21.1 -20)"><rect class="cls-1" x="174.3" y="415" width="20.6" height="19"/></clipPath><clipPath id="clip-path-47" transform="translate(-21.1 -20)"><rect class="cls-1" x="195.9" y="415" width="20.6" height="19"/></clipPath><clipPath id="clip-path-48" transform="translate(-21.1 -20)"><rect class="cls-1" x="217.5" y="415" width="20.6" height="19"/></clipPath><clipPath id="clip-path-49" transform="translate(-21.1 -20)"><rect class="cls-1" x="239.1" y="415" width="20.6" height="19"/></clipPath><clipPath id="clip-path-50" transform="translate(-21.1 -20)"><rect class="cls-1" x="260.7" y="415" width="20.6" height="19"/></clipPath><clipPath id="clip-path-51" transform="translate(-21.1 -20)"><rect class="cls-1" x="282.3" y="415" width="20.6" height="19"/></clipPath><clipPath id="clip-path-52" transform="translate(-21.1 -20)"><rect class="cls-1" x="303.9" y="415" width="20.6" height="19"/></clipPath><clipPath id="clip-path-53" transform="translate(-21.1 -20)"><rect class="cls-1" x="109.5" y="435" width="20.6" height="19"/></clipPath><clipPath id="clip-path-54" transform="translate(-21.1 -20)"><rect class="cls-1" x="109.5" y="455" width="20.6" height="19"/></clipPath><clipPath id="clip-path-55" transform="translate(-21.1 -20)"><rect class="cls-1" x="109.5" y="475" width="20.6" height="20"/></clipPath><clipPath id="clip-path-56" transform="translate(-21.1 -20)"><rect class="cls-1" x="109.5" y="496" width="20.6" height="21"/></clipPath><clipPath id="clip-path-57" transform="translate(-21.1 -20)"><rect class="cls-1" x="109.5" y="518" width="20.6" height="21"/></clipPath><clipPath id="clip-path-58" transform="translate(-21.1 -20)"><rect class="cls-1" x="195.9" y="518" width="20.6" height="21"/></clipPath><clipPath id="clip-path-59" transform="translate(-21.1 -20)"><rect class="cls-1" x="109.5" y="540" width="20.6" height="20"/></clipPath><clipPath id="clip-path-60" transform="translate(-21.1 -20)"><rect class="cls-1" x="174.3" y="540" width="20.6" height="20"/></clipPath><clipPath id="clip-path-61" transform="translate(-21.1 -20)"><rect class="cls-1" x="195.9" y="540" width="20.6" height="20"/></clipPath><clipPath id="clip-path-62" transform="translate(-21.1 -20)"><rect class="cls-1" x="217.5" y="540" width="20.6" height="20"/></clipPath><clipPath id="clip-path-63" transform="translate(-21.1 -20)"><rect class="cls-1" x="239.1" y="540" width="20.6" height="20"/></clipPath><clipPath id="clip-path-64" transform="translate(-21.1 -20)"><rect class="cls-1" x="260.7" y="540" width="20.6" height="20"/></clipPath><clipPath id="clip-path-65" transform="translate(-21.1 -20)"><rect class="cls-1" x="282.3" y="540" width="20.6" height="20"/></clipPath><clipPath id="clip-path-66" transform="translate(-21.1 -20)"><rect class="cls-1" x="303.9" y="540" width="20.6" height="20"/></clipPath><clipPath id="clip-path-67" transform="translate(-21.1 -20)"><rect class="cls-1" x="325.5" y="540" width="20.6" height="20"/></clipPath><clipPath id="clip-path-68" transform="translate(-21.1 -20)"><rect class="cls-1" x="347.1" y="540" width="20.6" height="20"/></clipPath><clipPath id="clip-path-69" transform="translate(-21.1 -20)"><rect class="cls-1" x="368.7" y="540" width="20.6" height="20"/></clipPath><clipPath id="clip-path-70" transform="translate(-21.1 -20)"><rect class="cls-1" x="390.3" y="540" width="20.6" height="20"/></clipPath><clipPath id="clip-path-71" transform="translate(-21.1 -20)"><rect class="cls-1" x="411.9" y="540" width="19.6" height="20"/></clipPath><clipPath id="clip-path-72" transform="translate(-21.1 -20)"><rect class="cls-1" x="109.5" y="561" width="20.6" height="19"/></clipPath><clipPath id="clip-path-73" transform="translate(-21.1 -20)"><rect class="cls-1" x="195.9" y="561" width="20.6" height="19"/></clipPath><clipPath id="clip-path-74" transform="translate(-21.1 -20)"><rect class="cls-1" x="87.9" y="581" width="20.6" height="19"/></clipPath><clipPath id="clip-path-75" transform="translate(-21.1 -20)"><rect class="cls-1" x="109.5" y="581" width="20.6" height="19"/></clipPath><clipPath id="clip-path-76" transform="translate(-21.1 -20)"><rect class="cls-1" x="131.1" y="581" width="20.6" height="19"/></clipPath><clipPath id="clip-path-77" transform="translate(-21.1 -20)"><rect class="cls-1" x="152.7" y="581" width="20.6" height="19"/></clipPath><clipPath id="clip-path-78" transform="translate(-21.1 -20)"><rect class="cls-1" x="174.3" y="581" width="20.6" height="19"/></clipPath><clipPath id="clip-path-79" transform="translate(-21.1 -20)"><rect class="cls-1" x="195.9" y="581" width="20.6" height="19"/></clipPath><clipPath id="clip-path-80" transform="translate(-21.1 -20)"><rect class="cls-1" x="217.5" y="581" width="20.6" height="19"/></clipPath><clipPath id="clip-path-81" transform="translate(-21.1 -20)"><rect class="cls-1" x="109.5" y="601" width="20.6" height="20"/></clipPath><clipPath id="clip-path-82" transform="translate(-21.1 -20)"><rect class="cls-1" x="195.9" y="601" width="20.6" height="20"/></clipPath><clipPath id="clip-path-83" transform="translate(-21.1 -20)"><rect class="cls-1" width="436" height="646"/></clipPath></defs><title>solution-grid</title><g id="Layer_2" data-name="Layer 2"><g id="Layer_1-2" data-name="Layer 1"><g class="cls-2"><path d="M227.18,79.8V72.05h-3.07v-.92h7.38v.92h-3.08V79.8Z" transform="translate(-21.1 -20)"/></g><g class="cls-3"><path class="cls-4" d="M73.12,99.8V91.13h1.23v3.65h4.12V91.13h1.24V99.8H78.47V95.7H74.35v4.1Z" transform="translate(-21.1 -20)"/></g><g class="cls-5"><path d="M100.81,99.8l-.94-2.4H96.2l-1,2.4H94.1l3.44-8.67h1.22l3.38,8.67Zm-1.3-3.32L98,92.75l-1.49,3.73Z" transform="translate(-21.1 -20)"/></g><g class="cls-6"><path d="M119.11,99.8V91.13h1.23V99.8Z" transform="translate(-21.1 -20)"/></g><g class="cls-7"><path d="M139.12,99.8V91.13h2.62a2.93,2.93,0,0,1,1.92.55,2,2,0,0,1,.66,1.6,2.51,2.51,0,0,1-1.75,2.46l2.89,4.06H144l-2.46-3.67h-1.15V99.8Zm1.22-4.59h.4c1.54,0,2.32-.61,2.32-1.82,0-.89-.65-1.34-1.95-1.34h-.77Z" transform="translate(-21.1 -20)"/></g><g class="cls-8"><path d="M160.12,99.8V91.13H163a6,6,0,0,1,2.08.29,3.2,3.2,0,0,1,1.38,1,4.3,4.3,0,0,1,.92,2.87,4.64,4.64,0,0,1-1.14,3.35A4.29,4.29,0,0,1,163,99.8Zm1.23-.92h1.58a2.84,2.84,0,0,0,2.39-.91,4.11,4.11,0,0,0,.75-2.59,3.65,3.65,0,0,0-.74-2.41,2.39,2.39,0,0,0-1.08-.73,6.87,6.87,0,0,0-1.89-.19h-1Z" transform="translate(-21.1 -20)"/></g><g class="cls-9"><path d="M182.12,99.8V91.13h2.62a2.93,2.93,0,0,1,1.92.55,2,2,0,0,1,.66,1.6,2.51,2.51,0,0,1-1.75,2.46l2.89,4.06H187l-2.46-3.67h-1.15V99.8Zm1.22-4.59h.4c1.54,0,2.32-.61,2.32-1.82,0-.89-.65-1.34-1.95-1.34h-.77Z" transform="translate(-21.1 -20)"/></g><g class="cls-10"><path d="M205,99.8V96.18l-2.89-5.05h1.41L205.76,95l2.42-3.91h1.14l-3.1,5V99.8Z" transform="translate(-21.1 -20)"/></g><g class="cls-11"><path d="M226.12,99.8V91.13H231v.92h-3.61v2.78h3v.91h-3v3.14h3.87v.92Z" transform="translate(-21.1 -20)"/></g><g class="cls-12"><path d="M247.12,99.8V91.13h2.62a2.93,2.93,0,0,1,1.92.55,2,2,0,0,1,.66,1.6,2.51,2.51,0,0,1-1.75,2.46l2.89,4.06H252l-2.46-3.67h-1.15V99.8Zm1.22-4.59h.4c1.54,0,2.32-.61,2.32-1.82,0-.89-.65-1.34-1.95-1.34h-.77Z" transform="translate(-21.1 -20)"/></g><g class="cls-13"><path class="cls-4" d="M230.81,119.8l-.94-2.4H226.2l-1,2.4H224.1l3.44-8.67h1.22l3.38,8.67Zm-1.3-3.32L228,112.75l-1.49,3.73Z" transform="translate(-21.1 -20)"/></g><g class="cls-14"><path d="M228.83,141a4.07,4.07,0,0,1-3.12-1.19,4.77,4.77,0,0,1-1.1-3.36,4.69,4.69,0,0,1,1.12-3.36,4.12,4.12,0,0,1,3.16-1.2,11.92,11.92,0,0,1,2.73.38v1.16a9.17,9.17,0,0,0-2.74-.62,2.65,2.65,0,0,0-2.19,1,4.13,4.13,0,0,0-.77,2.69,3.88,3.88,0,0,0,.82,2.62,2.82,2.82,0,0,0,2.26,1,5.61,5.61,0,0,0,2.63-.76v1A5.88,5.88,0,0,1,228.83,141Z" transform="translate(-21.1 -20)"/></g><g class="cls-15"><path d="M225.05,153.13h1.23v5.47a3,3,0,0,0,.48,1.9,1.86,1.86,0,0,0,1.54.6,1.73,1.73,0,0,0,1.46-.56,3.19,3.19,0,0,0,.43-1.9v-5.51h1.08v5.49a3.78,3.78,0,0,1-.73,2.59,3,3,0,0,1-2.32.81,3.13,3.13,0,0,1-2.4-.84,3.75,3.75,0,0,1-.77-2.59Z" transform="translate(-21.1 -20)"/></g><g class="cls-16"><path class="cls-4" d="M161.12,181.8v-8.67h1.23v7.75h3.9v.92Z" transform="translate(-21.1 -20)"/></g><g class="cls-17"><path d="M186.81,181.8l-.94-2.4H182.2l-1,2.4H180.1l3.44-8.67h1.22l3.38,8.67Zm-1.3-3.32L184,174.75l-1.49,3.73Z" transform="translate(-21.1 -20)"/></g><g class="cls-18"><path d="M202.12,181.8v-8.67h1.7l2.41,6.71,2.47-6.71h1.52v8.67h-1.15v-7.05l-2.39,6.47h-1.19l-2.32-6.49v7.07Z" transform="translate(-21.1 -20)"/></g><g class="cls-19"><path d="M225.12,181.8v-8.67h2.36a3.7,3.7,0,0,1,2.26.53,2.07,2.07,0,0,1,.68,1.74,2.66,2.66,0,0,1-.94,2.17,3.94,3.94,0,0,1-2.6.78h-.54v3.45Zm1.22-4.38h.5a2.53,2.53,0,0,0,1.69-.5,1.76,1.76,0,0,0,.6-1.42,1.29,1.29,0,0,0-.47-1.12,2.82,2.82,0,0,0-1.57-.33h-.75Z" transform="translate(-21.1 -20)"/></g><g class="cls-20"><path d="M203.05,193.13h1.23v5.47a3,3,0,0,0,.48,1.9,1.86,1.86,0,0,0,1.54.6,1.73,1.73,0,0,0,1.46-.56,3.19,3.19,0,0,0,.43-1.9v-5.51h1.08v5.49a3.78,3.78,0,0,1-.73,2.59,3,3,0,0,1-2.32.81,3.13,3.13,0,0,1-2.4-.84,3.75,3.75,0,0,1-.77-2.59Z" transform="translate(-21.1 -20)"/></g><g class="cls-21"><path d="M204.12,222.8v-8.67H209v.92h-3.61V218h3v.91h-3v3.94Z" transform="translate(-21.1 -20)"/></g><g class="cls-22"><path class="cls-4" d="M204.12,243.8v-8.67H209v.92h-3.61V239h3v.91h-3v3.94Z" transform="translate(-21.1 -20)"/></g><g class="cls-23"><path d="M205.11,265.8v-8.67h1.23v8.67Z" transform="translate(-21.1 -20)"/></g><g class="cls-24"><path d="M203.12,285.8v-8.67h1.21l4.36,6.7v-6.7h1.06v8.67h-1.21l-4.37-6.7v6.7Z" transform="translate(-21.1 -20)"/></g><g class="cls-25"><path d="M311.12,285.8v-8.67h1.21l4.36,6.7v-6.7h1.06v8.67h-1.21l-4.37-6.7v6.7Z" transform="translate(-21.1 -20)"/></g><g class="cls-26"><path d="M138.12,305.8v-8.67H141a6,6,0,0,1,2.08.29,3.2,3.2,0,0,1,1.38,1,4.3,4.3,0,0,1,.92,2.87,4.64,4.64,0,0,1-1.14,3.35A4.29,4.29,0,0,1,141,305.8Zm1.23-.92h1.58a2.84,2.84,0,0,0,2.39-.91,4.11,4.11,0,0,0,.75-2.59,3.65,3.65,0,0,0-.74-2.41,2.39,2.39,0,0,0-1.08-.73,6.87,6.87,0,0,0-1.89-.19h-1Z" transform="translate(-21.1 -20)"/></g><g class="cls-27"><path d="M161.12,305.8v-8.67H166v.92h-3.61v2.78h3v.91h-3v3.14h3.87v.92Z" transform="translate(-21.1 -20)"/></g><g class="cls-28"><path d="M181.12,305.8v-8.67h1.21l4.36,6.7v-6.7h1.06v8.67h-1.21l-4.37-6.7v6.7Z" transform="translate(-21.1 -20)"/></g><g class="cls-29"><path d="M205.18,305.8v-7.75h-3.07v-.92h7.38v.92h-3.08v7.75Z" transform="translate(-21.1 -20)"/></g><g class="cls-30"><path d="M230.81,305.8l-.94-2.4H226.2l-1,2.4H224.1l3.44-8.67h1.22l3.38,8.67Zm-1.3-3.32L228,298.75l-1.49,3.73Z" transform="translate(-21.1 -20)"/></g><g class="cls-31"><path d="M247.12,305.8v-8.67h1.23v7.75h3.9v.92Z" transform="translate(-21.1 -20)"/></g><g class="cls-32"><path d="M269.12,305.8v-8.67H274v.92h-3.61V301h3v.91h-3v3.94Z" transform="translate(-21.1 -20)"/></g><g class="cls-33"><path d="M290.12,305.8v-8.67h1.23v7.75h3.9v.92Z" transform="translate(-21.1 -20)"/></g><g class="cls-34"><path d="M314.61,306a3.68,3.68,0,0,1-2.9-1.25,5.53,5.53,0,0,1,0-6.62,4.13,4.13,0,0,1,5.9,0,5.51,5.51,0,0,1,0,6.63A3.81,3.81,0,0,1,314.61,306Zm0-.92a2.44,2.44,0,0,0,2.06-1,4.44,4.44,0,0,0,.72-2.71,4.23,4.23,0,0,0-.73-2.64,2.61,2.61,0,0,0-4,0,5.29,5.29,0,0,0,0,5.33A2.34,2.34,0,0,0,314.63,305.1Z" transform="translate(-21.1 -20)"/></g><g class="cls-35"><path d="M335.82,306a8.77,8.77,0,0,1-2.23-.38v-1.22a6.09,6.09,0,0,0,2.4.68,1.73,1.73,0,0,0,1.17-.38,1.26,1.26,0,0,0,.45-1,1.33,1.33,0,0,0-.29-.86,3.85,3.85,0,0,0-1.07-.8l-.6-.35a5.58,5.58,0,0,1-1.56-1.19,2,2,0,0,1-.46-1.3,2.12,2.12,0,0,1,.73-1.65,2.68,2.68,0,0,1,1.85-.65,7.19,7.19,0,0,1,2.12.34v1.12a6.36,6.36,0,0,0-2.05-.54,1.58,1.58,0,0,0-1,.34,1.09,1.09,0,0,0-.11,1.62,4.54,4.54,0,0,0,1.11.8l.62.35a5.5,5.5,0,0,1,1.57,1.21,2.12,2.12,0,0,1,.45,1.36,2.23,2.23,0,0,1-.84,1.82A3.36,3.36,0,0,1,335.82,306Z" transform="translate(-21.1 -20)"/></g><g class="cls-36"><path class="cls-4" d="M356.82,306a8.77,8.77,0,0,1-2.23-.38v-1.22a6.09,6.09,0,0,0,2.4.68,1.73,1.73,0,0,0,1.17-.38,1.26,1.26,0,0,0,.45-1,1.33,1.33,0,0,0-.29-.86,3.85,3.85,0,0,0-1.07-.8l-.6-.35a5.58,5.58,0,0,1-1.56-1.19,2,2,0,0,1-.46-1.3,2.12,2.12,0,0,1,.73-1.65,2.68,2.68,0,0,1,1.85-.65,7.19,7.19,0,0,1,2.12.34v1.12a6.36,6.36,0,0,0-2.05-.54,1.58,1.58,0,0,0-1,.34,1.09,1.09,0,0,0-.11,1.62,4.54,4.54,0,0,0,1.11.8l.62.35a5.5,5.5,0,0,1,1.57,1.21,2.12,2.12,0,0,1,.45,1.36,2.23,2.23,0,0,1-.84,1.82A3.36,3.36,0,0,1,356.82,306Z" transform="translate(-21.1 -20)"/></g><g class="cls-37"><path d="M205.11,326.8v-8.67h1.23v8.67Z" transform="translate(-21.1 -20)"/></g><g class="cls-38"><path d="M313.18,326.8v-7.75h-3.07v-.92h7.38v.92h-3.08v7.75Z" transform="translate(-21.1 -20)"/></g><g class="cls-39"><path d="M203.12,347.8v-8.67h1.21l4.36,6.7v-6.7h1.06v8.67h-1.21l-4.37-6.7v6.7Z" transform="translate(-21.1 -20)"/></g><g class="cls-40"><path class="cls-4" d="M312.12,347.8v-8.67H317v.92h-3.61v2.78h3v.91h-3v3.14h3.87v.92Z" transform="translate(-21.1 -20)"/></g><g class="cls-41"><path d="M312.12,369.8v-8.67h2.25a3.38,3.38,0,0,1,2,.49,1.62,1.62,0,0,1,.7,1.42,2.33,2.33,0,0,1-1.78,2.24c1.42.44,2.12,1.22,2.12,2.35a1.91,1.91,0,0,1-.7,1.61,3.21,3.21,0,0,1-2,.56Zm1.22-4.86h.39a2.38,2.38,0,0,0,1.53-.43,1.4,1.4,0,0,0,.54-1.18c0-.86-.66-1.28-2-1.28h-.48Zm0,3.94h.25a5.62,5.62,0,0,0,1.75-.17,1.18,1.18,0,0,0,.76-1.2,1.54,1.54,0,0,0-.69-1.28,2.82,2.82,0,0,0-1.73-.51h-.34Z" transform="translate(-21.1 -20)"/></g><g class="cls-42"><path d="M314.61,390a3.68,3.68,0,0,1-2.9-1.25,5.53,5.53,0,0,1,0-6.62,4.13,4.13,0,0,1,5.9,0,5.51,5.51,0,0,1,0,6.63A3.81,3.81,0,0,1,314.61,390Zm0-.92a2.44,2.44,0,0,0,2.06-1,4.44,4.44,0,0,0,.72-2.71,4.23,4.23,0,0,0-.73-2.64,2.61,2.61,0,0,0-4,0,5.29,5.29,0,0,0,0,5.33A2.34,2.34,0,0,0,314.63,389.1Z" transform="translate(-21.1 -20)"/></g><g class="cls-43"><path d="M117.24,409.8,115,401.13h1.19L118,408l1.64-6.85h1.18l1.55,6.75,1.91-6.75h1l-2.43,8.67h-1.23l-1.53-6.69-1.6,6.69Z" transform="translate(-21.1 -20)"/></g><g class="cls-44"><path d="M314.61,410a3.68,3.68,0,0,1-2.9-1.25,5.53,5.53,0,0,1,0-6.62,4.13,4.13,0,0,1,5.9,0,5.51,5.51,0,0,1,0,6.63A3.81,3.81,0,0,1,314.61,410Zm0-.92a2.44,2.44,0,0,0,2.06-1,4.44,4.44,0,0,0,.72-2.71,4.23,4.23,0,0,0-.73-2.64,2.61,2.61,0,0,0-4,0,5.29,5.29,0,0,0,0,5.33A2.34,2.34,0,0,0,314.63,409.1Z" transform="translate(-21.1 -20)"/></g><g class="cls-45"><path d="M122.81,429.8l-.94-2.4H118.2l-1,2.4H116.1l3.44-8.67h1.22l3.38,8.67Zm-1.3-3.32L120,422.75l-1.49,3.73Z" transform="translate(-21.1 -20)"/></g><g class="cls-46"><path d="M139.12,429.8v-8.67h1.23v7.75h3.9v.92Z" transform="translate(-21.1 -20)"/></g><g class="cls-47"><path d="M165.81,429.8l-.94-2.4H161.2l-1,2.4H159.1l3.44-8.67h1.22l3.38,8.67Zm-1.3-3.32L163,422.75l-1.49,3.73Z" transform="translate(-21.1 -20)"/></g><g class="cls-48"><path d="M182.12,429.8v-8.67h2.62a2.93,2.93,0,0,1,1.92.55,2,2,0,0,1,.66,1.6,2.51,2.51,0,0,1-1.75,2.46l2.89,4.06H187l-2.46-3.67h-1.15v3.67Zm1.22-4.59h.4c1.54,0,2.32-.61,2.32-1.82,0-.89-.65-1.34-1.95-1.34h-.77Z" transform="translate(-21.1 -20)"/></g><g class="cls-49"><path d="M202.12,429.8v-8.67h1.7l2.41,6.71,2.47-6.71h1.52v8.67h-1.15v-7.05l-2.39,6.47h-1.19l-2.32-6.49v7.07Z" transform="translate(-21.1 -20)"/></g><g class="cls-50"><path class="cls-4" d="M228.83,430a4.07,4.07,0,0,1-3.12-1.19,4.77,4.77,0,0,1-1.1-3.36,4.69,4.69,0,0,1,1.12-3.36,4.12,4.12,0,0,1,3.16-1.2,11.92,11.92,0,0,1,2.73.38v1.16a9.17,9.17,0,0,0-2.74-.62,2.65,2.65,0,0,0-2.19,1,4.13,4.13,0,0,0-.77,2.69,3.88,3.88,0,0,0,.82,2.62,2.82,2.82,0,0,0,2.26,1,5.61,5.61,0,0,0,2.63-.76v1.05A5.88,5.88,0,0,1,228.83,430Z" transform="translate(-21.1 -20)"/></g><g class="cls-51"><path d="M247.12,429.8v-8.67h1.23v7.75h3.9v.92Z" transform="translate(-21.1 -20)"/></g><g class="cls-52"><path d="M270.61,430a3.68,3.68,0,0,1-2.9-1.25,5.53,5.53,0,0,1,0-6.62,4.13,4.13,0,0,1,5.9,0,5.51,5.51,0,0,1,0,6.63A3.81,3.81,0,0,1,270.61,430Zm0-.92a2.44,2.44,0,0,0,2.06-1,4.44,4.44,0,0,0,.72-2.71,4.23,4.23,0,0,0-.73-2.64,2.61,2.61,0,0,0-4,0,5.29,5.29,0,0,0,0,5.33A2.34,2.34,0,0,0,270.63,429.1Z" transform="translate(-21.1 -20)"/></g><g class="cls-53"><path d="M292.83,430a4.07,4.07,0,0,1-3.12-1.19,4.77,4.77,0,0,1-1.1-3.36,4.69,4.69,0,0,1,1.12-3.36,4.12,4.12,0,0,1,3.16-1.2,11.92,11.92,0,0,1,2.73.38v1.16a9.17,9.17,0,0,0-2.74-.62,2.65,2.65,0,0,0-2.19,1,4.13,4.13,0,0,0-.77,2.69,3.88,3.88,0,0,0,.82,2.62,2.82,2.82,0,0,0,2.26,1,5.61,5.61,0,0,0,2.63-.76v1.05A5.88,5.88,0,0,1,292.83,430Z" transform="translate(-21.1 -20)"/></g><g class="cls-54"><path d="M311.12,429.8v-8.67h1.15v4.26l3.51-4.26H317l-3.4,4.13,4,4.54h-1.56l-3.79-4.39v4.39Z" transform="translate(-21.1 -20)"/></g><g class="cls-55"><path class="cls-4" d="M119.18,449.8v-7.75h-3.07v-.92h7.38v.92h-3.08v7.75Z" transform="translate(-21.1 -20)"/></g><g class="cls-56"><path d="M118.12,469.8v-8.67H123v.92h-3.61v2.78h3v.91h-3v3.14h3.87v.92Z" transform="translate(-21.1 -20)"/></g><g class="cls-57"><path d="M117.12,490.8v-8.67h2.62a2.93,2.93,0,0,1,1.92.55,2,2,0,0,1,.66,1.6,2.51,2.51,0,0,1-1.75,2.46l2.89,4.06H122l-2.46-3.67h-1.15v3.67Zm1.22-4.59h.4c1.54,0,2.32-.61,2.32-1.82,0-.89-.65-1.34-2-1.34h-.77Z" transform="translate(-21.1 -20)"/></g><g class="cls-58"><path d="M119.11,511.8v-8.67h1.23v8.67Z" transform="translate(-21.1 -20)"/></g><g class="cls-59"><path d="M116.12,533.8v-8.67h1.21l4.36,6.7v-6.7h1.06v8.67h-1.21l-4.37-6.7v6.7Z" transform="translate(-21.1 -20)"/></g><g class="cls-60"><path d="M204.12,533.8v-8.67h2.25a3.38,3.38,0,0,1,2,.49,1.62,1.62,0,0,1,.7,1.42,2.33,2.33,0,0,1-1.78,2.24c1.42.44,2.12,1.22,2.12,2.35a1.91,1.91,0,0,1-.7,1.61,3.21,3.21,0,0,1-2,.56Zm1.22-4.86h.39a2.38,2.38,0,0,0,1.53-.43,1.4,1.4,0,0,0,.54-1.18c0-.86-.66-1.28-2-1.28h-.48Zm0,3.94h.25a5.62,5.62,0,0,0,1.75-.17,1.18,1.18,0,0,0,.76-1.2,1.54,1.54,0,0,0-.69-1.28,2.82,2.82,0,0,0-1.73-.51h-.34Z" transform="translate(-21.1 -20)"/></g><g class="cls-61"><path d="M122.63,555.57a10.16,10.16,0,0,1-2.74.45,4.18,4.18,0,0,1-3.18-1.18,4.79,4.79,0,0,1-1.1-3.38,4.71,4.71,0,0,1,1.12-3.35,4.07,4.07,0,0,1,3.14-1.2,10.42,10.42,0,0,1,2.75.39v1.14a9.21,9.21,0,0,0-2.74-.61,2.66,2.66,0,0,0-2.19,1,4.13,4.13,0,0,0-.77,2.69,3.87,3.87,0,0,0,.83,2.66,2.91,2.91,0,0,0,2.33,1,4.79,4.79,0,0,0,1.33-.22v-2.82h1.22Z" transform="translate(-21.1 -20)"/></g><g class="cls-62"><path d="M184.11,555.8v-8.67h1.23v8.67Z" transform="translate(-21.1 -20)"/></g><g class="cls-63"><path d="M203.12,555.8v-8.67h2.62a2.93,2.93,0,0,1,1.92.55,2,2,0,0,1,.66,1.6,2.51,2.51,0,0,1-1.75,2.46l2.89,4.06H208l-2.46-3.67h-1.15v3.67Zm1.22-4.59h.4c1.54,0,2.32-.61,2.32-1.82,0-.89-.65-1.34-1.95-1.34h-.77Z" transform="translate(-21.1 -20)"/></g><g class="cls-64"><path d="M227.61,556a3.68,3.68,0,0,1-2.9-1.25,5.53,5.53,0,0,1,0-6.62,4.13,4.13,0,0,1,5.9,0,5.51,5.51,0,0,1,0,6.63A3.81,3.81,0,0,1,227.61,556Zm0-.92a2.44,2.44,0,0,0,2.06-1,4.44,4.44,0,0,0,.72-2.71,4.23,4.23,0,0,0-.73-2.64,2.61,2.61,0,0,0-4,0,5.29,5.29,0,0,0,0,5.33A2.34,2.34,0,0,0,227.63,555.1Z" transform="translate(-21.1 -20)"/></g><g class="cls-65"><path d="M246.12,555.8v-8.67h1.21l4.36,6.7v-6.7h1.06v8.67h-1.21l-4.37-6.7v6.7Z" transform="translate(-21.1 -20)"/></g><g class="cls-66"><path d="M270.11,555.8v-8.67h1.23v8.67Z" transform="translate(-21.1 -20)"/></g><g class="cls-67"><path class="cls-4" d="M289.12,555.8v-8.67h1.21l4.36,6.7v-6.7h1.06v8.67h-1.21l-4.37-6.7v6.7Z" transform="translate(-21.1 -20)"/></g><g class="cls-68"><path d="M317.63,555.57a10.16,10.16,0,0,1-2.74.45,4.18,4.18,0,0,1-3.18-1.18,4.79,4.79,0,0,1-1.1-3.38,4.71,4.71,0,0,1,1.12-3.35,4.07,4.07,0,0,1,3.14-1.2,10.42,10.42,0,0,1,2.75.39v1.14a9.21,9.21,0,0,0-2.74-.61,2.66,2.66,0,0,0-2.19,1,4.13,4.13,0,0,0-.77,2.69,3.87,3.87,0,0,0,.83,2.66,2.91,2.91,0,0,0,2.33,1,4.79,4.79,0,0,0,1.33-.22v-2.82h1.22Z" transform="translate(-21.1 -20)"/></g><g class="cls-69"><path d="M333.12,555.8v-8.67h2.25a3.38,3.38,0,0,1,2,.49,1.62,1.62,0,0,1,.7,1.42,2.33,2.33,0,0,1-1.78,2.24c1.42.44,2.12,1.22,2.12,2.35a1.91,1.91,0,0,1-.7,1.61,3.21,3.21,0,0,1-2,.56Zm1.22-4.86h.39a2.38,2.38,0,0,0,1.53-.43,1.4,1.4,0,0,0,.54-1.18c0-.86-.66-1.28-2-1.28h-.48Zm0,3.94h.25a5.62,5.62,0,0,0,1.75-.17,1.18,1.18,0,0,0,.76-1.2,1.54,1.54,0,0,0-.69-1.28,2.82,2.82,0,0,0-1.73-.51h-.34Z" transform="translate(-21.1 -20)"/></g><g class="cls-70"><path d="M357.61,556a3.68,3.68,0,0,1-2.9-1.25,5.53,5.53,0,0,1,0-6.62,4.13,4.13,0,0,1,5.9,0,5.51,5.51,0,0,1,0,6.63A3.81,3.81,0,0,1,357.61,556Zm0-.92a2.44,2.44,0,0,0,2.06-1,4.44,4.44,0,0,0,.72-2.71,4.23,4.23,0,0,0-.73-2.64,2.61,2.61,0,0,0-4,0,5.29,5.29,0,0,0,0,5.33A2.34,2.34,0,0,0,357.63,555.1Z" transform="translate(-21.1 -20)"/></g><g class="cls-71"><path d="M381.81,555.8l-.94-2.4H377.2l-1,2.4H375.1l3.44-8.67h1.22l3.38,8.67Zm-1.3-3.32L379,548.75l-1.49,3.73Z" transform="translate(-21.1 -20)"/></g><g class="cls-72"><path d="M398.12,555.8v-8.67h2.62a2.93,2.93,0,0,1,1.92.55,2,2,0,0,1,.66,1.6,2.51,2.51,0,0,1-1.75,2.46l2.89,4.06H403l-2.46-3.67h-1.15v3.67Zm1.22-4.59h.4c1.54,0,2.32-.61,2.32-1.82,0-.89-.65-1.34-1.95-1.34h-.77Z" transform="translate(-21.1 -20)"/></g><g class="cls-73"><path d="M418.12,555.8v-8.67H421a6,6,0,0,1,2.08.29,3.2,3.2,0,0,1,1.38,1,4.3,4.3,0,0,1,.92,2.87,4.64,4.64,0,0,1-1.14,3.35A4.29,4.29,0,0,1,421,555.8Zm1.23-.92h1.58a2.84,2.84,0,0,0,2.39-.91,4.11,4.11,0,0,0,.75-2.59,3.65,3.65,0,0,0-.74-2.41,2.39,2.39,0,0,0-1.08-.73,6.87,6.87,0,0,0-1.89-.19h-1Z" transform="translate(-21.1 -20)"/></g><g class="cls-74"><path d="M120.83,576a4.07,4.07,0,0,1-3.12-1.19,4.77,4.77,0,0,1-1.1-3.36,4.69,4.69,0,0,1,1.12-3.36,4.12,4.12,0,0,1,3.16-1.2,11.92,11.92,0,0,1,2.73.38v1.16a9.17,9.17,0,0,0-2.74-.62,2.65,2.65,0,0,0-2.19,1,4.13,4.13,0,0,0-.77,2.69,3.88,3.88,0,0,0,.82,2.62,2.82,2.82,0,0,0,2.26,1,5.61,5.61,0,0,0,2.63-.76v1.05A5.88,5.88,0,0,1,120.83,576Z" transform="translate(-21.1 -20)"/></g><g class="cls-75"><path class="cls-4" d="M206.61,576a3.68,3.68,0,0,1-2.9-1.25,5.53,5.53,0,0,1,0-6.62,4.13,4.13,0,0,1,5.9,0,5.51,5.51,0,0,1,0,6.63A3.81,3.81,0,0,1,206.61,576Zm0-.92a2.44,2.44,0,0,0,2.06-1,4.44,4.44,0,0,0,.72-2.71,4.23,4.23,0,0,0-.73-2.64,2.61,2.61,0,0,0-4,0,5.29,5.29,0,0,0,0,5.33A2.34,2.34,0,0,0,206.63,575.1Z" transform="translate(-21.1 -20)"/></g><g class="cls-76"><path d="M94.12,595.8v-8.67h1.7l2.41,6.71,2.47-6.71h1.52v8.67h-1.15v-7l-2.39,6.47H97.49l-2.32-6.49v7.07Z" transform="translate(-21.1 -20)"/></g><g class="cls-77"><path d="M122.81,595.8l-.94-2.4H118.2l-1,2.4H116.1l3.44-8.67h1.22l3.38,8.67Zm-1.3-3.32L120,588.75l-1.49,3.73Z" transform="translate(-21.1 -20)"/></g><g class="cls-78"><path class="cls-4" d="M141.11,595.8v-8.67h1.23v8.67Z" transform="translate(-21.1 -20)"/></g><g class="cls-79"><path d="M161.12,595.8v-8.67h1.23v7.75h3.9v.92Z" transform="translate(-21.1 -20)"/></g><g class="cls-80"><path d="M182.12,595.8v-8.67h2.25a3.38,3.38,0,0,1,2,.49,1.62,1.62,0,0,1,.7,1.42,2.33,2.33,0,0,1-1.78,2.24c1.42.44,2.12,1.22,2.12,2.35a1.91,1.91,0,0,1-.7,1.61,3.21,3.21,0,0,1-2,.56Zm1.22-4.86h.39a2.38,2.38,0,0,0,1.53-.43,1.4,1.4,0,0,0,.54-1.18c0-.86-.66-1.28-2-1.28h-.48Zm0,3.94h.25a5.62,5.62,0,0,0,1.75-.17,1.18,1.18,0,0,0,.76-1.2,1.54,1.54,0,0,0-.69-1.28,2.82,2.82,0,0,0-1.73-.51h-.34Z" transform="translate(-21.1 -20)"/></g><g class="cls-81"><path d="M206.61,596a3.68,3.68,0,0,1-2.9-1.25,5.53,5.53,0,0,1,0-6.62,4.13,4.13,0,0,1,5.9,0,5.51,5.51,0,0,1,0,6.63A3.81,3.81,0,0,1,206.61,596Zm0-.92a2.44,2.44,0,0,0,2.06-1,4.44,4.44,0,0,0,.72-2.71,4.23,4.23,0,0,0-.73-2.64,2.61,2.61,0,0,0-4,0,5.29,5.29,0,0,0,0,5.33A2.34,2.34,0,0,0,206.63,595.1Z" transform="translate(-21.1 -20)"/></g><g class="cls-82"><path d="M224.09,595.8l2.88-4.35-2.74-4.32h1.46l2.08,3.27,2.19-3.27h1.16l-2.77,4.19,2.85,4.48h-1.46l-2.2-3.44-2.28,3.44Z" transform="translate(-21.1 -20)"/></g><g class="cls-83"><path d="M116.12,616.8v-8.67h1.21l4.36,6.7v-6.7h1.06v8.67h-1.21l-4.37-6.7v6.7Z" transform="translate(-21.1 -20)"/></g><g class="cls-84"><path d="M202.12,616.8v-8.67h1.7l2.41,6.71,2.47-6.71h1.52v8.67h-1.15v-7l-2.39,6.47h-1.19l-2.32-6.49v7.07Z" transform="translate(-21.1 -20)"/></g><g class="cls-85"><line class="cls-86" x1="1.5" y1="22" x2="1.5" y2="127"/><line class="cls-87" x1="23.1" y1="22" x2="23.1" y2="127"/><line class="cls-86" x1="23.1" y1="518" x2="23.1" y2="603"/><line class="cls-87" x1="44.7" y1="22" x2="44.7" y2="44.5"/><line class="cls-87" x1="44.7" y1="44.5" x2="44.7" y2="104.5"/><line class="cls-87" x1="44.7" y1="104.5" x2="44.7" y2="127"/><line class="cls-86" x1="44.7" y1="310" x2="44.7" y2="521"/><line class="cls-87" x1="44.7" y1="521" x2="44.7" y2="603"/><line class="cls-87" x1="66.3" y1="22" x2="66.3" y2="127"/><line class="cls-86" x1="66.3" y1="228" x2="66.3" y2="313"/><line class="cls-87" x1="66.3" y1="313" x2="66.3" y2="600"/><line class="cls-86" x1="66.3" y1="600" x2="66.3" y2="625"/><line class="cls-87" x1="87.9" y1="22" x2="87.9" y2="104.5"/><line class="cls-87" x1="87.9" y1="104.5" x2="87.9" y2="124"/><line class="cls-86" x1="87.9" y1="124" x2="87.9" y2="209"/><line class="cls-87" x1="87.9" y1="228" x2="87.9" y2="625"/><line class="cls-87" x1="109.5" y1="22" x2="109.5" y2="209"/><line class="cls-87" x1="109.5" y1="228" x2="109.5" y2="625"/><line class="cls-87" x1="131.1" y1="22" x2="131.1" y2="206"/><line class="cls-86" x1="131.1" y1="206" x2="131.1" y2="231"/><line class="cls-87" x1="131.1" y1="231" x2="131.1" y2="625"/><line class="cls-87" x1="152.7" y1="22" x2="152.7" y2="625"/><line class="cls-86" x1="174.3" x2="174.3" y2="25"/><line class="cls-87" x1="174.3" y1="25" x2="174.3" y2="625"/><line class="cls-87" x1="195.9" x2="195.9" y2="625"/><line class="cls-87" x1="217.5" x2="217.5" y2="600"/><line class="cls-86" x1="217.5" y1="600" x2="217.5" y2="625"/><line class="cls-87" x1="239.1" x2="239.1" y2="474"/><line class="cls-86" x1="239.1" y1="474" x2="239.1" y2="499"/><line class="cls-87" x1="239.1" y1="499" x2="239.1" y2="603"/><line class="cls-87" x1="260.7" x2="260.7" y2="477"/><line class="cls-87" x1="260.7" y1="496" x2="260.7" y2="603"/><line class="cls-86" x1="282.3" x2="282.3" y2="209"/><line class="cls-87" x1="282.3" y1="209" x2="282.3" y2="477"/><line class="cls-87" x1="282.3" y1="496" x2="282.3" y2="603"/><line class="cls-87" x1="303.9" y1="206" x2="303.9" y2="477"/><line class="cls-87" x1="303.9" y1="496" x2="303.9" y2="603"/><line class="cls-87" x1="325.5" y1="206" x2="325.5" y2="477"/><line class="cls-87" x1="325.5" y1="496" x2="325.5" y2="603"/><line class="cls-87" x1="347.1" y1="206" x2="347.1" y2="332"/><line class="cls-86" x1="347.1" y1="332" x2="347.1" y2="477"/><line class="cls-87" x1="347.1" y1="496" x2="347.1" y2="603"/><line class="cls-87" x1="368.7" y1="206" x2="368.7" y2="335"/><line class="cls-87" x1="368.7" y1="496" x2="368.7" y2="603"/><line class="cls-87" x1="390.3" y1="206" x2="390.3" y2="335"/><line class="cls-87" x1="390.3" y1="496" x2="390.3" y2="603"/><line class="cls-86" x1="172.8" y1="1.5" x2="283.8" y2="1.5"/><line class="cls-86" y1="23.5" x2="175.8" y2="23.5"/><line class="cls-87" x1="175.8" y1="23.5" x2="283.8" y2="23.5"/><line class="cls-87" y1="44.5" x2="283.8" y2="44.5"/><line class="cls-87" y1="64.5" x2="283.8" y2="64.5"/><line class="cls-87" y1="84.5" x2="283.8" y2="84.5"/><line class="cls-87" y1="104.5" x2="87.9" y2="104.5"/><line class="cls-87" x1="87.9" y1="104.5" x2="283.8" y2="104.5"/><line class="cls-86" y1="125.5" x2="89.4" y2="125.5"/><line class="cls-87" x1="89.4" y1="125.5" x2="283.8" y2="125.5"/><line class="cls-87" x1="86.4" y1="146.5" x2="283.8" y2="146.5"/><line class="cls-87" x1="86.4" y1="166.5" x2="283.8" y2="166.5"/><line class="cls-87" x1="86.4" y1="186.5" x2="283.8" y2="186.5"/><line class="cls-86" x1="86.4" y1="207.5" x2="132.6" y2="207.5"/><line class="cls-87" x1="132.6" y1="207.5" x2="280.8" y2="207.5"/><line class="cls-86" x1="280.8" y1="207.5" x2="413.4" y2="207.5"/><line class="cls-86" x1="64.8" y1="229.5" x2="132.6" y2="229.5"/><line class="cls-87" x1="132.6" y1="229.5" x2="413.4" y2="229.5"/><line class="cls-87" x1="64.8" y1="250.5" x2="413.4" y2="250.5"/><line class="cls-87" x1="64.8" y1="270.5" x2="413.4" y2="270.5"/><line class="cls-87" x1="64.8" y1="290.5" x2="413.4" y2="290.5"/><line class="cls-86" x1="43.2" y1="311.5" x2="67.8" y2="311.5"/><line class="cls-87" x1="67.8" y1="311.5" x2="413.4" y2="311.5"/><line class="cls-87" x1="43.2" y1="333.5" x2="345.6" y2="333.5"/><line class="cls-86" x1="345.6" y1="333.5" x2="413.4" y2="333.5"/><line class="cls-87" x1="43.2" y1="354.5" x2="348.6" y2="354.5"/><line class="cls-87" x1="43.2" y1="374.5" x2="348.6" y2="374.5"/><line class="cls-87" x1="43.2" y1="394.5" x2="348.6" y2="394.5"/><line class="cls-87" x1="43.2" y1="414.5" x2="348.6" y2="414.5"/><line class="cls-87" x1="43.2" y1="434.5" x2="348.6" y2="434.5"/><line class="cls-87" x1="43.2" y1="454.5" x2="348.6" y2="454.5"/><line class="cls-87" x1="43.2" y1="475.5" x2="217.5" y2="475.5"/><line class="cls-87" x1="217.5" y1="475.5" x2="237.6" y2="475.5"/><line class="cls-86" x1="237.6" y1="475.5" x2="348.6" y2="475.5"/><line class="cls-87" x1="43.2" y1="497.5" x2="237.6" y2="497.5"/><line class="cls-86" x1="237.6" y1="497.5" x2="413.4" y2="497.5"/><line class="cls-86" x1="21.6" y1="519.5" x2="46.2" y2="519.5"/><line class="cls-87" x1="46.2" y1="519.5" x2="413.4" y2="519.5"/><line class="cls-87" x1="21.6" y1="540.5" x2="44.7" y2="540.5"/><line class="cls-87" x1="44.7" y1="540.5" x2="413.4" y2="540.5"/><line class="cls-87" x1="21.6" y1="560.5" x2="44.7" y2="560.5"/><line class="cls-87" x1="44.7" y1="560.5" x2="413.4" y2="560.5"/><line class="cls-87" x1="21.6" y1="580.5" x2="44.7" y2="580.5"/><line class="cls-87" x1="44.7" y1="580.5" x2="413.4" y2="580.5"/><line class="cls-86" x1="21.6" y1="601.5" x2="67.8" y2="601.5"/><line class="cls-87" x1="67.8" y1="601.5" x2="87.9" y2="601.5"/><line class="cls-87" x1="87.9" y1="601.5" x2="216" y2="601.5"/><line class="cls-86" x1="216" y1="601.5" x2="413.4" y2="601.5"/><line class="cls-86" x1="411.9" y1="206" x2="411.9" y2="335"/><line class="cls-86" x1="411.9" y1="496" x2="411.9" y2="603"/><line class="cls-86" x1="64.8" y1="623.5" x2="219" y2="623.5"/></g></g></g></svg>